<svg width="24" height="24" viewBox="0 0 24 24" fill="none" xmlns="http://www.w3.org/2000/svg">
<path fill-rule="evenodd" clip-rule="evenodd" d="M4.49307 3.79415C4.57441 3.76494 4.66018 3.75 4.7466 3.75H19.2534C19.3398 3.75 19.4256 3.76494 19.5069 3.79415C19.7775 3.89133 20.0212 4.05009 20.2199 4.25687C20.4187 4.46358 20.5673 4.71283 20.6559 4.98493C20.7445 5.25699 20.7709 5.54568 20.7336 5.82924C20.6962 6.11281 20.5958 6.38494 20.4391 6.62468C20.419 6.65544 20.3967 6.68469 20.3723 6.71217L14.9818 12.7849V20.5C14.9818 20.7856 14.8196 21.0465 14.5634 21.1727C14.3072 21.299 14.0015 21.2688 13.7749 21.0948L9.31132 17.6662C9.12651 17.5243 9.01818 17.3045 9.01818 17.0714V12.7849L3.62775 6.71217C3.60335 6.68469 3.581 6.65544 3.56089 6.62468C3.40416 6.38494 3.30381 6.11281 3.26645 5.82924C3.22909 5.54569 3.25554 5.257 3.34409 4.98493C3.43265 4.71282 3.58133 4.46357 3.78005 4.25687C3.97883 4.05009 4.2225 3.89133 4.49307 3.79415ZM4.9154 5.25C4.8963 5.26345 4.8782 5.27895 4.8614 5.29642C4.82115 5.33829 4.78959 5.39034 4.77044 5.44917C4.75128 5.50805 4.74541 5.57115 4.7536 5.63331C4.75992 5.68132 4.7744 5.72705 4.79577 5.76847L10.3291 12.0021C10.4509 12.1394 10.5182 12.3165 10.5182 12.5V16.7018L13.4818 18.9782V12.5C13.4818 12.3165 13.5491 12.1394 13.6709 12.0021L19.2042 5.76847C19.2256 5.72704 19.2401 5.68132 19.2464 5.63331C19.2546 5.57116 19.2487 5.50805 19.2296 5.44917C19.2104 5.39034 19.1788 5.33829 19.1386 5.29642C19.1218 5.27895 19.1037 5.26345 19.0846 5.25H4.9154Z" fill="white"/>
</svg>
