<svg width="24" height="24" viewBox="0 0 24 24" fill="none" xmlns="http://www.w3.org/2000/svg">
<path fill-rule="evenodd" clip-rule="evenodd" d="M22.5 21.45L16.05 15C18.9 11.55 18.45 6.30002 15 3.45002C11.55 0.600021 6.30002 1.05002 3.45002 4.50002C0.600021 7.95002 1.05002 13.2 4.50002 16.05C7.50002 18.6 12 18.6 15 16.05L21.45 22.5L22.5 21.45ZM3.00001 9.75001C3.00001 6.00001 6.00001 3.00001 9.75001 3.00001C13.5 3.00001 16.5 6.00001 16.5 9.75001C16.5 13.5 13.5 16.5 9.75001 16.5C6.00001 16.5 3.00001 13.5 3.00001 9.75001Z" fill="white"/>
</svg>
