<svg width="24" height="24" viewBox="0 0 24 24" fill="none" xmlns="http://www.w3.org/2000/svg">
<path fill-rule="evenodd" clip-rule="evenodd" d="M4.5 11.5157V19.5H19.5V11.5157L12 4.10827L4.5 11.5157ZM3.2973 10.5953L11.2973 2.69403C11.6868 2.30934 12.3132 2.30934 12.7027 2.69402L20.7027 10.5953C20.8929 10.7831 21 11.0394 21 11.3067V20C21 20.5523 20.5523 21 20 21H4C3.44772 21 3 20.5523 3 20V11.3067C3 11.0394 3.10707 10.7831 3.2973 10.5953Z" fill="white"/>
<path fill-rule="evenodd" clip-rule="evenodd" d="M13.5 13.5H10.5V19.5H13.5V13.5ZM10.5 12C9.67157 12 9 12.6716 9 13.5V19.5C9 20.3284 9.67157 21 10.5 21H13.5C14.3284 21 15 20.3284 15 19.5V13.5C15 12.6716 14.3284 12 13.5 12H10.5Z" fill="white"/>
</svg>
