<svg width="16" height="16" viewBox="0 0 16 16" fill="none" xmlns="http://www.w3.org/2000/svg">
    <path fill-rule="evenodd" clip-rule="evenodd" d="M7.333 2.5a.167.167 0 0 0-.166.167v4a.167.167 0 0 0 .166.166H12a.5.5 0 0 1 .354.147L13.5 8.126v-5.46a.167.167 0 0 0-.167-.166h-6zm-.825-.658c.22-.22.516-.342.825-.342h6A1.167 1.167 0 0 1 14.5 2.667v6.666a.5.5 0 0 1-.854.354l-1.853-1.854h-4.46a1.167 1.167 0 0 1-1.166-1.166v-4c0-.31.123-.606.341-.825zM2.667 7.167a.167.167 0 0 0-.167.166v5.46l1.146-1.147A.5.5 0 0 1 4 11.5h4.667a.167.167 0 0 0 .166-.167V10a.5.5 0 0 1 1 0v1.333A1.167 1.167 0 0 1 8.667 12.5h-4.46l-1.853 1.854A.5.5 0 0 1 1.5 14V7.333a1.167 1.167 0 0 1 1.167-1.166H4a.5.5 0 1 1 0 1H2.667z" fill="#fff"/>
</svg>
