<svg width="16" height="16" viewBox="0 0 16 16" fill="none" xmlns="http://www.w3.org/2000/svg">
<path fill-rule="evenodd" clip-rule="evenodd" d="M14.3999 10.1L12.9999 8.8V6.5C12.9999 3.9 11.0999 1.8 8.49992 1.5V0.5H7.49992V1.5C4.99992 1.8 2.99992 3.9 2.99992 6.5V8.8L1.59992 10.1C1.49992 10.2 1.39992 10.3 1.49992 10.5V12C1.49992 12.3 1.69992 12.5 1.89992 12.5H5.49992C5.49992 13.9 6.59992 15 7.99992 15C9.39992 15 10.4999 13.9 10.4999 12.5H13.9999C14.2999 12.5 14.4999 12.3 14.4999 12.1V10.5C14.4999 10.4 14.3999 10.2 14.3999 10.1ZM7.99992 14C7.19992 14 6.49992 13.3 6.49992 12.5H9.49992C9.49992 13.3 8.79992 14 7.99992 14ZM13.4999 11.5H2.49992V10.7L3.79992 9.3C3.89992 9.3 3.99992 9.1 3.99992 9V6.5C3.99992 4.3 5.79992 2.5 7.99992 2.5C10.1999 2.5 11.9999 4.3 11.9999 6.5V9C11.9999 9.1 12.0999 9.3 12.0999 9.4L13.4999 10.7V11.5Z" fill="white"/>
</svg>
