<svg width="16" height="16" viewBox="0 0 16 16" fill="none" xmlns="http://www.w3.org/2000/svg">
    <path fill-rule="evenodd" clip-rule="evenodd" d="M3 7.677V13h10V7.677L8 2.74 3 7.677zm-.802-.613 5.334-5.268a.667.667 0 0 1 .936 0l5.334 5.268a.667.667 0 0 1 .198.474v5.795a.667.667 0 0 1-.667.667H2.667A.667.667 0 0 1 2 13.333V7.538c0-.178.071-.35.198-.474z" fill="#fff"/>
    <path fill-rule="evenodd" clip-rule="evenodd" d="M9 9H7v4h2V9zM7 8a1 1 0 0 0-1 1v4a1 1 0 0 0 1 1h2a1 1 0 0 0 1-1V9a1 1 0 0 0-1-1H7z" fill="#fff"/>
</svg>
