<svg width="20" height="20" viewBox="0 0 20 20" fill="none" xmlns="http://www.w3.org/2000/svg">
<path fill-rule="evenodd" clip-rule="evenodd" d="M17.2445 14.7457L11.0826 4.07294C10.6015 3.2396 9.3987 3.2396 8.91757 4.07294L2.75567 14.7457C2.27455 15.579 2.87595 16.6207 3.83821 16.6207H16.162C17.1243 16.6207 17.7257 15.579 17.2445 14.7457ZM12.1652 3.44794C11.2029 1.78127 8.79729 1.78127 7.83504 3.44794L1.67314 14.1207C0.710888 15.7873 1.9137 17.8707 3.83821 17.8707H16.162C18.0865 17.8707 19.2893 15.7873 18.3271 14.1207L12.1652 3.44794Z" fill="white"/>
<path d="M10.7241 12.0901L9.28581 12.0901L9.28581 6.57321L10.7241 6.57321L10.7241 12.0901ZM9.99512 12.9767C10.2447 12.9767 10.4516 13.049 10.6158 13.1935C10.78 13.3445 10.8621 13.535 10.8621 13.7649C10.8621 14.0013 10.78 14.1918 10.6158 14.3362C10.4516 14.4807 10.2447 14.553 9.99512 14.553C9.74555 14.553 9.54195 14.4807 9.38432 14.3362C9.22013 14.1918 9.13804 14.0013 9.13804 13.7649C9.13804 13.535 9.22013 13.3445 9.38432 13.1935C9.54195 13.049 9.74555 12.9767 9.99512 12.9767Z" fill="white"/>
</svg>
