<svg width="16" height="16" viewBox="0 0 16 16" fill="none" xmlns="http://www.w3.org/2000/svg">
<path fill-rule="evenodd" clip-rule="evenodd" d="M3 3H9.66667V5.33333H10.6667V3C10.6667 2.44772 10.219 2 9.66667 2H3C2.44772 2 2 2.44772 2 3V9.66667C2 10.219 2.44772 10.6667 3 10.6667H5.33333V9.66667H3V3Z" fill="white"/>
<path fill-rule="evenodd" clip-rule="evenodd" d="M13 6.33333H6.33333V13H13V6.33333ZM6.33333 5.33333C5.78105 5.33333 5.33333 5.78105 5.33333 6.33333V13C5.33333 13.5523 5.78105 14 6.33333 14H13C13.5523 14 14 13.5523 14 13V6.33333C14 5.78105 13.5523 5.33333 13 5.33333H6.33333Z" fill="white"/>
</svg>
