<svg width="20" height="20" viewBox="0 0 20 20" fill="none" xmlns="http://www.w3.org/2000/svg">
<path fill-rule="evenodd" clip-rule="evenodd" d="M10 17.625C14.2112 17.625 17.625 14.2112 17.625 10C17.625 5.78883 14.2112 2.375 10 2.375C5.78883 2.375 2.375 5.78883 2.375 10C2.375 14.2112 5.78883 17.625 10 17.625ZM10 18.75C14.8325 18.75 18.75 14.8325 18.75 10C18.75 5.16751 14.8325 1.25 10 1.25C5.16751 1.25 1.25 5.16751 1.25 10C1.25 14.8325 5.16751 18.75 10 18.75ZM8.9375 13.935V14.625H8.93099L8.93165 14.6512C8.93458 14.7686 8.93749 14.8852 8.93749 15H7.81249C7.81249 14.9343 7.80928 14.854 7.80559 14.7616C7.79625 14.528 7.78384 14.2175 7.8125 13.8719V6.59833L6.38057 7.91415C6.15183 8.12435 5.79599 8.10932 5.58579 7.88057C5.37559 7.65182 5.39062 7.29599 5.61937 7.08578L7.93187 4.96079C8.14707 4.76303 8.47787 4.76303 8.69307 4.96079L11.0056 7.08578C11.2343 7.29599 11.2494 7.65182 11.0392 7.88057C10.829 8.10932 10.4731 8.12435 10.2444 7.91415L8.9375 6.71324V11.6219C9.74989 10.9747 11.0546 10.5894 13.0873 10.6065L11.9609 9.3806C11.7507 9.15186 11.7657 8.79602 11.9945 8.58582C12.2232 8.37562 12.579 8.39065 12.7892 8.6194L14.9142 10.9319C15.112 11.1471 15.112 11.4779 14.9142 11.6931L12.7892 14.0056C12.579 14.2344 12.2232 14.2494 11.9945 14.0392C11.7657 13.829 11.7507 13.4731 11.9609 13.2444L13.347 11.7359C10.8468 11.6699 9.80429 12.2317 9.35722 12.7781C9.06802 13.1315 8.96794 13.5285 8.9375 13.935Z" fill="white"/>
</svg>
