<svg width="16" height="16" viewBox="0 0 16 16" fill="none" xmlns="http://www.w3.org/2000/svg">
<path fill-rule="evenodd" clip-rule="evenodd" d="M13.7957 11.7965L8.86616 3.25836C8.48126 2.59169 7.51901 2.5917 7.13411 3.25836L2.20458 11.7965C1.81969 12.4632 2.30081 13.2965 3.07061 13.2965H12.9297C13.6995 13.2965 14.1806 12.4632 13.7957 11.7965ZM9.73218 2.75836C8.96238 1.42503 7.03788 1.42503 6.26808 2.75836L1.33856 11.2965C0.568759 12.6299 1.53101 14.2965 3.07061 14.2965H12.9297C14.4693 14.2965 15.4315 12.6299 14.6617 11.2965L9.73218 2.75836Z" fill="white"/>
<path d="M8.57936 9.67208L7.4287 9.67208L7.4287 5.25858L8.57936 5.25858L8.57936 9.67208ZM7.99615 10.3814C8.19581 10.3814 8.36131 10.4392 8.49267 10.5548C8.62402 10.6756 8.6897 10.828 8.6897 11.0119C8.6897 11.201 8.62402 11.3534 8.49267 11.469C8.36131 11.5846 8.19581 11.6424 7.99615 11.6424C7.79649 11.6424 7.63361 11.5846 7.50751 11.469C7.37615 11.3534 7.31048 11.201 7.31048 11.0119C7.31048 10.828 7.37615 10.6756 7.50751 10.5548C7.63361 10.4392 7.79649 10.3814 7.99615 10.3814Z" fill="white"/>
</svg>
