<svg width="24" height="24" viewBox="0 0 24 24" fill="none" xmlns="http://www.w3.org/2000/svg">
<path fill-rule="evenodd" clip-rule="evenodd" d="M18.5 3.5H5.5V20.5H18.5V3.5ZM5.5 2C4.67157 2 4 2.67157 4 3.5V20.5C4 21.3284 4.67157 22 5.5 22H18.5C19.3284 22 20 21.3284 20 20.5V3.5C20 2.67157 19.3284 2 18.5 2H5.5Z" fill="white"/>
<path fill-rule="evenodd" clip-rule="evenodd" d="M7.75 12C7.75 11.5858 8.08579 11.25 8.5 11.25H15.5C15.9142 11.25 16.25 11.5858 16.25 12C16.25 12.4142 15.9142 12.75 15.5 12.75H8.5C8.08579 12.75 7.75 12.4142 7.75 12Z" fill="white"/>
<path fill-rule="evenodd" clip-rule="evenodd" d="M7.75 8C7.75 7.58579 8.08579 7.25 8.5 7.25L13.5 7.25C13.9142 7.25 14.25 7.58579 14.25 8C14.25 8.41421 13.9142 8.75 13.5 8.75L8.5 8.75C8.08579 8.75 7.75 8.41421 7.75 8Z" fill="white"/>
<path fill-rule="evenodd" clip-rule="evenodd" d="M7.75 16C7.75 15.5858 8.08579 15.25 8.5 15.25L13.5 15.25C13.9142 15.25 14.25 15.5858 14.25 16C14.25 16.4142 13.9142 16.75 13.5 16.75L8.5 16.75C8.08579 16.75 7.75 16.4142 7.75 16Z" fill="white"/>
</svg>
