<svg width="32" height="32" fill="none" xmlns="http://www.w3.org/2000/svg">
    <path fill-rule="evenodd" clip-rule="evenodd" d="m21.61 11.16 7.73 2.78a1 1 0 0 1 .66.94V22a1 1 0 0 1-1 1h-2.14a4 4 0 0 1-7.72 0h-6.28a4 4 0 0 1-7.72 0H3a1 1 0 0 1-1-1v-7.89a5 5 0 0 1 .87-2.79l2.71-4A3 3 0 0 1 8.05 6h8a3 3 0 0 1 2.32 1.1l3.24 4.06zM7.889 23.663a2 2 0 1 0 2.222-3.325 2 2 0 0 0-2.222 3.325zm14 0a2 2 0 1 0 2.222-3.325 2 2 0 0 0-2.222 3.325zM26.86 21H28v-5.42l-7.33-2.63a1.09 1.09 0 0 1-.44-.32l-3.4-4.27a1 1 0 0 0-.77-.36h-8a1 1 0 0 0-.83.42l-2.71 4A3 3 0 0 0 4 14.11V21h1.14a4 4 0 0 1 7.72 0h6.28a4 4 0 0 1 7.72 0zM15.499 10.555a1 1 0 1 0-1.664-1.11l-2.667 4A1 1 0 0 0 12 15h2.132l-1.63 2.445a1 1 0 1 0 1.663 1.11l2.667-4A1 1 0 0 0 16 13h-2.132l1.63-2.445z" fill="#000"/>
</svg>
