<svg width="20" height="20" viewBox="0 0 20 20" fill="none" xmlns="http://www.w3.org/2000/svg">
<path fill-rule="evenodd" clip-rule="evenodd" d="M14.3751 12.5C13.4275 12.5048 12.5332 12.9393 11.9438 13.6813L7.37505 10.825C7.54156 10.2876 7.54156 9.71241 7.37505 9.17501L11.9438 6.31876C12.9013 7.50436 14.5743 7.82642 15.9035 7.08103C17.2327 6.33563 17.8304 4.74017 17.3181 3.30491C16.8059 1.86965 15.3331 1.01319 13.8323 1.27785C12.3315 1.54251 11.2405 2.8511 11.2501 4.37501C11.253 4.6545 11.2951 4.9322 11.3751 5.20001L6.8063 8.05626C5.97959 7.01553 4.58502 6.61161 3.33006 7.0494C2.0751 7.48718 1.23438 8.67088 1.23438 10C1.23437 11.3291 2.0751 12.5128 3.33006 12.9506C4.58502 13.3884 5.97959 12.9845 6.8063 11.9438L11.3751 14.8C11.2951 15.0678 11.253 15.3455 11.2501 15.625C11.2501 17.3509 12.6492 18.75 14.3751 18.75C16.1009 18.75 17.5001 17.3509 17.5001 15.625C17.5001 13.8991 16.1009 12.5 14.3751 12.5ZM14.375 2.49999C15.4106 2.49999 16.25 3.33946 16.25 4.37499C16.25 5.41053 15.4106 6.24999 14.375 6.24999C13.3395 6.24999 12.5 5.41053 12.5 4.37499C12.5 3.33946 13.3395 2.49999 14.375 2.49999ZM4.37503 11.875C3.3395 11.875 2.50003 11.0355 2.50003 9.99999C2.50003 8.96446 3.3395 8.12499 4.37503 8.12499C5.41057 8.12499 6.25003 8.96446 6.25003 9.99999C6.25003 11.0355 5.41057 11.875 4.37503 11.875ZM14.375 17.5C13.3395 17.5 12.5 16.6605 12.5 15.625C12.5 14.5895 13.3395 13.75 14.375 13.75C15.4106 13.75 16.25 14.5895 16.25 15.625C16.25 16.6605 15.4106 17.5 14.375 17.5Z" fill="white"/>
</svg>
