<svg width="20" height="20" viewBox="0 0 20 20" fill="none" xmlns="http://www.w3.org/2000/svg">
<path fill-rule="evenodd" clip-rule="evenodd" d="M10.625 5.625C10.625 3.89911 9.22589 2.5 7.5 2.5C5.77411 2.5 4.375 3.89911 4.375 5.625C4.375 7.35089 5.77411 8.75 7.5 8.75C9.22589 8.75 10.625 7.35089 10.625 5.625ZM3.125 5.625C3.125 3.20875 5.08375 1.25 7.5 1.25C9.91625 1.25 11.875 3.20875 11.875 5.625C11.875 8.04125 9.91625 10 7.5 10C5.08375 10 3.125 8.04125 3.125 5.625ZM12.5 18.75H13.75V15.625C13.75 13.2088 11.7912 11.25 9.375 11.25H5.625C3.20875 11.25 1.25 13.2088 1.25 15.625V18.75H2.5V15.625C2.5 13.8991 3.89911 12.5 5.625 12.5H9.375C10.2038 12.5 10.9987 12.8292 11.5847 13.4153C12.1708 14.0013 12.5 14.7962 12.5 15.625V18.75ZM12.0564 9.97778L12.0073 9.95473C12.3634 9.58418 12.6741 9.16982 12.9308 8.72055C14.4528 8.51069 15.625 7.20473 15.625 5.625C15.625 4.04527 14.4528 2.73931 12.9308 2.52945C12.6704 2.07367 12.3543 1.65382 11.9918 1.2792C12.1585 1.25991 12.3281 1.25 12.5 1.25C14.9162 1.25 16.875 3.20875 16.875 5.625C16.875 8.04125 14.9162 10 12.5 10C12.3502 10 12.2022 9.99248 12.0564 9.97778ZM16.5847 13.4153C16.1012 12.9318 15.4756 12.6231 14.806 12.5299C14.5388 12.062 14.2129 11.6321 13.8384 11.25H14.375C16.7912 11.25 18.75 13.2088 18.75 15.625V18.75H17.5V15.625C17.5 14.7962 17.1708 14.0013 16.5847 13.4153Z" fill="white"/>
</svg>
