<svg width="24" height="24" viewBox="0 0 24 24" fill="none" xmlns="http://www.w3.org/2000/svg">
    <path fill-rule="evenodd" clip-rule="evenodd" d="M12 20.5a8.5 8.5 0 1 0 0-17 8.5 8.5 0 0 0 0 17zm0 1.5c5.523 0 10-4.477 10-10S17.523 2 12 2 2 6.477 2 12s4.477 10 10 10z" fill="#fff"/>
    <path fill-rule="evenodd" clip-rule="evenodd" d="M10.5 6.25a.75.75 0 0 1 .75.75v10a.75.75 0 0 1-1.5 0V7a.75.75 0 0 1 .75-.75z" fill="#fff"/>
    <path fill-rule="evenodd" clip-rule="evenodd" d="M9.97 6.47a.75.75 0 0 1 1.06 0l2 2a.75.75 0 0 1-1.06 1.06L10.5 8.06 9.03 9.53a.75.75 0 0 1-1.06-1.06l2-2zM18.03 12.47a.75.75 0 0 1 0 1.06l-2 2a.75.75 0 1 1-1.06-1.06L16.44 13l-1.47-1.47a.75.75 0 1 1 1.06-1.06l2 2z" fill="#fff"/>
    <path fill-rule="evenodd" clip-rule="evenodd" d="M9.75 17a4.75 4.75 0 0 1 4.75-4.75h3a.75.75 0 0 1 0 1.5h-3A3.25 3.25 0 0 0 11.25 17h-1.5z" fill="#fff"/>
</svg>
