<svg width="24" height="24" viewBox="0 0 24 24" fill="none" xmlns="http://www.w3.org/2000/svg">
<path fill-rule="evenodd" clip-rule="evenodd" d="M6.55408 16.25C5.86372 16.25 5.30408 16.8096 5.30408 17.5C5.30408 18.1904 5.86372 18.75 6.55408 18.75C7.24443 18.75 7.80408 18.1904 7.80408 17.5C7.80408 16.8096 7.24443 16.25 6.55408 16.25ZM3.80408 17.5C3.80408 15.9812 5.03529 14.75 6.55408 14.75C8.07286 14.75 9.30408 15.9812 9.30408 17.5C9.30408 19.0188 8.07286 20.25 6.55408 20.25C5.03529 20.25 3.80408 19.0188 3.80408 17.5Z" fill="white"/>
<path fill-rule="evenodd" clip-rule="evenodd" d="M16.8243 16.25C16.134 16.25 15.5743 16.8096 15.5743 17.5C15.5743 18.1904 16.134 18.75 16.8243 18.75C17.5147 18.75 18.0743 18.1904 18.0743 17.5C18.0743 16.8096 17.5147 16.25 16.8243 16.25ZM14.0743 17.5C14.0743 15.9812 15.3056 14.75 16.8243 14.75C18.3431 14.75 19.5743 15.9812 19.5743 17.5C19.5743 19.0188 18.3431 20.25 16.8243 20.25C15.3056 20.25 14.0743 19.0188 14.0743 17.5Z" fill="white"/>
<path fill-rule="evenodd" clip-rule="evenodd" d="M4.3124 5.20048C4.43158 4.9269 4.70159 4.75 5 4.75H14C14.2527 4.75 14.4884 4.87726 14.6271 5.08855L17.5074 9.47829L21.8087 11.4206C22.0773 11.5419 22.25 11.8093 22.25 12.1041V17.5C22.25 17.9142 21.9142 18.25 21.5 18.25H18.9324C18.5182 18.25 18.1824 17.9142 18.1824 17.5C18.1824 17.0858 18.5182 16.75 18.9324 16.75H20.75V12.5884L16.6913 10.7556C16.5615 10.697 16.4511 10.6026 16.3729 10.4835L13.5951 6.25H5.49136L3.25 11.3954V16.75H4.55405C4.96827 16.75 5.30408 17.0858 5.30408 17.5C5.30408 17.9142 4.96827 18.25 4.55405 18.25H2.5C2.08579 18.25 1.75 17.9142 1.75 17.5V11.2391C1.75 11.1361 1.77124 11.0341 1.8124 10.9396L4.3124 5.20048ZM7.91216 17.5C7.91216 17.0858 8.24795 16.75 8.66216 16.75H14.8243C15.2385 16.75 15.5743 17.0858 15.5743 17.5C15.5743 17.9142 15.2385 18.25 14.8243 18.25H8.66216C8.24795 18.25 7.91216 17.9142 7.91216 17.5Z" fill="white"/>
<path fill-rule="evenodd" clip-rule="evenodd" d="M11.6863 8.33824C12.0518 8.53316 12.19 8.98746 11.9951 9.35294L11.25 10.75H12C12.2634 10.75 12.5076 10.8882 12.6431 11.1141C12.7787 11.34 12.7857 11.6205 12.6618 11.8529L11.3284 14.3529C11.1335 14.7184 10.6792 14.8567 10.3137 14.6618C9.94824 14.4668 9.80998 14.0125 10.0049 13.6471L10.75 12.25H10C9.73655 12.25 9.49242 12.1118 9.35688 11.8859C9.22134 11.66 9.21426 11.3795 9.33823 11.1471L10.6716 8.64706C10.8665 8.28158 11.3208 8.14331 11.6863 8.33824Z" fill="white"/>
</svg>
