<svg width="24" height="24" viewBox="0 0 24 24" fill="none" xmlns="http://www.w3.org/2000/svg">
<path fill-rule="evenodd" clip-rule="evenodd" d="M12 11.5C12.8284 11.5 13.5 10.8284 13.5 10C13.5 9.17157 12.8284 8.5 12 8.5C11.1716 8.5 10.5 9.17157 10.5 10C10.5 10.8284 11.1716 11.5 12 11.5ZM12 13C13.6569 13 15 11.6569 15 10C15 8.34315 13.6569 7 12 7C10.3431 7 9 8.34315 9 10C9 11.6569 10.3431 13 12 13Z" fill="white"/>
<path fill-rule="evenodd" clip-rule="evenodd" d="M15.4736 17.4493C17.1336 15.3835 18.5 12.6509 18.5 9.77778C18.5 6.35021 15.63 3.5 12 3.5C8.37004 3.5 5.5 6.35021 5.5 9.77778C5.5 12.6509 6.86637 15.3835 8.52641 17.4493C9.34832 18.4721 10.2065 19.2857 10.9288 19.8293C11.2911 20.102 11.5961 20.2893 11.8251 20.4018C11.9019 20.4395 11.9597 20.4636 12 20.4789C12.0403 20.4636 12.0981 20.4395 12.1749 20.4018C12.4039 20.2893 12.7089 20.102 13.0712 19.8293C13.7935 19.2857 14.6517 18.4721 15.4736 17.4493ZM12 22C13.7143 22 20 16.4444 20 9.77778C20 5.48223 16.4183 2 12 2C7.58172 2 4 5.48223 4 9.77778C4 16.4444 10.2857 22 12 22Z" fill="white"/>
</svg>
