<svg width="24" height="24" viewBox="0 0 24 24" fill="none" xmlns="http://www.w3.org/2000/svg">
    <path fill-rule="evenodd" clip-rule="evenodd" d="M21.53 3.53a.75.75 0 0 0-1.06-1.06l-18 18a.75.75 0 1 0 1.06 1.06l3.078-3.077c1.686.894 3.544 1.297 5.392 1.297 3.592 0 7.221-1.524 9.551-5.211a4.763 4.763 0 0 0 0-5.078c-.813-1.286-1.783-2.31-2.855-3.096L21.53 3.53zm-3.91 3.91L15.31 9.753a4 4 0 0 1-5.557 5.557l-2.026 2.026c1.345.629 2.806.915 4.274.915 3.15 0 6.265-1.318 8.283-4.512a3.263 3.263 0 0 0 0-3.476c-.753-1.192-1.66-2.123-2.663-2.821zm-6.776 6.777a2.5 2.5 0 0 0 3.373-3.373l-3.373 3.373z" fill="#fff"/>
    <path d="M12 4.25c1.186 0 2.376.166 3.522.521l-1.225 1.225A10.61 10.61 0 0 0 12 5.75c-3.15 0-6.265 1.318-8.283 4.512a3.263 3.263 0 0 0 0 3.476c.377.597.793 1.128 1.24 1.598l-1.061 1.061a11.761 11.761 0 0 1-1.447-1.858 4.763 4.763 0 0 1 0-5.078C4.779 5.774 8.408 4.25 12 4.25z" fill="#fff"/>
    <path d="M12 8c.095 0 .19.003.283.01L8.01 12.283A4 4 0 0 1 12 8z" fill="#fff"/>
</svg>
