<svg width="20" height="20" viewBox="0 0 20 20" fill="none" xmlns="http://www.w3.org/2000/svg">
<path fill-rule="evenodd" clip-rule="evenodd" d="M7.66059 2.89721C7.47881 2.87743 7.29001 2.93722 7.15065 3.07658L4.55806 5.66917C4.31398 5.91325 4.31398 6.30898 4.55806 6.55306C4.80214 6.79714 5.19786 6.79714 5.44194 6.55306L6.96777 5.02723L6.96777 16.4792V16.4815C6.96777 16.8267 7.2476 17.1065 7.59277 17.1065C7.93795 17.1065 8.21777 16.8267 8.21777 16.4815V16.4794C8.21891 13.9619 10.2601 11.9213 12.778 11.9213H15.1578L13.6321 13.447C13.3881 13.6911 13.3881 14.0868 13.6321 14.3309C13.8762 14.575 14.2719 14.575 14.516 14.3309L17.0997 11.7472C17.2181 11.6335 17.2918 11.4735 17.2918 11.2963C17.2918 11.1192 17.2182 10.9593 17.0998 10.8456L14.516 8.26181C14.2719 8.01773 13.8762 8.01773 13.6321 8.26181C13.3881 8.50589 13.3881 8.90162 13.6321 9.14569L15.1578 10.6713H12.778C10.9291 10.6713 9.28189 11.5349 8.21777 12.8807V5.02759L9.74324 6.55306C9.98732 6.79714 10.383 6.79714 10.6271 6.55306C10.8712 6.30898 10.8712 5.91325 10.6271 5.66917L8.04224 3.08429C8.00903 3.04992 7.97191 3.01936 7.9316 2.9933C7.91433 2.98213 7.89663 2.9719 7.87857 2.9626C7.81198 2.9283 7.73843 2.90561 7.66059 2.89721Z" fill="white"/>
</svg>
