<svg width="24" height="24" viewBox="0 0 24 24" fill="none" xmlns="http://www.w3.org/2000/svg">
<path fill-rule="evenodd" clip-rule="evenodd" d="M10.7128 6.37919L12.7887 4.30337C14.546 2.54601 17.3953 2.54601 19.1526 4.30337C20.91 6.06073 20.91 8.90997 19.1526 10.6673L17.0768 12.7431L18.1375 13.8038L20.2133 11.728C22.5564 9.38485 22.5564 5.58586 20.2133 3.24271C17.8701 0.899565 14.0711 0.899565 11.728 3.24271L9.65217 5.31853L10.7128 6.37919ZM6.43765 10.6544L5.37699 9.59371L3.24271 11.728C0.899565 14.0711 0.899565 17.8701 3.24271 20.2133C5.58586 22.5564 9.38485 22.5564 11.728 20.2133L13.8623 18.079L12.8016 17.0183L10.6673 19.1526C8.90997 20.91 6.06073 20.91 4.30337 19.1526C2.54601 17.3953 2.54601 14.546 4.30337 12.7887L6.43765 10.6544Z" fill="white"/>
<path fill-rule="evenodd" clip-rule="evenodd" d="M18.1423 19.1421L4.00013 4.99999L5.06079 3.93933L19.2029 18.0815L18.1423 19.1421Z" fill="white"/>
</svg>
