<svg width="20" height="20" viewBox="0 0 20 20" fill="none" xmlns="http://www.w3.org/2000/svg">
<path fill-rule="evenodd" clip-rule="evenodd" d="M10.3812 1.38125C10.1541 1.20175 9.8334 1.20175 9.60625 1.38125L0.625 8.3875L1.4 9.375L2.5 8.5125V16.25C2.5 16.9404 3.05964 17.5 3.75 17.5H16.25C16.9404 17.5 17.5 16.9404 17.5 16.25V8.51875L18.6 9.375L19.375 8.39375L10.3812 1.38125ZM11.25 16.25H8.75V11.25H11.25V16.25ZM12.5 16.25V11.25C12.5 10.5596 11.9404 10 11.25 10H8.75C8.05964 10 7.5 10.5596 7.5 11.25V16.25H3.75V7.5375L10 2.66875L16.25 7.54375V16.25H12.5Z" fill="white"/>
</svg>
