<svg width="20" height="20" viewBox="0 0 20 20" fill="none" xmlns="http://www.w3.org/2000/svg">
<path fill-rule="evenodd" clip-rule="evenodd" d="M9.99999 17.0833C13.912 17.0833 17.0833 13.912 17.0833 9.99999C17.0833 6.08797 13.912 2.91666 9.99999 2.91666C6.08797 2.91666 2.91666 6.08797 2.91666 9.99999C2.91666 13.912 6.08797 17.0833 9.99999 17.0833ZM9.99999 18.3333C14.6024 18.3333 18.3333 14.6024 18.3333 9.99999C18.3333 5.39762 14.6024 1.66666 9.99999 1.66666C5.39762 1.66666 1.66666 5.39762 1.66666 9.99999C1.66666 14.6024 5.39762 18.3333 9.99999 18.3333Z" fill="white"/>
<path fill-rule="evenodd" clip-rule="evenodd" d="M9.99999 4.37499C10.3452 4.37499 10.625 4.65481 10.625 4.99999V9.74111L13.3586 12.4747C13.6027 12.7188 13.6027 13.1145 13.3586 13.3586C13.1145 13.6027 12.7188 13.6027 12.4747 13.3586L9.55805 10.4419C9.44084 10.3247 9.37499 10.1657 9.37499 9.99999V4.99999C9.37499 4.65481 9.65481 4.37499 9.99999 4.37499Z" fill="white"/>
</svg>
