<svg width="32" height="32" viewBox="0 0 32 32" fill="none" xmlns="http://www.w3.org/2000/svg">
    <path fill-rule="evenodd" clip-rule="evenodd" d="M4.333 14.667a1 1 0 0 1 1-1h21.334a1 1 0 1 1 0 2H5.333a1 1 0 0 1-1-1zM21.333 3a1 1 0 0 1 1 1v5.333a1 1 0 1 1-2 0V4a1 1 0 0 1 1-1zM10.667 3a1 1 0 0 1 1 1v5.333a1 1 0 1 1-2 0V4a1 1 0 0 1 1-1z" fill="#fff"/>
    <path fill-rule="evenodd" clip-rule="evenodd" d="M26 7.333H6V26h20V7.333zm-20-2a2 2 0 0 0-2 2V26a2 2 0 0 0 2 2h20a2 2 0 0 0 2-2V7.333a2 2 0 0 0-2-2H6z" fill="#fff"/>
</svg>
