<svg width="32" height="32" viewBox="0 0 32 32" fill="none" xmlns="http://www.w3.org/2000/svg">
<path fill-rule="evenodd" clip-rule="evenodd" d="M18.7462 4.30174C19.5797 3.46825 20.7102 3 21.8889 3C23.0676 3 24.1981 3.46825 25.0316 4.30174C25.8651 5.13522 26.3333 6.26568 26.3333 7.44441C26.3333 8.62313 25.8651 9.75359 25.0316 10.5871L12.2449 23.3738C12.0573 23.5613 11.803 23.6667 11.5378 23.6667H6.66665C6.11436 23.6667 5.66665 23.219 5.66665 22.6667V17.7955C5.66665 17.5303 5.772 17.276 5.95954 17.0884L18.7462 4.30174ZM21.8889 5C21.2406 5 20.6189 5.25754 20.1605 5.71595L7.66665 18.2098V21.6667H11.1236L23.6174 9.17286C24.0758 8.71445 24.3333 8.0927 24.3333 7.44441C24.3333 6.79611 24.0758 6.17436 23.6174 5.71595C23.159 5.25753 22.5372 5 21.8889 5Z" fill="white"/>
<path fill-rule="evenodd" clip-rule="evenodd" d="M18.404 6.40412C18.7945 6.0136 19.4277 6.0136 19.8182 6.40412L22.9293 9.51523C23.3198 9.90576 23.3198 10.5389 22.9293 10.9294C22.5388 11.32 21.9056 11.32 21.5151 10.9294L18.404 7.81833C18.0134 7.42781 18.0134 6.79465 18.404 6.40412Z" fill="white"/>
<path fill-rule="evenodd" clip-rule="evenodd" d="M4.33331 28C4.33331 27.4477 4.78103 27 5.33331 27H26.6666C27.2189 27 27.6666 27.4477 27.6666 28C27.6666 28.5523 27.2189 29 26.6666 29H5.33331C4.78103 29 4.33331 28.5523 4.33331 28Z" fill="white"/>
</svg>
