<svg width="20" height="20" viewBox="0 0 20 20" fill="none" xmlns="http://www.w3.org/2000/svg">
<path fill-rule="evenodd" clip-rule="evenodd" d="M3.96015 3.97779C3.96015 2.70116 4.99465 1.66666 6.27129 1.66666C7.07715 1.66666 7.78572 2.08018 8.19848 2.70238L10.057 4.97068L11.9154 2.70249C12.3283 2.07939 13.0364 1.66666 13.8427 1.66666C15.1193 1.66666 16.1538 2.70116 16.1538 3.97779C16.1538 4.45562 16.0089 4.89952 15.7606 5.26795H17.0815C18.233 5.26795 19.1666 6.20149 19.1666 7.35307V8.13991C19.1666 9.14099 18.4611 9.97729 17.5202 10.1788V15.1025C17.5202 16.6046 16.3871 17.8939 14.905 17.8939H5.09542C3.61327 17.8939 2.48019 16.6046 2.48019 15.1025V10.1789C1.539 9.97763 0.833252 9.14119 0.833252 8.13991V7.35307C0.833252 6.20149 1.76679 5.26795 2.91837 5.26795H4.35336C4.10507 4.89952 3.96015 4.45562 3.96015 3.97779ZM7.52831 6.29084H2.91837C2.33172 6.29084 1.85614 6.76642 1.85614 7.35307V8.13991C1.85614 8.72657 2.33172 9.20215 2.91837 9.20215H3.01708V9.17582H7.52831V6.29084ZM17.3175 9.17582C17.7906 9.06848 18.1437 8.64543 18.1437 8.13991V7.35307C18.1437 6.76642 17.6681 6.29084 17.0815 6.29084H12.4714V9.17582H17.3175ZM8.5512 6.29084H11.4485V9.17582H8.5512V6.29084ZM3.50308 10.225V15.1025C3.50308 16.1187 4.25409 16.8711 5.09542 16.8711H7.52831V10.225H3.50308ZM8.5512 10.225V16.871H11.4485V10.225H8.5512ZM12.4714 10.225V16.8711H14.905C15.7463 16.8711 16.4973 16.1187 16.4973 15.1025V10.225H12.4714ZM6.27129 2.68955C5.55958 2.68955 4.98304 3.26608 4.98304 3.97779C4.98304 4.68951 5.55958 5.26604 6.27129 5.26604H8.97661L7.37138 3.30688L7.35556 3.28231C7.12524 2.92479 6.72522 2.68955 6.27129 2.68955ZM12.7586 3.28207C12.9888 2.92432 13.388 2.68955 13.8427 2.68955C14.5544 2.68955 15.1309 3.26608 15.1309 3.97779C15.1309 4.68951 14.5544 5.26604 13.8427 5.26604H11.1374L12.7427 3.30677L12.7586 3.28207Z" fill="white"/>
</svg>
