<svg width="32" height="32" viewBox="0 0 32 32" fill="none" xmlns="http://www.w3.org/2000/svg">
<path fill-rule="evenodd" clip-rule="evenodd" d="M17.2615 5.99176C16.9407 4.66941 15.0593 4.66941 14.7385 5.99176C14.2105 8.16284 11.7291 9.19255 9.81782 8.03046C8.65431 7.32211 7.32338 8.65363 8.03134 9.81574C8.30159 10.2591 8.46336 10.76 8.5035 11.2777C8.54365 11.7955 8.46096 12.3154 8.26218 12.7952C8.06339 13.275 7.75413 13.7011 7.35955 14.0388C6.96504 14.3764 6.4964 14.6162 5.99176 14.7385C4.66941 15.0593 4.66941 16.9407 5.99176 17.2615C6.49606 17.3842 6.96484 17.6242 7.35897 17.9618C7.7531 18.2995 8.062 18.7254 8.26055 19.2049C8.45911 19.6844 8.54172 20.204 8.50166 20.7215C8.46161 21.2389 8.30003 21.7396 8.03005 22.1829C7.32194 23.3463 8.65369 24.6766 9.81574 23.9687C10.2591 23.6984 10.76 23.5366 11.2777 23.4965C11.7955 23.4564 12.3154 23.539 12.7952 23.7378C13.275 23.9366 13.7011 24.2459 14.0388 24.6405C14.3764 25.035 14.6162 25.5036 14.7385 26.0082C15.0593 27.3306 16.9407 27.3306 17.2615 26.0082C17.3842 25.5039 17.6242 25.0352 17.9618 24.641C18.2995 24.2469 18.7254 23.938 19.2049 23.7394C19.6844 23.5409 20.204 23.4583 20.7215 23.4983C21.2389 23.5384 21.7396 23.7 22.1829 23.97C23.3463 24.6781 24.6766 23.3463 23.9687 22.1843C23.6984 21.7409 23.5366 21.24 23.4965 20.7223C23.4564 20.2045 23.539 19.6846 23.7378 19.2048C23.9366 18.725 24.2459 18.2989 24.6405 17.9612C25.035 17.6236 25.5036 17.3838 26.0082 17.2615C27.3306 16.9407 27.3306 15.0593 26.0082 14.7385C25.5039 14.6158 25.0352 14.3758 24.641 14.0382C24.2469 13.7005 23.938 13.2746 23.7394 12.7951C23.5409 12.3156 23.4583 11.796 23.4983 11.2785C23.5384 10.7611 23.7 10.2604 23.97 9.81714C24.6781 8.65367 23.3463 7.32341 22.1843 8.03134C21.7409 8.30159 21.24 8.46336 20.7223 8.5035C20.2045 8.54365 19.6846 8.46096 19.2048 8.26218C18.725 8.06339 18.2989 7.75413 17.9612 7.35955C17.6236 6.96504 17.3838 6.4964 17.2615 5.99176ZM12.795 5.51971C13.6106 2.15992 18.39 2.1601 19.2051 5.52024C19.2533 5.71896 19.3477 5.90377 19.4807 6.05912C19.6136 6.21446 19.7814 6.33622 19.9703 6.41448C20.1592 6.49274 20.3639 6.52529 20.5677 6.50948C20.7716 6.49368 20.9688 6.42996 21.1434 6.32352C24.096 4.52482 27.4765 7.90353 25.6782 10.8574C25.5719 11.0319 25.5081 11.2292 25.4924 11.4329C25.4766 11.6366 25.5091 11.8411 25.5873 12.0299C25.6655 12.2187 25.7871 12.3864 25.9422 12.5193C26.0973 12.6521 26.2814 12.7465 26.4798 12.7949C29.8401 13.6101 29.8401 18.3899 26.4798 19.2051C26.281 19.2533 26.0962 19.3478 25.9409 19.4807C25.7855 19.6136 25.6638 19.7814 25.5855 19.9703C25.5073 20.1592 25.4747 20.3639 25.4905 20.5677C25.5063 20.7716 25.57 20.9688 25.6765 21.1434C27.4752 24.096 24.0965 27.4765 21.1426 25.6782C20.9681 25.5719 20.7708 25.5081 20.5671 25.4924C20.3634 25.4766 20.1589 25.5091 19.9701 25.5873C19.7813 25.6655 19.6136 25.7871 19.4807 25.9422C19.3479 26.0973 19.2535 26.2814 19.2051 26.4798C18.3899 29.8401 13.6101 29.8401 12.7949 26.4798C12.7467 26.281 12.6523 26.0962 12.5193 25.9409C12.3864 25.7855 12.2186 25.6638 12.0297 25.5855C11.8408 25.5073 11.6361 25.4747 11.4323 25.4905C11.2284 25.5063 11.0312 25.57 10.8566 25.6765C7.90403 27.4752 4.52353 24.0965 6.32184 21.1426C6.42813 20.9681 6.49186 20.7708 6.50763 20.5671C6.5234 20.3634 6.49087 20.1588 6.4127 19.9701C6.33453 19.7813 6.21292 19.6136 6.05776 19.4807C5.90273 19.3479 5.71858 19.2535 5.52024 19.2051C2.15992 18.3899 2.15992 13.6101 5.52024 12.7949C5.71896 12.7467 5.90377 12.6523 6.05912 12.5193C6.21446 12.3864 6.33622 12.2186 6.41448 12.0297C6.49274 11.8408 6.52529 11.6361 6.50948 11.4323C6.49368 11.2284 6.42996 11.0312 6.32352 10.8566C4.52492 7.90419 7.90314 4.52392 10.8568 6.32154C11.612 6.78069 12.5867 6.37494 12.795 5.51971Z" fill="white"/>
<path fill-rule="evenodd" clip-rule="evenodd" d="M16 13C14.3431 13 13 14.3431 13 16C13 17.6569 14.3431 19 16 19C17.6569 19 19 17.6569 19 16C19 14.3431 17.6569 13 16 13ZM11 16C11 13.2386 13.2386 11 16 11C18.7614 11 21 13.2386 21 16C21 18.7614 18.7614 21 16 21C13.2386 21 11 18.7614 11 16Z" fill="white"/>
</svg>
