<svg width="32" height="32" viewBox="0 0 32 32" fill="none" xmlns="http://www.w3.org/2000/svg">
<path d="M1.70093 14.2165C1.70235 12.6677 2.3185 11.1823 3.41336 10.0868C4.50822 8.99127 5.99248 8.37499 7.54132 8.37263H13.6155L29.0448 4.18491C29.177 4.14906 29.316 4.14374 29.4504 4.17008C29.5849 4.19641 29.7114 4.25362 29.8203 4.3367C29.9313 4.4199 30.0209 4.52758 30.0829 4.65162C30.1449 4.77565 30.1771 4.91247 30.1771 5.05115V23.3867C30.1771 23.6236 30.0838 23.8507 29.9163 24.0182C29.7487 24.1858 29.5207 24.28 29.2838 24.28C29.2053 24.2802 29.1273 24.2697 29.0518 24.2481L13.6216 20.0582H12.9813L15.0985 27.8461H9.01385L6.86961 19.9854C5.45116 19.8235 4.14183 19.1465 3.18916 18.0832C2.23649 17.0199 1.7066 15.6442 1.70093 14.2165ZM28.3818 6.21792L14.3736 10.0214V18.4182L28.3818 22.2221V6.21792ZM10.3677 26.0486H12.751L11.1215 20.0477H8.73819L10.3677 26.0486ZM7.67567 18.2612H12.587V10.1535H7.6399L7.54132 9.26025V10.1535C7.00874 10.1623 6.48332 10.2761 5.99464 10.4881C5.50597 10.7 5.06347 11.006 4.6931 11.3888C4.32273 11.7716 4.03213 12.2237 3.83645 12.7191C3.64077 13.2145 3.54414 13.7437 3.55294 14.2763C3.56173 14.8088 3.67511 15.3343 3.88705 15.8229C4.09898 16.3116 4.40537 16.7537 4.78818 17.1241C5.17099 17.4944 5.62311 17.7859 6.11852 17.9816C6.61392 18.1773 7.14309 18.2735 7.67567 18.2647V18.2612Z" fill="white"/>
</svg>
