<svg width="20" height="20" viewBox="0 0 20 20" fill="none" xmlns="http://www.w3.org/2000/svg">
<path fill-rule="evenodd" clip-rule="evenodd" d="M16.8872 5.02604C17.1317 5.2697 17.1324 5.66542 16.8888 5.90993L16.0064 6.79534C15.7628 7.03984 15.367 7.04053 15.1225 6.79687C14.878 6.55322 14.8774 6.15749 15.121 5.91299L16.0034 5.02757C16.247 4.78307 16.6427 4.78239 16.8872 5.02604Z" fill="white"/>
<path fill-rule="evenodd" clip-rule="evenodd" d="M15.1186 4.14463C15.3609 3.89878 15.7566 3.89589 16.0024 4.13818L18.6495 6.74687C18.7687 6.86433 18.8358 7.02469 18.8358 7.19203V13.279C18.8358 13.7937 18.6283 14.2854 18.2618 14.6465C17.8957 15.0072 17.4011 15.2083 16.8873 15.2083C16.3734 15.2083 15.8788 15.0072 15.5127 14.6465C15.1463 14.2854 14.9387 13.7937 14.9387 13.279V10.6703C14.9387 10.3778 14.8209 10.0954 14.6082 9.88569C14.3951 9.67572 14.1042 9.55616 13.799 9.55616H12.9167C12.5715 9.55616 12.2917 9.27634 12.2917 8.93116C12.2917 8.58598 12.5715 8.30616 12.9167 8.30616H13.799C14.4299 8.30616 15.0367 8.55305 15.4856 8.99538C15.9347 9.43802 16.1887 10.0403 16.1887 10.6703V13.279C16.1887 13.4562 16.2601 13.628 16.3901 13.7561C16.5204 13.8846 16.6991 13.9583 16.8873 13.9583C17.0754 13.9583 17.2541 13.8846 17.3844 13.7561C17.5144 13.628 17.5858 13.4562 17.5858 13.279V7.45359L15.125 5.02849C14.8792 4.7862 14.8763 4.39048 15.1186 4.14463Z" fill="white"/>
<path fill-rule="evenodd" clip-rule="evenodd" d="M2.70834 3.75C2.70834 2.71447 3.54781 1.875 4.58334 1.875H11.25C12.2855 1.875 13.125 2.71447 13.125 3.75V18.125H2.70834V3.75ZM4.58334 3.125C4.23817 3.125 3.95834 3.40482 3.95834 3.75V16.875H11.875V3.75C11.875 3.40482 11.5952 3.125 11.25 3.125H4.58334Z" fill="white"/>
<path fill-rule="evenodd" clip-rule="evenodd" d="M8.48857 8.6152C8.79314 8.77763 8.90836 9.15622 8.74593 9.46078L8.12501 10.625H8.75001C8.96955 10.625 9.17299 10.7402 9.28594 10.9284C9.3989 11.1167 9.40479 11.3504 9.30148 11.5441L8.19037 13.6275C8.02793 13.932 7.64935 14.0472 7.34478 13.8848C7.04021 13.7224 6.92499 13.3438 7.08743 13.0392L7.70834 11.875H7.08334C6.8638 11.875 6.66036 11.7598 6.54741 11.5716C6.43446 11.3833 6.42856 11.1496 6.53187 10.9559L7.64298 8.87255C7.80542 8.56798 8.184 8.45276 8.48857 8.6152Z" fill="white"/>
<path fill-rule="evenodd" clip-rule="evenodd" d="M1.45834 17.5C1.45834 17.1548 1.73817 16.875 2.08334 16.875H13.75C14.0952 16.875 14.375 17.1548 14.375 17.5C14.375 17.8452 14.0952 18.125 13.75 18.125H2.08334C1.73817 18.125 1.45834 17.8452 1.45834 17.5Z" fill="white"/>
<path fill-rule="evenodd" clip-rule="evenodd" d="M3.54168 6.66667C3.54168 6.32149 3.8215 6.04167 4.16668 6.04167H12.5C12.8452 6.04167 13.125 6.32149 13.125 6.66667C13.125 7.01184 12.8452 7.29167 12.5 7.29167H4.16668C3.8215 7.29167 3.54168 7.01184 3.54168 6.66667Z" fill="white"/>
</svg>
