<svg width="32" height="32" viewBox="0 0 32 32" fill="none" xmlns="http://www.w3.org/2000/svg">
<path fill-rule="evenodd" clip-rule="evenodd" d="M16 27.3333C22.2592 27.3333 27.3334 22.2592 27.3334 16C27.3334 9.74078 22.2592 4.66667 16 4.66667C9.74079 4.66667 4.66669 9.74078 4.66669 16C4.66669 22.2592 9.74079 27.3333 16 27.3333ZM16 29.3333C23.3638 29.3333 29.3334 23.3638 29.3334 16C29.3334 8.63621 23.3638 2.66667 16 2.66667C8.63622 2.66667 2.66669 8.63621 2.66669 16C2.66669 23.3638 8.63622 29.3333 16 29.3333Z" fill="white"/>
<path fill-rule="evenodd" clip-rule="evenodd" d="M11.2929 11.2929C11.6834 10.9024 12.3166 10.9024 12.7071 11.2929L20.7071 19.2929C21.0977 19.6834 21.0977 20.3166 20.7071 20.7071C20.3166 21.0976 19.6834 21.0976 19.2929 20.7071L11.2929 12.7071C10.9024 12.3166 10.9024 11.6834 11.2929 11.2929Z" fill="white"/>
<path fill-rule="evenodd" clip-rule="evenodd" d="M11.2929 20.7071C10.9024 20.3166 10.9024 19.6834 11.2929 19.2929L19.2929 11.2929C19.6834 10.9024 20.3166 10.9024 20.7071 11.2929C21.0977 11.6834 21.0977 12.3166 20.7071 12.7071L12.7071 20.7071C12.3166 21.0976 11.6834 21.0976 11.2929 20.7071Z" fill="white"/>
</svg>
