<svg width="32" height="32" viewBox="0 0 32 32" fill="none" xmlns="http://www.w3.org/2000/svg">
<path fill-rule="evenodd" clip-rule="evenodd" d="M7 16C7 13.2386 9.23858 11 12 11H25.3333C25.8856 11 26.3333 11.4477 26.3333 12C26.3333 12.5523 25.8856 13 25.3333 13H12C10.3431 13 9 14.3431 9 16V25.3333C9 25.8856 8.55228 26.3333 8 26.3333C7.44772 26.3333 7 25.8856 7 25.3333V16Z" fill="white"/>
<path fill-rule="evenodd" clip-rule="evenodd" d="M26.0404 11.2929C26.431 11.6834 26.431 12.3166 26.0404 12.7071L20.7071 18.0404C20.3166 18.431 19.6834 18.431 19.2929 18.0404C18.9024 17.6499 18.9024 17.0167 19.2929 16.6262L23.9191 12L19.2929 7.37376C18.9024 6.98324 18.9024 6.35007 19.2929 5.95955C19.6834 5.56903 20.3166 5.56903 20.7071 5.95955L26.0404 11.2929Z" fill="white"/>
</svg>
