<svg width="20" height="20" viewBox="0 0 20 20" fill="none" xmlns="http://www.w3.org/2000/svg">
<path fill-rule="evenodd" clip-rule="evenodd" d="M2.70831 5.83333C2.70831 5.48816 2.98814 5.20833 3.33331 5.20833L16.6666 5.20833C17.0118 5.20833 17.2916 5.48816 17.2916 5.83333C17.2916 6.17851 17.0118 6.45833 16.6666 6.45833L3.33331 6.45833C2.98813 6.45833 2.70831 6.17851 2.70831 5.83333Z" fill="white"/>
<path fill-rule="evenodd" clip-rule="evenodd" d="M8.33331 8.54167C8.67849 8.54167 8.95831 8.82149 8.95831 9.16667V14.1667C8.95831 14.5118 8.67849 14.7917 8.33331 14.7917C7.98813 14.7917 7.70831 14.5118 7.70831 14.1667V9.16667C7.70831 8.82149 7.98813 8.54167 8.33331 8.54167Z" fill="white"/>
<path fill-rule="evenodd" clip-rule="evenodd" d="M11.6666 8.54167C12.0118 8.54167 12.2916 8.82149 12.2916 9.16667V14.1667C12.2916 14.5118 12.0118 14.7917 11.6666 14.7917C11.3215 14.7917 11.0416 14.5118 11.0416 14.1667V9.16667C11.0416 8.82149 11.3215 8.54167 11.6666 8.54167Z" fill="white"/>
<path fill-rule="evenodd" clip-rule="evenodd" d="M3.95831 5.20833H16.0416V16.25C16.0416 17.2855 15.2022 18.125 14.1666 18.125H5.83331C4.79778 18.125 3.95831 17.2855 3.95831 16.25V5.20833ZM5.20831 6.45833V16.25C5.20831 16.5952 5.48814 16.875 5.83331 16.875H14.1666C14.5118 16.875 14.7916 16.5952 14.7916 16.25V6.45833H5.20831Z" fill="white"/>
<path fill-rule="evenodd" clip-rule="evenodd" d="M8.33331 3.125C8.27806 3.125 8.22507 3.14695 8.186 3.18602C8.14693 3.22509 8.12498 3.27808 8.12498 3.33333V5.83333C8.12498 6.17851 7.84516 6.45833 7.49998 6.45833C7.1548 6.45833 6.87498 6.17851 6.87498 5.83333V3.33333C6.87498 2.94656 7.02863 2.57563 7.30212 2.30214C7.57561 2.02865 7.94654 1.875 8.33331 1.875H11.6666C12.0534 1.875 12.4244 2.02865 12.6978 2.30214C12.9713 2.57563 13.125 2.94656 13.125 3.33333V5.83333C13.125 6.17851 12.8452 6.45833 12.5 6.45833C12.1548 6.45833 11.875 6.17851 11.875 5.83333V3.33333C11.875 3.27808 11.853 3.22509 11.814 3.18602C11.7749 3.14695 11.7219 3.125 11.6666 3.125H8.33331Z" fill="white"/>
</svg>
