<svg width="32" height="32" viewBox="0 0 32 32" fill="none" xmlns="http://www.w3.org/2000/svg">
<path d="M16.0002 22C17.1047 22 18.0002 21.1046 18.0002 20C18.0002 18.8954 17.1047 18 16.0002 18C14.8956 18 14.0002 18.8954 14.0002 20C14.0002 21.1046 14.8956 22 16.0002 22Z" fill="#181819"/>
<path fill-rule="evenodd" clip-rule="evenodd" d="M9.66683 9.33333C9.66683 5.83553 12.5024 3 16.0002 3C19.498 3 22.3335 5.83553 22.3335 9.33333V12H24.6668C25.7714 12 26.6668 12.8954 26.6668 14V26C26.6668 27.1046 25.7714 28 24.6668 28H7.3335C6.22893 28 5.3335 27.1046 5.3335 26V14C5.3335 12.8954 6.22893 12 7.3335 12H9.66683V9.33333ZM20.3335 9.33333V12H11.6668V9.33333C11.6668 6.9401 13.6069 5 16.0002 5C18.3934 5 20.3335 6.9401 20.3335 9.33333ZM7.3335 14V26H24.6668V14H7.3335Z" fill="#181819"/>
</svg>
