<svg width="24" height="24" viewBox="0 0 24 24" fill="none" xmlns="http://www.w3.org/2000/svg">
<path fill-rule="evenodd" clip-rule="evenodd" d="M4.75216 12.1768C2.70191 10.1265 2.70191 6.80239 4.75216 4.75214C6.80241 2.70188 10.1265 2.70188 12.1768 4.75214L13.591 6.16635C13.8839 6.45924 13.8839 6.93412 13.591 7.22701C13.2981 7.5199 12.8232 7.5199 12.5303 7.22701L11.1161 5.8128C9.65165 4.34833 7.27729 4.34833 5.81282 5.8128C4.34835 7.27726 4.34835 9.65163 5.81282 11.1161L7.22703 12.5303C7.51993 12.8232 7.51993 13.2981 7.22703 13.591C6.93414 13.8839 6.45927 13.8839 6.16637 13.591L4.75216 12.1768ZM10.409 16.773C10.7019 16.4801 11.1768 16.4801 11.4697 16.773L12.8839 18.1872C14.3484 19.6516 16.7227 19.6516 18.1872 18.1872C19.6517 16.7227 19.6517 14.3483 18.1872 12.8839L16.773 11.4697C16.4801 11.1768 16.4801 10.7019 16.773 10.409C17.0659 10.1161 17.5407 10.1161 17.8336 10.409L19.2478 11.8232C21.2981 13.8735 21.2981 17.1976 19.2478 19.2478C17.1976 21.2981 13.8735 21.2981 11.8232 19.2478L10.409 17.8336C10.1161 17.5407 10.1161 17.0658 10.409 16.773Z" fill="white"/>
<path fill-rule="evenodd" clip-rule="evenodd" d="M19.5303 4.46964C19.8232 4.76253 19.8232 5.23741 19.5303 5.5303L5.53033 19.5303C5.23744 19.8232 4.76257 19.8232 4.46967 19.5303C4.17678 19.2374 4.17678 18.7625 4.46967 18.4696L18.4697 4.46964C18.7626 4.17675 19.2374 4.17675 19.5303 4.46964Z" fill="white"/>
</svg>
