<svg width="24" height="24" viewBox="0 0 24 24" fill="none" xmlns="http://www.w3.org/2000/svg">
<path d="M22.5 11.25H17.9475C17.7793 9.93026 17.1776 8.70373 16.2369 7.76294C15.2962 6.82214 14.0697 6.22033 12.75 6.05197V1.5H11.25V6.05197C9.93028 6.22033 8.70381 6.82214 7.76311 7.76294C6.82241 8.70373 6.22073 9.93026 6.0525 11.25H1.5V12.75H6.0525C6.22073 14.0697 6.82241 15.2963 7.76311 16.2371C8.70381 17.1779 9.93028 17.7797 11.25 17.948V22.5H12.75V17.948C14.0698 17.7797 15.2963 17.178 16.2371 16.2372C17.1779 15.2964 17.7796 14.0698 17.9479 12.75H22.5V11.25ZM12 16.5C11.11 16.5 10.24 16.2361 9.49993 15.7416C8.75991 15.2471 8.18314 14.5443 7.84254 13.7221C7.50195 12.8998 7.41283 11.995 7.58647 11.1221C7.7601 10.2492 8.18868 9.44736 8.81802 8.81802C9.44736 8.18868 10.2492 7.7601 11.1221 7.58647C11.995 7.41283 12.8998 7.50195 13.7221 7.84254C14.5443 8.18314 15.2471 8.75991 15.7416 9.49993C16.2361 10.24 16.5 11.11 16.5 12C16.4987 13.1931 16.0242 14.3369 15.1805 15.1805C14.3369 16.0242 13.1931 16.4987 12 16.5Z" fill="white"/>
</svg>
