<svg width="24" height="24" viewBox="0 0 24 24" fill="none" xmlns="http://www.w3.org/2000/svg">
<path fill-rule="evenodd" clip-rule="evenodd" d="M12 22C17.5228 22 22 17.5228 22 12C22 6.47715 17.5228 2 12 2C6.47715 2 2 6.47715 2 12C2 17.5228 6.47715 22 12 22ZM6.77629 7.78414C7.17165 7.66059 7.59231 7.88094 7.71586 8.2763L9.5 13.9855L11.2841 8.2763C11.382 7.96319 11.672 7.75 12 7.75C12.328 7.75 12.618 7.96319 12.7159 8.2763L14.5 13.9855L16.2841 8.2763C16.4077 7.88094 16.8283 7.66059 17.2237 7.78414C17.6191 7.90769 17.8394 8.32835 17.7159 8.72371L16.9264 11.25H18C18.4142 11.25 18.75 11.5858 18.75 12C18.75 12.4142 18.4142 12.75 18 12.75H16.4576L15.2159 16.7237C15.118 17.0368 14.828 17.25 14.5 17.25C14.172 17.25 13.882 17.0368 13.7841 16.7237L12 11.0145L10.2159 16.7237C10.118 17.0368 9.82804 17.25 9.5 17.25C9.17196 17.25 8.88199 17.0368 8.78414 16.7237L7.54235 12.75H6C5.58579 12.75 5.25 12.4142 5.25 12C5.25 11.5858 5.58579 11.25 6 11.25H7.0736L6.28414 8.72371C6.16059 8.32835 6.38094 7.90769 6.77629 7.78414Z" fill="white"/>
</svg>
