<svg width="32" height="32" viewBox="0 0 32 32" fill="none" xmlns="http://www.w3.org/2000/svg">
<path fill-rule="evenodd" clip-rule="evenodd" d="M16.0002 9.80001C14.2329 9.80001 12.8002 11.2327 12.8002 13C12.8002 14.7673 14.2329 16.2 16.0002 16.2C17.7675 16.2 19.2002 14.7673 19.2002 13C19.2002 11.2327 17.7675 9.80001 16.0002 9.80001ZM11.2002 13C11.2002 10.349 13.3492 8.20001 16.0002 8.20001C18.6512 8.20001 20.8002 10.349 20.8002 13C20.8002 15.651 18.6512 17.8 16.0002 17.8C13.3492 17.8 11.2002 15.651 11.2002 13Z" fill="white"/>
<path fill-rule="evenodd" clip-rule="evenodd" d="M16.0002 3.80001C13.5602 3.80001 11.2201 4.76929 9.49481 6.49463C7.76948 8.21996 6.8002 10.56 6.8002 13C6.8002 17.212 9.14967 21.0277 11.6039 23.8501C12.8212 25.25 14.0406 26.3781 14.9558 27.1561C15.3814 27.5178 15.7399 27.8028 16.0002 28.003C16.2604 27.8028 16.619 27.5178 17.0446 27.1561C17.9598 26.3781 19.1792 25.25 20.3965 23.8501C22.8507 21.0277 25.2002 17.212 25.2002 13C25.2002 10.56 24.2309 8.21996 22.5056 6.49463C20.7802 4.76929 18.4402 3.80001 16.0002 3.80001ZM16.0002 29C15.5414 29.6554 15.5412 29.6552 15.5409 29.655L15.538 29.653L15.5311 29.6481L15.5064 29.6306C15.4853 29.6155 15.4551 29.5937 15.4162 29.5653C15.3385 29.5086 15.2263 29.4255 15.0847 29.3173C14.8015 29.1008 14.4 28.7836 13.9196 28.3752C12.9598 27.5594 11.6792 26.375 10.3965 24.9C7.85072 21.9723 5.2002 17.7881 5.2002 13C5.2002 10.1357 6.33805 7.38865 8.36344 5.36326C10.3888 3.33787 13.1359 2.20001 16.0002 2.20001C18.8645 2.20001 21.6116 3.33787 23.6369 5.36326C25.6623 7.38865 26.8002 10.1357 26.8002 13C26.8002 17.7881 24.1497 21.9723 21.6039 24.9C20.3212 26.375 19.0406 27.5594 18.0808 28.3752C17.6004 28.7836 17.1988 29.1008 16.9157 29.3173C16.7741 29.4255 16.6619 29.5086 16.5842 29.5653C16.5453 29.5937 16.515 29.6155 16.494 29.6306L16.4693 29.6481L16.4623 29.653L16.4595 29.655C16.4592 29.6552 16.459 29.6554 16.0002 29ZM16.0002 29L16.4595 29.655C16.184 29.8479 15.8164 29.8479 15.5409 29.655L16.0002 29Z" fill="white"/>
</svg>
