<svg width="24" height="24" viewBox="0 0 24 24" fill="none" xmlns="http://www.w3.org/2000/svg">
<path fill-rule="evenodd" clip-rule="evenodd" d="M20.1514 11.4L21.6514 10.2C22.2514 9.75 22.2514 8.85 21.9514 8.25L20.1514 5.25C19.8514 4.8 19.4014 4.5 18.8014 4.5C18.6514 4.5 18.5014 4.5 18.3514 4.65L16.5514 5.25C16.4397 5.19416 16.328 5.11753 16.2086 5.03559C16.0073 4.89742 15.7839 4.74416 15.5014 4.65L15.0514 2.7C15.0514 1.95 14.4514 1.5 13.7014 1.5H10.1014C9.35142 1.5 8.75142 1.95 8.60142 2.7L8.30142 4.65C7.85142 4.8 7.55142 4.95 7.25143 5.09999L5.45142 4.5H5.00142C4.40142 4.5 3.95142 4.8 3.65142 5.25L1.85142 8.25C1.55142 8.85 1.70142 9.6 2.30142 10.2L3.65142 11.55V12.75L2.30142 13.8C1.70142 14.25 1.55142 15.15 2.00142 15.75L3.80142 18.75C3.95142 19.2 4.40142 19.5 5.00142 19.5C5.15142 19.5 5.30142 19.5 5.45142 19.35L7.25142 18.75C7.3631 18.8058 7.47478 18.8825 7.59421 18.9644C7.79557 19.1026 8.01895 19.2558 8.30142 19.35L8.75142 21.3C8.90142 22.05 9.50142 22.5 10.2514 22.5H13.8514C14.6014 22.5 15.2014 22.05 15.3514 21.3L15.8014 19.35C16.1014 19.2 16.4014 19.05 16.8514 18.75L18.6514 19.35C18.7264 19.35 18.8014 19.3875 18.8764 19.425C18.9514 19.4625 19.0264 19.5 19.1014 19.5C19.7014 19.5 20.1514 19.2 20.4514 18.75L22.1014 15.75C22.4014 15.15 22.4014 14.4 21.8014 13.8L20.1514 12.6V11.4ZM7.4014 12C7.4014 14.55 9.3514 16.5 11.9014 16.5C14.4514 16.5 16.4014 14.4 16.4014 12C16.4014 9.45 14.4514 7.5 11.9014 7.5C9.3514 7.5 7.4014 9.45 7.4014 12ZM8.9014 11.85C8.9014 10.2 10.2514 9 11.9014 9C13.7014 9 14.9014 10.35 14.9014 12V12.15C14.9014 13.8 13.5514 15 11.9014 15H11.7514C10.1014 15 8.9014 13.65 8.9014 12V11.85ZM16.2514 17.1L18.8014 18L20.6014 15L18.5014 13.2C18.6514 12.45 18.6514 11.55 18.5014 10.8L20.6014 9L18.8014 6L16.4014 6.9C16.1915 6.77407 15.9934 6.64814 15.8004 6.52549C15.3039 6.20989 14.8415 5.91605 14.3014 5.7L13.7014 3H10.1014L9.65142 5.7C8.90142 6 8.15142 6.3 7.55142 6.9L5.00142 6L3.20142 9L5.30142 10.8C5.15142 11.55 5.15142 12.45 5.30142 13.2L3.20142 15L5.00142 18L7.40142 17.1C7.6113 17.2259 7.80944 17.3519 8.00241 17.4745C8.49898 17.7901 8.9613 18.084 9.50142 18.3L10.1014 21H13.7014L14.1514 18.3C14.9014 18 15.6514 17.55 16.2514 17.1Z" fill="white"/>
</svg>
