<svg width="16" height="16" viewBox="0 0 16 16" fill="none" xmlns="http://www.w3.org/2000/svg">
<path fill-rule="evenodd" clip-rule="evenodd" d="M6.31311 2.31311C6.40688 2.21934 6.53406 2.16666 6.66667 2.16666H9.33333C9.46594 2.16666 9.59312 2.21934 9.68689 2.31311L11.5404 4.16666H14C14.2761 4.16666 14.5 4.39052 14.5 4.66666V12C14.5 12.2761 14.2761 12.5 14 12.5H2C1.72386 12.5 1.5 12.2761 1.5 12V4.66666C1.5 4.39052 1.72386 4.16666 2 4.16666H4.45956L6.31311 2.31311ZM6.87377 3.16666L5.02022 5.02022C4.92645 5.11399 4.79927 5.16666 4.66667 5.16666H2.5V11.5H13.5V5.16666H11.3333C11.2007 5.16666 11.0735 5.11399 10.9798 5.02022L9.12623 3.16666H6.87377Z" fill="white"/>
<path fill-rule="evenodd" clip-rule="evenodd" d="M8 9.33333C8.73638 9.33333 9.33333 8.73638 9.33333 8C9.33333 7.26362 8.73638 6.66666 8 6.66666C7.26362 6.66666 6.66667 7.26362 6.66667 8C6.66667 8.73638 7.26362 9.33333 8 9.33333ZM8 10.3333C9.28866 10.3333 10.3333 9.28866 10.3333 8C10.3333 6.71133 9.28866 5.66666 8 5.66666C6.71134 5.66666 5.66667 6.71133 5.66667 8C5.66667 9.28866 6.71134 10.3333 8 10.3333Z" fill="white"/>
</svg>
