<svg width="32" height="32" viewBox="0 0 32 32" fill="none" xmlns="http://www.w3.org/2000/svg">
<path fill-rule="evenodd" clip-rule="evenodd" d="M22.45 6C23.9208 5.99876 25.3302 6.58989 26.36 7.64C28.5456 9.85883 28.5456 13.4212 26.36 15.64L16 26.13L5.64002 15.64C3.4544 13.4212 3.4544 9.85883 5.64002 7.64C6.67043 6.59069 8.07937 5.99957 9.55002 5.99957C11.0207 5.99957 12.4296 6.59069 13.46 7.64L16 10.24L18.53 7.66C19.5569 6.59716 20.9721 5.99788 22.45 6ZM22.45 4C20.4412 3.9983 18.5164 4.80571 17.11 6.24L16 7.36L14.89 6.24C13.482 4.80838 11.558 4.0021 9.55002 4.0021C7.542 4.0021 5.61807 4.80838 4.21002 6.24C1.25975 9.24333 1.25975 14.0567 4.21002 17.06L16 29L27.79 17.06C30.7403 14.0567 30.7403 9.24333 27.79 6.24C26.3823 4.80761 24.4583 4.00055 22.45 4Z" fill="white"/>
</svg>
