<svg width="32" height="32" viewBox="0 0 32 32" fill="none" xmlns="http://www.w3.org/2000/svg">
    <path fill-rule="evenodd" clip-rule="evenodd" d="M11.264 6.365a5.664 5.664 0 0 0-5.847 7.764c.295.724.736 1.379 1.297 1.924l.006.006 9.291 9.2 9.291-9.2a1.04 1.04 0 0 1 .077-.068 5.662 5.662 0 1 0-8.569-7.369 1 1 0 0 1-1.601-.004 5.663 5.663 0 0 0-3.945-2.253zM26.629 17.56l-9.914 9.817a1 1 0 0 1-1.408 0l-9.988-9.89-.003-.004a7.661 7.661 0 0 1 9.148-12.14 7.662 7.662 0 0 1 1.551 1.169 7.663 7.663 0 0 1 10.692 10.98c-.025.024-.051.046-.078.068z" fill="#fff"/>
</svg>
