<svg width="20" height="20" viewBox="0 0 20 20" fill="none" xmlns="http://www.w3.org/2000/svg">
    <path fill-rule="evenodd" clip-rule="evenodd" d="M2.708 9.167c0-.346.28-.625.625-.625h13.334a.625.625 0 0 1 0 1.25H3.333a.625.625 0 0 1-.625-.625zM13.333 1.875c.345 0 .625.28.625.625v3.333a.625.625 0 1 1-1.25 0V2.5c0-.345.28-.625.625-.625zM6.667 1.875c.345 0 .625.28.625.625v3.333a.625.625 0 0 1-1.25 0V2.5c0-.345.28-.625.625-.625z" fill="#fff"/>
    <path fill-rule="evenodd" clip-rule="evenodd" d="M16.25 4.583H3.75V16.25h12.5V4.583zm-12.5-1.25c-.69 0-1.25.56-1.25 1.25V16.25c0 .69.56 1.25 1.25 1.25h12.5c.69 0 1.25-.56 1.25-1.25V4.583c0-.69-.56-1.25-1.25-1.25H3.75z" fill="#fff"/>
</svg>
