<svg width="32" height="32" viewBox="0 0 32 32" fill="none" xmlns="http://www.w3.org/2000/svg">
<path fill-rule="evenodd" clip-rule="evenodd" d="M16 27.3333C22.2592 27.3333 27.3334 22.2592 27.3334 16C27.3334 9.74078 22.2592 4.66667 16 4.66667C9.74079 4.66667 4.66669 9.74078 4.66669 16C4.66669 22.2592 9.74079 27.3333 16 27.3333ZM16 29.3333C23.3638 29.3333 29.3334 23.3638 29.3334 16C29.3334 8.63621 23.3638 2.66667 16 2.66667C8.63622 2.66667 2.66669 8.63621 2.66669 16C2.66669 23.3638 8.63622 29.3333 16 29.3333Z" fill="white"/>
<path fill-rule="evenodd" clip-rule="evenodd" d="M15.2929 9.95957C15.6834 9.56904 16.3166 9.56904 16.7071 9.95957L22.0405 15.2929C22.431 15.6834 22.431 16.3166 22.0405 16.7071L16.7071 22.0404C16.3166 22.431 15.6834 22.431 15.2929 22.0404C14.9024 21.6499 14.9024 21.0168 15.2929 20.6262L19.9191 16L15.2929 11.3738C14.9024 10.9833 14.9024 10.3501 15.2929 9.95957Z" fill="white"/>
<path fill-rule="evenodd" clip-rule="evenodd" d="M8.33335 16C8.33335 15.4477 8.78107 15 9.33335 15H21.3334C21.8856 15 22.3334 15.4477 22.3334 16C22.3334 16.5523 21.8856 17 21.3334 17H9.33335C8.78107 17 8.33335 16.5523 8.33335 16Z" fill="white"/>
</svg>
