<svg width="32" height="32" viewBox="0 0 32 32" fill="none" xmlns="http://www.w3.org/2000/svg">
<path fill-rule="evenodd" clip-rule="evenodd" d="M11 8C11 7.44771 11.4477 7 12 7L28 7C28.5523 7 29 7.44772 29 8C29 8.55228 28.5523 9 28 9L12 9C11.4477 9 11 8.55228 11 8Z" fill="white"/>
<path d="M9 10C9 10.5523 8.55228 11 8 11L4 11C3.44772 11 3 10.5523 3 10L3 6C3 5.44771 3.44772 5 4 5L8 5C8.55229 5 9 5.44772 9 6L9 10Z" fill="white"/>
<path fill-rule="evenodd" clip-rule="evenodd" d="M11 16C11 15.4477 11.4477 15 12 15L28 15C28.5523 15 29 15.4477 29 16C29 16.5523 28.5523 17 28 17L12 17C11.4477 17 11 16.5523 11 16Z" fill="white"/>
<path d="M9 18C9 18.5523 8.55228 19 8 19L4 19C3.44772 19 3 18.5523 3 18L3 14C3 13.4477 3.44772 13 4 13L8 13C8.55229 13 9 13.4477 9 14L9 18Z" fill="white"/>
<path fill-rule="evenodd" clip-rule="evenodd" d="M11 24C11 23.4477 11.4477 23 12 23L28 23C28.5523 23 29 23.4477 29 24C29 24.5523 28.5523 25 28 25L12 25C11.4477 25 11 24.5523 11 24Z" fill="white"/>
<path d="M9 26C9 26.5523 8.55228 27 8 27L4 27C3.44772 27 3 26.5523 3 26L3 22C3 21.4477 3.44772 21 4 21L8 21C8.55229 21 9 21.4477 9 22L9 26Z" fill="white"/>
</svg>
