<svg width="32" height="24" viewBox="0 0 32 24" fill="none" xmlns="http://www.w3.org/2000/svg">
    <path d="m16.224 2.163 2.579 5.265a1.75 1.75 0 0 0 1.318.962l5.778.846a.25.25 0 0 1 .139.425l-4.19 4.116a1.75 1.75 0 0 0-.5 1.543l.988 5.804a.25.25 0 0 1-.363.263l-5.154-2.73a1.75 1.75 0 0 0-1.638 0l-5.154 2.73a.25.25 0 0 1-.363-.263l.988-5.804a1.75 1.75 0 0 0-.5-1.543l-4.19-4.116a.25.25 0 0 1 .14-.425l5.777-.846a1.75 1.75 0 0 0 1.318-.962l2.579-5.264a.25.25 0 0 1 .448 0z" stroke="#797A7D" stroke-width="1.5"/>
</svg>
