<svg width="24" height="24" viewBox="0 0 24 24" fill="none" xmlns="http://www.w3.org/2000/svg">
<path fill-rule="evenodd" clip-rule="evenodd" d="M11.25 20.4674V19C11.25 18.5858 11.5858 18.25 12 18.25C12.4142 18.25 12.75 18.5858 12.75 19V20.4674C16.846 20.1093 20.1093 16.846 20.4674 12.75H19C18.5858 12.75 18.25 12.4142 18.25 12C18.25 11.5858 18.5858 11.25 19 11.25H20.4674C20.1093 7.15398 16.846 3.89072 12.75 3.53263V5C12.75 5.41421 12.4142 5.75 12 5.75C11.5858 5.75 11.25 5.41421 11.25 5V3.53263C7.15398 3.89072 3.89072 7.15398 3.53263 11.25H5C5.41421 11.25 5.75 11.5858 5.75 12C5.75 12.4142 5.41421 12.75 5 12.75H3.53263C3.89072 16.846 7.15398 20.1093 11.25 20.4674ZM22 12C22 17.5228 17.5228 22 12 22C6.47715 22 2 17.5228 2 12C2 6.47715 6.47715 2 12 2C17.5228 2 22 6.47715 22 12ZM10.2931 9.89358C10.1164 9.96938 9.97548 10.1102 9.89958 10.2869L7.77316 15.2373C7.6521 15.5192 7.71487 15.8464 7.93167 16.0634C8.14846 16.2804 8.47556 16.3435 8.75755 16.2228L13.7124 14.1007C13.8897 14.0248 14.0309 13.8835 14.1067 13.7062L16.2229 8.75716C16.3435 8.47525 16.2803 8.14835 16.0634 7.93167C15.8465 7.71498 15.5195 7.65215 15.2377 7.77299L10.2931 9.89358ZM12.8457 12.8402L9.89201 14.1051L11.1596 11.1541L14.1072 9.88998L12.8457 12.8402Z" fill="white"/>
</svg>
