<svg width="24" height="24" viewBox="0 0 24 24" fill="none" xmlns="http://www.w3.org/2000/svg">
<path d="M18.2904 3.73591V20.2641H5.70866V3.73591H18.2904ZM18.4391 2.55533H5.56109C5.42549 2.55517 5.29096 2.58165 5.16564 2.63344C5.04031 2.68522 4.92666 2.76127 4.83072 2.8571C4.73478 2.95293 4.65898 3.06676 4.60705 3.19203C4.55512 3.31729 4.52808 3.45159 4.52808 3.58719V20.4117C4.52808 20.6856 4.63699 20.9483 4.83072 21.142C5.02444 21.3358 5.28712 21.4447 5.56109 21.4447H18.4391C18.7129 21.4444 18.9749 21.3351 19.1683 21.1414C19.3618 20.9478 19.471 20.6854 19.471 20.4117V3.58719C19.471 3.31353 19.3619 3.0509 19.1683 2.85739C18.9748 2.66389 18.7128 2.55533 18.4391 2.55533Z" fill="white"/>
<path d="M21.4448 20.2511H2.55542V21.4317H21.4448V20.2511Z" fill="white"/>
<path d="M10.8997 5.94577H8.53857V8.30694H10.8997V5.94577Z" fill="white"/>
<path d="M15.4945 5.94577H13.1333V8.30694H15.4945V5.94577Z" fill="white"/>
<path d="M10.8997 10.1948H8.53857V12.556H10.8997V10.1948Z" fill="white"/>
<path d="M15.4945 10.1948H13.1333V12.556H15.4945V10.1948Z" fill="white"/>
<path d="M10.8997 14.3658H8.53857V16.7269H10.8997V14.3658Z" fill="white"/>
<path d="M15.4945 14.3658H13.1333V16.7269H15.4945V14.3658Z" fill="white"/>
</svg>
