<svg width="24" height="24" viewBox="0 0 24 24" fill="none" xmlns="http://www.w3.org/2000/svg">
<path fill-rule="evenodd" clip-rule="evenodd" d="M3.25 7C3.25 6.58579 3.58579 6.25 4 6.25L20 6.25C20.4142 6.25 20.75 6.58579 20.75 7C20.75 7.41421 20.4142 7.75 20 7.75L4 7.75C3.58579 7.75 3.25 7.41421 3.25 7Z" fill="white"/>
<path fill-rule="evenodd" clip-rule="evenodd" d="M10 10.25C10.4142 10.25 10.75 10.5858 10.75 11V17C10.75 17.4142 10.4142 17.75 10 17.75C9.58579 17.75 9.25 17.4142 9.25 17V11C9.25 10.5858 9.58579 10.25 10 10.25Z" fill="white"/>
<path fill-rule="evenodd" clip-rule="evenodd" d="M14 10.25C14.4142 10.25 14.75 10.5858 14.75 11V17C14.75 17.4142 14.4142 17.75 14 17.75C13.5858 17.75 13.25 17.4142 13.25 17V11C13.25 10.5858 13.5858 10.25 14 10.25Z" fill="white"/>
<path fill-rule="evenodd" clip-rule="evenodd" d="M4.75 6.25H19.25V19.5C19.25 20.7426 18.2426 21.75 17 21.75H7C5.75736 21.75 4.75 20.7426 4.75 19.5V6.25ZM6.25 7.75V19.5C6.25 19.9142 6.58579 20.25 7 20.25H17C17.4142 20.25 17.75 19.9142 17.75 19.5V7.75H6.25Z" fill="white"/>
<path fill-rule="evenodd" clip-rule="evenodd" d="M10 3.75C9.9337 3.75 9.87011 3.77634 9.82322 3.82322C9.77634 3.87011 9.75 3.9337 9.75 4V7C9.75 7.41421 9.41421 7.75 9 7.75C8.58579 7.75 8.25 7.41421 8.25 7V4C8.25 3.53587 8.43437 3.09075 8.76256 2.76256C9.09075 2.43437 9.53587 2.25 10 2.25H14C14.4641 2.25 14.9092 2.43437 15.2374 2.76256C15.5656 3.09075 15.75 3.53587 15.75 4V7C15.75 7.41421 15.4142 7.75 15 7.75C14.5858 7.75 14.25 7.41421 14.25 7V4C14.25 3.9337 14.2237 3.87011 14.1768 3.82322C14.1299 3.77634 14.0663 3.75 14 3.75H10Z" fill="white"/>
</svg>
