<svg width="24" height="24" viewBox="0 0 24 24" fill="none" xmlns="http://www.w3.org/2000/svg">
<path fill-rule="evenodd" clip-rule="evenodd" d="M22.5 6H19.35C19.05 4.35 17.55 3 15.75 3C13.95 3 12.45 4.35 12.15 6H1.5V7.5H12.15C12.45 9.15 13.95 10.5 15.75 10.5C17.55 10.5 19.05 9.15 19.35 7.5H22.5V6ZM15.75 9C14.55 9 13.5 7.95 13.5 6.75C13.5 5.55 14.55 4.5 15.75 4.5C16.95 4.5 18 5.55 18 6.75C18 7.95 16.95 9 15.75 9ZM1.5 18H4.65C4.95 19.65 6.45 21 8.25 21C10.05 21 11.55 19.65 11.85 18H22.5V16.5H11.85C11.55 14.85 10.05 13.5 8.25 13.5C6.45 13.5 4.95 14.85 4.65 16.5H1.5V18ZM8.25 15C9.45 15 10.5 16.05 10.5 17.25C10.5 18.45 9.45 19.5 8.25 19.5C7.05 19.5 6 18.45 6 17.25C6 16.05 7.05 15 8.25 15Z" fill="white"/>
</svg>
