<svg width="20" height="20" viewBox="0 0 20 20" fill="none" xmlns="http://www.w3.org/2000/svg">
<path fill-rule="evenodd" clip-rule="evenodd" d="M1.25 16.8748H18.75V18.1248H1.25V16.8748ZM15.8813 5.62481C16.116 5.39035 16.2479 5.0722 16.2479 4.74044C16.2479 4.40867 16.116 4.09052 15.8813 3.85606L13.6438 1.61856C13.4093 1.38384 13.0911 1.25195 12.7594 1.25195C12.4276 1.25195 12.1095 1.38384 11.875 1.61856L2.5 10.9936V14.9998H6.50625L15.8813 5.62481ZM12.7563 2.49981L15 4.74356L13.125 6.61856L10.8813 4.37481L12.7563 2.49981ZM3.75 13.7498V11.5061L10 5.25607L12.2437 7.49982L5.99375 13.7498H3.75Z" fill="#191919"/>
</svg>
