<svg width="16" height="16" viewBox="0 0 16 16" fill="none" xmlns="http://www.w3.org/2000/svg">
<path fill-rule="evenodd" clip-rule="evenodd" d="M1 8C1 4.1 4.1 1 8 1C11.9 1 15 4.1 15 8C15 11.9 11.9 15 8 15C4.1 15 1 11.9 1 8ZM2 8C2 11.3 4.7 14 8 14C11.3 14 14 11.3 14 8C14 4.7 11.3 2 8 2C4.7 2 2 4.7 2 8Z" fill="white"/>
<path d="M7.17833 6.39999H8.63833V12H7.17833V6.39999ZM7.91833 5.49999C7.665 5.49999 7.455 5.42666 7.28833 5.27999C7.12166 5.12666 7.03833 4.93333 7.03833 4.69999C7.03833 4.45999 7.12166 4.26666 7.28833 4.11999C7.455 3.97333 7.665 3.89999 7.91833 3.89999C8.17166 3.89999 8.37833 3.97333 8.53833 4.11999C8.705 4.26666 8.78833 4.45999 8.78833 4.69999C8.78833 4.93333 8.705 5.12666 8.53833 5.27999C8.37833 5.42666 8.17166 5.49999 7.91833 5.49999Z" fill="white"/>
</svg>
