<svg width="16" height="16" viewBox="0 0 16 16" fill="none" xmlns="http://www.w3.org/2000/svg">
    <path fill-rule="evenodd" clip-rule="evenodd" d="M8 2.5a.833.833 0 0 0-.833.825.502.502 0 0 1-.296.465A4.167 4.167 0 0 0 4.5 7.345v1.988c0 .02-.001.04-.004.06a3.166 3.166 0 0 1-.552 1.44h8.112a3.167 3.167 0 0 1-.553-1.44.503.503 0 0 1-.003-.06V7.345a4.166 4.166 0 0 0-2.38-3.56.5.5 0 0 1-.287-.452A.833.833 0 0 0 8 2.5zm-1.805.512a1.833 1.833 0 0 1 3.61 0A5.166 5.166 0 0 1 12.5 7.333v1.969a2.166 2.166 0 0 0 1.08 1.596.5.5 0 0 1-.247.935H2.667a.5.5 0 0 1-.247-.935A2.166 2.166 0 0 0 3.5 9.302V7.31a5.167 5.167 0 0 1 2.695-4.298z" fill="#fff"/>
    <path fill-rule="evenodd" clip-rule="evenodd" d="M6 10.833a.5.5 0 0 1 .5.5V12a1.5 1.5 0 0 0 3 0v-.667a.5.5 0 0 1 1 0V12a2.5 2.5 0 0 1-5 0v-.667a.5.5 0 0 1 .5-.5z" fill="#fff"/>
</svg>
