<svg width="20" height="20" viewBox="0 0 20 20" fill="none" xmlns="http://www.w3.org/2000/svg">
<path fill-rule="evenodd" clip-rule="evenodd" d="M18.75 5H16.125C15.875 3.625 14.625 2.5 13.125 2.5C11.625 2.5 10.375 3.625 10.125 5H1.25V6.25H10.125C10.375 7.625 11.625 8.75 13.125 8.75C14.625 8.75 15.875 7.625 16.125 6.25H18.75V5ZM13.125 7.5C12.125 7.5 11.25 6.625 11.25 5.625C11.25 4.625 12.125 3.75 13.125 3.75C14.125 3.75 15 4.625 15 5.625C15 6.625 14.125 7.5 13.125 7.5ZM1.25 15H3.875C4.125 16.375 5.375 17.5 6.875 17.5C8.375 17.5 9.625 16.375 9.875 15H18.75V13.75H9.875C9.625 12.375 8.375 11.25 6.875 11.25C5.375 11.25 4.125 12.375 3.875 13.75H1.25V15ZM6.875 12.5C7.875 12.5 8.75 13.375 8.75 14.375C8.75 15.375 7.875 16.25 6.875 16.25C5.875 16.25 5 15.375 5 14.375C5 13.375 5.875 12.5 6.875 12.5Z" fill="white"/>
</svg>
