<svg width="20" height="20" viewBox="0 0 20 20" fill="none" xmlns="http://www.w3.org/2000/svg">
<path fill-rule="evenodd" clip-rule="evenodd" d="M6.19368 9.625L9.99993 15L13.8749 9.5375C14.6036 8.62778 15.0004 7.49683 14.9999 6.33125C15.0173 3.54945 12.7816 1.27749 9.99993 1.25C8.03248 1.27936 6.25837 2.44063 5.44424 4.23197C4.63012 6.02331 4.92197 8.12351 6.19368 9.625ZM11.2383 5.625C11.2383 6.31536 10.6786 6.875 9.98828 6.875C9.29792 6.875 8.73828 6.31536 8.73828 5.625C8.73828 4.93464 9.29792 4.375 9.98828 4.375C10.6786 4.375 11.2383 4.93464 11.2383 5.625ZM17.4883 7.5H16.2383V8.75H17.4883V17.5H2.48828V8.75H3.73828V7.5H2.48828C1.79793 7.5 1.23828 8.05964 1.23828 8.75V17.5C1.23828 18.1904 1.79793 18.75 2.48828 18.75H17.4883C18.1786 18.75 18.7383 18.1904 18.7383 17.5V8.75C18.7383 8.05964 18.1786 7.5 17.4883 7.5ZM6.24996 6.33125C6.22913 4.23839 7.90713 2.52403 9.99996 2.5C12.0928 2.52403 13.7708 4.23839 13.75 6.33125C13.7455 7.211 13.4438 8.0634 12.8937 8.75L9.99996 12.825L7.18121 8.83125C6.58419 8.13469 6.25414 7.24864 6.24996 6.33125Z" fill="white"/>
</svg>
