<svg width="20" height="20" viewBox="0 0 20 20" fill="none" xmlns="http://www.w3.org/2000/svg">
<path fill-rule="evenodd" clip-rule="evenodd" d="M9.99999 17.0833C13.912 17.0833 17.0833 13.912 17.0833 9.99999C17.0833 6.08797 13.912 2.91666 9.99999 2.91666C6.08797 2.91666 2.91666 6.08797 2.91666 9.99999C2.91666 13.912 6.08797 17.0833 9.99999 17.0833ZM9.99999 18.3333C14.6024 18.3333 18.3333 14.6024 18.3333 9.99999C18.3333 5.39762 14.6024 1.66666 9.99999 1.66666C5.39762 1.66666 1.66666 5.39762 1.66666 9.99999C1.66666 14.6024 5.39762 18.3333 9.99999 18.3333Z" fill="white"/>
<path d="M10.8333 7.08332C10.8333 7.54356 10.4602 7.91666 9.99999 7.91666C9.53975 7.91666 9.16666 7.54356 9.16666 7.08332C9.16666 6.62309 9.53975 6.24999 9.99999 6.24999C10.4602 6.24999 10.8333 6.62309 10.8333 7.08332Z" fill="white"/>
<path fill-rule="evenodd" clip-rule="evenodd" d="M9.99999 9.24999C10.4142 9.24999 10.75 9.58578 10.75 9.99999V13.3333C10.75 13.7475 10.4142 14.0833 9.99999 14.0833C9.58578 14.0833 9.24999 13.7475 9.24999 13.3333L9.24999 9.99999C9.24999 9.58578 9.58578 9.24999 9.99999 9.24999Z" fill="white"/>
</svg>
