<svg width="32" height="32" viewBox="0 0 32 32" fill="none" xmlns="http://www.w3.org/2000/svg">
<path fill-rule="evenodd" clip-rule="evenodd" d="M16.0001 6.6L18.8001 12.2L19.2001 13.2L20.2001 13.4L26.4001 14.2L22.0001 18.4L21.2001 19.2L21.4001 20.2L22.4001 26.4L16.8001 23.6L16.0001 23L15.0001 23.4L9.40015 26.2L10.4001 20L10.6001 19L10.0001 18.4L5.60015 14L11.8001 13.2L12.8001 13L13.2001 12L16.0001 6.6ZM16.0002 2L11.4002 11.2L1.2002 12.6L8.6002 19.8L7.0002 30L16.0002 25.2L25.2002 30L23.4002 19.8L30.8002 12.6L20.6002 11.2L16.0002 2Z" fill="white"/>
</svg>
