<svg width="32" height="32" viewBox="0 0 32 32" fill="none" xmlns="http://www.w3.org/2000/svg">
    <path fill-rule="evenodd" clip-rule="evenodd" d="m16 5.866-2.428 4.937a3.333 3.333 0 0 1-2.51 1.828l-5.442.793 3.946 3.86a3.333 3.333 0 0 1 .954 2.945l-.93 5.442 4.854-2.561a3.334 3.334 0 0 1 3.112 0l4.854 2.561-.93-5.442a3.333 3.333 0 0 1 .954-2.944l3.946-3.86-5.442-.794a3.333 3.333 0 0 1-2.51-1.828L16 5.866zm1.197-2.1c-.489-.993-1.905-.993-2.393 0l-3.027 6.155c-.193.394-.569.667-1.004.73L4 11.64c-1.092.159-1.53 1.5-.74 2.272l4.908 4.802c.313.306.456.746.382 1.178l-1.158 6.775c-.186 1.09.959 1.92 1.937 1.404l6.05-3.192c.39-.206.855-.206 1.244 0l6.05 3.192c.978.516 2.123-.314 1.937-1.404l-1.158-6.775a1.333 1.333 0 0 1 .382-1.178l4.908-4.802c.79-.772.352-2.113-.74-2.272l-6.774-.988a1.333 1.333 0 0 1-1.004-.731l-3.026-6.154z" fill="#fff"/>
</svg>
