<svg width="20" height="20" viewBox="0 0 20 20" fill="none" xmlns="http://www.w3.org/2000/svg">
<path fill-rule="evenodd" clip-rule="evenodd" d="M18.75 2.13375L17.8663 1.25L1.25 17.8663L2.13375 18.75L3.38375 17.5H16.25C16.9399 17.499 17.499 16.9399 17.5 16.25V3.38375L18.75 2.13375ZM16.25 16.25H4.63373L9.50435 11.3794L10.9912 12.8663C11.4794 13.3542 12.2706 13.3542 12.7587 12.8663L13.75 11.875L16.25 14.3731V16.25ZM16.25 12.605L14.6337 10.9887C14.1456 10.5008 13.3544 10.5008 12.8662 10.9887L11.875 11.98L10.3894 10.4944L16.25 4.63375V12.605ZM3.75 13.75V11.875L6.875 8.75187L7.73313 9.61063L8.61812 8.72563L7.75875 7.86625C7.27063 7.37827 6.47937 7.37827 5.99125 7.86625L3.75 10.1075V3.75H13.75V2.5H3.75C3.05993 2.50069 2.50069 3.05993 2.5 3.75V13.75H3.75Z" fill="white"/>
</svg>
