<svg width="16" height="16" viewBox="0 0 16 16" fill="none" xmlns="http://www.w3.org/2000/svg">
<path fill-rule="evenodd" clip-rule="evenodd" d="M14.9983 3.79079C14.9983 4.0562 14.8928 4.31072 14.705 4.49829L7.205 11.9983H4V8.79329L11.5 1.29329C11.6876 1.10551 11.9421 1 12.2075 1C12.4729 1 12.7274 1.10551 12.915 1.29329L14.705 3.08329C14.8928 3.27085 14.9983 3.52538 14.9983 3.79079ZM14 3.79328L12.205 1.99828L10.705 3.49828L12.5 5.29328L14 3.79328ZM5 10.9983V9.20328L10 4.20328L11.795 5.99828L6.795 10.9983H5ZM2 14.9983H12C12.5523 14.9983 13 14.5506 13 13.9983V9.49828H12V13.9983H2V3.99828H6.5V2.99828H2C1.44772 2.99828 1 3.446 1 3.99828V13.9983C1 14.5506 1.44772 14.9983 2 14.9983Z" fill="white"/>
</svg>
