<svg width="32" height="32" viewBox="0 0 32 32" fill="none" xmlns="http://www.w3.org/2000/svg">
<path fill-rule="evenodd" clip-rule="evenodd" d="M16 27.3333C22.2592 27.3333 27.3333 22.2592 27.3333 16C27.3333 9.74078 22.2592 4.66667 16 4.66667C9.74076 4.66667 4.66666 9.74078 4.66666 16C4.66666 22.2592 9.74076 27.3333 16 27.3333ZM16 29.3333C23.3638 29.3333 29.3333 23.3638 29.3333 16C29.3333 8.63621 23.3638 2.66667 16 2.66667C8.63619 2.66667 2.66666 8.63621 2.66666 16C2.66666 23.3638 8.63619 29.3333 16 29.3333Z" fill="white"/>
<path fill-rule="evenodd" clip-rule="evenodd" d="M16 9.66667C16.5523 9.66667 17 10.1144 17 10.6667V21.3333C17 21.8856 16.5523 22.3333 16 22.3333C15.4477 22.3333 15 21.8856 15 21.3333V10.6667C15 10.1144 15.4477 9.66667 16 9.66667Z" fill="white"/>
<path fill-rule="evenodd" clip-rule="evenodd" d="M9.66666 16C9.66666 15.4477 10.1144 15 10.6667 15H21.3333C21.8856 15 22.3333 15.4477 22.3333 16C22.3333 16.5523 21.8856 17 21.3333 17H10.6667C10.1144 17 9.66666 16.5523 9.66666 16Z" fill="white"/>
</svg>
