<svg width="32" height="32" viewBox="0 0 32 32" fill="none" xmlns="http://www.w3.org/2000/svg">
<path fill-rule="evenodd" clip-rule="evenodd" d="M9.91008 15.4L16.0001 24L22.2001 15.26C23.366 13.8044 24.0009 11.9949 24.0001 10.13C24.0278 5.67912 20.4508 2.04398 16.0001 2C12.8522 2.04698 10.0136 3.90501 8.71098 6.77115C7.40838 9.6373 7.87535 12.9976 9.91008 15.4ZM17.9814 9C17.9814 10.1046 17.086 11 15.9814 11C14.8769 11 13.9814 10.1046 13.9814 9C13.9814 7.89543 14.8769 7 15.9814 7C17.086 7 17.9814 7.89543 17.9814 9ZM27.9814 12H25.9814V14H27.9814V28H3.98145V14H5.98145V12H3.98145C2.87688 12 1.98145 12.8954 1.98145 14V28C1.98145 29.1046 2.87688 30 3.98145 30H27.9814C29.086 30 29.9814 29.1046 29.9814 28V14C29.9814 12.8954 29.086 12 27.9814 12ZM10.0002 10.13C9.96687 6.78143 12.6517 4.03845 16.0002 4C19.3487 4.03845 22.0335 6.78143 22.0002 10.13C21.9931 11.5376 21.5103 12.9014 20.6302 14L16.0002 20.52L11.4902 14.13C10.535 13.0155 10.0069 11.5978 10.0002 10.13Z" fill="white"/>
</svg>
