<svg width="16" height="16" viewBox="0 0 16 16" fill="none" xmlns="http://www.w3.org/2000/svg">
<path fill-rule="evenodd" clip-rule="evenodd" d="M7.14189 4.2528L8.52577 2.86891C9.69734 1.69734 11.5968 1.69734 12.7684 2.86891C13.94 4.04049 13.94 5.93998 12.7684 7.11156L11.3845 8.49544L12.0916 9.20254L13.4755 7.81866C15.0376 6.25656 15.0376 3.7239 13.4755 2.16181C11.9134 0.59971 9.38076 0.59971 7.81866 2.16181L6.43478 3.54569L7.14189 4.2528ZM4.29177 7.10292L3.58466 6.39581L2.16181 7.81866C0.59971 9.38076 0.59971 11.9134 2.16181 13.4755C3.7239 15.0376 6.25656 15.0376 7.81866 13.4755L9.24151 12.0527L8.53441 11.3456L7.11155 12.7684C5.93998 13.94 4.04049 13.94 2.86891 12.7684C1.69734 11.5968 1.69734 9.69734 2.86891 8.52577L4.29177 7.10292Z" fill="white"/>
<path fill-rule="evenodd" clip-rule="evenodd" d="M12.0948 12.7614L2.66667 3.33333L3.37378 2.62622L12.8019 12.0543L12.0948 12.7614Z" fill="white"/>
</svg>
