<svg width="16" height="16" viewBox="0 0 16 16" fill="none" xmlns="http://www.w3.org/2000/svg">
<path fill-rule="evenodd" clip-rule="evenodd" d="M3.33333 3.16667C3.11232 3.16667 2.90036 3.25447 2.74408 3.41075C2.591 3.56382 2.50363 3.77032 2.50011 3.98642C2.65445 6.45879 3.7062 8.78999 5.45811 10.5419C7.21001 12.2938 9.54121 13.3456 12.0136 13.4999C12.2297 13.4964 12.4362 13.409 12.5893 13.2559C12.7455 13.0996 12.8333 12.8877 12.8333 12.6667V10.4514C12.8333 10.3832 12.7918 10.3219 12.7286 10.2966L10.3415 9.34177C10.2655 9.31139 10.1787 9.34062 10.1366 9.41077L9.74463 10.0641C9.43824 10.5748 8.76073 10.8029 8.20346 10.4674C7.10872 9.80838 6.19163 8.89128 5.53259 7.79655C5.19711 7.23928 5.42525 6.56176 5.9359 6.25537L6.58924 5.86337C6.65938 5.82128 6.68862 5.73451 6.65824 5.65855L5.70339 3.27144C5.67808 3.20816 5.6168 3.16667 5.54864 3.16667H3.33333ZM2.03697 2.70364C2.38079 2.35983 2.8471 2.16667 3.33333 2.16667H5.54864C6.0257 2.16667 6.45469 2.45711 6.63187 2.90005L7.58671 5.28716C7.79938 5.81883 7.59476 6.42625 7.10373 6.72086L6.4504 7.11286C6.41179 7.13603 6.38877 7.1699 6.37982 7.20185C6.37146 7.23167 6.37526 7.25742 6.38933 7.28079C6.96422 8.23576 7.76425 9.03579 8.71921 9.61068C8.74259 9.62475 8.76834 9.62855 8.79816 9.62019C8.8301 9.61123 8.86398 9.58822 8.88714 9.54961L9.27915 8.89627C9.57376 8.40525 10.1812 8.20063 10.7128 8.41329L13.1 9.36814C13.5429 9.54531 13.8333 9.97431 13.8333 10.4514V12.6667C13.8333 13.1529 13.6402 13.6192 13.2964 13.963C12.9525 14.3069 12.4862 14.5 12 14.5C11.9899 14.5 11.9798 14.4997 11.9697 14.4991C9.24728 14.3336 6.67957 13.1776 4.751 11.249C2.82243 9.32044 1.66636 6.75272 1.50092 4.03033C1.50031 4.02024 1.5 4.01012 1.5 4.00001C1.5 3.51377 1.69315 3.04746 2.03697 2.70364Z" fill="white"/>
</svg>
