<svg width="16" height="16" viewBox="0 0 16 16" fill="none" xmlns="http://www.w3.org/2000/svg">
<path fill-rule="evenodd" clip-rule="evenodd" d="M14.6666 8C14.6666 11.6819 11.6819 14.6667 7.99998 14.6667C4.31808 14.6667 1.33331 11.6819 1.33331 8C1.33331 4.3181 4.31808 1.33333 7.99998 1.33333C11.6819 1.33333 14.6666 4.3181 14.6666 8ZM5.64643 5.64644C5.84169 5.45118 6.15827 5.45118 6.35353 5.64644L7.99998 7.29289L9.64643 5.64644C9.84169 5.45118 10.1583 5.45118 10.3535 5.64644C10.5488 5.8417 10.5488 6.15829 10.3535 6.35355L8.70709 8L10.3535 9.64644C10.5488 9.8417 10.5488 10.1583 10.3535 10.3535C10.1583 10.5488 9.84169 10.5488 9.64643 10.3535L7.99998 8.7071L6.35353 10.3535C6.15827 10.5488 5.84169 10.5488 5.64643 10.3535C5.45116 10.1583 5.45116 9.8417 5.64643 9.64644L7.29287 8L5.64643 6.35355C5.45116 6.15829 5.45116 5.8417 5.64643 5.64644Z" fill="white"/>
</svg>
