<svg width="20" height="20" viewBox="0 0 20 20" fill="none" xmlns="http://www.w3.org/2000/svg">
<path d="M10.3064 2.1167C10.7048 2.1167 11.2669 2.30286 11.2669 2.71816V17.9894H3.16278V2.71596C3.16278 2.40336 3.24433 2.1145 3.83229 2.1145H10.3064V2.1167ZM10.3064 0.985971H3.83339C3.5978 0.964819 3.36056 0.994524 3.13743 1.07304C2.9143 1.15155 2.71054 1.27711 2.5401 1.44113C2.36966 1.60515 2.23643 1.8039 2.14942 2.02385C2.0624 2.24381 2.02325 2.47972 2.03535 2.71596V19.1157H12.3965V2.71596C12.3748 2.46451 12.3032 2.21985 12.186 1.9963C12.0689 1.77275 11.9087 1.57484 11.7143 1.41385C11.52 1.25287 11.2951 1.13216 11.0537 1.05871C10.8122 0.985257 10.5586 0.960497 10.3075 0.985971H10.3064Z" fill="white"/>
<path d="M15.7959 18.8371C15.7124 18.8371 15.6537 18.837 15.6322 18.8302H15.6173C15.3443 18.8371 15.0727 18.7879 14.8194 18.6858C14.5661 18.5837 14.3363 18.4307 14.1444 18.2364C13.7323 17.7655 13.5124 17.1568 13.5284 16.5312V11.4755C13.5086 11.1785 13.3802 10.8995 13.1674 10.6913C12.9964 10.5692 12.7938 10.4984 12.5839 10.4872C12.374 10.476 12.1652 10.5247 11.9821 10.628L11.4465 9.63499C11.8319 9.41292 12.2763 9.31473 12.7194 9.35369C13.1625 9.39265 13.5827 9.56674 13.9235 9.85266C14.1469 10.0613 14.3265 10.3122 14.4525 10.5908C14.5784 10.8693 14.6479 11.1699 14.6569 11.4755V16.5538C14.6483 16.8814 14.7563 17.2014 14.9616 17.4567C15.057 17.5444 15.1697 17.6117 15.2922 17.654C15.4148 17.6963 15.5443 17.7129 15.6736 17.7028C16.0034 17.7345 16.3338 17.644 16.6015 17.4487C16.6863 17.3589 16.7511 17.2522 16.7916 17.1355C16.8321 17.0187 16.8473 16.8948 16.8362 16.7718V5.33744L14.1742 2.33456L15.0184 1.58514L17.9648 4.90984V16.7718C17.9776 17.0518 17.93 17.3312 17.8259 17.5914C17.7218 17.8517 17.5633 18.0866 17.3608 18.2805C16.9233 18.6488 16.3677 18.8465 15.7959 18.8371Z" fill="white"/>
<path d="M16.3313 8.13289C16.017 8.13463 15.7064 8.07006 15.4188 7.94333C14.8124 7.6516 14.346 7.13133 14.1227 6.49658C13.4332 4.87037 15.703 3.23177 15.9648 3.05121L16.609 3.9764C16.0222 4.38719 14.9003 5.44358 15.178 6.10038C15.3028 6.45138 15.5555 6.74227 15.8855 6.91509C16.0974 6.98647 16.3218 7.01331 16.5445 6.99389C16.7673 6.97447 16.9835 6.90937 17.1799 6.80241L17.6317 7.83395C17.2237 8.02252 16.7807 8.12423 16.3313 8.13289Z" fill="white"/>
</svg>
