<svg width="24" height="24" viewBox="0 0 24 24" fill="none" xmlns="http://www.w3.org/2000/svg">
<path fill-rule="evenodd" clip-rule="evenodd" d="M5.25 16.5V3.75H15V6H8.25C7.83579 6 7.5 6.33579 7.5 6.75V16.5H5.25ZM7.5 18H4.5C4.08579 18 3.75 17.6642 3.75 17.25V3C3.75 2.58579 4.08579 2.25 4.5 2.25H15.75C16.1642 2.25 16.5 2.58579 16.5 3V6H19.5C19.9142 6 20.25 6.33579 20.25 6.75V21C20.25 21.4142 19.9142 21.75 19.5 21.75H8.25C7.83579 21.75 7.5 21.4142 7.5 21V18ZM9 20.25V7.5H18.75V20.25H9Z" fill="white"/>
</svg>
