<svg width="16" height="16" viewBox="0 0 16 16" fill="none" xmlns="http://www.w3.org/2000/svg">
<path fill-rule="evenodd" clip-rule="evenodd" d="M8.0001 4.90001C7.11644 4.90001 6.4001 5.61635 6.4001 6.50001C6.4001 7.38366 7.11644 8.10001 8.0001 8.10001C8.88375 8.10001 9.6001 7.38366 9.6001 6.50001C9.6001 5.61635 8.88375 4.90001 8.0001 4.90001ZM5.6001 6.50001C5.6001 5.17452 6.67461 4.10001 8.0001 4.10001C9.32558 4.10001 10.4001 5.17452 10.4001 6.50001C10.4001 7.82549 9.32558 8.90001 8.0001 8.90001C6.67461 8.90001 5.6001 7.82549 5.6001 6.50001Z" fill="white"/>
<path fill-rule="evenodd" clip-rule="evenodd" d="M8.0001 1.90001C6.7801 1.90001 5.61007 2.38465 4.74741 3.24731C3.88474 4.10998 3.4001 5.28001 3.4001 6.50001C3.4001 8.60598 4.57484 10.5139 5.80194 11.925C6.41061 12.625 7.0203 13.1891 7.47791 13.578C7.6907 13.7589 7.86997 13.9014 8.0001 14.0015C8.13022 13.9014 8.3095 13.7589 8.52229 13.578C8.9799 13.1891 9.58959 12.625 10.1983 11.925C11.4254 10.5139 12.6001 8.60598 12.6001 6.50001C12.6001 5.28001 12.1155 4.10998 11.2528 3.24731C10.3901 2.38465 9.22009 1.90001 8.0001 1.90001ZM8.0001 14.5C7.77071 14.8277 7.7706 14.8276 7.77046 14.8275L7.76902 14.8265L7.76553 14.824L7.75321 14.8153C7.74267 14.8078 7.72753 14.7969 7.7081 14.7827C7.66924 14.7543 7.61317 14.7128 7.54236 14.6586C7.40077 14.5504 7.20001 14.3918 6.95979 14.1876C6.4799 13.7797 5.83959 13.1875 5.19826 12.45C3.92536 10.9861 2.6001 8.89403 2.6001 6.50001C2.6001 5.06784 3.16902 3.69433 4.18172 2.68163C5.19442 1.66893 6.56793 1.10001 8.0001 1.10001C9.43227 1.10001 10.8058 1.66893 11.8185 2.68163C12.8312 3.69433 13.4001 5.06784 13.4001 6.50001C13.4001 8.89403 12.0748 10.9861 10.8019 12.45C10.1606 13.1875 9.5203 13.7797 9.04041 14.1876C8.80018 14.3918 8.59942 14.5504 8.45784 14.6586C8.38703 14.7128 8.33096 14.7543 8.29209 14.7827C8.27266 14.7969 8.25752 14.8078 8.24699 14.8153L8.23467 14.824L8.23117 14.8265L8.22973 14.8275C8.2296 14.8276 8.22948 14.8277 8.0001 14.5ZM8.0001 14.5L8.22973 14.8275C8.092 14.9239 7.90819 14.9239 7.77046 14.8275L8.0001 14.5Z" fill="white"/>
</svg>
