<svg width="32" height="32" viewBox="0 0 32 32" fill="none" xmlns="http://www.w3.org/2000/svg">
<path fill-rule="evenodd" clip-rule="evenodd" d="M4.33331 8C4.33331 7.44772 4.78103 7 5.33331 7H26.6666C27.2189 7 27.6666 7.44772 27.6666 8C27.6666 8.55228 27.2189 9 26.6666 9H5.33331C4.78103 9 4.33331 8.55228 4.33331 8Z" fill="white"/>
<path fill-rule="evenodd" clip-rule="evenodd" d="M4.33331 16C4.33331 15.4477 4.78103 15 5.33331 15H26.6666C27.2189 15 27.6666 15.4477 27.6666 16C27.6666 16.5523 27.2189 17 26.6666 17H5.33331C4.78103 17 4.33331 16.5523 4.33331 16Z" fill="white"/>
<path fill-rule="evenodd" clip-rule="evenodd" d="M4.33331 24C4.33331 23.4477 4.78103 23 5.33331 23H26.6666C27.2189 23 27.6666 23.4477 27.6666 24C27.6666 24.5523 27.2189 25 26.6666 25H5.33331C4.78103 25 4.33331 24.5523 4.33331 24Z" fill="white"/>
</svg>
