<svg width="16" height="16" viewBox="0 0 16 16" fill="none" xmlns="http://www.w3.org/2000/svg">
<path fill-rule="evenodd" clip-rule="evenodd" d="M7.99998 11C9.65683 11 11 9.65685 11 8C11 6.34314 9.65683 5 7.99998 5C6.34313 5 4.99998 6.34314 4.99998 8C4.99998 9.65685 6.34313 11 7.99998 11ZM7.99998 12C10.2091 12 12 10.2091 12 8C12 5.79086 10.2091 4 7.99998 4C5.79084 4 3.99998 5.79086 3.99998 8C3.99998 10.2091 5.79084 12 7.99998 12Z" fill="white"/>
<path fill-rule="evenodd" clip-rule="evenodd" d="M11.5 8C11.5 7.72385 11.7238 7.5 12 7.5H14.6666C14.9428 7.5 15.1666 7.72385 15.1666 8C15.1666 8.27614 14.9428 8.5 14.6666 8.5H12C11.7238 8.5 11.5 8.27614 11.5 8Z" fill="white"/>
<path fill-rule="evenodd" clip-rule="evenodd" d="M0.833313 8C0.833313 7.72385 1.05717 7.5 1.33331 7.5H3.99998C4.27612 7.5 4.49998 7.72385 4.49998 8C4.49998 8.27614 4.27612 8.5 3.99998 8.5H1.33331C1.05717 8.5 0.833313 8.27614 0.833313 8Z" fill="white"/>
<path fill-rule="evenodd" clip-rule="evenodd" d="M7.99998 4.5C7.72384 4.5 7.49998 4.27614 7.49998 4V1.33333C7.49998 1.05719 7.72384 0.833328 7.99998 0.833328C8.27612 0.833328 8.49998 1.05719 8.49998 1.33333V4C8.49998 4.27614 8.27612 4.5 7.99998 4.5Z" fill="white"/>
<path fill-rule="evenodd" clip-rule="evenodd" d="M7.99998 15.1667C7.72384 15.1667 7.49998 14.9428 7.49998 14.6667V12C7.49998 11.7239 7.72384 11.5 7.99998 11.5C8.27612 11.5 8.49998 11.7239 8.49998 12V14.6667C8.49998 14.9428 8.27612 15.1667 7.99998 15.1667Z" fill="white"/>
</svg>
