<svg width="20" height="20" viewBox="0 0 20 20" fill="none" xmlns="http://www.w3.org/2000/svg">
<path d="M10.8333 13.75C10.8333 13.2898 10.4602 12.9167 9.99999 12.9167C9.53976 12.9167 9.16666 13.2898 9.16666 13.75C9.16666 14.2102 9.53976 14.5833 9.99999 14.5833C10.4602 14.5833 10.8333 14.2102 10.8333 13.75Z" fill="white"/>
<path fill-rule="evenodd" clip-rule="evenodd" d="M9.99999 11.5833C10.4142 11.5833 10.75 11.2475 10.75 10.8333L10.75 7.49999C10.75 7.08578 10.4142 6.74999 9.99999 6.74999C9.58578 6.74999 9.24999 7.08578 9.24999 7.49999L9.24999 10.8333C9.24999 11.2475 9.58578 11.5833 9.99999 11.5833Z" fill="white"/>
<path fill-rule="evenodd" clip-rule="evenodd" d="M8.01535 3.02083C8.89741 1.49306 11.1026 1.49306 11.9846 3.02083L18.4798 14.2708C19.3619 15.7986 18.2593 17.7083 16.4952 17.7083H3.5048C1.74068 17.7083 0.638098 15.7986 1.52016 14.2708L8.01535 3.02083ZM10.9021 3.64583C10.5012 2.95139 9.49882 2.95139 9.09788 3.64583L2.60269 14.8958C2.20175 15.5903 2.70293 16.4583 3.5048 16.4583H16.4952C17.2971 16.4583 17.7982 15.5903 17.3973 14.8958L10.9021 3.64583Z" fill="white"/>
</svg>
