<svg width="20" height="20" viewBox="0 0 20 20" fill="none" xmlns="http://www.w3.org/2000/svg">
<path fill-rule="evenodd" clip-rule="evenodd" d="M18 12.625L16.25 11V8.125C16.25 4.875 13.875 2.25 10.625 1.875V0.625H9.37502V1.875C6.25002 2.25 3.75002 4.875 3.75002 8.125V11L2.00002 12.625C1.87502 12.75 1.75002 12.875 1.87502 13.125V15C1.87502 15.375 2.12502 15.625 2.37502 15.625H6.87502C6.87502 17.375 8.25002 18.75 10 18.75C11.75 18.75 13.125 17.375 13.125 15.625H17.5C17.875 15.625 18.125 15.375 18.125 15.125V13.125C18.125 13 18 12.75 18 12.625ZM10 17.5C9.00004 17.5 8.12504 16.625 8.12504 15.625H11.875C11.875 16.625 11 17.5 10 17.5ZM16.875 14.375H3.12504V13.375L4.75004 11.625C4.87504 11.625 5.00004 11.375 5.00004 11.25V8.125C5.00004 5.375 7.25004 3.125 10 3.125C12.75 3.125 15 5.375 15 8.125V11.25C15 11.375 15.125 11.625 15.125 11.75L16.875 13.375V14.375Z" fill="white"/>
</svg>
