<svg width="20" height="20" viewBox="0 0 20 20" fill="none" xmlns="http://www.w3.org/2000/svg">
<path fill-rule="evenodd" clip-rule="evenodd" d="M10 6.125C8.89543 6.125 8 7.02043 8 8.125C8 9.22957 8.89543 10.125 10 10.125C11.1046 10.125 12 9.22957 12 8.125C12 7.02043 11.1046 6.125 10 6.125ZM7 8.125C7 6.46815 8.34315 5.125 10 5.125C11.6569 5.125 13 6.46815 13 8.125C13 9.78185 11.6569 11.125 10 11.125C8.34315 11.125 7 9.78185 7 8.125Z" fill="white"/>
<path fill-rule="evenodd" clip-rule="evenodd" d="M10 2.375C8.47501 2.375 7.01247 2.9808 5.93414 4.05914C4.8558 5.13747 4.25 6.6 4.25 8.125C4.25 10.7575 5.71842 13.1423 7.2523 14.9063C8.01313 15.7812 8.77525 16.4863 9.34726 16.9725C9.61325 17.1986 9.83734 17.3767 10 17.5019C10.1627 17.3767 10.3867 17.1986 10.6527 16.9725C11.2248 16.4863 11.9869 15.7812 12.7477 14.9063C14.2816 13.1423 15.75 10.7575 15.75 8.125C15.75 6.6 15.1442 5.13747 14.0659 4.05914C12.9875 2.9808 11.525 2.375 10 2.375ZM10 18.125C9.71327 18.5346 9.71312 18.5345 9.71296 18.5344L9.71116 18.5331L9.70679 18.53L9.69139 18.5191C9.67822 18.5097 9.6593 18.4961 9.635 18.4783C9.58642 18.4429 9.51634 18.3909 9.42783 18.3233C9.25085 18.188 8.99989 17.9897 8.69961 17.7345C8.09975 17.2246 7.29937 16.4844 6.4977 15.5625C4.90658 13.7327 3.25 11.1175 3.25 8.125C3.25 6.33479 3.96116 4.6179 5.22703 3.35203C6.4929 2.08616 8.20979 1.375 10 1.375C11.7902 1.375 13.5071 2.08616 14.773 3.35203C16.0388 4.6179 16.75 6.33479 16.75 8.125C16.75 11.1175 15.0934 13.7327 13.5023 15.5625C12.7006 16.4844 11.9002 17.2246 11.3004 17.7345C11.0001 17.9897 10.7492 18.188 10.5722 18.3233C10.4837 18.3909 10.4136 18.4429 10.365 18.4783C10.3407 18.4961 10.3218 18.5097 10.3086 18.5191L10.2932 18.53L10.2888 18.5331L10.287 18.5344C10.2869 18.5345 10.2867 18.5346 10 18.125ZM10 18.125L10.287 18.5344C10.1149 18.6549 9.88512 18.6549 9.71296 18.5344L10 18.125Z" fill="white"/>
</svg>
