<svg width="24" height="24" viewBox="0 0 24 24" fill="none" xmlns="http://www.w3.org/2000/svg">
<path fill-rule="evenodd" clip-rule="evenodd" d="M9.46967 3.46967C9.61032 3.32902 9.80109 3.25 10 3.25H14C14.1989 3.25 14.3897 3.32902 14.5303 3.46967L17.3107 6.25H21C21.4142 6.25 21.75 6.58579 21.75 7V18C21.75 18.4142 21.4142 18.75 21 18.75H3C2.58579 18.75 2.25 18.4142 2.25 18V7C2.25 6.58579 2.58579 6.25 3 6.25H6.68934L9.46967 3.46967ZM10.3107 4.75L7.53033 7.53033C7.38968 7.67098 7.19891 7.75 7 7.75H3.75V17.25H20.25V7.75H17C16.8011 7.75 16.6103 7.67098 16.4697 7.53033L13.6893 4.75H10.3107Z" fill="white"/>
<path fill-rule="evenodd" clip-rule="evenodd" d="M12 14C13.1046 14 14 13.1046 14 12C14 10.8954 13.1046 10 12 10C10.8954 10 10 10.8954 10 12C10 13.1046 10.8954 14 12 14ZM12 15.5C13.933 15.5 15.5 13.933 15.5 12C15.5 10.067 13.933 8.5 12 8.5C10.067 8.5 8.5 10.067 8.5 12C8.5 13.933 10.067 15.5 12 15.5Z" fill="white"/>
</svg>
