<svg width="32" height="32" viewBox="0 0 32 32" fill="none" xmlns="http://www.w3.org/2000/svg">
<path fill-rule="evenodd" clip-rule="evenodd" d="M16 27.3333C22.2592 27.3333 27.3334 22.2592 27.3334 16C27.3334 9.74076 22.2592 4.66666 16 4.66666C9.74079 4.66666 4.66669 9.74076 4.66669 16C4.66669 22.2592 9.74079 27.3333 16 27.3333ZM16 29.3333C23.3638 29.3333 29.3334 23.3638 29.3334 16C29.3334 8.63619 23.3638 2.66666 16 2.66666C8.63622 2.66666 2.66669 8.63619 2.66669 16C2.66669 23.3638 8.63622 29.3333 16 29.3333Z" fill="white"/>
<path fill-rule="evenodd" clip-rule="evenodd" d="M16 6.99999C16.5523 6.99999 17 7.44771 17 7.99999V15.5858L21.3738 19.9596C21.7643 20.3501 21.7643 20.9832 21.3738 21.3738C20.9833 21.7643 20.3501 21.7643 19.9596 21.3738L15.2929 16.7071C15.1054 16.5196 15 16.2652 15 16V7.99999C15 7.44771 15.4477 6.99999 16 6.99999Z" fill="white"/>
</svg>
