<svg width="16" height="16" viewBox="0 0 16 16" fill="none" xmlns="http://www.w3.org/2000/svg">
<path fill-rule="evenodd" clip-rule="evenodd" d="M4.95504 7.7L8.00004 12L11.1 7.63C11.683 6.90222 12.0004 5.99747 12 5.065C12.0139 2.83956 10.2254 1.02199 8.00004 1C6.42608 1.02349 5.00679 1.9525 4.35549 3.38558C3.70419 4.81865 3.93767 6.49881 4.95504 7.7ZM8.99072 4.5C8.99072 5.05228 8.54301 5.5 7.99072 5.5C7.43844 5.5 6.99072 5.05228 6.99072 4.5C6.99072 3.94772 7.43844 3.5 7.99072 3.5C8.54301 3.5 8.99072 3.94772 8.99072 4.5ZM13.9907 6H12.9907V7H13.9907V14H1.99072V7H2.99072V6H1.99072C1.43844 6 0.990723 6.44772 0.990723 7V14C0.990723 14.5523 1.43844 15 1.99072 15H13.9907C14.543 15 14.9907 14.5523 14.9907 14V7C14.9907 6.44772 14.543 6 13.9907 6ZM5.00004 5.065C4.98338 3.39071 6.32578 2.01923 8.00004 2C9.6743 2.01923 11.0167 3.39071 11 5.065C10.9965 5.7688 10.7551 6.45072 10.315 7L8.00004 10.26L5.74504 7.065C5.26743 6.50775 5.00339 5.79891 5.00004 5.065Z" fill="white"/>
</svg>
