<svg width="24" height="24" viewBox="0 0 24 24" fill="none" xmlns="http://www.w3.org/2000/svg">
<path fill-rule="evenodd" clip-rule="evenodd" d="M17.25 15C16.1129 15.0057 15.0398 15.5271 14.3325 16.4175L8.85002 12.99C9.04983 12.3451 9.04983 11.6549 8.85002 11.01L14.3325 7.58251C15.4815 9.00522 17.4891 9.3917 19.0842 8.49723C20.6792 7.60275 21.3964 5.6882 20.7817 3.96588C20.167 2.24357 18.3996 1.21581 16.5987 1.53341C14.7977 1.851 13.4885 3.42131 13.5 5.25001C13.5036 5.58539 13.554 5.91863 13.65 6.24001L8.16752 9.66751C7.17545 8.41863 5.50198 7.93392 3.99603 8.45927C2.49007 8.98461 1.4812 10.4051 1.4812 12C1.4812 13.595 2.49007 15.0154 3.99603 15.5407C5.50198 16.0661 7.17545 15.5814 8.16752 14.3325L13.65 17.76C13.554 18.0814 13.5036 18.4146 13.5 18.75C13.5 20.8211 15.1789 22.5 17.25 22.5C19.3211 22.5 21 20.8211 21 18.75C21 16.6789 19.3211 15 17.25 15ZM17.25 2.99999C18.4926 2.99999 19.5 4.00735 19.5 5.24999C19.5 6.49263 18.4926 7.49999 17.25 7.49999C16.0074 7.49999 15 6.49263 15 5.24999C15 4.00735 16.0074 2.99999 17.25 2.99999ZM5.25 14.25C4.00736 14.25 3 13.2426 3 12C3 10.7574 4.00736 9.74999 5.25 9.74999C6.49264 9.74999 7.5 10.7574 7.5 12C7.5 13.2426 6.49264 14.25 5.25 14.25ZM17.25 21C16.0074 21 15 19.9926 15 18.75C15 17.5074 16.0074 16.5 17.25 16.5C18.4926 16.5 19.5 17.5074 19.5 18.75C19.5 19.9926 18.4926 21 17.25 21Z" fill="white"/>
</svg>
