<svg width="24" height="24" viewBox="0 0 24 24" fill="none" xmlns="http://www.w3.org/2000/svg">
<path fill-rule="evenodd" clip-rule="evenodd" d="M6 9.75C4.75736 9.75 3.75 10.7574 3.75 12C3.75 13.2426 4.75736 14.25 6 14.25C7.24264 14.25 8.25 13.2426 8.25 12C8.25 10.7574 7.24264 9.75 6 9.75ZM2.25 12C2.25 9.92893 3.92893 8.25 6 8.25C8.07107 8.25 9.75 9.92893 9.75 12C9.75 14.0711 8.07107 15.75 6 15.75C3.92893 15.75 2.25 14.0711 2.25 12Z" fill="white"/>
<path fill-rule="evenodd" clip-rule="evenodd" d="M18 3.75C16.7574 3.75 15.75 4.75736 15.75 6C15.75 7.24264 16.7574 8.25 18 8.25C19.2426 8.25 20.25 7.24264 20.25 6C20.25 4.75736 19.2426 3.75 18 3.75ZM14.25 6C14.25 3.92893 15.9289 2.25 18 2.25C20.0711 2.25 21.75 3.92893 21.75 6C21.75 8.07107 20.0711 9.75 18 9.75C15.9289 9.75 14.25 8.07107 14.25 6Z" fill="white"/>
<path fill-rule="evenodd" clip-rule="evenodd" d="M18 15.75C16.7574 15.75 15.75 16.7574 15.75 18C15.75 19.2426 16.7574 20.25 18 20.25C19.2426 20.25 20.25 19.2426 20.25 18C20.25 16.7574 19.2426 15.75 18 15.75ZM14.25 18C14.25 15.9289 15.9289 14.25 18 14.25C20.0711 14.25 21.75 15.9289 21.75 18C21.75 20.0711 20.0711 21.75 18 21.75C15.9289 21.75 14.25 20.0711 14.25 18Z" fill="white"/>
<path fill-rule="evenodd" clip-rule="evenodd" d="M15.9667 6.95658C16.1564 7.32481 16.0117 7.77709 15.6435 7.96678L9.04348 11.3668C8.67525 11.5565 8.22297 11.4117 8.03328 11.0435C7.84359 10.6753 7.98832 10.223 8.35654 10.0333L14.9565 6.63332C15.3248 6.44363 15.7771 6.58836 15.9667 6.95658Z" fill="white"/>
<path fill-rule="evenodd" clip-rule="evenodd" d="M8.03328 12.9566C8.22297 12.5884 8.67525 12.4436 9.04348 12.6333L15.6435 16.0333C16.0117 16.223 16.1564 16.6753 15.9667 17.0435C15.7771 17.4117 15.3248 17.5565 14.9565 17.3668L8.35654 13.9668C7.98832 13.7771 7.84359 13.3248 8.03328 12.9566Z" fill="white"/>
</svg>
