<svg width="20" height="20" viewBox="0 0 20 20" fill="none" xmlns="http://www.w3.org/2000/svg">
<path fill-rule="evenodd" clip-rule="evenodd" d="M18.3333 10C18.3333 14.6024 14.6024 18.3333 9.99999 18.3333C5.39762 18.3333 1.66666 14.6024 1.66666 10C1.66666 5.39763 5.39762 1.66667 9.99999 1.66667C14.6024 1.66667 18.3333 5.39763 18.3333 10ZM7.05805 7.05806C7.30213 6.81399 7.69785 6.81399 7.94193 7.05806L9.99999 9.11612L12.058 7.05806C12.3021 6.81399 12.6979 6.81399 12.9419 7.05806C13.186 7.30214 13.186 7.69787 12.9419 7.94195L10.8839 10L12.9419 12.0581C13.186 12.3021 13.186 12.6979 12.9419 12.9419C12.6979 13.186 12.3021 13.186 12.058 12.9419L9.99999 10.8839L7.94193 12.9419C7.69785 13.186 7.30213 13.186 7.05805 12.9419C6.81397 12.6979 6.81397 12.3021 7.05805 12.0581L9.11611 10L7.05805 7.94195C6.81397 7.69787 6.81397 7.30214 7.05805 7.05806Z" fill="white"/>
</svg>
