<svg width="16" height="16" viewBox="0 0 16 16" fill="none" xmlns="http://www.w3.org/2000/svg">
    <path fill-rule="evenodd" clip-rule="evenodd" d="M2.167 4.667a.5.5 0 0 1 .5-.5h10.666a.5.5 0 0 1 0 1H2.667a.5.5 0 0 1-.5-.5zM6.667 6.833a.5.5 0 0 1 .5.5v4a.5.5 0 1 1-1 0v-4a.5.5 0 0 1 .5-.5zM9.333 6.833a.5.5 0 0 1 .5.5v4a.5.5 0 1 1-1 0v-4a.5.5 0 0 1 .5-.5z" fill="#fff"/>
    <path fill-rule="evenodd" clip-rule="evenodd" d="M3.167 4.167h9.666V13a1.5 1.5 0 0 1-1.5 1.5H4.667a1.5 1.5 0 0 1-1.5-1.5V4.167zm1 1V13a.5.5 0 0 0 .5.5h6.666a.5.5 0 0 0 .5-.5V5.167H4.167z" fill="#fff"/>
    <path fill-rule="evenodd" clip-rule="evenodd" d="M6.667 2.5a.167.167 0 0 0-.167.167v2a.5.5 0 0 1-1 0v-2A1.167 1.167 0 0 1 6.667 1.5h2.666A1.167 1.167 0 0 1 10.5 2.667v2a.5.5 0 0 1-1 0v-2a.167.167 0 0 0-.167-.167H6.667z" fill="#fff"/>
</svg>
