<svg width="32" height="32" viewBox="0 0 32 32" fill="none" xmlns="http://www.w3.org/2000/svg">
    <path fill-rule="evenodd" clip-rule="evenodd" d="M10.667 5.333H7.333a2 2 0 0 0-2 2v20a2 2 0 0 0 2 2h17.334a2 2 0 0 0 2-2v-20a2 2 0 0 0-2-2h-3.334v2h3.334v20H7.333v-20h3.334v-2z" fill="#fff"/>
    <path fill-rule="evenodd" clip-rule="evenodd" d="M19.333 4.667h-6.666v2.666h6.666V4.667zm-6.666-2a2 2 0 0 0-2 2v2.666a2 2 0 0 0 2 2h6.666a2 2 0 0 0 2-2V4.667a2 2 0 0 0-2-2h-6.666zM10.333 13.333a1 1 0 0 1 1-1h9.334a1 1 0 0 1 0 2h-9.334a1 1 0 0 1-1-1zM10.333 18a1 1 0 0 1 1-1H18a1 1 0 1 1 0 2h-6.667a1 1 0 0 1-1-1zM10.333 22.667a1 1 0 0 1 1-1h4a1 1 0 1 1 0 2h-4a1 1 0 0 1-1-1z" fill="#fff"/>
</svg>
