<svg width="16" height="16" viewBox="0 0 16 16" fill="none" xmlns="http://www.w3.org/2000/svg">
<path fill-rule="evenodd" clip-rule="evenodd" d="M11.5001 10C10.742 10.0038 10.0266 10.3514 9.55509 10.945L5.90009 8.66002C6.0333 8.2301 6.0333 7.76994 5.90009 7.34002L9.55509 5.05502C10.3211 6.0035 11.6595 6.26115 12.7229 5.66483C13.7862 5.06851 14.2644 3.79215 13.8546 2.64394C13.4448 1.49573 12.2665 0.810558 11.0659 1.02229C9.86524 1.23402 8.99242 2.28089 9.00009 3.50002C9.00245 3.72361 9.03611 3.94577 9.10009 4.16002L5.44509 6.44502C4.78372 5.61243 3.66807 5.28929 2.6641 5.63953C1.66013 5.98976 0.987549 6.93672 0.987549 8.00002C0.987549 9.06332 1.66013 10.0103 2.6641 10.3605C3.66807 10.7107 4.78372 10.3876 5.44509 9.55502L9.10009 11.84C9.03611 12.0543 9.00245 12.2764 9.00009 12.5C9.00009 13.8807 10.1194 15 11.5001 15C12.8808 15 14.0001 13.8807 14.0001 12.5C14.0001 11.1193 12.8808 10 11.5001 10ZM11.5001 1.99999C12.3285 1.99999 13.0001 2.67157 13.0001 3.49999C13.0001 4.32842 12.3285 4.99999 11.5001 4.99999C10.6716 4.99999 10.0001 4.32842 10.0001 3.49999C10.0001 2.67157 10.6716 1.99999 11.5001 1.99999ZM3.50006 9.49999C2.67163 9.49999 2.00006 8.82842 2.00006 7.99999C2.00006 7.17157 2.67163 6.49999 3.50006 6.49999C4.32849 6.49999 5.00006 7.17157 5.00006 7.99999C5.00006 8.82842 4.32849 9.49999 3.50006 9.49999ZM11.5001 14C10.6716 14 10.0001 13.3284 10.0001 12.5C10.0001 11.6716 10.6716 11 11.5001 11C12.3285 11 13.0001 11.6716 13.0001 12.5C13.0001 13.3284 12.3285 14 11.5001 14Z" fill="white"/>
</svg>
