<svg width="16" height="16" viewBox="0 0 16 16" fill="none" xmlns="http://www.w3.org/2000/svg">
    <path fill-rule="evenodd" clip-rule="evenodd" d="M12.125 3.875a.5.5 0 0 1 0 .707l-7.543 7.543a.5.5 0 0 1-.707-.707l7.543-7.543a.5.5 0 0 1 .707 0z" fill="#fff"/>
    <path fill-rule="evenodd" clip-rule="evenodd" d="M3.875 3.875a.5.5 0 0 1 .707 0l7.543 7.543a.5.5 0 0 1-.707.707L3.875 4.582a.5.5 0 0 1 0-.707z" fill="#fff"/>
    <path fill-rule="evenodd" clip-rule="evenodd" d="M12.125 3.875a.5.5 0 0 1 0 .707l-7.543 7.543a.5.5 0 0 1-.707-.707l7.543-7.543a.5.5 0 0 1 .707 0z" fill="#fff"/>
    <path fill-rule="evenodd" clip-rule="evenodd" d="M3.875 3.875a.5.5 0 0 1 .707 0l7.543 7.543a.5.5 0 0 1-.707.707L3.875 4.582a.5.5 0 0 1 0-.707z" fill="#fff"/>
</svg>
