<svg width="24" height="24" viewBox="0 0 24 24" fill="none" xmlns="http://www.w3.org/2000/svg">
<path fill-rule="evenodd" clip-rule="evenodd" d="M21.5303 2.46967C21.8232 2.76256 21.8232 3.23744 21.5303 3.53033L3.53033 21.5303C3.23744 21.8232 2.76256 21.8232 2.46967 21.5303C2.17678 21.2374 2.17678 20.7626 2.46967 20.4697L20.4697 2.46967C20.7626 2.17678 21.2374 2.17678 21.5303 2.46967Z" fill="white"/>
<path fill-rule="evenodd" clip-rule="evenodd" d="M17.5858 3H4.5C3.67157 3 3 3.67157 3 4.5V17.5858L4.5 16.0858V14.5L4.53033 14.5303L8 11.0607L8.76256 11.8232L9.82322 10.7626L8.53033 9.46967C8.23744 9.17678 7.76256 9.17678 7.46967 9.46967L4.5 12.4393L4.5 4.5H16.0858L17.5858 3ZM11.2374 12.1768L13.046 13.9854L15.5199 11.9238C15.8179 11.6755 16.256 11.6954 16.5303 11.9697L19.5 14.9393V4.5H18.9142L20.2267 3.18749C20.6879 3.44337 21 3.93524 21 4.5V19.5C21 20.3284 20.3284 21 19.5 21H4.5C3.93523 21 3.44337 20.6879 3.18749 20.2267L4.5 18.9142V19.5H19.5V17L19.4697 17.0303L15.954 13.5146L13.4801 15.5762C13.1821 15.8245 12.744 15.8046 12.4697 15.5303L10.1768 13.2374L11.2374 12.1768Z" fill="white"/>
</svg>
