<svg width="24" height="24" viewBox="0 0 24 24" fill="none" xmlns="http://www.w3.org/2000/svg">
<path fill-rule="evenodd" clip-rule="evenodd" d="M8 4H5.5C4.67157 4 4 4.67157 4 5.5V20.5C4 21.3284 4.67157 22 5.5 22H18.5C19.3284 22 20 21.3284 20 20.5V5.5C20 4.67157 19.3284 4 18.5 4H16V5.5H18.5V20.5H5.5V5.5H8V4Z" fill="white"/>
<path fill-rule="evenodd" clip-rule="evenodd" d="M14.5 3.5H9.5V5.5H14.5V3.5ZM9.5 2C8.67157 2 8 2.67157 8 3.5V5.5C8 6.32843 8.67157 7 9.5 7H14.5C15.3284 7 16 6.32843 16 5.5V3.5C16 2.67157 15.3284 2 14.5 2H9.5Z" fill="white"/>
<path fill-rule="evenodd" clip-rule="evenodd" d="M7.75 10C7.75 9.58579 8.08579 9.25 8.5 9.25H15.5C15.9142 9.25 16.25 9.58579 16.25 10C16.25 10.4142 15.9142 10.75 15.5 10.75H8.5C8.08579 10.75 7.75 10.4142 7.75 10Z" fill="white"/>
<path fill-rule="evenodd" clip-rule="evenodd" d="M7.75 13.5C7.75 13.0858 8.08579 12.75 8.5 12.75H13.5C13.9142 12.75 14.25 13.0858 14.25 13.5C14.25 13.9142 13.9142 14.25 13.5 14.25H8.5C8.08579 14.25 7.75 13.9142 7.75 13.5Z" fill="white"/>
<path fill-rule="evenodd" clip-rule="evenodd" d="M7.75 17C7.75 16.5858 8.08579 16.25 8.5 16.25H11.5C11.9142 16.25 12.25 16.5858 12.25 17C12.25 17.4142 11.9142 17.75 11.5 17.75H8.5C8.08579 17.75 7.75 17.4142 7.75 17Z" fill="white"/>
</svg>
