<svg width="20" height="20" viewBox="0 0 20 20" fill="none" xmlns="http://www.w3.org/2000/svg">
<path fill-rule="evenodd" clip-rule="evenodd" d="M9.3869 17.4752V15.5304H10.6369V17.4732C14.2774 17.1671 17.178 14.2605 17.4749 10.6174H15.5443V9.36737H17.4736C17.1693 5.72316 14.2594 2.81941 10.6125 2.52465V4.47706H9.36249V2.52671C5.71916 2.83339 2.81705 5.74448 2.52438 9.39178H4.44962V10.6418H2.52716C2.83564 14.2814 5.74337 17.1804 9.3869 17.4752ZM1.27326 10.6418C1.58722 14.9722 5.05264 18.4287 9.3869 18.7287V18.7499H10H10.6369V18.727C14.9682 18.4155 18.4264 14.9513 18.7285 10.6174H18.7498V10.0404L18.7499 9.99993L18.7498 9.95948V9.36737H18.7274C18.4177 5.03241 14.9501 1.57103 10.6125 1.2711V1.25H10H9.36249V1.27287C5.02841 1.58495 1.56869 5.05377 1.27088 9.39178H1.25V10.6418H1.27326ZM7.75109 8.05842C7.81387 7.91833 7.92602 7.80624 8.06614 7.74354L14.1468 5.02243C14.3833 4.9166 14.6605 4.96764 14.8438 5.15074C15.0271 5.33384 15.0784 5.61103 14.9728 5.84761L12.2569 11.9335C12.1942 12.0741 12.0818 12.1866 11.9412 12.2494L5.84808 14.9725C5.61144 15.0783 5.33408 15.027 5.15089 14.8437C4.9677 14.6603 4.91671 14.3829 5.02272 14.1463L7.75109 8.05842ZM6.83314 13.1631L11.2129 11.2057L13.1651 6.83121L8.79429 8.78714L6.83314 13.1631ZM10.6912 9.99996C10.6912 10.3817 10.3818 10.6911 10 10.6911C9.6183 10.6911 9.30885 10.3817 9.30885 9.99996C9.30885 9.61823 9.6183 9.30878 10 9.30878C10.3818 9.30878 10.6912 9.61823 10.6912 9.99996Z" fill="white"/>
</svg>
