<svg width="24" height="24" viewBox="0 0 24 24" fill="none" xmlns="http://www.w3.org/2000/svg">
<path d="M12 16.5C12.8284 16.5 13.5 15.8284 13.5 15C13.5 14.1716 12.8284 13.5 12 13.5C11.1716 13.5 10.5 14.1716 10.5 15C10.5 15.8284 11.1716 16.5 12 16.5Z" fill="#181819"/>
<path fill-rule="evenodd" clip-rule="evenodd" d="M7.25 7C7.25 4.37665 9.37665 2.25 12 2.25C14.6234 2.25 16.75 4.37665 16.75 7V9H18.5C19.3284 9 20 9.67157 20 10.5V19.5C20 20.3284 19.3284 21 18.5 21H5.5C4.67157 21 4 20.3284 4 19.5V10.5C4 9.67157 4.67157 9 5.5 9H7.25V7ZM15.25 7V9H8.75V7C8.75 5.20507 10.2051 3.75 12 3.75C13.7949 3.75 15.25 5.20507 15.25 7ZM5.5 10.5V19.5H18.5V10.5H5.5Z" fill="#181819"/>
</svg>
