<svg width="24" height="24" viewBox="0 0 24 24" fill="none" xmlns="http://www.w3.org/2000/svg">
<path fill-rule="evenodd" clip-rule="evenodd" d="M4.75227 4.77337C4.75227 3.2414 5.99367 2 7.52563 2C8.49267 2 9.34295 2.49622 9.83826 3.24287L12.0685 5.96483L14.2986 3.243C14.7941 2.49527 15.6438 2 16.6113 2C18.1433 2 19.3847 3.2414 19.3847 4.77337C19.3847 5.34675 19.2108 5.87943 18.9128 6.32156H20.4979C21.8798 6.32156 23 7.44181 23 8.8237V9.76791C23 10.9692 22.1534 11.9728 21.0244 12.2146V18.123C21.0244 19.9255 19.6647 21.4727 17.8861 21.4727H6.11461C4.33604 21.4727 2.97635 19.9255 2.97635 18.123V12.2147C1.84691 11.9732 1 10.9694 1 9.76791V8.8237C1 7.44181 2.12025 6.32156 3.50215 6.32156H5.22412C4.92617 5.87943 4.75227 5.34675 4.75227 4.77337ZM9.03405 7.54902H3.50215C2.79816 7.54902 2.22747 8.11972 2.22747 8.8237V9.76791C2.22747 10.4719 2.79816 11.0426 3.50215 11.0426H3.62061V11.011H9.03405V7.54902ZM20.7811 11.011C21.3488 10.8822 21.7725 10.3745 21.7725 9.76791V8.8237C21.7725 8.11972 21.2018 7.54902 20.4979 7.54902H14.9658V11.011H20.7811ZM10.2615 7.54902H13.7383V11.011H10.2615V7.54902ZM4.20382 12.2701V18.123C4.20382 19.3424 5.10503 20.2453 6.11461 20.2453H9.03405V12.2701H4.20382ZM10.2615 12.2701V20.2452H13.7383V12.2701H10.2615ZM14.9658 12.2701V20.2453H17.8861C18.8957 20.2453 19.7969 19.3424 19.7969 18.123V12.2701H14.9658ZM7.52563 3.22747C6.67158 3.22747 5.97973 3.91931 5.97973 4.77337C5.97973 5.62742 6.67158 6.31926 7.52563 6.31926H10.772L8.84574 3.96827L8.82675 3.93879C8.55038 3.50976 8.07034 3.22747 7.52563 3.22747ZM15.3104 3.9385C15.5866 3.50919 16.0656 3.22747 16.6113 3.22747C17.4654 3.22747 18.1572 3.91931 18.1572 4.77337C18.1572 5.62742 17.4654 6.31926 16.6113 6.31926H13.3649L15.2913 3.96813L15.3104 3.9385Z" fill="white"/>
</svg>
