<svg width="20" height="20" viewBox="0 0 20 20" fill="none" xmlns="http://www.w3.org/2000/svg">
    <path fill-rule="evenodd" clip-rule="evenodd" d="M17.942 2.942a.625.625 0 1 0-.884-.884l-15 15a.625.625 0 1 0 .884.884l2.565-2.565c1.404.745 2.953 1.081 4.493 1.081 2.994 0 6.018-1.27 7.96-4.342a3.969 3.969 0 0 0 0-4.232 9.382 9.382 0 0 0-2.38-2.58l2.362-2.362zM14.683 6.2l-1.926 1.926a3.333 3.333 0 0 1-4.63 4.63l-1.689 1.69c1.121.524 2.338.762 3.562.762 2.626 0 5.22-1.098 6.902-3.76a2.72 2.72 0 0 0 0-2.896A8.098 8.098 0 0 0 14.684 6.2zm-5.647 5.647a2.083 2.083 0 0 0 2.811-2.811l-2.81 2.811z" fill="#fff"/>
    <path d="M10 3.542c.988 0 1.98.138 2.935.434l-1.021 1.02A8.842 8.842 0 0 0 10 4.793c-2.626 0-5.22 1.098-6.902 3.76a2.72 2.72 0 0 0 0 2.896c.314.498.66.94 1.033 1.332l-.885.885a9.8 9.8 0 0 1-1.205-1.55 3.969 3.969 0 0 1 0-4.23C3.982 4.81 7.006 3.541 10 3.541z" fill="#fff"/>
    <path d="M10 6.667c.08 0 .158.002.236.008l-3.561 3.56A3.333 3.333 0 0 1 10 6.666z" fill="#fff"/>
</svg>
