<svg width="20" height="20" viewBox="0 0 20 20" fill="none" xmlns="http://www.w3.org/2000/svg">
<path fill-rule="evenodd" clip-rule="evenodd" d="M14.0312 3.75C14.9505 3.74923 15.8313 4.11868 16.475 4.775C17.841 6.16177 17.841 8.38823 16.475 9.775L9.99999 16.3313L3.52499 9.775C2.15898 8.38823 2.15898 6.16177 3.52499 4.775C4.169 4.11918 5.04958 3.74973 5.96874 3.74973C6.88789 3.74973 7.76848 4.11918 8.41249 4.775L9.99999 6.4L11.5812 4.7875C12.2231 4.12322 13.1075 3.74868 14.0312 3.75ZM14.0312 2.5C12.7757 2.49894 11.5727 3.00357 10.6937 3.9L9.99998 4.6L9.30623 3.9C8.4262 3.00524 7.22374 2.50131 5.96873 2.50131C4.71372 2.50131 3.51126 3.00524 2.63123 3.9C0.787311 5.77708 0.787311 8.78542 2.63123 10.6625L9.99998 18.125L17.3687 10.6625C19.2127 8.78542 19.2127 5.77708 17.3687 3.9C16.4889 3.00476 15.2864 2.50035 14.0312 2.5Z" fill="white"/>
</svg>
