<svg width="88" height="88" viewBox="0 0 88 88" fill="none" xmlns="http://www.w3.org/2000/svg">
<path fill-rule="evenodd" clip-rule="evenodd" d="M0.25 44C0.25 19.625 19.625 0.25 44 0.25C68.375 0.25 87.75 19.625 87.75 44C87.75 68.375 68.375 87.75 44 87.75C19.625 87.75 0.25 68.375 0.25 44ZM6.5 44C6.5 64.625 23.375 81.5 44 81.5C64.625 81.5 81.5 64.625 81.5 44C81.5 23.375 64.625 6.5 44 6.5C23.375 6.5 6.5 23.375 6.5 44Z" fill="#FFA400"/>
<path d="M38.7495 28.3525L38.437 19.665H47.687L47.3745 28.3525L46.062 51.415H40.062L38.7495 28.3525ZM43.062 68.04C41.437 68.04 40.0828 67.4775 38.9995 66.3525C37.9162 65.1859 37.3745 63.7484 37.3745 62.04C37.3745 60.3317 37.9162 58.915 38.9995 57.79C40.0828 56.6234 41.437 56.04 43.062 56.04C44.687 56.04 46.0412 56.6234 47.1245 57.79C48.2495 58.915 48.812 60.3317 48.812 62.04C48.812 63.7484 48.2495 65.1859 47.1245 66.3525C46.0412 67.4775 44.687 68.04 43.062 68.04Z" fill="#FFA400"/>
</svg>
