<svg width="16" height="16" viewBox="0 0 16 16" fill="none" xmlns="http://www.w3.org/2000/svg">
<path fill-rule="evenodd" clip-rule="evenodd" d="M7.99998 13.6667C11.1296 13.6667 13.6666 11.1296 13.6666 8.00001C13.6666 4.8704 11.1296 2.33334 7.99998 2.33334C4.87037 2.33334 2.33331 4.8704 2.33331 8.00001C2.33331 11.1296 4.87037 13.6667 7.99998 13.6667ZM7.99998 14.6667C11.6819 14.6667 14.6666 11.6819 14.6666 8.00001C14.6666 4.31811 11.6819 1.33334 7.99998 1.33334C4.31808 1.33334 1.33331 4.31811 1.33331 8.00001C1.33331 11.6819 4.31808 14.6667 7.99998 14.6667Z" fill="white"/>
<path d="M8.66665 5.66668C8.66665 6.03487 8.36817 6.33334 7.99998 6.33334C7.63179 6.33334 7.33331 6.03487 7.33331 5.66668C7.33331 5.29849 7.63179 5.00001 7.99998 5.00001C8.36817 5.00001 8.66665 5.29849 8.66665 5.66668Z" fill="white"/>
<path fill-rule="evenodd" clip-rule="evenodd" d="M7.99998 7.40001C8.33135 7.40001 8.59998 7.66864 8.59998 8.00001V10.6667C8.59998 10.998 8.33135 11.2667 7.99998 11.2667C7.66861 11.2667 7.39998 10.998 7.39998 10.6667L7.39998 8.00001C7.39998 7.66864 7.66861 7.40001 7.99998 7.40001Z" fill="white"/>
</svg>
