<svg width="24" height="24" viewBox="0 0 24 24" fill="none" xmlns="http://www.w3.org/2000/svg">
    <path fill-rule="evenodd" clip-rule="evenodd" d="M3.25 11a.75.75 0 0 1 .75-.75h16a.75.75 0 0 1 0 1.5H4a.75.75 0 0 1-.75-.75zM16 2.25a.75.75 0 0 1 .75.75v4a.75.75 0 0 1-1.5 0V3a.75.75 0 0 1 .75-.75zM8 2.25a.75.75 0 0 1 .75.75v4a.75.75 0 0 1-1.5 0V3A.75.75 0 0 1 8 2.25z" fill="#fff"/>
    <path fill-rule="evenodd" clip-rule="evenodd" d="M19.5 5.5h-15v14h15v-14zM4.5 4A1.5 1.5 0 0 0 3 5.5v14A1.5 1.5 0 0 0 4.5 21h15a1.5 1.5 0 0 0 1.5-1.5v-14A1.5 1.5 0 0 0 19.5 4h-15z" fill="#fff"/>
</svg>
