<svg width="24" height="24" viewBox="0 0 24 24" fill="none" xmlns="http://www.w3.org/2000/svg">
<path fill-rule="evenodd" clip-rule="evenodd" d="M12.0001 7.34999C10.6747 7.34999 9.60015 8.42451 9.60015 9.74999C9.60015 11.0755 10.6747 12.15 12.0001 12.15C13.3256 12.15 14.4001 11.0755 14.4001 9.74999C14.4001 8.42451 13.3256 7.34999 12.0001 7.34999ZM8.40015 9.74999C8.40015 7.76177 10.0119 6.14999 12.0001 6.14999C13.9884 6.14999 15.6001 7.76177 15.6001 9.74999C15.6001 11.7382 13.9884 13.35 12.0001 13.35C10.0119 13.35 8.40015 11.7382 8.40015 9.74999Z" fill="white"/>
<path fill-rule="evenodd" clip-rule="evenodd" d="M12.0001 2.84999C10.1702 2.84999 8.41511 3.57696 7.12111 4.87096C5.82711 6.16496 5.10015 7.92 5.10015 9.74999C5.10015 12.909 6.86225 15.7708 8.70291 17.8875C9.61591 18.9375 10.5304 19.7836 11.2169 20.367C11.536 20.6384 11.805 20.8521 12.0001 21.0022C12.1953 20.8521 12.4642 20.6384 12.7834 20.367C13.4698 19.7836 14.3844 18.9375 15.2974 17.8875C17.138 15.7708 18.9001 12.909 18.9001 9.74999C18.9001 7.92 18.1732 6.16496 16.8792 4.87096C15.5852 3.57696 13.8301 2.84999 12.0001 2.84999ZM12.0001 21.75C11.6561 22.2415 11.6559 22.2414 11.6557 22.2413L11.6535 22.2398L11.6483 22.2361L11.6298 22.2229C11.614 22.2116 11.5913 22.1953 11.5622 22.174C11.5039 22.1314 11.4198 22.0691 11.3135 21.9879C11.1012 21.8256 10.8 21.5877 10.4397 21.2814C9.71985 20.6695 8.75938 19.7813 7.79738 18.6749C5.88804 16.4792 3.90015 13.341 3.90015 9.74999C3.90015 7.60174 4.75354 5.54147 6.27258 4.02243C7.79163 2.50338 9.85189 1.64999 12.0001 1.64999C14.1484 1.64999 16.2087 2.50338 17.7277 4.02243C19.2468 5.54147 20.1001 7.60174 20.1001 9.74999C20.1001 13.341 18.1123 16.4792 16.2029 18.6749C15.2409 19.7813 14.2804 20.6695 13.5606 21.2814C13.2003 21.5877 12.8991 21.8256 12.6868 21.9879C12.5805 22.0691 12.4964 22.1314 12.4381 22.174C12.409 22.1953 12.3863 22.2116 12.3705 22.2229L12.352 22.2361L12.3468 22.2398L12.3446 22.2413C12.3444 22.2414 12.3442 22.2415 12.0001 21.75ZM12.0001 21.75L12.3446 22.2413C12.138 22.3859 11.8623 22.3859 11.6557 22.2413L12.0001 21.75Z" fill="white"/>
</svg>
