<svg width="32" height="32" viewBox="0 0 32 32" fill="none" xmlns="http://www.w3.org/2000/svg">
<path fill-rule="evenodd" clip-rule="evenodd" d="M5.88014 21.8949C7.29157 24.3565 9.55177 26.2194 12.2376 27.1348C13.4589 27.551 14.7302 27.7583 15.9999 27.7585C16.5522 27.7585 16.9999 27.3108 17 26.7586C17.0001 26.2063 16.5524 25.7585 16.0001 25.7585C14.9481 25.7584 13.8948 25.5866 12.8828 25.2417C10.6574 24.4832 8.78464 22.9397 7.61517 20.9001C6.4457 18.8604 6.05967 16.4645 6.52934 14.1607C6.99901 11.857 8.29219 9.8034 10.1668 8.38436C12.0414 6.96532 14.3689 6.27813 16.7136 6.45142C19.0584 6.62471 21.2596 7.6466 22.9052 9.3258C24.5508 11.005 25.5281 13.2264 25.654 15.5742C25.7685 17.7102 25.1712 19.8177 23.9655 21.5703C23.6525 22.0253 23.7676 22.648 24.2226 22.961C24.6776 23.274 25.3002 23.1589 25.6132 22.7039C27.0684 20.5885 27.7893 18.0451 27.6511 15.4671C27.4992 12.6336 26.3197 9.95257 24.3336 7.92595C22.3475 5.89932 19.6909 4.666 16.8611 4.45686C14.0312 4.24771 11.2221 5.07709 8.95968 6.78972C6.69722 8.50235 5.1365 10.9808 4.56965 13.7612C4.00281 16.5416 4.46871 19.4332 5.88014 21.8949Z" fill="white"/>
<path fill-rule="evenodd" clip-rule="evenodd" d="M22.4078 17.5757C21.8744 17.7187 21.5578 18.267 21.7007 18.8005L22.9091 23.3101C23.052 23.8436 23.6004 24.1602 24.1338 24.0172L28.6435 22.8089C29.177 22.6659 29.4936 22.1176 29.3506 21.5841C29.2077 21.0507 28.6593 20.7341 28.1259 20.877L24.5821 21.8266L23.6326 18.2828C23.4896 17.7494 22.9413 17.4328 22.4078 17.5757Z" fill="white"/>
</svg>
