<svg width="32" height="32" viewBox="0 0 32 32" fill="none" xmlns="http://www.w3.org/2000/svg">
<path d="M7.46904 3.60572C7.76057 3.61112 8.04614 3.68544 8.30322 3.82303C8.5603 3.96062 8.78106 4.15739 8.94726 4.39697L11.4148 8.16569C11.4148 8.16569 12.5848 10.0696 11.4148 11.1966L10.9828 11.803C10.7191 12.1252 10.5709 12.5267 10.5631 12.943C10.5552 13.3593 10.6876 13.7664 10.939 14.0983C12.6806 16.6852 14.8821 18.9306 17.4337 20.7236C17.7714 20.9197 18.1543 21.0257 18.5448 21.0307C18.9053 21.0324 19.2579 20.9252 19.5568 20.7236L20.3358 20.1172C20.7738 19.7391 21.3234 19.5143 21.9008 19.4767C22.2593 19.4761 22.6073 19.5948 22.8909 19.814C24.3615 20.6151 25.7406 21.5737 27.004 22.6728C27.004 22.6728 28.3049 23.929 27.6104 25.1403C27.0271 26.0272 26.3756 26.867 25.6616 27.6525C25.4126 27.9105 25.1109 28.1115 24.7766 28.2413C24.4423 28.3711 24.0831 28.4266 23.7251 28.4043C22.9045 28.3784 22.1014 28.1662 21.375 27.7835C14.3131 24.5717 8.5339 19.082 4.96386 12.1942C4.19464 10.8841 3.66622 9.44665 3.40415 7.95014C3.39248 7.21012 3.57179 6.47978 3.92463 5.82919C4.54782 5.21576 5.22901 4.66463 5.95927 4.18361C6.38954 3.83817 6.91803 3.63659 7.46904 3.60748V3.60572ZM7.46904 1.81293C6.56146 1.8348 5.68258 2.13878 4.95597 2.68304C4.13398 3.22461 3.36774 3.84648 2.6681 4.53892L2.58573 4.61778L2.51563 4.7076C1.89022 5.67126 1.57211 6.80172 1.60259 7.95014V7.99702V8.04171C1.86155 9.82639 2.47147 11.5421 3.39714 13.0897C7.1436 20.3192 13.2196 26.0732 20.6425 29.4203C21.5965 29.9026 22.6459 30.1661 23.7146 30.1918C24.3196 30.2135 24.9223 30.1063 25.4829 29.8777C26.0434 29.6491 26.5491 29.3043 26.9663 28.8656C27.7492 28.0101 28.4621 27.093 29.0982 26.1234L29.1307 26.0752L29.1578 26.0249C29.5356 25.2657 29.654 24.4035 29.4952 23.5705C29.3364 22.7375 28.9087 21.9796 28.2781 21.4127C26.929 20.2002 25.441 19.1526 23.8443 18.292C23.2714 17.8913 22.5885 17.6764 21.8894 17.6764C20.895 17.7083 19.9414 18.0779 19.1853 18.7244L18.5413 19.2252H18.5307C18.4681 19.2224 18.4067 19.2061 18.3511 19.177C16.0285 17.5226 14.022 15.4634 12.4286 13.0985C12.3979 13.057 12.3736 13.0111 12.3567 12.9623L12.4882 12.8545L12.4356 12.8422L12.7948 12.3484C13.3666 11.6232 13.6901 10.7336 13.7175 9.8104C13.745 8.88725 13.475 7.97954 12.9473 7.22154L10.4491 3.40813L10.4062 3.34154L10.358 3.28064C10.0226 2.82922 9.58739 2.46133 9.08658 2.20549C8.58578 1.94964 8.03312 1.81269 7.47079 1.80548L7.46904 1.81293Z" fill="white"/>
</svg>
