<svg width="24" height="24" viewBox="0 0 24 24" fill="none" xmlns="http://www.w3.org/2000/svg">
<path fill-rule="evenodd" clip-rule="evenodd" d="M19.67 12.9689C19.8955 11.1841 19.4914 9.37657 18.5275 7.85764C17.5635 6.33871 16.1 5.20351 14.3891 4.6476C12.6782 4.09168 10.8269 4.14986 9.15428 4.81211C7.48163 5.47436 6.09231 6.69921 5.22564 8.27567C4.35898 9.85213 4.06924 11.6815 4.40633 13.4486C4.74343 15.2157 5.68625 16.8099 7.07239 17.9567C8.45853 19.1034 10.2012 19.7308 12.0002 19.7308L12.0002 21.2308C9.85213 21.2308 7.77135 20.4816 6.11626 19.1124C4.46117 17.7432 3.3354 15.8397 2.9329 13.7297C2.5304 11.6197 2.87636 9.43538 3.91119 7.55304C4.94601 5.6707 6.6049 4.20819 8.6021 3.41744C10.5993 2.6267 12.8097 2.55723 14.8526 3.22101C16.8955 3.88479 18.643 5.24026 19.794 7.0539C20.9449 8.86755 21.4274 11.0258 21.1582 13.1569C20.8889 15.288 19.8849 17.2585 18.3191 18.7289L17.2922 17.6355C18.6036 16.404 19.4445 14.7537 19.67 12.9689Z" fill="white"/>
<path fill-rule="evenodd" clip-rule="evenodd" d="M15.8911 15.4618L17.34 15.0736L18.1015 17.9156L20.9436 17.1541L21.3318 18.603L17.0409 19.7527L15.8911 15.4618Z" fill="white"/>
</svg>
