<svg width="20" height="20" viewBox="0 0 20 20" fill="none" xmlns="http://www.w3.org/2000/svg">
<path fill-rule="evenodd" clip-rule="evenodd" d="M18.7479 4.73848C18.7479 5.07025 18.616 5.3884 18.3812 5.62286L9.00625 14.9979H5V10.9916L14.375 1.61661C14.6095 1.38189 14.9276 1.25 15.2594 1.25C15.5911 1.25 15.9093 1.38189 16.1438 1.61661L18.3812 3.85411C18.616 4.08857 18.7479 4.40672 18.7479 4.73848ZM17.5 4.74161L15.2563 2.49786L13.3813 4.37286L15.625 6.61661L17.5 4.74161ZM6.25 13.7479V11.5041L12.5 5.2541L14.7437 7.49785L8.49375 13.7479H6.25ZM2.5 18.7479H15C15.6904 18.7479 16.25 18.1882 16.25 17.4979V11.8729H15V17.4979H2.5V4.99785H8.125V3.74785H2.5C1.80964 3.74785 1.25 4.3075 1.25 4.99785V17.4979C1.25 18.1882 1.80964 18.7479 2.5 18.7479Z" fill="white"/>
</svg>
