<svg width="16" height="16" viewBox="0 0 16 16" fill="none" xmlns="http://www.w3.org/2000/svg">
    <path fill-rule="evenodd" clip-rule="evenodd" d="M10.46 2.745a1.976 1.976 0 0 1 2.794 2.795l-5.48 5.48a.5.5 0 0 1-.353.147H5.333a.5.5 0 0 1-.5-.5V8.579a.5.5 0 0 1 .147-.353l5.48-5.48zm1.397.422a.976.976 0 0 0-.69.286l-.171.17a.496.496 0 0 1 .024.023l1.334 1.334a.532.532 0 0 1 .022.024l.171-.17a.976.976 0 0 0-.69-1.667zm-.186 2.543a.5.5 0 0 1-.025-.023l-1.333-1.333a.527.527 0 0 1-.023-.025L5.833 8.786v1.38h1.38l4.458-4.456z" fill="#fff"/>
    <path d="M3.667 3.833a.5.5 0 0 0-.5.5v8a.5.5 0 0 0 .5.5h8a.5.5 0 0 0 .5-.5V9.487a.5.5 0 0 1 1 0v2.846a1.5 1.5 0 0 1-1.5 1.5h-8a1.5 1.5 0 0 1-1.5-1.5v-8a1.5 1.5 0 0 1 1.5-1.5h2.846a.5.5 0 0 1 0 1H3.667z" fill="#fff"/>
</svg>
