<svg width="20" height="20" viewBox="0 0 20 20" fill="none" xmlns="http://www.w3.org/2000/svg">
    <path fill-rule="evenodd" clip-rule="evenodd" d="M13.075 3.432a2.47 2.47 0 0 1 3.493 3.493l-6.85 6.85a.625.625 0 0 1-.442.183h-2.61a.625.625 0 0 1-.624-.625v-2.61c0-.165.066-.324.183-.441l6.85-6.85zm1.746.526a1.22 1.22 0 0 0-.862.358l-.214.214.03.028 1.667 1.667.028.03.214-.214a1.22 1.22 0 0 0-.863-2.083zm-.232 3.18a.621.621 0 0 1-.03-.03L12.89 5.443a.636.636 0 0 1-.028-.03l-5.571 5.57v1.726h1.725l5.572-5.57z" fill="#fff"/>
    <path d="M4.583 4.792a.625.625 0 0 0-.625.625v10c0 .345.28.625.625.625h10c.345 0 .625-.28.625-.625v-3.558a.625.625 0 1 1 1.25 0v3.558c0 1.035-.84 1.875-1.875 1.875h-10a1.875 1.875 0 0 1-1.875-1.875v-10c0-1.036.84-1.875 1.875-1.875h3.558a.625.625 0 1 1 0 1.25H4.583z" fill="#fff"/>
</svg>
