<svg width="32" height="32" viewBox="0 0 32 32" fill="none" xmlns="http://www.w3.org/2000/svg">
<path fill-rule="evenodd" clip-rule="evenodd" d="M12.6262 4.62622C12.8138 4.43869 13.0681 4.33333 13.3333 4.33333H18.6667C18.9319 4.33333 19.1862 4.43869 19.3738 4.62622L23.0809 8.33333H28C28.5523 8.33333 29 8.78104 29 9.33333V24C29 24.5523 28.5523 25 28 25H4C3.44772 25 3 24.5523 3 24V9.33333C3 8.78104 3.44772 8.33333 4 8.33333H8.91912L12.6262 4.62622ZM13.7475 6.33333L10.0404 10.0404C9.8529 10.228 9.59855 10.3333 9.33333 10.3333H5V23H27V10.3333H22.6667C22.4015 10.3333 22.1471 10.228 21.9596 10.0404L18.2525 6.33333H13.7475Z" fill="white"/>
<path fill-rule="evenodd" clip-rule="evenodd" d="M16 18.6667C17.4728 18.6667 18.6667 17.4728 18.6667 16C18.6667 14.5272 17.4728 13.3333 16 13.3333C14.5272 13.3333 13.3333 14.5272 13.3333 16C13.3333 17.4728 14.5272 18.6667 16 18.6667ZM16 20.6667C18.5773 20.6667 20.6667 18.5773 20.6667 16C20.6667 13.4227 18.5773 11.3333 16 11.3333C13.4227 11.3333 11.3333 13.4227 11.3333 16C11.3333 18.5773 13.4227 20.6667 16 20.6667Z" fill="white"/>
</svg>
