<svg width="32" height="32" viewBox="0 0 32 32" fill="none" xmlns="http://www.w3.org/2000/svg">
<path fill-rule="evenodd" clip-rule="evenodd" d="M30 3.414L28.586 2L2 28.586L3.414 30L5.414 28H26C27.1039 27.9983 27.9983 27.1039 28 26V5.414L30 3.414ZM26 26H7.414L15.207 18.207L17.586 20.586C18.367 21.3668 19.633 21.3668 20.414 20.586L22 19L26 22.997V26ZM26 20.168L23.414 17.582C22.633 16.8012 21.367 16.8012 20.586 17.582L19 19.168L16.623 16.791L26 7.414V20.168ZM6 22V19L11 14.003L12.373 15.377L13.789 13.961L12.414 12.586C11.633 11.8052 10.367 11.8052 9.586 12.586L6 16.172V6H22V4H6C4.89589 4.0011 4.0011 4.89589 4 6V22H6Z" fill="white"/>
</svg>
