<svg width="32" height="32" viewBox="0 0 32 32" fill="none" xmlns="http://www.w3.org/2000/svg">
<path fill-rule="evenodd" clip-rule="evenodd" d="M28.7071 3.29289C29.0976 3.68342 29.0976 4.31658 28.7071 4.70711L4.70711 28.7071C4.31658 29.0976 3.68342 29.0976 3.29289 28.7071C2.90237 28.3166 2.90237 27.6834 3.29289 27.2929L27.2929 3.29289C27.6834 2.90237 28.3166 2.90237 28.7071 3.29289Z" fill="white"/>
<path fill-rule="evenodd" clip-rule="evenodd" d="M23.4477 4H6C4.89543 4 4 4.89543 4 6V23.4477L6 21.4477V19.3333L6.04044 19.3738L10.6667 14.7475L11.6834 15.7643L13.0976 14.3501L11.3738 12.6262C10.9832 12.2357 10.3501 12.2357 9.95956 12.6262L6 16.5858L6 6H21.4477L23.4477 4ZM14.9833 16.2357L17.3947 18.6472L20.6932 15.8984C21.0905 15.5673 21.6747 15.5938 22.0404 15.9596L26 19.9191V6H25.219L26.969 4.24998C27.5838 4.59116 28 5.24698 28 6V26C28 27.1046 27.1046 28 26 28H6C5.24698 28 4.59116 27.5838 4.24998 26.969L6 25.219V26H26V22.6667L25.9596 22.7071L21.272 18.0195L17.9735 20.7682C17.5762 21.0993 16.9919 21.0728 16.6262 20.7071L13.569 17.6499L14.9833 16.2357Z" fill="white"/>
</svg>
