<svg width="16" height="16" viewBox="0 0 16 16" fill="none" xmlns="http://www.w3.org/2000/svg">
<path fill-rule="evenodd" clip-rule="evenodd" d="M1 13.5H15V14.5H1V13.5ZM12.705 4.5C12.8928 4.31243 12.9983 4.0579 12.9983 3.7925C12.9983 3.52709 12.8928 3.27256 12.705 3.085L10.915 1.295C10.7274 1.10722 10.4729 1.00171 10.2075 1.00171C9.94209 1.00171 9.68757 1.10722 9.5 1.295L2 8.795V12H5.205L12.705 4.5ZM10.205 1.99999L12 3.79499L10.5 5.29499L8.70504 3.49999L10.205 1.99999ZM3 11V9.205L8 4.205L9.795 6L4.795 11H3Z" fill="white"/>
</svg>
