<svg width="32" height="32" viewBox="0 0 32 32" fill="none" xmlns="http://www.w3.org/2000/svg">
    <path fill-rule="evenodd" clip-rule="evenodd" d="M8 13a3 3 0 1 0 0 6 3 3 0 0 0 0-6zm-5 3a5 5 0 1 1 10 0 5 5 0 0 1-10 0zM24 5a3 3 0 1 0 0 6 3 3 0 0 0 0-6zm-5 3a5 5 0 1 1 10 0 5 5 0 0 1-10 0zM24 21a3 3 0 1 0 0 6 3 3 0 0 0 0-6zm-5 3a5 5 0 1 1 10 0 5 5 0 0 1-10 0z" fill="#fff"/>
    <path fill-rule="evenodd" clip-rule="evenodd" d="M21.289 9.275a1 1 0 0 1-.431 1.347l-8.8 4.534a1 1 0 0 1-.916-1.778l8.8-4.534a1 1 0 0 1 1.347.431zM10.711 17.275a1 1 0 0 1 1.347-.43l8.8 4.533a1 1 0 0 1-.916 1.778l-8.8-4.534a1 1 0 0 1-.431-1.347z" fill="#fff"/>
</svg>
