<svg width="20" height="20" viewBox="0 0 20 20" fill="none" xmlns="http://www.w3.org/2000/svg">
<path d="M18.75 9.375H14.9563C14.8161 8.27522 14.3147 7.25311 13.5307 6.46911C12.7468 5.68512 11.7248 5.18361 10.625 5.04331V1.25H9.375V5.04331C8.27523 5.18361 7.25318 5.68512 6.46926 6.46911C5.68534 7.25311 5.18394 8.27522 5.04375 9.375H1.25V10.625H5.04375C5.18394 11.7248 5.68534 12.7469 6.46926 13.5309C7.25318 14.3149 8.27523 14.8164 9.375 14.9567V18.75H10.625V14.9567C11.7248 14.8165 12.747 14.315 13.5309 13.531C14.3149 12.747 14.8164 11.7248 14.9566 10.625H18.75V9.375ZM10 13.75C9.25832 13.75 8.5333 13.5301 7.91661 13.118C7.29993 12.706 6.81928 12.1203 6.53545 11.4351C6.25162 10.7498 6.17736 9.99584 6.32206 9.26841C6.46675 8.54098 6.8239 7.8728 7.34835 7.34835C7.8728 6.8239 8.54098 6.46675 9.26841 6.32206C9.99584 6.17736 10.7498 6.25162 11.4351 6.53545C12.1203 6.81928 12.706 7.29993 13.118 7.91661C13.5301 8.5333 13.75 9.25832 13.75 10C13.7489 10.9942 13.3535 11.9474 12.6504 12.6504C11.9474 13.3535 10.9942 13.7489 10 13.75Z" fill="white"/>
</svg>
