<svg width="32" height="32" viewBox="0 0 32 32" fill="none" xmlns="http://www.w3.org/2000/svg">
<path fill-rule="evenodd" clip-rule="evenodd" d="M22.9999 20C21.4838 20.0076 20.053 20.7028 19.1099 21.89L11.7999 17.32C12.0664 16.4602 12.0664 15.5398 11.7999 14.68L19.1099 10.11C20.6419 12.0069 23.3187 12.5223 25.4455 11.3296C27.5722 10.137 28.5285 7.58425 27.7089 5.28783C26.8893 2.99141 24.5327 1.62107 22.1315 2.04453C19.7302 2.46799 17.9846 4.56174 17.9999 6.99999C18.0047 7.44717 18.072 7.89149 18.1999 8.31999L10.8899 12.89C9.56719 11.2248 7.33589 10.5785 5.32795 11.279C3.32002 11.9795 1.97485 13.8734 1.97485 16C1.97485 18.1266 3.32002 20.0205 5.32795 20.721C7.33589 21.4214 9.56719 20.7752 10.8899 19.11L18.1999 23.68C18.072 24.1085 18.0047 24.5528 17.9999 25C17.9999 27.7614 20.2385 30 22.9999 30C25.7614 30 27.9999 27.7614 27.9999 25C27.9999 22.2386 25.7614 20 22.9999 20ZM22.9999 3.99999C24.6568 3.99999 25.9999 5.34314 25.9999 6.99999C25.9999 8.65685 24.6568 9.99999 22.9999 9.99999C21.3431 9.99999 19.9999 8.65685 19.9999 6.99999C19.9999 5.34314 21.3431 3.99999 22.9999 3.99999ZM6.99994 19C5.34309 19 3.99994 17.6568 3.99994 16C3.99994 14.3431 5.34309 13 6.99994 13C8.65679 13 9.99994 14.3431 9.99994 16C9.99994 17.6568 8.65679 19 6.99994 19ZM22.9999 28C21.3431 28 19.9999 26.6568 19.9999 25C19.9999 23.3431 21.3431 22 22.9999 22C24.6568 22 25.9999 23.3431 25.9999 25C25.9999 26.6568 24.6568 28 22.9999 28Z" fill="white"/>
</svg>
