<svg width="20" height="20" viewBox="0 0 20 20" fill="none" xmlns="http://www.w3.org/2000/svg">
<path fill-rule="evenodd" clip-rule="evenodd" d="M16.25 3.75H3.75L3.75 16.25H16.25V3.75ZM3.75 2.5C3.05964 2.5 2.5 3.05964 2.5 3.75V16.25C2.5 16.9404 3.05964 17.5 3.75 17.5H16.25C16.9404 17.5 17.5 16.9404 17.5 16.25V3.75C17.5 3.05964 16.9404 2.5 16.25 2.5H3.75Z" fill="white"/>
<path fill-rule="evenodd" clip-rule="evenodd" d="M6.22472 7.89139C6.4688 7.64731 6.86453 7.64731 7.10861 7.89139L10.8717 11.6545L12.9332 9.93653C13.1815 9.72959 13.5467 9.74615 13.7753 9.97472L17.1086 13.3081L16.2247 14.1919L13.295 11.2622L11.2334 12.9801C10.9851 13.1871 10.62 13.1705 10.3914 12.9419L6.66667 9.21722L3.77528 12.1086L2.89139 11.2247L6.22472 7.89139Z" fill="white"/>
<path d="M13.3333 7.08333C13.3333 7.77369 12.7737 8.33333 12.0833 8.33333C11.393 8.33333 10.8333 7.77369 10.8333 7.08333C10.8333 6.39298 11.393 5.83333 12.0833 5.83333C12.7737 5.83333 13.3333 6.39298 13.3333 7.08333Z" fill="white"/>
</svg>
