<svg width="20" height="20" viewBox="0 0 20 20" fill="none" xmlns="http://www.w3.org/2000/svg">
<path fill-rule="evenodd" clip-rule="evenodd" d="M16.25 2.5H3.75C3.05964 2.5 2.5 3.05964 2.5 3.75V16.25C2.5 16.9404 3.05964 17.5 3.75 17.5H16.25C16.9404 17.5 17.5 16.9404 17.5 16.25V3.75C17.5 3.05964 16.9404 2.5 16.25 2.5ZM3.75 16.25V12.5L6.875 9.375L10.3688 12.8687C10.8563 13.3534 11.6437 13.3534 12.1313 12.8687L13.125 11.875L16.25 15V16.25H3.75ZM14.0063 10.9875L16.25 13.2312V3.75H3.75V10.7312L5.99375 8.4875C6.4813 8.00285 7.2687 8.00285 7.75625 8.4875L11.25 11.9812L12.2437 10.9875C12.7313 10.5028 13.5187 10.5028 14.0063 10.9875ZM11.875 8.75C12.9105 8.75 13.75 7.91053 13.75 6.875C13.75 5.83947 12.9105 5 11.875 5C10.8395 5 10 5.83947 10 6.875C10 7.91053 10.8395 8.75 11.875 8.75ZM12.5 6.875C12.5 6.52982 12.2202 6.25 11.875 6.25C11.5298 6.25 11.25 6.52982 11.25 6.875C11.25 7.22018 11.5298 7.5 11.875 7.5C12.2202 7.5 12.5 7.22018 12.5 6.875Z" fill="white"/>
</svg>
