<svg width="16" height="16" viewBox="0 0 16 16" fill="none" xmlns="http://www.w3.org/2000/svg">
<path fill-rule="evenodd" clip-rule="evenodd" d="M2.16669 4C2.16669 3.72386 2.39054 3.5 2.66669 3.5H13.3334C13.6095 3.5 13.8334 3.72386 13.8334 4C13.8334 4.27614 13.6095 4.5 13.3334 4.5H2.66669C2.39054 4.5 2.16669 4.27614 2.16669 4Z" fill="white"/>
<path fill-rule="evenodd" clip-rule="evenodd" d="M2.16669 8C2.16669 7.72386 2.39054 7.5 2.66669 7.5H13.3334C13.6095 7.5 13.8334 7.72386 13.8334 8C13.8334 8.27614 13.6095 8.5 13.3334 8.5H2.66669C2.39054 8.5 2.16669 8.27614 2.16669 8Z" fill="white"/>
<path fill-rule="evenodd" clip-rule="evenodd" d="M2.16669 12C2.16669 11.7239 2.39054 11.5 2.66669 11.5H13.3334C13.6095 11.5 13.8334 11.7239 13.8334 12C13.8334 12.2761 13.6095 12.5 13.3334 12.5H2.66669C2.39054 12.5 2.16669 12.2761 2.16669 12Z" fill="white"/>
</svg>
