<svg width="16" height="16" viewBox="0 0 16 16" fill="none" xmlns="http://www.w3.org/2000/svg">
    <path fill-rule="evenodd" clip-rule="evenodd" d="M4.792 3.167a1.625 1.625 0 0 0-1.625 1.625v8l1.98-1.979a.5.5 0 0 1 .353-.146h6.375A1.625 1.625 0 0 0 13.5 9.042v-4.25a1.625 1.625 0 0 0-1.625-1.625H4.792zm-1.857-.231a2.625 2.625 0 0 1 1.857-.77h7.083A2.625 2.625 0 0 1 14.5 4.793v4.25a2.625 2.625 0 0 1-2.625 2.625H5.707L3.02 14.354A.5.5 0 0 1 2.167 14V4.792c0-.697.276-1.364.768-1.856z" fill="#fff"/>
    <path fill-rule="evenodd" clip-rule="evenodd" d="M5.167 5.667a.5.5 0 0 1 .5-.5H11a.5.5 0 0 1 0 1H5.667a.5.5 0 0 1-.5-.5zM5.167 8.333a.5.5 0 0 1 .5-.5h4a.5.5 0 0 1 0 1h-4a.5.5 0 0 1-.5-.5z" fill="#fff"/>
</svg>
