<svg width="20" height="20" viewBox="0 0 20 20" fill="none" xmlns="http://www.w3.org/2000/svg">
<path fill-rule="evenodd" clip-rule="evenodd" d="M10 1.25C5.125 1.25 1.25 5.125 1.25 10C1.25 14.875 5.125 18.75 10 18.75C14.875 18.75 18.75 14.875 18.75 10C18.75 5.125 14.875 1.25 10 1.25ZM8.75 13.3125L5.625 10.1875L6.625 9.1875L8.75 11.3125L13.375 6.6875L14.375 7.6875L8.75 13.3125ZM2.5 10C2.5 14.125 5.875 17.5 10 17.5C14.125 17.5 17.5 14.125 17.5 10C17.5 5.875 14.125 2.5 10 2.5C5.875 2.5 2.5 5.875 2.5 10Z" fill="white"/>
</svg>
