<svg width="24" height="24" viewBox="0 0 24 24" fill="none" xmlns="http://www.w3.org/2000/svg">
<path fill-rule="evenodd" clip-rule="evenodd" d="M4.75 12.25H19.25V19C19.25 19.9665 18.4665 20.75 17.5 20.75H6.5C5.5335 20.75 4.75 19.9665 4.75 19V12.25ZM6.25 13.75V19C6.25 19.1381 6.36193 19.25 6.5 19.25H17.5C17.6381 19.25 17.75 19.1381 17.75 19V13.75H6.25Z" fill="white"/>
<path fill-rule="evenodd" clip-rule="evenodd" d="M2.75 9C2.75 8.03351 3.5335 7.25 4.5 7.25H19.5C20.4665 7.25 21.25 8.03351 21.25 9V12C21.25 12.9665 20.4665 13.75 19.5 13.75H4.5C3.5335 13.75 2.75 12.9665 2.75 12V9ZM4.5 8.75C4.36193 8.75 4.25 8.86193 4.25 9V12C4.25 12.1381 4.36193 12.25 4.5 12.25H19.5C19.6381 12.25 19.75 12.1381 19.75 12V9C19.75 8.86193 19.6381 8.75 19.5 8.75H4.5Z" fill="white"/>
<path fill-rule="evenodd" clip-rule="evenodd" d="M9.9282 5.59541C9.35344 4.99942 8.73327 4.74085 8.15505 4.75025L8.14286 4.75045C7.75737 4.75045 7.39721 4.89375 7.13934 5.1344C6.88323 5.37342 6.75 5.68608 6.75 6.00018C6.75 6.31428 6.88323 6.62693 7.13934 6.86595C7.39721 7.10661 7.75737 7.25 8.14286 7.25H10.9637C10.6883 6.57613 10.3321 6.01421 9.9282 5.59541ZM11.7859 8.71888C11.718 8.73913 11.646 8.75 11.5714 8.75H8.14286C7.3917 8.75 6.66177 8.47201 6.11591 7.96258C5.5683 7.45152 5.25 6.74685 5.25 6.00018C5.25 5.25351 5.5683 4.54883 6.11591 4.03777C6.66028 3.52974 7.38772 3.25187 8.13671 3.25036C9.20994 3.2348 10.2081 3.7248 11.0079 4.55416C11.388 4.94825 11.7202 5.41455 12 5.9342C12.2798 5.41455 12.612 4.94825 12.9921 4.55416C13.7919 3.7248 14.7901 3.2348 15.8633 3.25036C16.6123 3.25187 17.3397 3.52974 17.8841 4.03777C18.4317 4.54883 18.75 5.25351 18.75 6.00018C18.75 6.74685 18.4317 7.45152 17.8841 7.96258C17.3382 8.47201 16.6083 8.75 15.8571 8.75H12.4286C12.354 8.75 12.282 8.73913 12.2141 8.71888C12.1459 8.73919 12.0739 8.75 12 8.75C11.9261 8.75 11.8541 8.73919 11.7859 8.71888ZM13.0363 7.25H15.8571C16.2426 7.25 16.6028 7.10661 16.8607 6.86595C17.1168 6.62693 17.25 6.31428 17.25 6.00018C17.25 5.68608 17.1168 5.37342 16.8607 5.1344C16.6028 4.89375 16.2426 4.75035 15.8571 4.75035H15.8449C15.2667 4.74095 14.6466 4.99942 14.0718 5.59541C13.6679 6.01421 13.3117 6.57613 13.0363 7.25Z" fill="white"/>
<path fill-rule="evenodd" clip-rule="evenodd" d="M12 7.25C12.4142 7.25 12.75 7.58579 12.75 8V19C12.75 19.4142 12.4142 19.75 12 19.75C11.5858 19.75 11.25 19.4142 11.25 19V8C11.25 7.58579 11.5858 7.25 12 7.25Z" fill="white"/>
</svg>
