<svg width="32" height="32" viewBox="0 0 32 32" fill="none" xmlns="http://www.w3.org/2000/svg">
<path fill-rule="evenodd" clip-rule="evenodd" d="M17.5943 1.70133C18.0304 1.81923 18.3333 2.2149 18.3333 2.66667V12.3333H24C24.3581 12.3333 24.6888 12.5248 24.8671 12.8353C25.0455 13.1458 25.0442 13.5279 24.8638 13.8372L15.5304 29.8372C15.3028 30.2274 14.8418 30.4166 14.4057 30.2987C13.9696 30.1808 13.6667 29.7851 13.6667 29.3333L13.6667 19.6667H8C7.64193 19.6667 7.3112 19.4752 7.13286 19.1647C6.95452 18.8542 6.9558 18.4721 7.13622 18.1628L16.4696 2.1628C16.6972 1.77257 17.1582 1.58342 17.5943 1.70133ZM9.74104 17.6667H14.6667C14.9319 17.6667 15.1862 17.772 15.3738 17.9596C15.5613 18.1471 15.6667 18.4015 15.6667 18.6667L15.6667 25.6344L22.259 14.3333H17.3333C16.781 14.3333 16.3333 13.8856 16.3333 13.3333V6.36559L9.74104 17.6667Z" fill="white"/>
</svg>
