<svg width="16" height="16" viewBox="0 0 16 16" fill="none" xmlns="http://www.w3.org/2000/svg">
<path fill-rule="evenodd" clip-rule="evenodd" d="M10.6667 8C10.6667 9.47275 9.47277 10.6667 8.00001 10.6667C6.52725 10.6667 5.33334 9.47275 5.33334 8C5.33334 6.52724 6.52725 5.33333 8.00001 5.33333C9.47277 5.33333 10.6667 6.52724 10.6667 8ZM9.66668 8C9.66668 8.92047 8.92048 9.66666 8.00001 9.66666C7.07954 9.66666 6.33334 8.92047 6.33334 8C6.33334 7.07952 7.07954 6.33333 8.00001 6.33333C8.92048 6.33333 9.66668 7.07952 9.66668 8Z" fill="white"/>
<path fill-rule="evenodd" clip-rule="evenodd" d="M8.00001 2.83333C5.60505 2.83333 3.18574 3.84914 1.63261 6.3074C0.980942 7.33885 0.980943 8.66115 1.63261 9.69259C3.18574 12.1509 5.60505 13.1667 8.00001 13.1667C10.395 13.1667 12.8143 12.1509 14.3674 9.69259C15.0191 8.66115 15.0191 7.33884 14.3674 6.3074C12.8143 3.84914 10.395 2.83333 8.00001 2.83333ZM2.47802 6.84153C3.82338 4.71212 5.89952 3.83333 8.00001 3.83333C10.1005 3.83333 12.1766 4.71212 13.522 6.84153C13.9675 7.54672 13.9675 8.45327 13.522 9.15846C12.1766 11.2879 10.1005 12.1667 8.00001 12.1667C5.89952 12.1667 3.82338 11.2879 2.47802 9.15846C2.03247 8.45327 2.03247 7.54672 2.47802 6.84153Z" fill="white"/>
</svg>
