<svg width="16" height="16" viewBox="0 0 16 16" fill="none" xmlns="http://www.w3.org/2000/svg">
<path fill-rule="evenodd" clip-rule="evenodd" d="M7.50952 13.9801V12.4243H8.50952V13.9786C11.4219 13.7337 13.7424 11.4084 13.9799 8.4939H12.4354V7.4939H13.9789C13.7354 4.57853 11.4075 2.25553 8.48999 2.01972V3.58165H7.48999V2.02137C4.57532 2.26671 2.25364 4.59559 2.0195 7.51343H3.55969V8.51343H2.02173C2.26851 11.4251 4.59469 13.7443 7.50952 13.9801ZM1.01861 8.51343C1.26977 11.9777 4.04212 14.743 7.50952 14.983V14.9999H8.00001H8.50952V14.9816C11.9745 14.7324 14.7411 11.961 14.9828 8.4939H14.9999V8.03235L15 7.99995L14.9999 7.96754V7.4939H14.9819C14.7342 4.02593 11.9601 1.25683 8.48999 1.01688V1H8.00001H7.48999V1.0183C4.02272 1.26796 1.25495 4.04301 1.0167 7.51343H1V8.51343H1.01861ZM6.20087 6.44673C6.2511 6.33466 6.34081 6.245 6.45291 6.19483L11.3174 4.01794C11.5066 3.93328 11.7284 3.97411 11.875 4.12059C12.0217 4.26707 12.0627 4.48882 11.9783 4.67809L9.80554 9.54678C9.75535 9.65925 9.66541 9.74924 9.55296 9.7995L4.67846 11.978C4.48915 12.0626 4.26726 12.0216 4.12071 11.8749C3.97416 11.7282 3.93337 11.5063 4.01817 11.3171L6.20087 6.44673ZM5.46651 10.5305L8.9703 8.96458L10.5321 5.46497L7.03544 7.02971L5.46651 10.5305ZM8.55297 7.99996C8.55297 8.30535 8.30541 8.55291 8.00003 8.55291C7.69464 8.55291 7.44708 8.30535 7.44708 7.99996C7.44708 7.69458 7.69464 7.44702 8.00003 7.44702C8.30541 7.44702 8.55297 7.69458 8.55297 7.99996Z" fill="white"/>
</svg>
