<svg width="24" height="24" viewBox="0 0 24 24" fill="none" xmlns="http://www.w3.org/2000/svg">
<path fill-rule="evenodd" clip-rule="evenodd" d="M20.6936 17.6948L13.2994 4.88751C12.722 3.88751 11.2786 3.88751 10.7013 4.88751L3.307 17.6948C2.72965 18.6948 3.45134 19.9448 4.60604 19.9448H19.3946C20.5493 19.9448 21.271 18.6948 20.6936 17.6948ZM14.5984 4.13751C13.4437 2.13751 10.5569 2.13751 9.40224 4.13751L2.00796 16.9448C0.853261 18.9448 2.29664 21.4448 4.60604 21.4448H19.3946C21.704 21.4448 23.1474 18.9448 21.9927 16.9448L14.5984 4.13751Z" fill="white"/>
<path d="M12.8692 14.5081L11.1432 14.5081L11.1432 7.88784L12.8692 7.88784L12.8692 14.5081ZM11.9943 15.5721C12.2938 15.5721 12.5421 15.6588 12.7391 15.8321C12.9362 16.0134 13.0347 16.242 13.0347 16.5178C13.0347 16.8015 12.9362 17.0301 12.7391 17.2035C12.5421 17.3769 12.2938 17.4636 11.9943 17.4636C11.6949 17.4636 11.4505 17.3769 11.2614 17.2035C11.0644 17.0301 10.9658 16.8015 10.9658 16.5178C10.9658 16.242 11.0644 16.0134 11.2614 15.8321C11.4505 15.6588 11.6949 15.5721 11.9943 15.5721Z" fill="white"/>
</svg>
