<svg width="16" height="16" viewBox="0 0 16 16" fill="none" xmlns="http://www.w3.org/2000/svg">
<path fill-rule="evenodd" clip-rule="evenodd" d="M8.0001 3.3L9.4001 6.1L9.6001 6.6L10.1001 6.7L13.2001 7.1L11.0001 9.2L10.6001 9.6L10.7001 10.1L11.2001 13.2L8.4001 11.8L8.0001 11.5L7.5001 11.7L4.7001 13.1L5.2001 10L5.3001 9.5L5.0001 9.2L2.8001 7L5.9001 6.6L6.4001 6.5L6.6001 6L8.0001 3.3ZM8.0001 1L5.7001 5.6L0.600098 6.3L4.3001 9.9L3.5001 15L8.0001 12.6L12.6001 15L11.7001 9.9L15.4001 6.3L10.3001 5.6L8.0001 1Z" fill="white"/>
</svg>
