<svg width="32" height="32" viewBox="0 0 32 32" fill="none" xmlns="http://www.w3.org/2000/svg">
<path fill-rule="evenodd" clip-rule="evenodd" d="M15.019 27.9603V24.8486H17.019V27.9571C22.8439 27.4673 27.4848 22.8168 27.9598 16.9878H24.8709V14.9878H27.9578C27.4709 9.15705 22.8151 4.51105 16.98 4.03944V7.1633H14.98V4.04274C9.15065 4.53343 4.50728 9.19118 4.039 15.0269H7.11938V17.0269H4.04345C4.53702 22.8503 9.18939 27.4886 15.019 27.9603ZM2.03722 17.0269C2.53955 23.9555 8.08423 29.4859 15.019 29.9659V29.9998H16H17.019V29.9633C23.9491 29.4648 29.4822 23.922 29.9656 16.9878H29.9998V16.0647L29.9999 15.9999L29.9998 15.9351V14.9878H29.9639C29.4684 8.05186 23.9202 2.51365 16.98 2.03376V2H16H14.98V2.03659C8.04545 2.53592 2.50991 8.08603 2.03341 15.0269H2V17.0269H2.03722ZM12.4017 12.8935C12.5022 12.6693 12.6816 12.49 12.9058 12.3897L22.6349 8.03588C23.0132 7.86657 23.4568 7.94823 23.7501 8.24118C24.0433 8.53414 24.1255 8.97765 23.9565 9.35618L19.6111 19.0936C19.5107 19.3185 19.3308 19.4985 19.1059 19.599L9.35693 23.9561C8.9783 24.1253 8.53452 24.0432 8.24143 23.7498C7.94833 23.4564 7.86674 23.0126 8.03635 22.6341L12.4017 12.8935ZM10.933 21.061L17.9406 17.9292L21.0641 10.9299L14.0709 14.0594L10.933 21.061ZM17.1059 15.9999C17.1059 16.6107 16.6108 17.1058 16.0001 17.1058C15.3893 17.1058 14.8942 16.6107 14.8942 15.9999C14.8942 15.3892 15.3893 14.894 16.0001 14.894C16.6108 14.894 17.1059 15.3892 17.1059 15.9999Z" fill="white"/>
</svg>
