<svg width="32" height="32" viewBox="0 0 32 32" fill="none" xmlns="http://www.w3.org/2000/svg">
<path fill-rule="evenodd" clip-rule="evenodd" d="M15 27.2898V25.3333C15 24.781 15.4477 24.3333 16 24.3333C16.5523 24.3333 17 24.781 17 25.3333V27.2898C22.4614 26.8124 26.8124 22.4614 27.2898 17H25.3334C24.7811 17 24.3334 16.5523 24.3334 16C24.3334 15.4477 24.7811 15 25.3334 15H27.2898C26.8124 9.53864 22.4614 5.18763 17 4.71018V6.66667C17 7.21895 16.5523 7.66667 16 7.66667C15.4477 7.66667 15 7.21895 15 6.66667V4.71018C9.53866 5.18763 5.18765 9.53864 4.7102 15H6.66669C7.21897 15 7.66669 15.4477 7.66669 16C7.66669 16.5523 7.21897 17 6.66669 17H4.7102C5.18765 22.4614 9.53866 26.8124 15 27.2898ZM29.3334 16C29.3334 23.3638 23.3638 29.3333 16 29.3333C8.63622 29.3333 2.66669 23.3638 2.66669 16C2.66669 8.6362 8.63622 2.66667 16 2.66667C23.3638 2.66667 29.3334 8.6362 29.3334 16ZM13.7241 13.1914C13.4885 13.2925 13.3007 13.4802 13.1995 13.7158L10.3642 20.3165C10.2028 20.6923 10.2865 21.1285 10.5756 21.4179C10.8646 21.7072 11.3008 21.7914 11.6768 21.6304L18.2832 18.801C18.5196 18.6997 18.7079 18.5113 18.809 18.2749L21.6306 11.6762C21.7913 11.3003 21.7071 10.8645 21.4179 10.5756C21.1287 10.2866 20.6927 10.2029 20.317 10.364L13.7241 13.1914ZM17.1276 17.1202L13.1894 18.8068L14.8795 14.8721L18.8096 13.1866L17.1276 17.1202Z" fill="white"/>
</svg>
