<svg width="20" height="20" viewBox="0 0 20 20" fill="none" xmlns="http://www.w3.org/2000/svg">
    <path fill-rule="evenodd" clip-rule="evenodd" d="M10 13.75a3.75 3.75 0 1 0 0-7.5 3.75 3.75 0 0 0 0 7.5zM10 15a5 5 0 1 0 0-10 5 5 0 0 0 0 10z" fill="#fff"/>
    <path fill-rule="evenodd" clip-rule="evenodd" d="M14.375 10c0-.345.28-.625.625-.625h3.333a.625.625 0 1 1 0 1.25H15a.625.625 0 0 1-.625-.625zM1.042 10c0-.345.28-.625.625-.625H5a.625.625 0 0 1 0 1.25H1.667A.625.625 0 0 1 1.042 10zM10 5.625A.625.625 0 0 1 9.375 5V1.667a.625.625 0 1 1 1.25 0V5c0 .345-.28.625-.625.625zM10 18.958a.625.625 0 0 1-.625-.625V15a.625.625 0 1 1 1.25 0v3.333c0 .346-.28.625-.625.625z" fill="#fff"/>
</svg>
