<svg width="16" height="16" viewBox="0 0 16 16" fill="none" xmlns="http://www.w3.org/2000/svg">
<path fill-rule="evenodd" clip-rule="evenodd" d="M13.4343 7.6L14.4343 6.8C14.8343 6.5 14.8343 5.9 14.6343 5.5L13.4343 3.5C13.2343 3.2 12.9343 3 12.5343 3C12.4343 3 12.3343 3 12.2343 3.1L11.0343 3.5C10.9598 3.46277 10.8854 3.41168 10.8057 3.35706C10.6715 3.26495 10.5226 3.16277 10.3343 3.1L10.0343 1.8C10.0343 1.3 9.63428 1 9.13428 1H6.73428C6.23428 1 5.83428 1.3 5.73428 1.8L5.53428 3.1C5.23428 3.2 5.03428 3.3 4.83428 3.4L3.63428 3H3.33428C2.93428 3 2.63428 3.2 2.43428 3.5L1.23428 5.5C1.03428 5.9 1.13428 6.4 1.53428 6.8L2.43428 7.7V8.5L1.53428 9.2C1.13428 9.5 1.03428 10.1 1.33428 10.5L2.53428 12.5C2.63428 12.8 2.93428 13 3.33428 13C3.43428 13 3.53428 13 3.63428 12.9L4.83428 12.5C4.90873 12.5372 4.98319 12.5883 5.0628 12.6429C5.19705 12.735 5.34597 12.8372 5.53428 12.9L5.83428 14.2C5.93428 14.7 6.33428 15 6.83428 15H9.23428C9.73428 15 10.1343 14.7 10.2343 14.2L10.5343 12.9C10.7343 12.8 10.9343 12.7 11.2343 12.5L12.4343 12.9C12.4843 12.9 12.5343 12.925 12.5843 12.95C12.6343 12.975 12.6843 13 12.7343 13C13.1343 13 13.4343 12.8 13.6343 12.5L14.7343 10.5C14.9343 10.1 14.9343 9.6 14.5343 9.2L13.4343 8.4V7.6ZM4.93427 8C4.93427 9.7 6.23427 11 7.93427 11C9.63426 11 10.9343 9.6 10.9343 8C10.9343 6.3 9.63426 5 7.93427 5C6.23427 5 4.93427 6.3 4.93427 8ZM5.93427 7.9C5.93427 6.8 6.83427 6 7.93427 6C9.13426 6 9.93427 6.9 9.93427 8V8.1C9.93427 9.2 9.03427 10 7.93427 10H7.83427C6.73427 10 5.93427 9.1 5.93427 8V7.9ZM10.8343 11.4L12.5343 12L13.7343 10L12.3343 8.8C12.4343 8.3 12.4343 7.7 12.3343 7.2L13.7343 6L12.5343 4L10.9343 4.6C10.7944 4.51605 10.6623 4.43209 10.5336 4.35033C10.2026 4.13992 9.89435 3.94403 9.53428 3.8L9.13428 2H6.73428L6.43428 3.8C5.93428 4 5.43428 4.2 5.03428 4.6L3.33428 4L2.13428 6L3.53428 7.2C3.43428 7.7 3.43428 8.3 3.53428 8.8L2.13428 10L3.33428 12L4.93428 11.4C5.0742 11.484 5.20629 11.5679 5.33494 11.6497C5.66599 11.8601 5.9742 12.056 6.33428 12.2L6.73428 14H9.13428L9.43428 12.2C9.93428 12 10.4343 11.7 10.8343 11.4Z" fill="white"/>
</svg>
