<svg width="24" height="24" viewBox="0 0 24 24" fill="none" xmlns="http://www.w3.org/2000/svg">
<path fill-rule="evenodd" clip-rule="evenodd" d="M8.70766 22.44C8.39193 22.3067 8.20669 21.9764 8.25766 21.6375L9.62266 12.75H6.00016C5.7674 12.7563 5.54493 12.6541 5.39805 12.4734C5.25116 12.2927 5.19652 12.0541 5.25016 11.8275L7.50016 2.0775C7.58177 1.73162 7.89491 1.4905 8.25016 1.5H15.7502C15.9771 1.49922 16.1922 1.60125 16.3352 1.7775C16.4802 1.95579 16.5355 2.19074 16.4852 2.415L15.1877 8.25H18.7502C19.037 8.24942 19.299 8.41245 19.4252 8.67C19.5346 8.91664 19.5031 9.20304 19.3427 9.42L9.59266 22.17C9.45901 22.3681 9.23896 22.4907 9.00016 22.5C8.8998 22.4981 8.80065 22.4778 8.70766 22.44ZM13.3127 9.75L14.8127 3H8.85021L6.94521 11.25H11.3777L10.1852 18.96L17.2502 9.75H13.3127Z" fill="white"/>
</svg>
