<svg width="88" height="88" viewBox="0 0 88 88" fill="none" xmlns="http://www.w3.org/2000/svg">
<path fill-rule="evenodd" clip-rule="evenodd" d="M44 0.25C19.625 0.25 0.25 19.625 0.25 44C0.25 68.375 19.625 87.75 44 87.75C68.375 87.75 87.75 68.375 87.75 44C87.75 19.625 68.375 0.25 44 0.25ZM37.75 60.5625L22.125 44.9375L27.125 39.9375L37.75 50.5625L60.875 27.4375L65.875 32.4375L37.75 60.5625ZM6.5 44C6.5 64.625 23.375 81.5 44 81.5C64.625 81.5 81.5 64.625 81.5 44C81.5 23.375 64.625 6.5 44 6.5C23.375 6.5 6.5 23.375 6.5 44Z" fill="#48D597"/>
</svg>
