<svg width="20" height="20" viewBox="0 0 20 20" fill="none" xmlns="http://www.w3.org/2000/svg">
<path fill-rule="evenodd" clip-rule="evenodd" d="M4.375 13.75V3.125H12.5V5H6.875C6.52982 5 6.25 5.27982 6.25 5.625V13.75H4.375ZM6.25 15H3.75C3.40482 15 3.125 14.7202 3.125 14.375V2.5C3.125 2.15482 3.40482 1.875 3.75 1.875H13.125C13.4702 1.875 13.75 2.15482 13.75 2.5V5H16.25C16.5952 5 16.875 5.27982 16.875 5.625V17.5C16.875 17.8452 16.5952 18.125 16.25 18.125H6.875C6.52982 18.125 6.25 17.8452 6.25 17.5V15ZM7.5 16.875V6.25H15.625V16.875H7.5Z" fill="white"/>
</svg>
