<svg width="259" height="141" viewBox="0 0 259 141" fill="none" xmlns="http://www.w3.org/2000/svg">
    <path d="m65.781 45.956-1.313 1.31c-30.457 3.142-40.695 17.036-40.695 17.036s-8.167 14.568-6.565 20.964l1.313 13.102-1.313 2.621 1.313 3.93 2.626 2.621h6.563c2.1 10.482 13.128 12.229 18.38 11.792 9.451 1.048 14.44-5.678 15.753-9.172l61.7 2.621c1.05 7.337 5.689 10.919 7.877 11.792h14.44c8.402-2.096 11.378-13.102 11.815-18.343l49.886-6.552 1.313 3.931h5.251c1.05 5.241 3.938 6.551 5.251 6.551h11.815c7.352-2.096 8.314-13.976 7.877-19.653h1.312c4.201-14.675 1.751-28.826 0-34.067 0-7.337-5.251-10.918-7.876-11.792l-14.441-14.413-5.475-2.62c-9.452-4.193-24.719-7.425-35.221-9.173-32.557-4.193-62.576 1.747-73.515 5.241-10.503 3.145-23.63 11.791-28.882 15.721-8.401-2.096-9.627 3.494-9.189 6.552z" stroke="#E1E1E3" stroke-width="3" stroke-linejoin="round"/>
    <path d="M83.526 75.776v-.644h2.604v-1.204h-2.576v-1.792h-1.54v1.792h-2.632v1.204h2.632v.644c0 1.946-1.078 4.06-3.024 4.928l.84 1.176c1.4-.63 2.422-1.946 2.954-3.514.518 1.442 1.484 2.674 2.814 3.29l.868-1.148c-1.904-.896-2.94-2.898-2.94-4.732zm3.808 8.428h1.512v-6.188h1.904v-1.26h-1.904v-4.9h-1.512v12.348zm15.431-10.584h-1.736v-1.736h-1.54v7.448h1.54v-1.848h1.736v-1.26h-1.736V74.88h1.736v-1.26zm-11.032.196h4.172v1.204h-4.144v3.696h1.008c2.436.014 4.046-.056 5.88-.392l-.14-1.232c-1.694.294-3.15.378-5.236.392v-1.316h4.116v-3.556h-5.656v1.204zm1.064 8.092c0 1.442 1.596 2.282 4.2 2.268 2.548.014 4.144-.826 4.144-2.268 0-1.456-1.596-2.338-4.144-2.324-2.604-.014-4.2.868-4.2 2.324zm1.512 0c-.014-.742.952-1.148 2.688-1.148 1.694 0 2.646.406 2.66 1.148-.014.742-.966 1.134-2.66 1.12-1.736.014-2.702-.378-2.688-1.12zm22.688-10.052h-1.54v12.376h1.54V71.856zm-9.884 5.264c-.014 2.688 1.344 4.382 3.22 4.368 1.862.014 3.22-1.68 3.22-4.368 0-2.66-1.358-4.354-3.22-4.368-1.876.014-3.234 1.708-3.22 4.368zm1.456 0c0-1.876.714-2.996 1.764-2.996 1.036 0 1.75 1.12 1.764 2.996-.014 1.904-.728 3.01-1.764 2.996-1.05.014-1.764-1.092-1.764-2.996zm16.775-4.116h-5.88v8.204h5.88v-8.204zm-4.368 7v-5.796h2.884v5.796h-2.884zm6.58 4.228h1.54V71.856h-1.54v12.376zm8.012-8.876V74.32h2.716v-1.232h-6.972v1.232h2.716v1.036c0 2.114-1.218 4.424-3.164 5.32l.868 1.204c1.442-.686 2.534-2.128 3.094-3.822.56 1.568 1.638 2.87 3.094 3.514l.84-1.204c-2.002-.84-3.192-2.968-3.192-5.012zm4.088 8.848h1.54V71.856h-1.54v12.348zm16.948-11.788h-9.24v1.204h3.57c-.126 1.162-1.624 2.296-4.018 2.576l.56 1.204c2.212-.28 3.836-1.26 4.494-2.59.658 1.33 2.282 2.31 4.494 2.59l.588-1.204c-2.408-.28-3.92-1.4-4.046-2.576h3.598v-1.204zm-10.276 6.888h5.012v2.268h1.512v-2.268h4.788v-1.232h-11.312v1.232zm1.372 4.676h8.68v-1.232h-7.168v-2.324H147.7v3.556zm21.031-12.124h-1.54v12.376h1.54V71.856zm-9.632 9.464h6.02v-8.456h-1.512v3.08h-2.996v-3.08h-1.512v8.456zm1.512-1.26v-2.912h2.996v2.912h-2.996zm21.2-2.52h-11.256v1.204h4.872v1.05c-2.254.14-3.57.91-3.584 2.198.014 1.414 1.624 2.212 4.312 2.212 2.674 0 4.284-.798 4.284-2.212 0-1.288-1.316-2.058-3.528-2.184v-1.064h4.9V77.54zm-10.724-1.764.532 1.204c2.24-.238 3.878-1.134 4.55-2.394.658 1.26 2.324 2.156 4.578 2.394l.532-1.204c-2.324-.21-3.808-1.134-4.046-2.156h3.57v-1.204h-9.24v1.204h3.542c-.252 1.008-1.736 1.946-4.018 2.156zm2.324 6.216c-.014-.686.952-1.05 2.744-1.064 1.778.014 2.758.378 2.772 1.064-.014.672-.994 1.05-2.772 1.036-1.792.014-2.758-.364-2.744-1.036zM131.137 46.5v6h3.75l-5.25 9v-6h-3.75l5.25-9z" fill="#ABACAF"/>
    <path fill-rule="evenodd" clip-rule="evenodd" d="M131.284 45.957a.562.562 0 0 1 .415.543v5.438h3.188a.564.564 0 0 1 .486.845l-5.25 9a.563.563 0 0 1-1.049-.283v-5.437h-3.187a.562.562 0 0 1-.486-.846l5.25-9a.563.563 0 0 1 .633-.26zm-4.418 8.98h2.771a.564.564 0 0 1 .562.563v3.92l3.709-6.357h-2.771a.563.563 0 0 1-.563-.563v-3.92l-3.708 6.358z" fill="#ABACAF"/>
</svg>
