<svg width="20" height="20" viewBox="0 0 20 20" fill="none" xmlns="http://www.w3.org/2000/svg">
<path fill-rule="evenodd" clip-rule="evenodd" d="M17.9419 2.05806C18.186 2.30214 18.186 2.69786 17.9419 2.94194L2.94194 17.9419C2.69786 18.186 2.30214 18.186 2.05806 17.9419C1.81398 17.6979 1.81398 17.3021 2.05806 17.0581L17.0581 2.05806C17.3021 1.81398 17.6979 1.81398 17.9419 2.05806Z" fill="white"/>
<path fill-rule="evenodd" clip-rule="evenodd" d="M14.6548 2.5H3.75C3.05964 2.5 2.5 3.05964 2.5 3.75V14.6548L3.75 13.4048V12.0833L3.77528 12.1086L6.66667 9.21722L7.30214 9.85269L8.18602 8.9688L7.10861 7.89139C6.86453 7.64731 6.4688 7.64731 6.22472 7.89139L3.75 10.3661L3.75 3.75H13.4048L14.6548 2.5ZM9.36453 10.1473L10.8717 11.6545L12.9332 9.93653C13.1815 9.72959 13.5467 9.74615 13.7753 9.97473L16.25 12.4494V3.75H15.7618L16.8556 2.65624C17.2399 2.86947 17.5 3.27936 17.5 3.75V16.25C17.5 16.9404 16.9404 17.5 16.25 17.5H3.75C3.27936 17.5 2.86947 17.2399 2.65624 16.8556L3.75 15.7618V16.25H16.25V14.1667L16.2247 14.1919L13.295 11.2622L11.2334 12.9801C10.9851 13.1871 10.62 13.1705 10.3914 12.9419L8.48065 11.0312L9.36453 10.1473Z" fill="white"/>
</svg>
