<svg width="24" height="24" viewBox="0 0 24 24" fill="none" xmlns="http://www.w3.org/2000/svg">
<path fill-rule="evenodd" clip-rule="evenodd" d="M21.5999 15.15L19.4999 13.2V9.75C19.4999 5.85 16.6499 2.7 12.7499 2.25V0.75H11.2499V2.25C7.49988 2.7 4.49988 5.85 4.49988 9.75V13.2L2.39988 15.15C2.24988 15.3 2.09988 15.45 2.24988 15.75V18C2.24988 18.45 2.54988 18.75 2.84988 18.75H8.24988C8.24988 20.85 9.89988 22.5 11.9999 22.5C14.0999 22.5 15.7499 20.85 15.7499 18.75H20.9999C21.4499 18.75 21.7499 18.45 21.7499 18.15V15.75C21.7499 15.6 21.5999 15.3 21.5999 15.15ZM11.9999 21C10.7999 21 9.74992 19.95 9.74992 18.75H14.2499C14.2499 19.95 13.1999 21 11.9999 21ZM20.2499 17.25H3.74992V16.05L5.69992 13.95C5.84992 13.95 5.99992 13.65 5.99992 13.5V9.75C5.99992 6.45 8.69992 3.75 11.9999 3.75C15.2999 3.75 17.9999 6.45 17.9999 9.75V13.5C17.9999 13.65 18.1499 13.95 18.1499 14.1L20.2499 16.05V17.25Z" fill="white"/>
</svg>
