<svg width="20" height="20" viewBox="0 0 20 20" fill="none" xmlns="http://www.w3.org/2000/svg">
<path d="M15.2418 3.11328V16.8867H4.75701V3.11328H15.2418ZM15.3657 2.12946H4.63404C4.52103 2.12933 4.40893 2.15139 4.30449 2.19455C4.20006 2.2377 4.10534 2.30108 4.02539 2.38094C3.94544 2.46079 3.88228 2.55565 3.83901 2.66004C3.79573 2.76442 3.77319 2.87634 3.77319 2.98934V17.0097C3.77319 17.238 3.86395 17.4569 4.02539 17.6184C4.18683 17.7798 4.40573 17.8706 4.63404 17.8706H15.3657C15.5939 17.8703 15.8122 17.7793 15.9734 17.6179C16.1346 17.4565 16.2256 17.2379 16.2256 17.0097V2.98934C16.2256 2.76129 16.1347 2.54243 15.9734 2.38118C15.8122 2.21992 15.5938 2.12946 15.3657 2.12946Z" fill="white"/>
<path d="M17.8705 16.8759H2.12939V17.8598H17.8705V16.8759Z" fill="white"/>
<path d="M9.08287 4.9548H7.11523V6.92244H9.08287V4.9548Z" fill="white"/>
<path d="M12.912 4.9548H10.9443V6.92244H12.912V4.9548Z" fill="white"/>
<path d="M9.08287 8.4957H7.11523V10.4633H9.08287V8.4957Z" fill="white"/>
<path d="M12.912 8.4957H10.9443V10.4633H12.912V8.4957Z" fill="white"/>
<path d="M9.08287 11.9715H7.11523V13.9391H9.08287V11.9715Z" fill="white"/>
<path d="M12.912 11.9715H10.9443V13.9391H12.912V11.9715Z" fill="white"/>
</svg>
