<svg width="16" height="16" viewBox="0 0 16 16" fill="none" xmlns="http://www.w3.org/2000/svg">
<path fill-rule="evenodd" clip-rule="evenodd" d="M4.36941 10.8333C3.90917 10.8333 3.53607 11.2064 3.53607 11.6667C3.53607 12.1269 3.90917 12.5 4.36941 12.5C4.82964 12.5 5.20274 12.1269 5.20274 11.6667C5.20274 11.2064 4.82964 10.8333 4.36941 10.8333ZM2.53607 11.6667C2.53607 10.6541 3.35688 9.83333 4.36941 9.83333C5.38193 9.83333 6.20274 10.6541 6.20274 11.6667C6.20274 12.6792 5.38193 13.5 4.36941 13.5C3.35688 13.5 2.53607 12.6792 2.53607 11.6667Z" fill="white"/>
<path fill-rule="evenodd" clip-rule="evenodd" d="M11.2162 10.8333C10.756 10.8333 10.3829 11.2064 10.3829 11.6667C10.3829 12.1269 10.756 12.5 11.2162 12.5C11.6765 12.5 12.0496 12.1269 12.0496 11.6667C12.0496 11.2064 11.6765 10.8333 11.2162 10.8333ZM9.38291 11.6667C9.38291 10.6541 10.2037 9.83333 11.2162 9.83333C12.2288 9.83333 13.0496 10.6541 13.0496 11.6667C13.0496 12.6792 12.2288 13.5 11.2162 13.5C10.2037 13.5 9.38291 12.6792 9.38291 11.6667Z" fill="white"/>
<path fill-rule="evenodd" clip-rule="evenodd" d="M2.87496 3.46699C2.9544 3.2846 3.13442 3.16667 3.33335 3.16667H9.33335C9.50183 3.16667 9.65897 3.25151 9.7514 3.39237L11.6716 6.31886L14.5391 7.61372C14.7182 7.6946 14.8334 7.87289 14.8334 8.06941V11.6667C14.8334 11.9428 14.6095 12.1667 14.3334 12.1667H12.6216C12.3455 12.1667 12.1216 11.9428 12.1216 11.6667C12.1216 11.3905 12.3455 11.1667 12.6216 11.1667H13.8334V8.39224L11.1276 7.17041C11.041 7.13133 10.9674 7.06842 10.9153 6.98902L9.06341 4.16667H3.66093L2.16669 7.59693V11.1667H3.03606C3.3122 11.1667 3.53607 11.3905 3.53607 11.6667C3.53607 11.9428 3.3122 12.1667 3.03606 12.1667H1.66669C1.39054 12.1667 1.16669 11.9428 1.16669 11.6667V7.49275C1.16669 7.42404 1.18085 7.35607 1.20829 7.29307L2.87496 3.46699ZM5.2748 11.6667C5.2748 11.3905 5.49865 11.1667 5.7748 11.1667H9.8829C10.159 11.1667 10.3829 11.3905 10.3829 11.6667C10.3829 11.9428 10.159 12.1667 9.8829 12.1667H5.7748C5.49865 12.1667 5.2748 11.9428 5.2748 11.6667Z" fill="white"/>
<path fill-rule="evenodd" clip-rule="evenodd" d="M7.79087 5.55882C8.03453 5.68877 8.1267 5.99164 7.99675 6.23529L7.50002 7.16667H8.00002C8.17565 7.16667 8.33841 7.25882 8.42877 7.40942C8.51913 7.56002 8.52385 7.74699 8.4412 7.90196L7.55231 9.56863C7.42236 9.81228 7.11949 9.90446 6.87584 9.77451C6.63218 9.64456 6.54001 9.34169 6.66996 9.09804L7.16669 8.16667H6.66669C6.49106 8.16667 6.3283 8.07452 6.23794 7.92391C6.14758 7.77331 6.14286 7.58634 6.22551 7.43137L7.1144 5.76471C7.24435 5.52105 7.54722 5.42887 7.79087 5.55882Z" fill="white"/>
</svg>
