<svg width="16" height="16" viewBox="0 0 16 16" fill="none" xmlns="http://www.w3.org/2000/svg">
<path d="M14.67 6.97L10.805 5.58L9.185 3.55C9.0444 3.3782 8.86741 3.23974 8.66681 3.14463C8.46621 3.04952 8.247 3.00012 8.025 3H4.025C3.78099 3.00126 3.54097 3.06203 3.32576 3.17704C3.11055 3.29206 2.92664 3.45783 2.79 3.66L1.435 5.66C1.15431 6.0713 1.00284 6.55706 1 7.055V11C1 11.1326 1.05268 11.2598 1.14645 11.3536C1.24021 11.4473 1.36739 11.5 1.5 11.5H2.57C2.68514 11.9237 2.9365 12.2977 3.2853 12.5644C3.6341 12.831 4.06095 12.9755 4.5 12.9755C4.93905 12.9755 5.3659 12.831 5.7147 12.5644C6.0635 12.2977 6.31486 11.9237 6.43 11.5H9.57C9.68514 11.9237 9.9365 12.2977 10.2853 12.5644C10.6341 12.831 11.0609 12.9755 11.5 12.9755C11.9391 12.9755 12.3659 12.831 12.7147 12.5644C13.0635 12.2977 13.3149 11.9237 13.43 11.5H14.5C14.6326 11.5 14.7598 11.4473 14.8536 11.3536C14.9473 11.2598 15 11.1326 15 11V7.44C15 7.33724 14.9683 7.237 14.9092 7.1529C14.8502 7.0688 14.7666 7.00494 14.67 6.97ZM4.5 12C4.30222 12 4.10888 11.9414 3.94443 11.8315C3.77998 11.7216 3.65181 11.5654 3.57612 11.3827C3.50043 11.2 3.48063 10.9989 3.51921 10.8049C3.5578 10.6109 3.65304 10.4327 3.79289 10.2929C3.93275 10.153 4.11093 10.0578 4.30491 10.0192C4.49889 9.98063 4.69996 10.0004 4.88268 10.0761C5.06541 10.1518 5.22159 10.28 5.33147 10.4444C5.44135 10.6089 5.5 10.8022 5.5 11C5.5 11.2652 5.39464 11.5196 5.20711 11.7071C5.01957 11.8946 4.76522 12 4.5 12ZM11.5 12C11.3022 12 11.1089 11.9414 10.9444 11.8315C10.78 11.7216 10.6518 11.5654 10.5761 11.3827C10.5004 11.2 10.4806 10.9989 10.5192 10.8049C10.5578 10.6109 10.653 10.4327 10.7929 10.2929C10.9327 10.153 11.1109 10.0578 11.3049 10.0192C11.4989 9.98063 11.7 10.0004 11.8827 10.0761C12.0654 10.1518 12.2216 10.28 12.3315 10.4444C12.4414 10.6089 12.5 10.8022 12.5 11C12.5 11.2652 12.3946 11.5196 12.2071 11.7071C12.0196 11.8946 11.7652 12 11.5 12ZM14 10.5H13.43C13.3149 10.0763 13.0635 9.70229 12.7147 9.43563C12.3659 9.16897 11.9391 9.0245 11.5 9.0245C11.0609 9.0245 10.6341 9.16897 10.2853 9.43563C9.9365 9.70229 9.68514 10.0763 9.57 10.5H6.43C6.31486 10.0763 6.0635 9.70229 5.7147 9.43563C5.3659 9.16897 4.93905 9.0245 4.5 9.0245C4.06095 9.0245 3.6341 9.16897 3.2853 9.43563C2.9365 9.70229 2.68514 10.0763 2.57 10.5H2V7.055C1.99981 6.75361 2.09041 6.45915 2.26 6.21L3.615 4.21C3.66198 4.14399 3.7243 4.09039 3.7966 4.05381C3.86889 4.01723 3.94899 3.99876 4.03 4H8.03C8.10346 3.99988 8.17603 4.01595 8.24258 4.04706C8.30912 4.07817 8.36799 4.12356 8.415 4.18L10.115 6.315C10.1736 6.38607 10.2493 6.44112 10.335 6.475L14 7.79V10.5Z" fill="white"/>
<path fill-rule="evenodd" clip-rule="evenodd" d="M7.61068 4.58397C7.84045 4.73714 7.90254 5.04758 7.74936 5.27734L6.93426 6.49999H8C8.1844 6.49999 8.35383 6.60148 8.44084 6.76406C8.52785 6.92664 8.51831 7.12391 8.41603 7.27734L7.08269 9.27734C6.92952 9.50711 6.61908 9.56919 6.38932 9.41602C6.15955 9.26284 6.09747 8.95241 6.25064 8.72264L7.06574 7.49999H6C5.8156 7.49999 5.64617 7.3985 5.55916 7.23592C5.47215 7.07334 5.48169 6.87607 5.58398 6.72264L6.91731 4.72264C7.07049 4.49288 7.38092 4.43079 7.61068 4.58397Z" fill="white"/>
</svg>
