<svg width="20" height="20" viewBox="0 0 20 20" fill="none" xmlns="http://www.w3.org/2000/svg">
    <path fill-rule="evenodd" clip-rule="evenodd" d="M1.875 10c0-.345.28-.625.625-.625h15a.625.625 0 1 1 0 1.25h-15A.625.625 0 0 1 1.875 10z" fill="#fff"/>
    <path fill-rule="evenodd" clip-rule="evenodd" d="M3.136 4.407a.625.625 0 0 1 .79.395l2.74 8.222 2.741-8.222a.625.625 0 0 1 1.186 0l2.74 8.222 2.74-8.222a.625.625 0 0 1 1.187.396l-3.334 10a.625.625 0 0 1-1.186 0L10 6.976l-2.74 8.222a.625.625 0 0 1-1.186 0l-3.334-10a.625.625 0 0 1 .396-.79z" fill="#fff"/>
</svg>
