<svg width="24" height="24" viewBox="0 0 24 24" fill="none" xmlns="http://www.w3.org/2000/svg">
<path fill-rule="evenodd" clip-rule="evenodd" d="M7.43256 11.55L12.0001 18L16.6501 11.445C17.5245 10.3533 18.0007 8.9962 18.0001 7.5975C18.0209 4.25934 15.3381 1.53299 12.0001 1.5C9.63912 1.53524 7.51019 2.92876 6.53324 5.07837C5.55629 7.22798 5.90651 9.74821 7.43256 11.55ZM13.4861 6.75C13.4861 7.57843 12.8145 8.25 11.9861 8.25C11.1577 8.25 10.4861 7.57843 10.4861 6.75C10.4861 5.92157 11.1577 5.25 11.9861 5.25C12.8145 5.25 13.4861 5.92157 13.4861 6.75ZM20.9861 9H19.4861V10.5H20.9861V21H2.98608V10.5H4.48608V9H2.98608C2.15766 9 1.48608 9.67157 1.48608 10.5V21C1.48608 21.8284 2.15766 22.5 2.98608 22.5H20.9861C21.8145 22.5 22.4861 21.8284 22.4861 21V10.5C22.4861 9.67157 21.8145 9 20.9861 9ZM7.50012 7.5975C7.47512 5.08607 9.48873 3.02884 12.0001 3C14.5115 3.02884 16.5251 5.08607 16.5001 7.5975C16.4948 8.6532 16.1327 9.67608 15.4726 10.5L12.0001 15.39L8.61762 10.5975C7.9012 9.76163 7.50514 8.69837 7.50012 7.5975Z" fill="white"/>
</svg>
