<svg width="16" height="16" viewBox="0 0 16 16" fill="none" xmlns="http://www.w3.org/2000/svg">
    <path fill-rule="evenodd" clip-rule="evenodd" d="M1.5 8a.5.5 0 0 1 .5-.5h12a.5.5 0 0 1 0 1H2a.5.5 0 0 1-.5-.5z" fill="#fff"/>
    <path fill-rule="evenodd" clip-rule="evenodd" d="M2.509 3.526a.5.5 0 0 1 .632.316l2.192 6.577 2.193-6.577a.5.5 0 0 1 .948 0l2.193 6.577 2.192-6.577a.5.5 0 1 1 .949.316l-2.667 8a.5.5 0 0 1-.949 0L8 5.581l-2.192 6.577a.5.5 0 0 1-.949 0l-2.667-8a.5.5 0 0 1 .317-.632z" fill="#fff"/>
</svg>
