<svg width="32" height="32" viewBox="0 0 32 32" fill="none" xmlns="http://www.w3.org/2000/svg">
<path d="M17.3333 22C17.3333 21.2636 16.7364 20.6667 16 20.6667C15.2636 20.6667 14.6667 21.2636 14.6667 22C14.6667 22.7364 15.2636 23.3333 16 23.3333C16.7364 23.3333 17.3333 22.7364 17.3333 22Z" fill="white"/>
<path fill-rule="evenodd" clip-rule="evenodd" d="M16 18.5333C16.6627 18.5333 17.2 17.9961 17.2 17.3333L17.2 12C17.2 11.3372 16.6627 10.8 16 10.8C15.3372 10.8 14.8 11.3373 14.8 12L14.8 17.3333C14.8 17.9961 15.3372 18.5333 16 18.5333Z" fill="white"/>
<path fill-rule="evenodd" clip-rule="evenodd" d="M12.8246 4.83333C14.2359 2.38889 17.7641 2.38889 19.1754 4.83333L29.5677 22.8333C30.979 25.2778 29.2149 28.3333 26.3923 28.3333H5.60768C2.78508 28.3333 1.02096 25.2778 2.43226 22.8333L12.8246 4.83333ZM17.4434 5.83333C16.8019 4.72222 15.1981 4.72222 14.5566 5.83333L4.16431 23.8333C3.52281 24.9444 4.32468 26.3333 5.60768 26.3333H26.3923C27.6753 26.3333 28.4772 24.9444 27.8357 23.8333L17.4434 5.83333Z" fill="white"/>
</svg>
