<svg width="24" height="24" viewBox="0 0 24 24" fill="none" xmlns="http://www.w3.org/2000/svg">
<path d="M11.1026 2.82496C11.4689 2.07997 12.531 2.07998 12.8974 2.82496L15.1669 7.44046C15.3123 7.73611 15.594 7.94118 15.92 7.98873L21.0009 8.72974C21.82 8.84919 22.1476 9.85522 21.5559 10.4341L17.8747 14.0356C17.64 14.2651 17.533 14.5952 17.5883 14.9188L18.4567 20.0005C18.5964 20.8179 17.7377 21.4403 17.0043 21.0533L12.4667 18.659C12.1746 18.5049 11.8254 18.5049 11.5333 18.659L6.99571 21.0533C6.26229 21.4403 5.40364 20.8179 5.54332 20.0005L6.4117 14.9188C6.467 14.5952 6.35996 14.2651 6.12531 14.0356L2.44407 10.4341C1.85239 9.85522 2.18 8.8492 2.99908 8.72974L8.08 7.98873C8.40601 7.94118 8.68768 7.73611 8.83306 7.44046L11.1026 2.82496Z" fill="white"/>
</svg>
