<svg width="24" height="24" viewBox="0 0 24 24" fill="none" xmlns="http://www.w3.org/2000/svg">
    <path fill-rule="evenodd" clip-rule="evenodd" d="M16 12a4 4 0 1 1-8 0 4 4 0 0 1 8 0zm-1.5 0a2.5 2.5 0 1 1-5 0 2.5 2.5 0 0 1 5 0z" fill="#fff"/>
    <path fill-rule="evenodd" clip-rule="evenodd" d="M12 4.25c-3.592 0-7.221 1.524-9.551 5.211a4.763 4.763 0 0 0 0 5.078C4.779 18.226 8.408 19.75 12 19.75c3.592 0 7.221-1.524 9.551-5.211a4.763 4.763 0 0 0 0-5.078C19.221 5.774 15.592 4.25 12 4.25zm-8.283 6.012C5.735 7.068 8.849 5.75 12 5.75c3.15 0 6.265 1.318 8.283 4.512a3.263 3.263 0 0 1 0 3.476C18.265 16.932 15.151 18.25 12 18.25c-3.15 0-6.265-1.318-8.283-4.512a3.263 3.263 0 0 1 0-3.476z" fill="#fff"/>
</svg>
