<svg width="16" height="16" viewBox="0 0 16 16" fill="none" xmlns="http://www.w3.org/2000/svg">
<path fill-rule="evenodd" clip-rule="evenodd" d="M8.00004 13.6667C11.1297 13.6667 13.6667 11.1296 13.6667 8.00001C13.6667 4.8704 11.1297 2.33334 8.00004 2.33334C4.87043 2.33334 2.33337 4.8704 2.33337 8.00001C2.33337 11.1296 4.87043 13.6667 8.00004 13.6667ZM8.00004 14.6667C11.6819 14.6667 14.6667 11.6819 14.6667 8.00001C14.6667 4.31811 11.6819 1.33334 8.00004 1.33334C4.31814 1.33334 1.33337 4.31811 1.33337 8.00001C1.33337 11.6819 4.31814 14.6667 8.00004 14.6667Z" fill="white"/>
<path fill-rule="evenodd" clip-rule="evenodd" d="M7.42563 5.58377C7.2113 5.64243 7.06687 5.71564 7.00326 5.77016C6.81151 5.93452 6.72225 6.13939 6.72225 6.33334C6.72225 6.60949 6.49839 6.83334 6.22225 6.83334C5.94611 6.83334 5.72225 6.60949 5.72225 6.33334C5.72225 5.82005 5.96077 5.34665 6.35247 5.01091C6.58058 4.81538 6.89095 4.69333 7.16163 4.61924C7.44236 4.54241 7.74444 4.50001 8.00003 4.50001C8.25561 4.50001 8.5577 4.54241 8.83842 4.61924C9.1091 4.69333 9.41948 4.81538 9.64759 5.01091C10.0356 5.34353 10.2734 5.81126 10.2777 6.31903C10.297 6.71105 10.1899 7.09902 9.97204 7.42579C9.75685 7.74857 9.44497 7.99457 9.0815 8.12874C8.87234 8.22946 8.72739 8.34281 8.63635 8.46664C8.54904 8.5854 8.48954 8.74255 8.49959 8.97876C8.51133 9.25465 8.29718 9.48782 8.02129 9.49956C7.7454 9.51129 7.51223 9.29715 7.50049 9.02126C7.48143 8.57303 7.59962 8.18857 7.83065 7.87431C8.05514 7.56896 8.36295 7.36105 8.67666 7.21397C8.6918 7.20687 8.70728 7.20054 8.72305 7.19499C8.89346 7.13507 9.03979 7.02139 9.13999 6.87109C9.24019 6.72079 9.28884 6.542 9.27861 6.36166C9.27807 6.35223 9.27781 6.34279 9.27781 6.33334C9.27781 6.13939 9.18854 5.93452 8.9968 5.77016C8.93318 5.71564 8.78876 5.64243 8.57443 5.58377C8.37014 5.52785 8.157 5.50001 8.00003 5.50001C7.84305 5.50001 7.62992 5.52785 7.42563 5.58377Z" fill="white"/>
<path d="M8.66671 11.1111C8.66671 11.4793 8.36823 11.7778 8.00004 11.7778C7.63185 11.7778 7.33337 11.4793 7.33337 11.1111C7.33337 10.7429 7.63185 10.4444 8.00004 10.4444C8.36823 10.4444 8.66671 10.7429 8.66671 11.1111Z" fill="white"/>
</svg>
