<svg width="16" height="16" viewBox="0 0 16 16" fill="none" xmlns="http://www.w3.org/2000/svg">
<path fill-rule="evenodd" clip-rule="evenodd" d="M1 8C1 4.13401 4.13401 1 8 1C9.85652 1 11.637 1.7375 12.9497 3.05025C14.2625 4.36301 15 6.14348 15 8C15 11.866 11.866 15 8 15C4.13401 15 1 11.866 1 8ZM8.75 11.75C8.75 12.1642 8.41421 12.5 8 12.5C7.58579 12.5 7.25 12.1642 7.25 11.75C7.25 11.3358 7.58579 11 8 11C8.41421 11 8.75 11.3358 8.75 11.75ZM8.5 4.00001H7.75001C7.15286 3.99867 6.57979 4.2353 6.15755 4.65755C5.7353 5.07979 5.49867 5.65286 5.50001 6.25001V6.50001H6.50001V6.25001C6.50001 5.55965 7.05965 5.00001 7.75001 5.00001H8.5C9.19036 5.00001 9.75 5.55965 9.75 6.25001C9.75 6.94036 9.19036 7.50001 8.5 7.50001H7.50001V9.75001H8.5V8.50001C9.74265 8.50001 10.75 7.49265 10.75 6.25001C10.75 5.00736 9.74265 4.00001 8.5 4.00001ZM2 8C2 11.3137 4.68629 14 8 14C11.3137 14 14 11.3137 14 8C14 4.68629 11.3137 2 8 2C4.68629 2 2 4.68629 2 8Z" fill="white"/>
</svg>
