<svg width="20" height="20" viewBox="0 0 20 20" fill="none" xmlns="http://www.w3.org/2000/svg">
<path fill-rule="evenodd" clip-rule="evenodd" d="M9.37499 17.0561V15.8333C9.37499 15.4882 9.65481 15.2083 9.99999 15.2083C10.3452 15.2083 10.625 15.4882 10.625 15.8333V17.0561C14.0383 16.7577 16.7577 14.0384 17.0561 10.625H15.8333C15.4881 10.625 15.2083 10.3452 15.2083 10C15.2083 9.65482 15.4881 9.375 15.8333 9.375H17.0561C16.7577 5.96165 14.0383 3.24227 10.625 2.94386V4.16666C10.625 4.51184 10.3452 4.79166 9.99999 4.79166C9.65481 4.79166 9.37499 4.51184 9.37499 4.16666V2.94386C5.96164 3.24227 3.24226 5.96165 2.94385 9.375H4.16666C4.51183 9.375 4.79166 9.65482 4.79166 10C4.79166 10.3452 4.51183 10.625 4.16666 10.625H2.94385C3.24226 14.0384 5.96164 16.7577 9.37499 17.0561ZM18.3333 10C18.3333 14.6024 14.6024 18.3333 9.99999 18.3333C5.39762 18.3333 1.66666 14.6024 1.66666 10C1.66666 5.39762 5.39762 1.66666 9.99999 1.66666C14.6024 1.66666 18.3333 5.39762 18.3333 10ZM8.57757 8.24465C8.43028 8.30782 8.31289 8.42514 8.24964 8.57239L6.47763 12.6978C6.37674 12.9327 6.42905 13.2053 6.60971 13.3862C6.79037 13.567 7.06296 13.6196 7.29795 13.519L11.427 11.7506C11.5747 11.6873 11.6924 11.5696 11.7556 11.4218L13.5191 7.29763C13.6196 7.0627 13.5669 6.79029 13.3862 6.60972C13.2054 6.42915 12.9329 6.37679 12.6981 6.47749L8.57757 8.24465ZM10.7047 10.7001L8.24333 11.7543L9.29966 9.29508L11.756 8.24165L10.7047 10.7001Z" fill="white"/>
</svg>
