<svg width="20" height="20" viewBox="0 0 20 20" fill="none" xmlns="http://www.w3.org/2000/svg">
<path fill-rule="evenodd" clip-rule="evenodd" d="M8.92736 5.31599L10.6572 3.58614C12.1217 2.12168 14.496 2.12168 15.9605 3.58614C17.425 5.05061 17.425 7.42498 15.9605 8.88944L14.2307 10.6193L15.1145 11.5032L16.8444 9.77333C18.797 7.82071 18.797 4.65488 16.8444 2.70226C14.8918 0.749638 11.7259 0.749637 9.77333 2.70226L8.04348 4.43211L8.92736 5.31599ZM5.36471 8.87864L4.48083 7.99476L2.70226 9.77333C0.749638 11.7259 0.749638 14.8918 2.70226 16.8444C4.65488 18.797 7.8207 18.797 9.77333 16.8444L11.5519 15.0658L10.668 14.1819L8.88944 15.9605C7.42498 17.425 5.05061 17.425 3.58614 15.9605C2.12168 14.496 2.12168 12.1217 3.58614 10.6572L5.36471 8.87864Z" fill="white"/>
<path fill-rule="evenodd" clip-rule="evenodd" d="M15.1185 15.9518L3.3334 4.16666L4.21729 3.28278L16.0024 15.0679L15.1185 15.9518Z" fill="white"/>
</svg>
