<svg width="20" height="20" viewBox="0 0 20 20" fill="none" xmlns="http://www.w3.org/2000/svg">
<path fill-rule="evenodd" clip-rule="evenodd" d="M5.46174 13.5417C4.88644 13.5417 4.42007 14.008 4.42007 14.5833C4.42007 15.1586 4.88644 15.625 5.46174 15.625C6.03704 15.625 6.50341 15.1586 6.50341 14.5833C6.50341 14.008 6.03704 13.5417 5.46174 13.5417ZM3.17007 14.5833C3.17007 13.3177 4.19609 12.2917 5.46174 12.2917C6.72739 12.2917 7.75341 13.3177 7.75341 14.5833C7.75341 15.849 6.72739 16.875 5.46174 16.875C4.19609 16.875 3.17007 15.849 3.17007 14.5833Z" fill="white"/>
<path fill-rule="evenodd" clip-rule="evenodd" d="M14.0203 13.5417C13.445 13.5417 12.9786 14.008 12.9786 14.5833C12.9786 15.1586 13.445 15.625 14.0203 15.625C14.5956 15.625 15.062 15.1586 15.062 14.5833C15.062 14.008 14.5956 13.5417 14.0203 13.5417ZM11.7286 14.5833C11.7286 13.3177 12.7546 12.2917 14.0203 12.2917C15.2859 12.2917 16.312 13.3177 16.312 14.5833C16.312 15.849 15.2859 16.875 14.0203 16.875C12.7546 16.875 11.7286 15.849 11.7286 14.5833Z" fill="white"/>
<path fill-rule="evenodd" clip-rule="evenodd" d="M3.59368 4.33373C3.69299 4.10575 3.918 3.95833 4.16668 3.95833H11.6667C11.8773 3.95833 12.0737 4.06438 12.1892 4.24046L14.5895 7.89858L18.1739 9.51715C18.3978 9.61824 18.5417 9.84111 18.5417 10.0868V14.5833C18.5417 14.9285 18.2619 15.2083 17.9167 15.2083H15.777C15.4319 15.2083 15.152 14.9285 15.152 14.5833C15.152 14.2382 15.4319 13.9583 15.777 13.9583H17.2917V10.4903L13.9095 8.96302C13.8013 8.91417 13.7092 8.83552 13.6441 8.73628L11.3292 5.20833H4.57615L2.70834 9.49616V13.9583H3.79505C4.14023 13.9583 4.42007 14.2382 4.42007 14.5833C4.42007 14.9285 4.14023 15.2083 3.79505 15.2083H2.08334C1.73817 15.2083 1.45834 14.9285 1.45834 14.5833V9.36594C1.45834 9.28005 1.47605 9.19508 1.51035 9.11634L3.59368 4.33373ZM6.59348 14.5833C6.59348 14.2382 6.8733 13.9583 7.21848 13.9583H12.3536C12.6988 13.9583 12.9786 14.2382 12.9786 14.5833C12.9786 14.9285 12.6988 15.2083 12.3536 15.2083H7.21848C6.8733 15.2083 6.59348 14.9285 6.59348 14.5833Z" fill="white"/>
<path fill-rule="evenodd" clip-rule="evenodd" d="M9.73857 6.94853C10.0431 7.11096 10.1584 7.48955 9.99592 7.79412L9.37501 8.95833H10C10.2195 8.95833 10.423 9.07352 10.5359 9.26177C10.6489 9.45003 10.6548 9.68374 10.5515 9.87745L9.44037 11.9608C9.27793 12.2654 8.89935 12.3806 8.59478 12.2181C8.29021 12.0557 8.17499 11.6771 8.33743 11.3725L8.95834 10.2083H8.33334C8.1138 10.2083 7.91036 10.0931 7.79741 9.90489C7.68446 9.71664 7.67856 9.48293 7.78187 9.28921L8.89298 7.20588C9.05542 6.90131 9.434 6.78609 9.73857 6.94853Z" fill="white"/>
</svg>
