<svg width="20" height="20" viewBox="0 0 20 20" fill="none" xmlns="http://www.w3.org/2000/svg">
<path d="M18.3375 8.7125L13.5063 6.975L11.4813 4.4375C11.3055 4.22274 11.0843 4.04968 10.8335 3.93079C10.5828 3.8119 10.3088 3.75015 10.0312 3.75H5.03125C4.72624 3.75158 4.42621 3.82754 4.1572 3.9713C3.88818 4.11507 3.65831 4.32229 3.4875 4.575L1.79375 7.075C1.44288 7.58913 1.25354 8.19632 1.25 8.81875V13.75C1.25 13.9158 1.31585 14.0747 1.43306 14.1919C1.55027 14.3092 1.70924 14.375 1.875 14.375H3.2125C3.35643 14.9046 3.67063 15.3721 4.10662 15.7055C4.54262 16.0388 5.07619 16.2194 5.625 16.2194C6.17381 16.2194 6.70738 16.0388 7.14338 15.7055C7.57937 15.3721 7.89357 14.9046 8.0375 14.375H11.9625C12.1064 14.9046 12.4206 15.3721 12.8566 15.7055C13.2926 16.0388 13.8262 16.2194 14.375 16.2194C14.9238 16.2194 15.4574 16.0388 15.8934 15.7055C16.3294 15.3721 16.6436 14.9046 16.7875 14.375H18.125C18.2908 14.375 18.4497 14.3092 18.5669 14.1919C18.6842 14.0747 18.75 13.9158 18.75 13.75V9.3C18.7499 9.17155 18.7103 9.04624 18.6365 8.94112C18.5627 8.836 18.4583 8.75617 18.3375 8.7125ZM5.625 15C5.37777 15 5.1361 14.9267 4.93054 14.7893C4.72498 14.652 4.56476 14.4568 4.47015 14.2284C4.37554 13.9999 4.35079 13.7486 4.39902 13.5061C4.44725 13.2637 4.5663 13.0409 4.74112 12.8661C4.91593 12.6913 5.13866 12.5722 5.38114 12.524C5.62361 12.4758 5.87495 12.5005 6.10335 12.5952C6.33176 12.6898 6.52699 12.85 6.66434 13.0555C6.80169 13.2611 6.875 13.5028 6.875 13.75C6.875 14.0815 6.7433 14.3995 6.50888 14.6339C6.27446 14.8683 5.95652 15 5.625 15ZM14.375 15C14.1278 15 13.8861 14.9267 13.6805 14.7893C13.475 14.652 13.3148 14.4568 13.2202 14.2284C13.1255 13.9999 13.1008 13.7486 13.149 13.5061C13.1972 13.2637 13.3163 13.0409 13.4911 12.8661C13.6659 12.6913 13.8887 12.5722 14.1311 12.524C14.3736 12.4758 14.6249 12.5005 14.8534 12.5952C15.0818 12.6898 15.277 12.85 15.4143 13.0555C15.5517 13.2611 15.625 13.5028 15.625 13.75C15.625 14.0815 15.4933 14.3995 15.2589 14.6339C15.0245 14.8683 14.7065 15 14.375 15ZM17.5 13.125H16.7875C16.6436 12.5954 16.3294 12.1279 15.8934 11.7945C15.4574 11.4612 14.9238 11.2806 14.375 11.2806C13.8262 11.2806 13.2926 11.4612 12.8566 11.7945C12.4206 12.1279 12.1064 12.5954 11.9625 13.125H8.0375C7.89357 12.5954 7.57937 12.1279 7.14338 11.7945C6.70738 11.4612 6.17381 11.2806 5.625 11.2806C5.07619 11.2806 4.54262 11.4612 4.10662 11.7945C3.67063 12.1279 3.35643 12.5954 3.2125 13.125H2.5V8.81875C2.49976 8.44201 2.61301 8.07394 2.825 7.7625L4.51875 5.2625C4.57748 5.17999 4.65538 5.11299 4.74574 5.06726C4.83611 5.02153 4.93624 4.99845 5.0375 5H10.0375C10.1293 4.99985 10.22 5.01993 10.3032 5.05882C10.3864 5.09771 10.46 5.15445 10.5187 5.225L12.6437 7.89375C12.717 7.98259 12.8117 8.0514 12.9188 8.09375L17.5 9.7375V13.125Z" fill="white"/>
<path fill-rule="evenodd" clip-rule="evenodd" d="M9.51336 5.72997C9.80056 5.92144 9.87817 6.30948 9.6867 6.59669L8.66782 8.125H10C10.2305 8.125 10.4423 8.25186 10.551 8.45509C10.6598 8.65831 10.6479 8.9049 10.52 9.09669L8.85337 11.5967C8.6619 11.8839 8.27385 11.9615 7.98665 11.77C7.69944 11.5786 7.62183 11.1905 7.8133 10.9033L8.83218 9.375H7.5C7.2695 9.375 7.05772 9.24813 6.94895 9.04491C6.84019 8.84169 6.85211 8.5951 6.97997 8.40331L8.64664 5.90331C8.83811 5.6161 9.22615 5.5385 9.51336 5.72997Z" fill="white"/>
</svg>
