<svg width="32" height="32" viewBox="0 0 32 32" fill="none" xmlns="http://www.w3.org/2000/svg">
<path fill-rule="evenodd" clip-rule="evenodd" d="M5.99074 5.05887C6.09919 5.01992 6.21355 5 6.32878 5H25.6712C25.7864 5 25.9008 5.01992 26.0092 5.05887C26.37 5.18844 26.6949 5.40012 26.9599 5.67582C27.2249 5.95143 27.4231 6.28377 27.5412 6.64658C27.6593 7.00933 27.6945 7.39425 27.6447 7.77232C27.5949 8.15041 27.4611 8.51325 27.2521 8.83291C27.2253 8.87392 27.1955 8.91291 27.163 8.94956L19.9757 17.0465V27.3333C19.9757 27.7142 19.7594 28.062 19.4178 28.2303C19.0762 28.3987 18.6686 28.3584 18.3666 28.1264L12.4151 23.555C12.1687 23.3657 12.0242 23.0726 12.0242 22.7619V17.0465L4.83697 8.94956C4.80444 8.91291 4.77465 8.87392 4.74784 8.83291C4.53886 8.51325 4.40505 8.15041 4.35524 7.77232C4.30543 7.39425 4.3407 7.00933 4.45876 6.64658C4.57685 6.28377 4.77509 5.95143 5.04005 5.67582C5.30509 5.40012 5.62999 5.18844 5.99074 5.05887ZM6.55385 7C6.52838 7.01794 6.50425 7.0386 6.48185 7.0619C6.42818 7.11772 6.3861 7.18712 6.36057 7.26556C6.33502 7.34406 6.32719 7.4282 6.33811 7.51108C6.34654 7.57509 6.36585 7.63606 6.39434 7.6913L13.7721 16.0028C13.9345 16.1858 14.0242 16.422 14.0242 16.6667V22.2691L17.9757 25.3043V16.6667C17.9757 16.422 18.0654 16.1858 18.2279 16.0028L25.6056 7.6913C25.6341 7.63606 25.6534 7.57509 25.6619 7.51108C25.6728 7.42821 25.6649 7.34407 25.6394 7.26556C25.6139 7.18712 25.5718 7.11772 25.5181 7.0619C25.4957 7.0386 25.4716 7.01794 25.4461 7H6.55385Z" fill="white"/>
</svg>
