<svg width="20" height="20" viewBox="0 0 20 20" fill="none" xmlns="http://www.w3.org/2000/svg">
<path fill-rule="evenodd" clip-rule="evenodd" d="M16.25 2.51875H13.75V1.26875H12.5V2.51875H7.5V1.26875H6.25V2.51875H3.75C3.05964 2.51875 2.5 3.0784 2.5 3.76875V16.2688C2.5 16.9591 3.05964 17.5188 3.75 17.5188H16.25C16.9404 17.5188 17.5 16.9591 17.5 16.2688V3.76875C17.5 3.0784 16.9404 2.51875 16.25 2.51875ZM16.25 16.2688H3.75V7.51875H16.25V16.2688ZM16.25 6.26875H3.75V3.76875H6.25V5.01875H7.5V3.76875H12.5V5.01875H13.75V3.76875H16.25V6.26875Z" fill="white"/>
</svg>
