<svg width="16" height="16" viewBox="0 0 16 16" fill="none" xmlns="http://www.w3.org/2000/svg">
<path fill-rule="evenodd" clip-rule="evenodd" d="M7.99998 13.6667C11.1296 13.6667 13.6666 11.1296 13.6666 8.00001C13.6666 4.8704 11.1296 2.33334 7.99998 2.33334C4.87037 2.33334 2.33331 4.8704 2.33331 8.00001C2.33331 11.1296 4.87037 13.6667 7.99998 13.6667ZM7.99998 14.6667C11.6819 14.6667 14.6666 11.6819 14.6666 8.00001C14.6666 4.31811 11.6819 1.33334 7.99998 1.33334C4.31808 1.33334 1.33331 4.31811 1.33331 8.00001C1.33331 11.6819 4.31808 14.6667 7.99998 14.6667Z" fill="white"/>
<path fill-rule="evenodd" clip-rule="evenodd" d="M7.99998 3.50001C8.27612 3.50001 8.49998 3.72387 8.49998 4.00001V7.7929L10.6869 9.97979C10.8821 10.1751 10.8821 10.4916 10.6869 10.6869C10.4916 10.8822 10.175 10.8822 9.97976 10.6869L7.64643 8.35356C7.55266 8.2598 7.49998 8.13262 7.49998 8.00001V4.00001C7.49998 3.72387 7.72384 3.50001 7.99998 3.50001Z" fill="white"/>
</svg>
