<svg width="20" height="20" viewBox="0 0 20 20" fill="none" xmlns="http://www.w3.org/2000/svg">
<path fill-rule="evenodd" clip-rule="evenodd" d="M3.75 3.75H12.0833V6.66667H13.3333V3.75C13.3333 3.05964 12.7737 2.5 12.0833 2.5H3.75C3.05964 2.5 2.5 3.05964 2.5 3.75V12.0833C2.5 12.7737 3.05964 13.3333 3.75 13.3333H6.66667V12.0833H3.75V3.75Z" fill="white"/>
<path fill-rule="evenodd" clip-rule="evenodd" d="M16.25 7.91667H7.91667V16.25H16.25V7.91667ZM7.91667 6.66667C7.22631 6.66667 6.66667 7.22631 6.66667 7.91667V16.25C6.66667 16.9404 7.22631 17.5 7.91667 17.5H16.25C16.9404 17.5 17.5 16.9404 17.5 16.25V7.91667C17.5 7.22631 16.9404 6.66667 16.25 6.66667H7.91667Z" fill="white"/>
</svg>
