<svg width="32" height="32" viewBox="0 0 32 32" fill="none" xmlns="http://www.w3.org/2000/svg">
    <path fill-rule="evenodd" clip-rule="evenodd" d="M6.336 16.236a7 7 0 0 1 9.9-9.9l1.885 1.886a1 1 0 1 1-1.414 1.414L14.821 7.75a5 5 0 1 0-7.07 7.072l1.885 1.885a1 1 0 1 1-1.414 1.414l-1.886-1.885zm7.543 6.128a1 1 0 0 1 1.414 0l1.886 1.886a5 5 0 1 0 7.07-7.072l-1.885-1.885a1 1 0 0 1 1.414-1.414l1.886 1.885a7 7 0 1 1-9.9 9.9l-1.885-1.886a1 1 0 0 1 0-1.414zM26.04 5.96a1 1 0 0 1 0 1.414L7.375 26.04a1 1 0 0 1-1.414-1.414L24.626 5.96a1 1 0 0 1 1.415 0z" fill="#fff"/>
</svg>
