<svg width="20" height="20" viewBox="0 0 20 20" fill="none" xmlns="http://www.w3.org/2000/svg">
    <path fill-rule="evenodd" clip-rule="evenodd" d="M6.667 3.333H4.583c-.69 0-1.25.56-1.25 1.25v12.5c0 .69.56 1.25 1.25 1.25h10.834c.69 0 1.25-.56 1.25-1.25v-12.5c0-.69-.56-1.25-1.25-1.25h-2.084v1.25h2.084v12.5H4.583v-12.5h2.084v-1.25z" fill="#fff"/>
    <path fill-rule="evenodd" clip-rule="evenodd" d="M12.083 2.917H7.917v1.666h4.166V2.917zm-4.166-1.25c-.69 0-1.25.56-1.25 1.25v1.666c0 .69.56 1.25 1.25 1.25h4.166c.69 0 1.25-.56 1.25-1.25V2.917c0-.69-.56-1.25-1.25-1.25H7.917zM6.458 8.333c0-.345.28-.625.625-.625h5.834a.625.625 0 1 1 0 1.25H7.083a.625.625 0 0 1-.625-.625zM6.458 11.25c0-.345.28-.625.625-.625h4.167a.625.625 0 1 1 0 1.25H7.083a.625.625 0 0 1-.625-.625zM6.458 14.167c0-.345.28-.625.625-.625h2.5a.625.625 0 1 1 0 1.25h-2.5a.625.625 0 0 1-.625-.625z" fill="#fff"/>
</svg>
