<svg width="32" height="24" viewBox="0 0 32 24" fill="none" xmlns="http://www.w3.org/2000/svg">
<path d="M19 19H23C24.6569 19 26 17.6569 26 16V8C26 6.34315 24.6569 5 23 5H19M11 19H6C4.34315 19 3 17.6569 3 16V8C3 6.34315 4.34315 5 6 5H11" stroke="#797A7D" stroke-width="1.5" stroke-linecap="round"/>
<path d="M26 8H27.5C28.3284 8 29 8.67157 29 9.5V14.5C29 15.3284 28.3284 16 27.5 16H26" stroke="#797A7D" stroke-width="1.5" stroke-linecap="round"/>
<path d="M15.6667 7L13 12H17L14.3333 17" stroke="#797A7D" stroke-width="1.5" stroke-linecap="round" stroke-linejoin="round"/>
</svg>
