<svg width="32" height="24" viewBox="0 0 32 24" fill="none" xmlns="http://www.w3.org/2000/svg">
    <path fill-rule="evenodd" clip-rule="evenodd" d="M3.075 3.565A3.565 3.565 0 0 1 6.64 0h18.827a3.565 3.565 0 0 1 3.564 3.565V14.86a3.565 3.565 0 0 1-3.564 3.565h-4.673L17.616 24l-1.289-.741 3.608-6.314h5.532c1.15 0 2.083-.933 2.083-2.084V3.565c0-1.151-.933-2.084-2.083-2.084H6.64c-1.151 0-2.084.933-2.084 2.084V14.86c0 1.15.933 2.084 2.084 2.084h8.271v1.48H6.64a3.565 3.565 0 0 1-3.565-3.564V3.565zm5.648 3.564V5.65h14.66v1.48H8.723zm0 5.648v-1.48h9.012v1.48H8.723z" fill="#fff"/>
</svg>
