<svg width="24" height="24" viewBox="0 0 24 24" fill="none" xmlns="http://www.w3.org/2000/svg">
<path fill-rule="evenodd" clip-rule="evenodd" d="M12 21.15C17.0534 21.15 21.15 17.0534 21.15 12C21.15 6.94659 17.0534 2.85 12 2.85C6.94659 2.85 2.85 6.94659 2.85 12C2.85 17.0534 6.94659 21.15 12 21.15ZM12 22.5C17.799 22.5 22.5 17.799 22.5 12C22.5 6.20101 17.799 1.5 12 1.5C6.20101 1.5 1.5 6.20101 1.5 12C1.5 17.799 6.20101 22.5 12 22.5ZM10.725 16.722V17.55H10.7172L10.718 17.5815L10.718 17.5816V17.5816V17.5817C10.7215 17.7225 10.725 17.8623 10.725 18H9.375C9.375 17.9212 9.37114 17.8248 9.36672 17.714L9.36671 17.714V17.714V17.7139C9.35551 17.4337 9.34061 17.061 9.375 16.6463V7.91801L7.65669 9.49699C7.3822 9.74923 6.95519 9.73119 6.70295 9.45669C6.45071 9.18219 6.46875 8.75519 6.74325 8.50295L9.51825 5.95295C9.7765 5.71564 10.1735 5.71564 10.4317 5.95295L13.2067 8.50295C13.4812 8.75519 13.4992 9.18219 13.247 9.45669C12.9948 9.73119 12.5677 9.74923 12.2933 9.49699L10.725 8.05589V13.9463C11.6999 13.1696 13.2655 12.7073 15.7048 12.7278L14.3531 11.2567C14.1008 10.9822 14.1189 10.5552 14.3934 10.303C14.6678 10.0507 15.0949 10.0688 15.3471 10.3433L17.8971 13.1183C18.1344 13.3765 18.1344 13.7735 17.8971 14.0317L15.3471 16.8067C15.0949 17.0812 14.6678 17.0993 14.3934 16.847C14.1189 16.5948 14.1008 16.1678 14.3531 15.8933L16.0165 14.0831C13.0162 14.0039 11.7652 14.678 11.2287 15.3337C10.8816 15.7579 10.7615 16.2342 10.725 16.722Z" fill="white"/>
</svg>
