<svg width="20" height="20" viewBox="0 0 20 20" fill="none" xmlns="http://www.w3.org/2000/svg">
<path fill-rule="evenodd" clip-rule="evenodd" d="M15.4167 2.91667H4.58334V17.0833H15.4167V2.91667ZM4.58334 1.66667C3.89299 1.66667 3.33334 2.22631 3.33334 2.91667V17.0833C3.33334 17.7737 3.89299 18.3333 4.58334 18.3333H15.4167C16.107 18.3333 16.6667 17.7737 16.6667 17.0833V2.91667C16.6667 2.22631 16.107 1.66667 15.4167 1.66667H4.58334Z" fill="white"/>
<path fill-rule="evenodd" clip-rule="evenodd" d="M6.45834 10C6.45834 9.65482 6.73817 9.375 7.08334 9.375H12.9167C13.2619 9.375 13.5417 9.65482 13.5417 10C13.5417 10.3452 13.2619 10.625 12.9167 10.625H7.08334C6.73817 10.625 6.45834 10.3452 6.45834 10Z" fill="white"/>
<path fill-rule="evenodd" clip-rule="evenodd" d="M6.45834 6.66667C6.45834 6.32149 6.73817 6.04167 7.08334 6.04167L11.25 6.04167C11.5952 6.04167 11.875 6.32149 11.875 6.66667C11.875 7.01184 11.5952 7.29167 11.25 7.29167L7.08334 7.29167C6.73817 7.29167 6.45834 7.01184 6.45834 6.66667Z" fill="white"/>
<path fill-rule="evenodd" clip-rule="evenodd" d="M6.45834 13.3333C6.45834 12.9882 6.73817 12.7083 7.08334 12.7083L11.25 12.7083C11.5952 12.7083 11.875 12.9882 11.875 13.3333C11.875 13.6785 11.5952 13.9583 11.25 13.9583L7.08334 13.9583C6.73817 13.9583 6.45834 13.6785 6.45834 13.3333Z" fill="white"/>
</svg>
