<svg width="20" height="20" viewBox="0 0 20 20" fill="none" xmlns="http://www.w3.org/2000/svg">
<path d="M16.7814 2.3288C17.0174 2.3288 17.2438 2.42251 17.4106 2.58939C17.5775 2.75627 17.6712 2.98267 17.6712 3.21867V16.7814C17.6709 17.0173 17.5769 17.2433 17.4101 17.4101C17.2433 17.5769 17.0173 17.6709 16.7814 17.6712H3.21867C2.98284 17.6707 2.75668 17.5766 2.58993 17.4098C2.42317 17.2431 2.32938 17.0172 2.3288 16.7814V3.21867C2.32909 2.98276 2.42311 2.75648 2.58993 2.58966C2.75675 2.42284 2.98276 2.32909 3.21867 2.3288H16.7814ZM16.7814 1.23291H3.21867C2.69202 1.23291 2.18697 1.4419 1.81457 1.8143C1.44217 2.1867 1.23291 2.69202 1.23291 3.21867V16.7814C1.23291 17.308 1.44217 17.8131 1.81457 18.1855C2.18697 18.5579 2.69202 18.7671 3.21867 18.7671H16.7814C17.308 18.7671 17.8131 18.5579 18.1855 18.1855C18.5579 17.8131 18.7671 17.308 18.7671 16.7814V3.21867C18.7671 2.69202 18.5579 2.1867 18.1855 1.8143C17.8131 1.4419 17.308 1.23291 16.7814 1.23291Z" fill="white"/>
<path d="M11.2491 5.7489H4.66064V6.84479H11.2491V5.7489Z" fill="white"/>
<path d="M11.2491 13.155H4.66064V14.2509H11.2491V13.155Z" fill="white"/>
<path d="M14.0228 9.36646H4.66064V10.4623H14.0228V9.36646Z" fill="white"/>
</svg>
