<svg width="24" height="24" viewBox="0 0 24 24" fill="none" xmlns="http://www.w3.org/2000/svg">
<path fill-rule="evenodd" clip-rule="evenodd" d="M12 11.5C13.933 11.5 15.5 9.933 15.5 8C15.5 6.067 13.933 4.5 12 4.5C10.067 4.5 8.5 6.067 8.5 8C8.5 9.933 10.067 11.5 12 11.5ZM12 13C14.7614 13 17 10.7614 17 8C17 5.23858 14.7614 3 12 3C9.23858 3 7 5.23858 7 8C7 10.7614 9.23858 13 12 13Z" fill="white"/>
<path fill-rule="evenodd" clip-rule="evenodd" d="M5.25 20C5.25 17.3766 7.37665 15.25 10 15.25H14C16.6234 15.25 18.75 17.3766 18.75 20V21C18.75 21.4142 18.4142 21.75 18 21.75C17.5858 21.75 17.25 21.4142 17.25 21V20C17.25 18.2051 15.7949 16.75 14 16.75H10C8.20507 16.75 6.75 18.2051 6.75 20V21C6.75 21.4142 6.41421 21.75 6 21.75C5.58579 21.75 5.25 21.4142 5.25 21V20Z" fill="white"/>
</svg>
