<svg width="32" height="32" viewBox="0 0 32 32" fill="none" xmlns="http://www.w3.org/2000/svg">
<path fill-rule="evenodd" clip-rule="evenodd" d="M28.7998 20.2L25.9998 17.6V13C25.9998 7.8 22.1998 3.6 16.9998 3V1H14.9998V3C9.99984 3.6 5.99984 7.8 5.99984 13V17.6L3.19983 20.2C2.99983 20.4 2.79983 20.6 2.99983 21V24C2.99983 24.6 3.39983 25 3.79983 25H10.9998C10.9998 27.8 13.1998 30 15.9998 30C18.7998 30 20.9998 27.8 20.9998 25H27.9998C28.5998 25 28.9998 24.6 28.9998 24.2V21C28.9998 20.8 28.7998 20.4 28.7998 20.2ZM15.9999 28C14.3999 28 12.9999 26.6 12.9999 25H18.9999C18.9999 26.6 17.5999 28 15.9999 28ZM26.9999 23H4.99992V21.4L7.59992 18.6C7.79992 18.6 7.99992 18.2 7.99992 18V13C7.99992 8.6 11.5999 5 15.9999 5C20.3999 5 23.9999 8.6 23.9999 13V18C23.9999 18.2 24.1999 18.6 24.1999 18.8L26.9999 21.4V23Z" fill="white"/>
</svg>
