<svg width="32" height="32" viewBox="0 0 32 32" fill="none" xmlns="http://www.w3.org/2000/svg">
    <path fill-rule="evenodd" clip-rule="evenodd" d="M16 5a1.667 1.667 0 0 0-1.667 1.65 1.004 1.004 0 0 1-.591.93A8.334 8.334 0 0 0 9 14.69v3.977c0 .04-.002.08-.007.12a6.334 6.334 0 0 1-1.106 2.88h16.226a6.333 6.333 0 0 1-1.105-2.88.984.984 0 0 1-.008-.12V14.69a8.333 8.333 0 0 0-4.76-7.12 1 1 0 0 1-.573-.904A1.667 1.667 0 0 0 16 5zm-3.61 1.024a3.667 3.667 0 0 1 7.22 0A10.333 10.333 0 0 1 25 14.667v3.936a4.334 4.334 0 0 0 2.16 3.194 1 1 0 0 1-.493 1.87H5.333a1 1 0 0 1-.492-1.87A4.333 4.333 0 0 0 7 18.603v-3.936l.001-.047a10.333 10.333 0 0 1 5.389-8.596z" fill="#fff"/>
    <path fill-rule="evenodd" clip-rule="evenodd" d="M12 21.667a1 1 0 0 1 1 1V24a3 3 0 0 0 6 0v-1.333a1 1 0 1 1 2 0V24a5 5 0 1 1-10 0v-1.333a1 1 0 0 1 1-1z" fill="#fff"/>
</svg>
