<svg width="16" height="16" viewBox="0 0 16 16" fill="none" xmlns="http://www.w3.org/2000/svg">
<path fill-rule="evenodd" clip-rule="evenodd" d="M7.99998 14.6667C11.6819 14.6667 14.6666 11.6819 14.6666 8.00001C14.6666 4.31811 11.6819 1.33334 7.99998 1.33334C4.31808 1.33334 1.33331 4.31811 1.33331 8.00001C1.33331 11.6819 4.31808 14.6667 7.99998 14.6667ZM4.51751 5.18944C4.78108 5.10707 5.06152 5.25397 5.14389 5.51754L6.33331 9.32371L7.52274 5.51754C7.58797 5.3088 7.78129 5.16668 7.99998 5.16668C8.21867 5.16668 8.41199 5.3088 8.47722 5.51754L9.66665 9.32371L10.8561 5.51754C10.9384 5.25397 11.2189 5.10707 11.4825 5.18944C11.746 5.27181 11.8929 5.55224 11.8106 5.81582L11.2842 7.5H12C12.2761 7.5 12.5 7.72386 12.5 8C12.5 8.27614 12.2761 8.5 12 8.5H10.9717L10.1439 11.1492C10.0787 11.3579 9.88534 11.5 9.66665 11.5C9.44795 11.5 9.25464 11.3579 9.18941 11.1492L7.99998 7.34299L6.81055 11.1492C6.74532 11.3579 6.55201 11.5 6.33331 11.5C6.11462 11.5 5.9213 11.3579 5.85607 11.1492L5.02821 8.5H3.99998C3.72384 8.5 3.49998 8.27614 3.49998 8C3.49998 7.72386 3.72384 7.5 3.99998 7.5H4.71571L4.18941 5.81582C4.10704 5.55224 4.25394 5.27181 4.51751 5.18944Z" fill="white"/>
</svg>
