<svg width="16" height="16" viewBox="0 0 16 16" fill="none" xmlns="http://www.w3.org/2000/svg">
<path fill-rule="evenodd" clip-rule="evenodd" d="M8.5 4.5C8.5 3.11929 7.38071 2 6 2C4.61929 2 3.5 3.11929 3.5 4.5C3.5 5.88071 4.61929 7 6 7C7.38071 7 8.5 5.88071 8.5 4.5ZM2.5 4.5C2.5 2.567 4.067 1 6 1C7.933 1 9.5 2.567 9.5 4.5C9.5 6.433 7.933 8 6 8C4.067 8 2.5 6.433 2.5 4.5ZM10 15H11V12.5C11 10.567 9.433 9 7.5 9H4.5C2.567 9 1 10.567 1 12.5V15H2V12.5C2 11.1193 3.11929 10 4.5 10H7.5C8.16304 10 8.79893 10.2634 9.26777 10.7322C9.73661 11.2011 10 11.837 10 12.5V15ZM9.64508 7.98223L9.60586 7.96378C9.89069 7.66734 10.1393 7.33586 10.3446 6.97644C11.5622 6.80855 12.5 5.76379 12.5 4.5C12.5 3.23621 11.5622 2.19145 10.3446 2.02356C10.1363 1.65893 9.88347 1.32306 9.59346 1.02336C9.72683 1.00793 9.86248 1 9.99999 1C11.933 1 13.5 2.567 13.5 4.5C13.5 6.433 11.933 8 9.99999 8C9.88019 8 9.76179 7.99398 9.64508 7.98223ZM13.2678 10.7322C12.881 10.3454 12.3805 10.0985 11.8448 10.0239C11.6311 9.64963 11.3704 9.30566 11.0707 9H11.5C13.433 9 15 10.567 15 12.5V15H14V12.5C14 11.837 13.7366 11.2011 13.2678 10.7322Z" fill="white"/>
</svg>
