<svg width="16" height="16" viewBox="0 0 16 16" fill="none" xmlns="http://www.w3.org/2000/svg">
<path fill-rule="evenodd" clip-rule="evenodd" d="M15 1.707L14.293 1L1 14.293L1.707 15L2.707 14H13C13.5519 13.9992 13.9992 13.5519 14 13V2.707L15 1.707ZM13 13H3.70697L7.60347 9.1035L8.79297 10.293C9.18347 10.6834 9.81647 10.6834 10.207 10.293L11 9.5L13 11.4985V13ZM13 10.084L11.707 8.791C11.3165 8.40062 10.6835 8.40062 10.293 8.791L9.49998 9.584L8.31148 8.3955L13 3.707V10.084ZM3 11V9.5L5.5 7.0015L6.1865 7.6885L6.8945 6.9805L6.207 6.293C5.8165 5.90262 5.1835 5.90262 4.793 6.293L3 8.086V3H11V2H3C2.44794 2.00055 2.00055 2.44794 2 3V11H3Z" fill="white"/>
</svg>
