<svg width="24" height="24" viewBox="0 0 24 24" fill="none" xmlns="http://www.w3.org/2000/svg">
<path fill-rule="evenodd" clip-rule="evenodd" d="M18.1872 5.81281C18.4801 6.1057 18.4801 6.58058 18.1872 6.87347L6.87348 18.1872C6.58059 18.4801 6.10572 18.4801 5.81282 18.1872C5.51993 17.8943 5.51993 17.4194 5.81282 17.1265L17.1265 5.81281C17.4194 5.51992 17.8943 5.51992 18.1872 5.81281Z" fill="white"/>
<path fill-rule="evenodd" clip-rule="evenodd" d="M5.81281 5.81281C6.1057 5.51992 6.58058 5.51992 6.87347 5.81281L18.1872 17.1265C18.4801 17.4194 18.4801 17.8943 18.1872 18.1872C17.8943 18.4801 17.4194 18.4801 17.1265 18.1872L5.81281 6.87347C5.51992 6.58058 5.51992 6.1057 5.81281 5.81281Z" fill="white"/>
<path fill-rule="evenodd" clip-rule="evenodd" d="M18.1872 5.81281C18.4801 6.1057 18.4801 6.58058 18.1872 6.87347L6.87348 18.1872C6.58059 18.4801 6.10572 18.4801 5.81282 18.1872C5.51993 17.8943 5.51993 17.4194 5.81282 17.1265L17.1265 5.81281C17.4194 5.51992 17.8943 5.51992 18.1872 5.81281Z" fill="white"/>
<path fill-rule="evenodd" clip-rule="evenodd" d="M5.81281 5.81281C6.1057 5.51992 6.58058 5.51992 6.87347 5.81281L18.1872 17.1265C18.4801 17.4194 18.4801 17.8943 18.1872 18.1872C17.8943 18.4801 17.4194 18.4801 17.1265 18.1872L5.81281 6.87347C5.51992 6.58058 5.51992 6.1057 5.81281 5.81281Z" fill="white"/>
</svg>
