<svg width="32" height="32" viewBox="0 0 32 32" fill="none" xmlns="http://www.w3.org/2000/svg">
<path fill-rule="evenodd" clip-rule="evenodd" d="M16 22C19.3137 22 22 19.3137 22 16C22 12.6863 19.3137 10 16 10C12.6863 10 10 12.6863 10 16C10 19.3137 12.6863 22 16 22ZM16 24C20.4183 24 24 20.4183 24 16C24 11.5817 20.4183 8 16 8C11.5817 8 8.00002 11.5817 8.00002 16C8.00002 20.4183 11.5817 24 16 24Z" fill="white"/>
<path fill-rule="evenodd" clip-rule="evenodd" d="M23 16C23 15.4477 23.4477 15 24 15H29.3334C29.8856 15 30.3334 15.4477 30.3334 16C30.3334 16.5523 29.8856 17 29.3334 17H24C23.4477 17 23 16.5523 23 16Z" fill="white"/>
<path fill-rule="evenodd" clip-rule="evenodd" d="M1.66669 16C1.66669 15.4477 2.1144 15 2.66669 15H8.00002C8.55231 15 9.00002 15.4477 9.00002 16C9.00002 16.5523 8.55231 17 8.00002 17H2.66669C2.1144 17 1.66669 16.5523 1.66669 16Z" fill="white"/>
<path fill-rule="evenodd" clip-rule="evenodd" d="M16 9C15.4477 9 15 8.55228 15 8V2.66666C15 2.11438 15.4477 1.66666 16 1.66666C16.5523 1.66666 17 2.11438 17 2.66666V8C17 8.55228 16.5523 9 16 9Z" fill="white"/>
<path fill-rule="evenodd" clip-rule="evenodd" d="M16 30.3333C15.4477 30.3333 15 29.8856 15 29.3333V24C15 23.4477 15.4477 23 16 23C16.5523 23 17 23.4477 17 24V29.3333C17 29.8856 16.5523 30.3333 16 30.3333Z" fill="white"/>
</svg>
