<svg width="20" height="20" viewBox="0 0 20 20" fill="none" xmlns="http://www.w3.org/2000/svg">
    <path fill-rule="evenodd" clip-rule="evenodd" d="M10 18.333a8.333 8.333 0 1 0 0-16.666 8.333 8.333 0 0 0 0 16.666zM5.647 6.487c.33-.103.68.08.783.41l1.487 4.758 1.486-4.758a.625.625 0 0 1 1.194 0l1.486 4.758 1.487-4.758a.625.625 0 0 1 1.193.373l-.658 2.105H15a.625.625 0 1 1 0 1.25h-1.285l-1.035 3.311a.625.625 0 0 1-1.193 0L10 9.18l-1.487 4.757a.625.625 0 0 1-1.193 0l-1.035-3.311H5a.625.625 0 1 1 0-1.25h.895L5.237 7.27a.625.625 0 0 1 .41-.783z" fill="#fff"/>
</svg>
