<svg width="102" height="24" fill="none" xmlns="http://www.w3.org/2000/svg">
    <g clip-path="url(#a)" fill="#AFAFAF">
        <path d="M4.345 1.31a5.5 5.5 0 0 0-1.548.2c-.52.15-.99.4-1.406.75-.417.352-.753.826-1.009 1.427C.128 4.288 0 5.03 0 5.911v13.16c0 1.02.151 1.831.454 2.433.303.6.696 1.046 1.18 1.336.482.29.989.48 1.519.57a9.05 9.05 0 0 0 1.506.135c.927 0 8.52.026 8.52.026v-2.85H5.17c-.398 0-.772-.06-1.122-.18-.351-.119-.635-.35-.852-.69-.218-.34-.327-.851-.327-1.532v-4.536l9.033-.002v-2.73l-9.033-.003V6.452c0-.821.2-1.423.596-1.803.398-.38.947-.571 1.648-.571h8.067V1.309s-7.604.02-8.835 0zM24.315 20.212 18.463 1.284H15.51l6.988 22.143h3.635L33.12 1.284h-2.925l-5.88 18.928zM45.125 1.345h-2.966V23.52h2.966V1.345zM59.79 7.164c-.918-.485-2.158-.731-3.684-.731-.584 0-1.163.032-1.722.097-.57.066-1.134.166-1.677.296-.544.13-1.09.302-1.626.512-.528.21-1.045.447-1.534.705l-.218.115v15.361h2.966V9.883a14.405 14.405 0 0 1 1.692-.382c1.556-.25 3.059-.2 3.902.18.473.212.824.487 1.041.816.232.348.389.713.468 1.082.084.396.127.775.127 1.126V23.52h2.966V12.705c0-1.293-.212-2.42-.628-3.348a4.557 4.557 0 0 0-2.072-2.193zM74.033.051c-.47-.063-.915-.073-1.833-.002a4.727 4.727 0 0 0-1.382.347c-.49.201-.963.533-1.404.986-.445.459-.808 1.094-1.079 1.885-.266.777-.402 1.789-.402 3.006v.447h-2.602v2.945h2.602V23.52H70.9V9.666h4.144V6.72h-4.144v-.48c0-.883.083-1.56.246-2.01.153-.42.349-.722.584-.895.25-.186.517-.293.815-.328.578-.068 1.147-.082 1.578-.032a2.5 2.5 0 0 1 .42.083l.501.15V.299l-.28-.088a4.178 4.178 0 0 0-.73-.16zM85.239 6.433c-1.07 0-2.12.11-3.12.329a19.63 19.63 0 0 0-2.56.717 29.72 29.72 0 0 0-1.429.553l-.243.107V23.52h2.967V9.887l1.064-.196c.456-.083.911-.152 1.367-.205.902-.103 1.87-.108 2.877.016l.44.054V6.714l-.784-.205a2.277 2.277 0 0 0-.58-.076zM101.723 9.997a5.23 5.23 0 0 0-.791-1.568 4.404 4.404 0 0 0-1.248-1.126 5.87 5.87 0 0 0-1.618-.653c-1.458-.355-3.273-.258-5.068.126-1.09.232-1.981.58-2.647 1.034l-.18.123v3.385l.636-.525c.6-.496 1.332-.864 2.17-1.093a9.34 9.34 0 0 1 2.458-.355c1.173 0 2.078.26 2.69.774.592.497.88 1.28.88 2.393v1.21c-.144-.07-.292-.14-.443-.204a7.815 7.815 0 0 0-1.7-.488c-.623-.11-1.368-.165-2.214-.165-1.137 0-2.158.188-3.034.557a4.478 4.478 0 0 0-2.155 1.893c-.512.864-.771 2.01-.771 3.405 0 1.032.197 1.905.584 2.596.385.688.9 1.237 1.53 1.634.608.384 1.28.659 1.996.818A9.71 9.71 0 0 0 94.89 24c1.183 0 2.308-.088 3.344-.26 1.085-.184 1.983-.58 2.67-1.179.727-.635 1.096-1.593 1.096-2.85v-7.744a6.59 6.59 0 0 0-.277-1.971zm-2.719 9.844c0 .534-.224.84-.726.99-.638.192-1.604.289-2.873.289a6.36 6.36 0 0 1-1.843-.272 2.966 2.966 0 0 1-1.394-.875c-.346-.393-.514-.918-.514-1.604 0-.845.282-1.466.863-1.9.615-.46 1.526-.692 2.707-.692 1.005 0 1.94.129 2.78.384.374.114.708.236 1.001.367v3.313z"/>
    </g>
    <defs>
        <clipPath id="a">
            <path fill="#fff" d="M0 0h102v24H0z"/>
        </clipPath>
    </defs>
</svg>
