<svg width="20" height="20" viewBox="0 0 20 20" fill="none" xmlns="http://www.w3.org/2000/svg">
    <path fill-rule="evenodd" clip-rule="evenodd" d="M3.96 10.147a4.375 4.375 0 1 1 6.187-6.187l1.179 1.179a.625.625 0 1 1-.884.884L9.263 4.844a3.125 3.125 0 1 0-4.419 4.42l1.179 1.178a.625.625 0 0 1-.884.884L3.96 10.147zm4.714 3.83a.625.625 0 0 1 .884 0l1.179 1.179a3.125 3.125 0 1 0 4.419-4.42l-1.179-1.178a.625.625 0 1 1 .884-.884l1.179 1.179a4.375 4.375 0 0 1-6.187 6.187L8.674 14.86a.625.625 0 0 1 0-.884zM16.275 3.725a.625.625 0 0 1 0 .884L4.61 16.275a.625.625 0 0 1-.884-.884L15.39 3.725a.625.625 0 0 1 .884 0z" fill="#fff"/>
</svg>
