<svg width="20" height="20" viewBox="0 0 20 20" fill="none" xmlns="http://www.w3.org/2000/svg">
    <path fill-rule="evenodd" clip-rule="evenodd" d="M7.083 12.5a1.667 1.667 0 1 0 0 3.333 1.667 1.667 0 0 0 0-3.333zm-2.916 1.667a2.917 2.917 0 1 1 5.833 0 2.917 2.917 0 0 1-5.833 0z" fill="#fff"/>
    <path fill-rule="evenodd" clip-rule="evenodd" d="M18.125 14.167c0 .345-.28.625-.625.625H10a.625.625 0 0 1 0-1.25h7.5c.345 0 .625.28.625.625zM4.792 14.167c0 .345-.28.625-.625.625H2.083a.625.625 0 0 1 0-1.25h2.084c.345 0 .625.28.625.625zM12.917 7.5a1.667 1.667 0 1 0 0-3.333 1.667 1.667 0 0 0 0 3.333zm2.916-1.667a2.917 2.917 0 1 1-5.833 0 2.917 2.917 0 0 1 5.833 0z" fill="#fff"/>
    <path fill-rule="evenodd" clip-rule="evenodd" d="M1.875 5.833c0-.345.28-.625.625-.625H10a.625.625 0 1 1 0 1.25H2.5a.625.625 0 0 1-.625-.625zM14.792 5.833c0-.345.28-.625.625-.625H17.5a.625.625 0 1 1 0 1.25h-2.083a.625.625 0 0 1-.625-.625z" fill="#fff"/>
</svg>
