<svg width="32" height="32" viewBox="0 0 32 32" fill="none" xmlns="http://www.w3.org/2000/svg">
    <path fill-rule="evenodd" clip-rule="evenodd" d="M9.583 6.333a3.25 3.25 0 0 0-3.25 3.25v16.003l3.96-3.96a1 1 0 0 1 .707-.293h12.75a3.25 3.25 0 0 0 3.25-3.25v-8.5a3.25 3.25 0 0 0-3.25-3.25H9.583zm-3.712-.462a5.25 5.25 0 0 1 3.712-1.538H23.75A5.25 5.25 0 0 1 29 9.583v8.5a5.25 5.25 0 0 1-5.25 5.25H11.414L6.04 28.707A1 1 0 0 1 4.333 28V9.583a5.25 5.25 0 0 1 1.538-3.712z" fill="#fff"/>
    <path fill-rule="evenodd" clip-rule="evenodd" d="M10.333 11.333a1 1 0 0 1 1-1H22a1 1 0 0 1 0 2H11.333a1 1 0 0 1-1-1zM10.333 16.667a1 1 0 0 1 1-1h8a1 1 0 1 1 0 2h-8a1 1 0 0 1-1-1z" fill="#fff"/>
</svg>
