<svg width="16" height="16" viewBox="0 0 16 16" fill="none" xmlns="http://www.w3.org/2000/svg">
<path d="M12.1937 2.49061V13.5094H3.80585V2.49061H12.1937ZM12.2928 1.70355H3.70747C3.61707 1.70345 3.52739 1.7211 3.44384 1.75563C3.36029 1.79015 3.28452 1.84085 3.22056 1.90474C3.1566 1.96862 3.10607 2.04451 3.07145 2.12802C3.03683 2.21153 3.0188 2.30106 3.0188 2.39146V13.6078C3.0188 13.7904 3.09141 13.9655 3.22056 14.0947C3.34971 14.2238 3.52482 14.2964 3.70747 14.2964H12.2928C12.4753 14.2962 12.65 14.2234 12.779 14.0943C12.908 13.9652 12.9807 13.7903 12.9807 13.6078V2.39146C12.9807 2.20902 12.908 2.03393 12.779 1.90493C12.65 1.77592 12.4753 1.70355 12.2928 1.70355Z" fill="white"/>
<path d="M14.2965 13.5007H1.70361V14.2878H14.2965V13.5007Z" fill="white"/>
<path d="M7.26649 3.96384H5.69238V5.53795H7.26649V3.96384Z" fill="white"/>
<path d="M10.3297 3.96384H8.75562V5.53795H10.3297V3.96384Z" fill="white"/>
<path d="M7.26649 6.79654H5.69238V8.37065H7.26649V6.79654Z" fill="white"/>
<path d="M10.3297 6.79654H8.75562V8.37065H10.3297V6.79654Z" fill="white"/>
<path d="M7.26649 9.57718H5.69238V11.1513H7.26649V9.57718Z" fill="white"/>
<path d="M10.3297 9.57718H8.75562V11.1513H10.3297V9.57718Z" fill="white"/>
</svg>
