<svg width="20" height="20" viewBox="0 0 20 20" fill="none" xmlns="http://www.w3.org/2000/svg">
<path fill-rule="evenodd" clip-rule="evenodd" d="M9.99999 17.0833C13.912 17.0833 17.0833 13.912 17.0833 10C17.0833 6.08798 13.912 2.91667 9.99999 2.91667C6.08797 2.91667 2.91666 6.08798 2.91666 10C2.91666 13.912 6.08797 17.0833 9.99999 17.0833ZM9.99999 18.3333C14.6024 18.3333 18.3333 14.6024 18.3333 10C18.3333 5.39763 14.6024 1.66667 9.99999 1.66667C5.39762 1.66667 1.66666 5.39763 1.66666 10C1.66666 14.6024 5.39762 18.3333 9.99999 18.3333Z" fill="white"/>
<path fill-rule="evenodd" clip-rule="evenodd" d="M8.74999 5.20833C9.09517 5.20833 9.37499 5.48816 9.37499 5.83333V14.1667C9.37499 14.5118 9.09517 14.7917 8.74999 14.7917C8.40481 14.7917 8.12499 14.5118 8.12499 14.1667L8.12499 5.83333C8.12499 5.48816 8.40481 5.20833 8.74999 5.20833Z" fill="white"/>
<path fill-rule="evenodd" clip-rule="evenodd" d="M8.30805 5.39139C8.55213 5.14732 8.94785 5.14732 9.19193 5.39139L10.8586 7.05806C11.1027 7.30214 11.1027 7.69787 10.8586 7.94194C10.6145 8.18602 10.2188 8.18602 9.97471 7.94194L8.74999 6.71722L7.52526 7.94194C7.28119 8.18602 6.88546 8.18602 6.64138 7.94194C6.3973 7.69787 6.3973 7.30214 6.64138 7.05806L8.30805 5.39139Z" fill="white"/>
<path fill-rule="evenodd" clip-rule="evenodd" d="M15.0253 10.3914C15.2693 10.6355 15.2693 11.0312 15.0253 11.2753L13.3586 12.9419C13.1145 13.186 12.7188 13.186 12.4747 12.9419C12.2306 12.6979 12.2306 12.3021 12.4747 12.0581L13.6994 10.8333L12.4747 9.60861C12.2306 9.36453 12.2306 8.9688 12.4747 8.72473C12.7188 8.48065 13.1145 8.48065 13.3586 8.72473L15.0253 10.3914Z" fill="white"/>
<path fill-rule="evenodd" clip-rule="evenodd" d="M8.12499 14.1667C8.12499 11.9805 9.8972 10.2083 12.0833 10.2083H14.5833C14.9285 10.2083 15.2083 10.4882 15.2083 10.8333C15.2083 11.1785 14.9285 11.4583 14.5833 11.4583H12.0833C10.5876 11.4583 9.37499 12.6709 9.37499 14.1667H8.12499Z" fill="white"/>
</svg>
