<svg width="16" height="16" viewBox="0 0 16 16" fill="none" xmlns="http://www.w3.org/2000/svg">
<path fill-rule="evenodd" clip-rule="evenodd" d="M8.00004 13.6667C11.1297 13.6667 13.6667 11.1296 13.6667 8C13.6667 4.87039 11.1297 2.33334 8.00004 2.33334C4.87043 2.33334 2.33337 4.87039 2.33337 8C2.33337 11.1296 4.87043 13.6667 8.00004 13.6667ZM8.00004 14.6667C11.6819 14.6667 14.6667 11.6819 14.6667 8C14.6667 4.3181 11.6819 1.33334 8.00004 1.33334C4.31814 1.33334 1.33337 4.3181 1.33337 8C1.33337 11.6819 4.31814 14.6667 8.00004 14.6667Z" fill="white"/>
<path fill-rule="evenodd" clip-rule="evenodd" d="M8.00004 4.83334C8.27618 4.83334 8.50004 5.05719 8.50004 5.33334V10.6667C8.50004 10.9428 8.27618 11.1667 8.00004 11.1667C7.7239 11.1667 7.50004 10.9428 7.50004 10.6667V5.33334C7.50004 5.05719 7.7239 4.83334 8.00004 4.83334Z" fill="white"/>
<path fill-rule="evenodd" clip-rule="evenodd" d="M4.83337 8C4.83337 7.72386 5.05723 7.5 5.33337 7.5H10.6667C10.9428 7.5 11.1667 7.72386 11.1667 8C11.1667 8.27615 10.9428 8.5 10.6667 8.5H5.33337C5.05723 8.5 4.83337 8.27615 4.83337 8Z" fill="white"/>
</svg>
