<svg width="24" height="24" viewBox="0 0 24 24" fill="none" xmlns="http://www.w3.org/2000/svg">
<path fill-rule="evenodd" clip-rule="evenodd" d="M13.1957 1.276C13.5228 1.36443 13.75 1.66118 13.75 2.00001V9.25001H18C18.2685 9.25001 18.5166 9.39359 18.6504 9.62646C18.7841 9.85933 18.7831 10.1459 18.6478 10.3779L11.6478 22.3779C11.4771 22.6706 11.1313 22.8124 10.8043 22.724C10.4772 22.6356 10.25 22.3388 10.25 22L10.25 14.75H6C5.73145 14.75 5.4834 14.6064 5.34964 14.3736C5.21589 14.1407 5.21685 13.8541 5.35217 13.6221L12.3522 1.6221C12.5229 1.32943 12.8686 1.18757 13.1957 1.276ZM7.30578 13.25H11C11.1989 13.25 11.3897 13.329 11.5303 13.4697C11.671 13.6103 11.75 13.8011 11.75 14L11.75 19.2258L16.6942 10.75H13C12.5858 10.75 12.25 10.4142 12.25 10V4.7742L7.30578 13.25Z" fill="white"/>
</svg>
