<svg width="16" height="16" viewBox="0 0 16 16" fill="none" xmlns="http://www.w3.org/2000/svg">
<path fill-rule="evenodd" clip-rule="evenodd" d="M5.5 4C5.5 3.72386 5.72386 3.5 6 3.5L14 3.5C14.2761 3.5 14.5 3.72386 14.5 4C14.5 4.27614 14.2761 4.5 14 4.5L6 4.5C5.72386 4.5 5.5 4.27614 5.5 4Z" fill="white"/>
<path d="M4.5 5C4.5 5.27614 4.27614 5.5 4 5.5L2 5.5C1.72386 5.5 1.5 5.27614 1.5 5L1.5 3C1.5 2.72386 1.72386 2.5 2 2.5L4 2.5C4.27614 2.5 4.5 2.72386 4.5 3L4.5 5Z" fill="white"/>
<path fill-rule="evenodd" clip-rule="evenodd" d="M5.5 8C5.5 7.72386 5.72386 7.5 6 7.5L14 7.5C14.2761 7.5 14.5 7.72386 14.5 8C14.5 8.27614 14.2761 8.5 14 8.5L6 8.5C5.72386 8.5 5.5 8.27614 5.5 8Z" fill="white"/>
<path d="M4.5 9C4.5 9.27614 4.27614 9.5 4 9.5L2 9.5C1.72386 9.5 1.5 9.27614 1.5 9L1.5 7C1.5 6.72386 1.72386 6.5 2 6.5L4 6.5C4.27614 6.5 4.5 6.72386 4.5 7L4.5 9Z" fill="white"/>
<path fill-rule="evenodd" clip-rule="evenodd" d="M5.5 12C5.5 11.7239 5.72386 11.5 6 11.5L14 11.5C14.2761 11.5 14.5 11.7239 14.5 12C14.5 12.2761 14.2761 12.5 14 12.5L6 12.5C5.72386 12.5 5.5 12.2761 5.5 12Z" fill="white"/>
<path d="M4.5 13C4.5 13.2761 4.27614 13.5 4 13.5L2 13.5C1.72386 13.5 1.5 13.2761 1.5 13L1.5 11C1.5 10.7239 1.72386 10.5 2 10.5L4 10.5C4.27614 10.5 4.5 10.7239 4.5 11L4.5 13Z" fill="white"/>
</svg>
