<svg width="24" height="24" viewBox="0 0 24 24" fill="none" xmlns="http://www.w3.org/2000/svg">
<path fill-rule="evenodd" clip-rule="evenodd" d="M19.75 12C19.75 12.4142 19.4142 12.75 19 12.75L4 12.75C3.58579 12.75 3.25 12.4142 3.25 12C3.25 11.5858 3.58579 11.25 4 11.25L19 11.25C19.4142 11.25 19.75 11.5858 19.75 12Z" fill="white"/>
<path fill-rule="evenodd" clip-rule="evenodd" d="M13.4697 6.46967C13.7626 6.17678 14.2374 6.17678 14.5303 6.46967L19.5303 11.4697C19.8232 11.7626 19.8232 12.2374 19.5303 12.5303L14.5303 17.5303C14.2374 17.8232 13.7626 17.8232 13.4697 17.5303C13.1768 17.2374 13.1768 16.7626 13.4697 16.4697L17.9393 12L13.4697 7.53033C13.1768 7.23744 13.1768 6.76256 13.4697 6.46967Z" fill="white"/>
</svg>
