<svg width="20" height="20" viewBox="0 0 20 20" fill="none" xmlns="http://www.w3.org/2000/svg">
    <path fill-rule="evenodd" clip-rule="evenodd" d="M13.333 10a3.333 3.333 0 1 1-6.666 0 3.333 3.333 0 0 1 6.666 0zm-1.25 0a2.083 2.083 0 1 1-4.166 0 2.083 2.083 0 0 1 4.166 0z" fill="#fff"/>
    <path fill-rule="evenodd" clip-rule="evenodd" d="M10 3.542c-2.994 0-6.018 1.27-7.96 4.342a3.97 3.97 0 0 0 0 4.232c1.942 3.073 4.966 4.342 7.96 4.342 2.994 0 6.018-1.27 7.96-4.342a3.969 3.969 0 0 0 0-4.232C16.017 4.811 12.993 3.542 10 3.542zm-6.902 5.01C4.779 5.89 7.373 4.792 10 4.792c2.626 0 5.22 1.098 6.902 3.76a2.72 2.72 0 0 1 0 2.896c-1.681 2.662-4.276 3.76-6.902 3.76-2.626 0-5.22-1.098-6.902-3.76a2.719 2.719 0 0 1 0-2.896z" fill="#fff"/>
</svg>
