<svg width="16" height="16" viewBox="0 0 16 16" fill="none" xmlns="http://www.w3.org/2000/svg">
    <path fill-rule="evenodd" clip-rule="evenodd" d="M8 13.667A5.667 5.667 0 1 0 8 2.333a5.667 5.667 0 0 0 0 11.334zm0 1A6.667 6.667 0 1 0 8 1.333a6.667 6.667 0 0 0 0 13.334z" fill="#fff"/>
    <path fill-rule="evenodd" clip-rule="evenodd" d="M11.031 5.991a.5.5 0 0 1-.022.707l-3.556 3.333a.5.5 0 0 1-.684 0L4.991 8.365a.5.5 0 0 1 .684-.73l1.436 1.346 3.214-3.012a.5.5 0 0 1 .707.022z" fill="#fff"/>
</svg>
