<svg width="32" height="32" viewBox="0 0 32 32" fill="none" xmlns="http://www.w3.org/2000/svg">
<path fill-rule="evenodd" clip-rule="evenodd" d="M27.5914 23.5931L17.7323 6.51669C16.9625 5.18336 15.038 5.18336 14.2682 6.51669L4.40917 23.5931C3.63937 24.9264 4.60162 26.5931 6.14123 26.5931H25.8593C27.3989 26.5931 28.3612 24.9264 27.5914 23.5931ZM19.4644 5.51669C17.9248 2.85003 14.0758 2.85003 12.5362 5.51669L2.67712 22.5931C1.13752 25.2597 3.06203 28.5931 6.14123 28.5931H25.8593C28.9385 28.5931 30.863 25.2597 29.3234 22.5931L19.4644 5.51669Z" fill="white"/>
<path d="M17.1587 19.3441L14.8574 19.3441L14.8574 10.5171L17.1587 10.5171L17.1587 19.3441ZM15.9923 20.7628C16.3916 20.7628 16.7226 20.8783 16.9853 21.1095C17.248 21.3512 17.3794 21.656 17.3794 22.0238C17.3794 22.4021 17.248 22.7068 16.9853 22.938C16.7226 23.1692 16.3916 23.2848 15.9923 23.2848C15.593 23.2848 15.2672 23.1692 15.015 22.938C14.7523 22.7068 14.621 22.4021 14.621 22.0238C14.621 21.656 14.7523 21.3512 15.015 21.1095C15.2672 20.8783 15.593 20.7628 15.9923 20.7628Z" fill="white"/>
</svg>
