<svg width="328" height="192" viewBox="0 0 328 192" fill="none" xmlns="http://www.w3.org/2000/svg">
    <g clip-path="url(#k4zldfyv1a)">
        <g clip-path="url(#fq3re5k2cb)">
            <path d="M0-.971a7.27 7.27 0 0 1 2.134-5.16A7.303 7.303 0 0 1 7.302-8.27h313.383c1.94 0 3.8.769 5.172 2.138A7.29 7.29 0 0 1 328-.972v193.714a7.294 7.294 0 0 1-2.147 5.152 7.326 7.326 0 0 1-5.168 2.133H7.302a7.307 7.307 0 0 1-5.163-2.134A7.276 7.276 0 0 1 0 192.742V-.971z" fill="#D3D3D4"/>
            <path d="M110.33 38.697v116.792a17.495 17.495 0 0 1-5.141 12.371 17.574 17.574 0 0 1-12.4 5.129l-46.082.001a17.578 17.578 0 0 1-12.399-5.13 17.494 17.494 0 0 1-5.142-12.371V38.697a17.494 17.494 0 0 1 5.142-12.371 17.574 17.574 0 0 1 12.4-5.13h46.081a17.59 17.59 0 0 1 12.396 5.134 17.506 17.506 0 0 1 5.145 12.367zM33.246 155.489a13.429 13.429 0 0 0 3.947 9.493 13.492 13.492 0 0 0 9.514 3.938H92.79a13.492 13.492 0 0 0 9.515-3.938 13.43 13.43 0 0 0 3.947-9.493V38.697a13.43 13.43 0 0 0-3.947-9.493 13.49 13.49 0 0 0-9.515-3.938H46.707a13.491 13.491 0 0 0-9.514 3.938 13.429 13.429 0 0 0-3.947 9.493v116.792z" fill="#009E96"/>
            <path d="M70.272 92.026v3.717H60.4a.6.6 0 0 0-.614.436.595.595 0 0 0 .302.69l11.055 6.335c1.06.624 1.93.122 1.93-1.099v-3.717h9.872a.586.586 0 0 0 .632-.85.585.585 0 0 0-.333-.276l-11.04-6.416c-1.061-.625-1.932-.123-1.932 1.112" fill="#009E96"/>
            <path d="M287.506 93.382v2.836h-1.59v-2.51h-2.271a1.033 1.033 0 0 0-1.034 1.017v2.809h.979v-2.442h1.36v2.442h2.516a1.008 1.008 0 0 0 1.019-1.018v-3.202l-.979.068zM290.743 94.346h-1.754v1.356h1.699a1.03 1.03 0 0 0 1.02-1.017v-5.508h-.965v5.168zM282.625 89.407v1.357h6.472v-1.356h-6.472zM282.625 91.32v1.357h2.325v.732h.979v-.732h3.168V91.32h-6.472zM285.113 69.6h-2.488v1.357h9.097v-.312a1.03 1.03 0 0 0-1.02-1.017h-4.61v-1.085h-.979V69.6zM283.59 77.428v-3.391h1.523v3.391h.979v-3.35c.673.036 1.307.32 1.782.795.475.477.756 1.111.788 1.782v1.235h.979v-1.262a3.945 3.945 0 0 0-1.196-2.849 3.968 3.968 0 0 0-2.883-1.126h-2.937v4.775h.965zM282.625 80.793h2.488v1.166h.979v-1.166h5.63v-.367a1.01 1.01 0 0 0-.295-.723 1.002 1.002 0 0 0-.725-.294h-8.077v1.384zM283.645 87.563h4.433a1.035 1.035 0 0 0 1.019-1.018v-4.49h-.979v4.07h-2.026v-3.392h-.979v3.391h-1.509v-4.07h-.979v4.491a1.03 1.03 0 0 0 1.02 1.017z" fill="#EE7800"/>
            <path d="M284.773 120.623c-.449.95-.816 1.737-1.536 1.737-.721 0-.966-.448-.966-1.357a4.148 4.148 0 0 1 .082-.854v-.435c0-.759-.462-1.207-1.36-1.492l-.353-.122a8.01 8.01 0 0 0-.599 3.025 3.576 3.576 0 0 0 .803 2.79 3.6 3.6 0 0 0 2.61 1.28 2.955 2.955 0 0 0 2.013-.705 6.48 6.48 0 0 0 1.441-2.089c.53-1.072.911-2.049 1.7-2.049.788 0 1.088.719 1.088 1.682a5.165 5.165 0 0 1-.844 2.605l2.027 1.085a7.525 7.525 0 0 0 .992-3.88c0-2.428-1.36-4.273-3.549-4.273s-2.937 1.709-3.617 3.093M285.78 111.086l-5.439-4.422v3.161l4.691 3.513h-4.691v2.605h11.517v-.163a2.224 2.224 0 0 0-.115-.964 2.25 2.25 0 0 0-2.292-1.491h-2.611l4.896-3.595v-3.297l-5.956 4.653zM275.962 100.491v-1.329a9.48 9.48 0 0 0-1.36-4.816 16.972 16.972 0 0 0-2.651 8.37c.666.231 5.738 2.048 6.132 2.184a6.814 6.814 0 0 1 1.088-.732 11.36 11.36 0 0 1 2.244-1.072 7.414 7.414 0 0 0-3.291-.584c-1.115 0-2.216-.23-2.23-2.021" fill="#D10D22"/>
            <path d="M277.24 91.347a10.343 10.343 0 0 0-2.053 2.307 10.72 10.72 0 0 1 1.577 5.426v1.194c0 1.221.531 1.465 1.55 1.52h.789a5.543 5.543 0 0 1 3.291.922l.19-.081a.288.288 0 0 0 .15-.258.562.562 0 0 0 0-.231l-4.691-10.066c-.096-.19-.259-.556-.327-.665a.297.297 0 0 0-.272-.176.368.368 0 0 0-.163 0" fill="#EE7800"/>
            <path d="M268.076 106.42v.081a2.578 2.578 0 0 0 2.447 2.13 3.855 3.855 0 0 0 1.646-.475 5.23 5.23 0 0 1 2.257-.624 3.19 3.19 0 0 1 2.719 1.357v-.855a7.606 7.606 0 0 1 .082-1.357l-5.058-4.07a17.502 17.502 0 0 0-3.985 3.691" fill="#D10D22"/>
            <path d="M276.819 109.825a2.717 2.717 0 0 0-2.462-1.492 4.363 4.363 0 0 0-1.93.556 4.7 4.7 0 0 1-2.013.556 3.082 3.082 0 0 1-2.896-2.252 14.298 14.298 0 0 0-2.529 5.847c0 .043.009.086.026.126a.321.321 0 0 0 .186.171.307.307 0 0 0 .128.015h.72c1.428-.163 10.878-1.18 11.082-1.207.204-.027.368-.136.368-.339v-.123a3.082 3.082 0 0 0-.191-.786 6.897 6.897 0 0 0-.489-1.004" fill="#EE7800"/>
            <path d="m143.835 167.387-1.741-1.466a6.177 6.177 0 0 0 1.89-4.246c0-1.94-.911-3.012-2.257-3.012s-1.917 1.072-2.57 2.551l-.952 2.211a4.613 4.613 0 0 1-4.188 3.256c-2.529 0-4.419-2.211-4.419-5.25a6.782 6.782 0 0 1 2.026-4.83l1.605 1.357a5.107 5.107 0 0 0-1.36 3.514c0 1.628.775 2.713 2.04 2.713 1.264 0 1.903-1.275 2.434-2.578l.924-2.184c.816-1.886 1.985-3.256 4.324-3.256 2.57 0 4.651 2.13 4.651 5.617a7.972 7.972 0 0 1-2.339 5.67M129.897 153.088v-2.51h7.574v-.068l-7.574-6.064v-2.795l6.187 4.938 9.818-5.765v2.794l-7.846 4.518 3.019 2.442h4.827v2.51h-16.005zM138.98 132.386c.353 1.914.504 3.86.449 5.806v1.072h-5.167v-3.826h-2.135v3.866h-1.496v-5.616h5.032v3.826h2.243a24.853 24.853 0 0 0-.435-4.952l1.509-.176zm5.195-6.295h1.55v10.853h-5.072v-1.818h3.522v-9.035zm-8.852 5.277v1.682h-1.564v-1.723h-4.147v-1.695h11.87v1.695l-6.159.041zm6.567-4.843v1.723h-12.578v-1.723h12.578zM140.599 121.275a34.186 34.186 0 0 0-.49-6.404l1.55-.162c.395 2.352.559 4.738.49 7.122v1.248h-11.395v-7.353h1.577v5.549h3.128v-4.898h1.523v4.898h3.617zm-11.327-10.65h16.793v1.818h-9.056v2.971h-1.577v-3.039h-6.16v-1.75zM130.985 99.46c5.004 0 9.369 1.357 12.428 7.136l-1.482.99a11.204 11.204 0 0 0-5.262-5.426l.516 5.019-1.645.245-.394-5.807a14.141 14.141 0 0 0-2.611-.42v5.426h-1.55V99.46zm6.513-6.498v2.401h8.526v1.805h-16.725v-1.805h6.608v-2.401h1.591zM165.659 158.948a6.32 6.32 0 0 1-3.603 3.704 6.635 6.635 0 0 1 3.97 3.907l-1.509.936a5.787 5.787 0 0 0-5.439-3.907h-.571v3.378h-1.537v-8.479h1.537v3.297h.571a5.448 5.448 0 0 0 3.1-1.074 5.417 5.417 0 0 0 1.917-2.657l1.564.895zm4.977-5.006h1.55v10.663h-5.222v-1.804h3.672v-8.859zm-10.375 2.171h-4.46v-1.818h12.238v1.818h-6.187v2.876h-1.578l-.013-2.876zM157.541 142.913a12.438 12.438 0 0 1 7.131 1.815 12.397 12.397 0 0 1 4.849 5.524l-1.51.964c-2.121-4.165-5.058-6.119-8.92-6.444v5.657h-1.55v-7.516zm14.957-4.667v1.805h-16.725v-1.805h16.725zM161.09 129.699a7.398 7.398 0 0 0 6.486-3.744l1.469 1.004a7.74 7.74 0 0 1-4.596 3.609 8.156 8.156 0 0 1 4.895 3.825l-1.469 1.004a7.672 7.672 0 0 0-2.864-2.877 7.693 7.693 0 0 0-3.935-1.016h-.965v3.405h-1.537v-3.405H156.1v-1.805h2.474v-3.432h1.537v3.365l.979.067zm2.964-9.279v2.483h8.458v1.804H155.76v-1.804h6.731v-2.483h1.563zM165.441 106.053h1.469c.19-2.862 1.156-4.531 2.787-4.531 1.632 0 2.815 2.021 2.815 5.427 0 3.405-1.006 5.426-2.815 5.426-1.808 0-2.624-1.709-2.787-4.585h-1.469v6.267h-1.509v-14.34h1.509v6.336zm-3.698 7.326c-.245-3.174-1.36-5.155-2.897-5.426v4.748h-1.495v-4.83h-1.591v-1.804h1.591v-4.83h1.495v4.681c1.483-.231 2.652-2.212 2.897-5.427l1.468.556c-.245 2.714-1.21 4.884-2.719 5.888 1.482.977 2.447 3.107 2.719 5.874l-1.468.57zm6.554-6.403c0 2.333.489 3.622 1.359 3.622.871 0 1.36-1.289 1.36-3.622 0-2.334-.462-3.636-1.36-3.636-.897 0-1.359 1.357-1.359 3.636zM165.659 89.421a6.293 6.293 0 0 1-3.603 3.704 6.667 6.667 0 0 1 3.97 3.92l-1.509.923a5.773 5.773 0 0 0-5.439-3.894h-.571v3.351h-1.537v-8.479h1.537v3.297h.571a5.447 5.447 0 0 0 3.097-1.068 5.427 5.427 0 0 0 1.92-2.65l1.564.896zm4.977-5.006h1.55v10.65h-5.222V93.26h3.672v-8.845zm-10.375 2.211h-4.46v-1.804h12.238v1.804h-6.187v2.89h-1.578l-.013-2.89zM157.446 73.616c5.004 0 9.369 1.357 12.428 7.15l-1.482.99a11.203 11.203 0 0 0-5.262-5.426l.516 5.02-1.645.243-.381-5.806c-.86-.22-1.738-.365-2.624-.434v5.426h-1.55v-7.163zm6.527-6.484v2.4h8.512v1.805H155.76v-1.804h6.608v-2.401h1.605zM170.364 51.273v14.38h-1.578v-14.38h1.578zM165.21 52.9v10.962h-7.968V53.01h1.55v9.049h4.882v-9.185l1.536.028zM281.388 16.855v16.171a3.34 3.34 0 0 0 3.345 3.337h16.194a3.34 3.34 0 0 0 3.345-3.337V16.855a3.34 3.34 0 0 0-3.345-3.337h-16.194a3.34 3.34 0 0 0-3.345 3.337z" fill="#fff"/>
            <path d="M290.09 26.718h9.518a1.788 1.788 0 0 0 1.359-.46 1.773 1.773 0 0 0 0-2.621 1.78 1.78 0 0 0-1.359-.46h-9.586c-3.155 0-4.827 1.669-4.827 4.816v2.862a1.783 1.783 0 0 0 3.562 0v-2.713a1.356 1.356 0 0 1 1.36-1.357" fill="#920783"/>
            <path d="M285.195 19.093v2.85a6.263 6.263 0 0 0 .449 2.441 4.89 4.89 0 0 1 3.344-1.723 1.5 1.5 0 0 1-.231-.8v-2.713a1.775 1.775 0 0 0-1.781-1.778 1.783 1.783 0 0 0-1.781 1.777" fill="#F08300"/>
            <path d="M300.914 13.87c.796 0 1.559.314 2.125.873.565.559.886 1.318.893 2.112v16.157a3.02 3.02 0 0 1-.888 2.126 3.035 3.035 0 0 1-2.13.886h-16.168a3.034 3.034 0 0 1-2.139-.881 3.02 3.02 0 0 1-.893-2.13V16.854c.007-.797.33-1.558.898-2.117a3.025 3.025 0 0 1 2.134-.868h16.168zm-19.649 2.985v16.157c0 .922.367 1.805 1.02 2.456a3.485 3.485 0 0 0 2.461 1.017h16.168c.923 0 1.808-.366 2.461-1.017a3.468 3.468 0 0 0 1.02-2.456V16.855a3.456 3.456 0 0 0-1.026-2.442 3.465 3.465 0 0 0-2.455-1.004h-16.168a3.48 3.48 0 0 0-2.456 1.004 3.465 3.465 0 0 0-1.025 2.442zM313.56 30.367a.557.557 0 0 0 .625-.597.58.58 0 0 0-.17-.45.572.572 0 0 0-.455-.16h-2.122a1.261 1.261 0 0 0-1.359 1.356 1.452 1.452 0 0 0 .72 1.357.993.993 0 0 0-.72.99 1.101 1.101 0 0 0 .625 1.085.595.595 0 0 0-.557.597.558.558 0 0 0 .625.597h2.801a.614.614 0 0 0 .647-.349.605.605 0 0 0-.157-.717.608.608 0 0 0-.49-.141h-1.768c-.421 0-.693-.23-.693-.597a.61.61 0 0 1 .189-.437.597.597 0 0 1 .45-.16h1.822a.573.573 0 0 0 .626-.597.57.57 0 0 0-.039-.238.56.56 0 0 0-.587-.345h-1.768a.611.611 0 1 1 0-1.208l1.755.014zM312.159 28.59a2.085 2.085 0 0 0 1.912-1.291 2.073 2.073 0 0 0-1.525-2.822 2.084 2.084 0 0 0-2.132.885 2.072 2.072 0 0 0-.349 1.152 1.936 1.936 0 0 0 .574 1.513 1.949 1.949 0 0 0 1.52.563zm0-1.208c-.571 0-1.074-.312-1.074-.868s.503-.855 1.074-.855c.571 0 1.088.312 1.088.855 0 .543-.504.868-1.088.868zM313.559 23.787a.612.612 0 0 0 .612-.61.609.609 0 0 0-.612-.61h-1.794a.656.656 0 0 1-.611-.422.63.63 0 0 1-.042-.257.634.634 0 0 1 .653-.665h1.794a.575.575 0 0 0 .591-.366.58.58 0 0 0 .035-.244.588.588 0 0 0-.17-.455.587.587 0 0 0-.456-.17h-1.93a1.443 1.443 0 0 0-1.564 1.506 1.218 1.218 0 0 0 .625 1.113.554.554 0 0 0-.404.172.568.568 0 0 0-.153.411.578.578 0 0 0 .175.442.582.582 0 0 0 .45.155h2.801zM313.763 15.729c-.231-.244-.557-.366-.775-.15a.507.507 0 0 0-.118.576.5.5 0 0 0 .118.17c.238.254.369.59.367.937a.909.909 0 0 1-.843.977V16.04c0-.448-.204-.61-.653-.61a1.808 1.808 0 0 0-1.754 1.953 1.93 1.93 0 0 0 2.067 1.994 1.979 1.979 0 0 0 1.55-.57 1.968 1.968 0 0 0 .571-1.546 2.234 2.234 0 0 0-.489-1.533h-.041zm-2.053 2.51a.8.8 0 0 1-.68-.855.79.79 0 0 1 .68-.855v1.71zM310.527 13.857a.57.57 0 0 0-.34.814.563.563 0 0 0 .337.344.558.558 0 0 0 .479-.046l3.046-1.356.299.122c.286.122.585.257.585.542a2.32 2.32 0 0 1 0 .312.472.472 0 0 0 .353.556.518.518 0 0 0 .626-.311c.07-.196.102-.403.095-.611 0-.828-.612-1.153-1.441-1.533l-3.522-1.614a.558.558 0 0 0-.816.298.591.591 0 0 0-.016.484.585.585 0 0 0 .356.33l2.026.855-2.067.814z" fill="#898989"/>
            <path d="M313.492 37.855a.648.648 0 0 0 .498-.184.661.661 0 0 0 .195-.494.635.635 0 0 0-.425-.63.642.642 0 0 0-.268-.035h-4.175v-1.356c0-.394-.204-.706-.612-.706-.408 0-.598.312-.598.706v3.961c0 .394.19.692.598.692a.615.615 0 0 0 .591-.433.596.596 0 0 0 .021-.259v-1.356l4.175.094z" fill="#898989"/>
        </g>
        <g clip-path="url(#c51ls71qnc)">
            <path d="M0-.69c0-1.938.77-3.798 2.139-5.169A7.297 7.297 0 0 1 7.302-8h313.396c1.937 0 3.794.77 5.163 2.141A7.313 7.313 0 0 1 328-.689v194.365c0 1.94-.769 3.801-2.138 5.174a7.313 7.313 0 0 1-5.164 2.15H7.302a7.313 7.313 0 0 1-5.164-2.15A7.328 7.328 0 0 1 0 193.676V-.689z" fill="#231815"/>
            <path d="M295.141 171.021a3.348 3.348 0 0 1-3.345-3.349v-16.2c0-.889.352-1.74.98-2.369a3.341 3.341 0 0 1 2.365-.98h16.195c.887 0 1.738.352 2.365.98.627.629.98 1.48.98 2.369v16.2c0 .888-.353 1.74-.98 2.368a3.342 3.342 0 0 1-2.365.981h-16.195z" fill="#fff"/>
            <path d="M301.505 156.835v9.53a1.786 1.786 0 0 0 1.057 1.788 1.77 1.77 0 0 0 1.435 0c.226-.1.429-.245.596-.427a1.799 1.799 0 0 0 .461-1.361v-9.598c0-3.144-1.673-4.819-4.827-4.819h-2.87a1.781 1.781 0 0 0-1.781 1.783 1.781 1.781 0 0 0 1.781 1.784h2.72a1.361 1.361 0 0 1 1.36 1.361" fill="#920783"/>
            <path d="M309.187 151.934h-2.842a6.197 6.197 0 0 0-2.447.45c.494.416.901.927 1.198 1.501.296.575.476 1.203.529 1.848.233-.157.508-.238.788-.232h2.72c.472 0 .925-.188 1.26-.522a1.785 1.785 0 0 0-1.26-3.045" fill="#F08300"/>
            <path d="M314.382 167.672a3.036 3.036 0 0 1-3.005 3.022h-16.236a3.031 3.031 0 0 1-3.018-3.022v-16.187a3.036 3.036 0 0 1 3.018-3.036h16.181a3.038 3.038 0 0 1 3.005 3.036l.055 16.187zM311.377 148h-16.236a3.452 3.452 0 0 0-2.465 1.017 3.465 3.465 0 0 0-1.016 2.468v16.187a3.486 3.486 0 0 0 3.481 3.485h16.181a3.468 3.468 0 0 0 3.454-3.485v-16.187a3.449 3.449 0 0 0-1.002-2.463 3.442 3.442 0 0 0-2.452-1.022M297.86 180.374a.622.622 0 0 0 .142.491.619.619 0 0 0 .463.213.607.607 0 0 0 .464-.213.62.62 0 0 0 .141-.491v-2.124a1.256 1.256 0 0 0-.82-1.292 1.251 1.251 0 0 0-.539-.069 1.36 1.36 0 0 0-1.36.721.992.992 0 0 0-.993-.721 1.121 1.121 0 0 0-.646.144 1.12 1.12 0 0 0-.455.482.584.584 0 0 0-.585-.558.546.546 0 0 0-.247.03.538.538 0 0 0-.21.135.545.545 0 0 0-.13.213.548.548 0 0 0-.025.248v2.791a.607.607 0 0 0 .179.433.62.62 0 0 0 .433.18.607.607 0 0 0 .565-.379.607.607 0 0 0 .047-.234v-1.77c0-.422.231-.694.598-.694a.585.585 0 0 1 .599.626v1.838a.544.544 0 0 0 .156.446.556.556 0 0 0 .442.167.552.552 0 0 0 .438-.167.532.532 0 0 0 .147-.446v-1.77c0-.422.231-.694.598-.694a.592.592 0 0 1 .437.18.58.58 0 0 1 .161.446v1.838zM299.669 178.931a2.088 2.088 0 0 0 1.297 1.916 2.08 2.08 0 0 0 2.7-2.74 2.084 2.084 0 0 0-1.93-1.273 1.959 1.959 0 0 0-2.067 2.097zm1.21 0c0-.572.313-1.089.857-1.089a1.11 1.11 0 0 1 .87 1.089 1.118 1.118 0 0 1-.87 1.089c-.544 0-.857-.518-.857-1.089zM304.428 180.374a.569.569 0 0 0 .38.583.567.567 0 0 0 .245.03.57.57 0 0 0 .612-.613v-1.797a.68.68 0 1 1 1.36 0v1.797a.617.617 0 0 0 .612.613.613.613 0 0 0 .612-.613v-1.947a1.41 1.41 0 0 0-.077-.601 1.422 1.422 0 0 0-1.419-.951 1.193 1.193 0 0 0-1.115.613.602.602 0 0 0-.639-.558.598.598 0 0 0-.557.639l-.014 2.805zM312.519 180.524c.244-.232.353-.545.149-.776a.526.526 0 0 0-.761 0c-.257.233-.592.36-.939.354a.91.91 0 0 1-.965-.831h2.203c.449 0 .598-.204.598-.653a1.801 1.801 0 0 0-1.944-1.756 1.92 1.92 0 0 0-1.888 1.271c-.093.255-.13.527-.111.798a1.958 1.958 0 0 0 2.107 2.124 2.218 2.218 0 0 0 1.551-.504v-.027zm-2.516-2.07a.773.773 0 0 1 .857-.667.793.793 0 0 1 .856.667h-1.713zM314.395 177.297a.609.609 0 0 0-.329-.359.601.601 0 0 0-.487.005.58.58 0 0 0-.337.339.576.576 0 0 0 .038.478l1.36 3.049-.122.3c-.109.3-.245.599-.544.599h-.3a.491.491 0 0 0-.571.354.519.519 0 0 0 .327.613c.193.083.402.12.612.108.829 0 1.155-.612 1.536-1.443l1.618-3.539a.56.56 0 0 0-.313-.817.583.583 0 0 0-.802.354l-.856 2.028-.83-2.069zM290.341 180.265a.638.638 0 0 0 .68.681.632.632 0 0 0 .632-.415.633.633 0 0 0 .034-.266v-4.193h1.36c.394 0 .693-.204.693-.599a.604.604 0 0 0-.207-.465.621.621 0 0 0-.486-.148h-3.971c-.408 0-.707.204-.707.613 0 .408.299.599.707.599h1.36l-.095 4.193z" fill="#898989"/>
            <path d="M221.259 129.091H106.85a17.161 17.161 0 0 1-12.117-5.036 17.203 17.203 0 0 1-5.03-12.131V66.835a17.205 17.205 0 0 1 5.03-12.13 17.163 17.163 0 0 1 12.117-5.037h114.409a17.163 17.163 0 0 1 12.117 5.036 17.204 17.204 0 0 1 5.03 12.131v45.089a17.202 17.202 0 0 1-5.03 12.131 17.162 17.162 0 0 1-12.117 5.036zM106.85 53.657a13.168 13.168 0 0 0-9.295 3.869 13.2 13.2 0 0 0-3.854 9.31v45.088a13.2 13.2 0 0 0 3.854 9.31 13.173 13.173 0 0 0 9.295 3.869h114.409a13.174 13.174 0 0 0 9.304-3.864 13.206 13.206 0 0 0 3.859-9.315V66.835a13.204 13.204 0 0 0-3.859-9.314 13.17 13.17 0 0 0-9.304-3.864H106.85z" fill="#009E96"/>
            <path d="M169.439 89.938h-3.943V79.483a.628.628 0 0 0-.894-.647.626.626 0 0 0-.303.32L157.5 90.85c-.652 1.13-.122 2.056 1.17 2.056h3.943v10.455a.626.626 0 0 0 1.197.314l6.798-11.695c.653-1.13.123-2.042-1.169-2.042z" fill="#009E96"/>
            <path d="M42.236 32.282h-2.57V30.84h2.23v-2.07a.926.926 0 0 0-.87-.925h-2.57v.885h2.23v1.239h-2.23v2.287a.927.927 0 0 0 .938.926h2.91l-.068-.899zM41.365 35.236v-1.592h-1.264v1.538a.94.94 0 0 0 .938.94h5.017v-.886h-4.69zM45.866 27.83H44.63v5.895h1.237v-5.894zM44.112 27.83h-1.237v2.124h-.666v.885h.666v2.886h1.237v-5.894zM63.937 30.104v-2.26h-1.264v8.29h.34a.937.937 0 0 0 .924-.938v-4.194h.993v-.898h-.993zM56.798 28.729h3.1v1.361h-3.1v.885h3.06a2.506 2.506 0 0 1-2.352 2.342h-1.129v.885h1.156a3.613 3.613 0 0 0 3.382-2.298c.177-.452.261-.934.248-1.419v-2.723H56.8v.967zM53.726 27.844v2.273h-1.061v.885h1.06v5.133h.34a.937.937 0 0 0 .939-.94v-7.351h-1.278zM47.552 28.77v4.084a.94.94 0 0 0 .938.94h4.08v-.9h-3.767v-1.837h3.1v-.885h-3.086v-1.361h3.766v-.967h-4.079a.924.924 0 0 0-.938.926M17.393 29.805c-.87-.422-1.59-.75-1.59-1.362 0-.613.407-.871 1.223-.871.265-.001.53.026.788.082h.381c.694 0 1.102-.422 1.36-1.226l.109-.326a7.43 7.43 0 0 0-2.72-.545 3.26 3.26 0 0 0-3.32 1.82 3.27 3.27 0 0 0-.324 1.298 2.725 2.725 0 0 0 .653 1.837 5.78 5.78 0 0 0 1.89 1.294c.992.49 1.876.844 1.876 1.565 0 .722-.652.994-1.536.994a4.783 4.783 0 0 1-2.38-.776l-.979 1.852a6.875 6.875 0 0 0 3.536.898c2.216 0 3.902-1.266 3.902-3.24 0-1.974-1.564-2.723-2.828-3.28M26.068 30.703l4.08-4.942h-2.883l-3.21 4.275v-4.275H21.69v10.483h.136a2.037 2.037 0 0 0 2.115-1.304c.107-.278.15-.577.129-.874v-2.41l3.277 4.465h3.019l-4.297-5.418zM35.75 21.813h1.21a8.599 8.599 0 0 0 4.392-1.225 15.448 15.448 0 0 0-7.628-2.41c-.218.6-1.877 5.214-2 5.582.258.304.486.632.68.98.393.65.716 1.339.966 2.056a6.609 6.609 0 0 0 .53-2.995c0-1.021.218-2.029 1.85-2.029" fill="#9FC913"/>
            <path d="M44.098 22.93a9.931 9.931 0 0 0-2.094-1.866 9.714 9.714 0 0 1-4.936 1.43h-1.087c-1.129 0-1.36.49-1.36 1.361v.722a5.069 5.069 0 0 1-.843 2.995s0 .122.068.177a.273.273 0 0 0 .231.136.462.462 0 0 0 .218 0l9.191-4.275.599-.286a.287.287 0 0 0 .163-.258.313.313 0 0 0 0-.15M30.351 14.584a2.38 2.38 0 0 0-1.999 2.178c.026.544.175 1.075.436 1.552.344.632.535 1.337.557 2.056a2.85 2.85 0 0 1-1.278 2.437h.788c.401-.01.802.017 1.197.082l3.74-4.602a15.906 15.906 0 0 0-3.373-3.635" fill="#9FC913"/>
            <path d="M27.25 22.548a2.49 2.49 0 0 0 1.36-2.232 4.183 4.183 0 0 0-.489-1.77 4.087 4.087 0 0 1-.517-1.838 2.793 2.793 0 0 1 2.054-2.627 13.018 13.018 0 0 0-5.33-2.315.284.284 0 0 0-.286.313c0 .123 0 .463.068.654.136 1.361 1.074 9.883 1.101 10.101.027.218.123.34.313.34h.095c.247-.02.49-.075.72-.163.317-.133.625-.283.925-.45" fill="#9FC913"/>
            <path d="m91.974 151.718 1.087-1.28a4.526 4.526 0 0 0 3.141 1.362c1.36 0 2.23-.681 2.23-1.675s-.802-1.361-1.89-1.892l-1.645-.708a3.42 3.42 0 0 1-2.407-3.104 3.513 3.513 0 0 1 3.89-3.254 5.068 5.068 0 0 1 3.575 1.484l-.979 1.198a3.711 3.711 0 0 0-2.597-1.062c-1.21 0-1.985.572-1.985 1.511 0 .94.938 1.362 1.904 1.797l1.618.695a3.273 3.273 0 0 1 1.743 1.184 3.29 3.29 0 0 1 .664 2.001c0 1.906-1.578 3.445-4.08 3.445a5.83 5.83 0 0 1-4.27-1.702zM102.553 141.412h1.863v5.595l4.487-5.609h2.08l-3.658 4.575 4.257 7.256h-2.067l-3.332-5.786-1.767 2.287v3.553h-1.863v-11.871zM117.877 148.137c-1.417.26-2.856.374-4.297.341h-.802v-3.826h2.842v-1.579h-2.869v-1.103h4.161v3.676h-2.828v1.661a18.24 18.24 0 0 0 3.657-.327l.136 1.157zm4.664 3.839v1.144h-8.077v-3.744h1.36v2.6h6.717zm-3.916-6.548h-1.264v-1.143h1.264v-3.064h1.265v8.768h-1.265v-4.561zm3.59 4.86h-1.278v-9.298h1.278v9.298zM126.172 149.335a26.417 26.417 0 0 0 4.732-.354l.122 1.13a27.02 27.02 0 0 1-5.276.368h-.938v-8.413h5.439v1.157h-4.079v2.314h3.617v1.13h-3.617v2.668zm7.886-8.372v12.402h-1.359v-6.684h-2.312v-1.171h2.244v-4.547h1.427zM142.244 142.229c0 3.689-1.02 6.929-5.276 9.189l-.734-1.102a8.256 8.256 0 0 0 3.97-3.88l-3.712.381-.177-1.225 4.297-.286c.165-.633.27-1.281.313-1.933h-4.079v-1.144h5.398zm4.813 4.819h-1.781v6.29h-1.36v-12.361h1.36v4.887h1.781v1.184zM158.099 148.287a4.576 4.576 0 0 1-2.72-2.655 4.979 4.979 0 0 1-2.896 2.941l-.693-1.116a4.272 4.272 0 0 0 2.882-3.962v-.436h-2.475v-1.129h6.269v1.129h-2.448v.436a4.089 4.089 0 0 0 2.72 3.703l-.639 1.089zm3.698 3.69v1.143h-7.886v-3.853h1.36v2.723l6.526-.013zm-1.631-7.692v-3.308h1.359v9.039h-1.359v-4.574h-2.135v-1.157h2.135zM169.969 142.297a9.189 9.189 0 0 1-5.439 8.863l-.707-1.13a7.733 7.733 0 0 0 4.759-6.59h-4.174v-1.143h5.561zm3.454-1.361v12.375h-1.36v-12.375h1.36zM179.746 144.925a5.45 5.45 0 0 0 2.72 4.792l-.748 1.075a5.714 5.714 0 0 1-2.72-3.39 5.927 5.927 0 0 1-2.828 3.622l-.734-1.09a5.648 5.648 0 0 0 2.882-5.009v-.64h-2.515v-1.144h2.515v-1.824h1.36v1.824h2.488v1.144h-2.42v.64zm6.867 2.191h-1.836v6.249h-1.36v-12.388h1.36v4.982h1.836v1.157zM197.246 148.137v1.089c2.121.137 3.359.844 3.359 2.056 0 1.212-1.496 2.083-4.079 2.083-2.584 0-4.08-.749-4.08-2.083s1.251-1.933 3.386-2.056v-1.089h-4.637v-1.13h10.606v1.117l-4.555.013zm-5.439-2.723c2.353-.176 3.821-1.034 3.984-2.137h-3.467v-1.103h3.576v-1.184h1.36v1.184h3.576v1.103h-3.467c.163 1.103 1.631 1.961 3.984 2.137l-.408 1.09a5.743 5.743 0 0 1-4.351-1.988 5.71 5.71 0 0 1-4.352 1.988l-.435-1.09zm4.746 4.847c-1.727 0-2.72.354-2.72 1.035 0 .68.952 1.007 2.72 1.007 1.767 0 2.719-.34 2.719-1.007 0-.667-.965-1.049-2.706-1.049l-.013.014zM209.552 148.287a4.584 4.584 0 0 1-2.72-2.655 4.965 4.965 0 0 1-2.896 2.941l-.693-1.116a4.272 4.272 0 0 0 2.882-3.962v-.436h-2.447v-1.13h6.268v1.13h-2.447v.436a4.084 4.084 0 0 0 2.719 3.703l-.666 1.089zm3.698 3.689v1.144h-7.886v-3.853h1.36v2.723l6.526-.014zm-1.631-7.664v-3.308h1.36v9.039h-1.36v-4.574h-2.135v-1.184l2.135.027zM221.245 142.229c0 3.689-1.019 6.929-5.289 9.189l-.721-1.102a8.263 8.263 0 0 0 3.971-3.88l-3.712.381-.177-1.225 4.297-.286c.158-.635.262-1.281.313-1.933h-4.08v-1.144h5.398zm4.814 4.819h-1.781v6.29h-1.36v-12.361h1.36v4.887h1.781v1.184zM237.78 150.601v1.171h-10.633v-1.171h10.633zm-1.196-2.641h-8.159v-5.881h8.036v1.144h-6.676v3.607h6.799v1.13z" fill="#fff"/>
        </g>
    </g>
    <defs>
        <clipPath id="k4zldfyv1a">
            <rect width="328" height="192" rx="10" fill="#fff"/>
        </clipPath>
        <clipPath id="fq3re5k2cb">
            <path fill="#fff" transform="rotate(-90 100 100)" d="M0 0h208.27v328H0z"/>
        </clipPath>
        <clipPath id="c51ls71qnc">
            <path fill="#fff" transform="translate(0 -8)" d="M0 0h328v209H0z"/>
        </clipPath>
    </defs>
</svg>
