<svg width="32" height="32" viewBox="0 0 32 32" fill="none" xmlns="http://www.w3.org/2000/svg">
<path fill-rule="evenodd" clip-rule="evenodd" d="M26.2263 17.2919C26.5269 14.9122 25.9882 12.5021 24.703 10.4769C23.4177 8.45162 21.4664 6.93802 19.1852 6.1968C16.9039 5.45558 14.4356 5.53315 12.2054 6.41615C9.97519 7.29915 8.12276 8.93229 6.9672 11.0342C5.81165 13.1362 5.42533 15.5753 5.87479 17.9315C6.32425 20.2876 7.58135 22.4133 9.42953 23.9422C11.2777 25.4712 13.6013 26.3077 15.9999 26.3077L15.9999 28.3077C13.1359 28.3077 10.3615 27.3089 8.15468 25.4832C5.9479 23.6576 4.44688 21.1195 3.91021 18.3062C3.37354 15.4929 3.83483 12.5805 5.21459 10.0707C6.59436 7.56094 8.80621 5.61092 11.4691 4.5566C14.1321 3.50227 17.0793 3.40965 19.8032 4.29469C22.5271 5.17973 24.857 6.98701 26.3916 9.40521C27.9263 11.8234 28.5695 14.7011 28.2105 17.5426C27.8516 20.384 26.5129 23.0113 24.4251 24.9719L23.056 23.514C24.8045 21.872 25.9257 19.6716 26.2263 17.2919Z" fill="white"/>
<path fill-rule="evenodd" clip-rule="evenodd" d="M21.1877 20.6157L23.1196 20.0981L24.135 23.8875L27.9244 22.8721L28.442 24.804L22.7207 26.337L21.1877 20.6157Z" fill="white"/>
</svg>
