<svg width="20" height="20" viewBox="0 0 20 20" fill="none" xmlns="http://www.w3.org/2000/svg">
<path fill-rule="evenodd" clip-rule="evenodd" d="M10 9.58333C10.6904 9.58333 11.25 9.02369 11.25 8.33333C11.25 7.64298 10.6904 7.08333 10 7.08333C9.30965 7.08333 8.75001 7.64298 8.75001 8.33333C8.75001 9.02369 9.30965 9.58333 10 9.58333ZM10 10.8333C11.3807 10.8333 12.5 9.71405 12.5 8.33333C12.5 6.95262 11.3807 5.83333 10 5.83333C8.6193 5.83333 7.50001 6.95262 7.50001 8.33333C7.50001 9.71405 8.6193 10.8333 10 10.8333Z" fill="white"/>
<path fill-rule="evenodd" clip-rule="evenodd" d="M12.8947 14.5411C14.278 12.8196 15.4167 10.5424 15.4167 8.14815C15.4167 5.29184 13.025 2.91667 10 2.91667C6.97504 2.91667 4.58334 5.29184 4.58334 8.14815C4.58334 10.5424 5.72199 12.8196 7.10535 14.5411C7.79028 15.3934 8.50546 16.0714 9.10738 16.5244C9.40927 16.7517 9.66341 16.9078 9.85428 17.0015C9.91826 17.0329 9.96643 17.053 10 17.0657C10.0336 17.053 10.0818 17.0329 10.1457 17.0015C10.3366 16.9078 10.5907 16.7517 10.8926 16.5244C11.4946 16.0714 12.2097 15.3934 12.8947 14.5411ZM10 18.3333C11.4286 18.3333 16.6667 13.7037 16.6667 8.14815C16.6667 4.56853 13.6819 1.66667 10 1.66667C6.31811 1.66667 3.33334 4.56853 3.33334 8.14815C3.33334 13.7037 8.57144 18.3333 10 18.3333Z" fill="white"/>
</svg>
