<svg width="32" height="32" viewBox="0 0 32 32" fill="none" xmlns="http://www.w3.org/2000/svg">
    <path fill-rule="evenodd" clip-rule="evenodd" d="M20.92 5.491a3.952 3.952 0 1 1 5.589 5.59l-10.96 10.96a1 1 0 0 1-.707.292h-4.175a1 1 0 0 1-1-1v-4.175a1 1 0 0 1 .293-.707l10.96-10.96zm2.794.842c-.517 0-1.014.206-1.38.572l-.342.342c.016.015.033.03.048.046l2.667 2.667a.963.963 0 0 1 .046.048l.342-.342a1.952 1.952 0 0 0-1.38-3.333zm-.372 5.086a.992.992 0 0 1-.05-.045l-2.666-2.667a1.06 1.06 0 0 1-.045-.049l-8.914 8.914v2.761h2.76l8.915-8.914z" fill="#fff"/>
    <path d="M7.333 7.667a1 1 0 0 0-1 1v16a1 1 0 0 0 1 1h16a1 1 0 0 0 1-1v-5.693a1 1 0 1 1 2 0v5.693a3 3 0 0 1-3 3h-16a3 3 0 0 1-3-3v-16a3 3 0 0 1 3-3h5.693a1 1 0 1 1 0 2H7.333z" fill="#fff"/>
</svg>
