<svg width="16" height="16" viewBox="0 0 16 16" fill="none" xmlns="http://www.w3.org/2000/svg">
<path fill-rule="evenodd" clip-rule="evenodd" d="M8.79716 0.850655C9.01522 0.909607 9.16667 1.10744 9.16667 1.33333V6.16666H12C12.179 6.16666 12.3444 6.26238 12.4336 6.41763C12.5227 6.57288 12.5221 6.76395 12.4319 6.9186L7.76522 14.9186C7.6514 15.1137 7.42089 15.2083 7.20284 15.1493C6.98478 15.0904 6.83333 14.8925 6.83333 14.6667L6.83333 9.83333H4C3.82097 9.83333 3.6556 9.73761 3.56643 9.58236C3.47726 9.42711 3.4779 9.23604 3.56811 9.08139L8.23478 1.08139C8.3486 0.886275 8.5791 0.791703 8.79716 0.850655ZM4.87052 8.83333H7.33333C7.46594 8.83333 7.59312 8.88601 7.68689 8.97977C7.78066 9.07354 7.83333 9.20072 7.83333 9.33333L7.83333 12.8172L11.1295 7.16666H8.66667C8.39052 7.16666 8.16667 6.9428 8.16667 6.66666V3.18279L4.87052 8.83333Z" fill="white"/>
</svg>
