<svg width="16" height="16" viewBox="0 0 16 16" fill="none" xmlns="http://www.w3.org/2000/svg">
<path fill-rule="evenodd" clip-rule="evenodd" d="M11.2249 3C11.9603 2.99938 12.665 3.29495 13.1799 3.82C14.2727 4.92942 14.2727 6.71059 13.1799 7.82L7.99989 13.065L2.81989 7.82C1.72709 6.71059 1.72709 4.92942 2.81989 3.82C3.3351 3.29534 4.03957 2.99979 4.77489 2.99979C5.51022 2.99979 6.21469 3.29534 6.72989 3.82L7.99989 5.12L9.26489 3.83C9.77836 3.29858 10.4859 2.99894 11.2249 3ZM11.2249 2C10.2205 1.99915 9.25809 2.40286 8.55489 3.12L7.99989 3.68L7.44489 3.12C6.74086 2.40419 5.7789 2.00105 4.77489 2.00105C3.77088 2.00105 2.80891 2.40419 2.10489 3.12C0.629751 4.62167 0.629751 7.02834 2.10489 8.53L7.99989 14.5L13.8949 8.53C15.37 7.02834 15.37 4.62167 13.8949 3.12C13.191 2.40381 12.229 2.00028 11.2249 2Z" fill="white"/>
</svg>
