<svg width="20" height="20" viewBox="0 0 20 20" fill="none" xmlns="http://www.w3.org/2000/svg">
    <path fill-rule="evenodd" clip-rule="evenodd" d="m8.334 5.417 8.446-2.112a1.25 1.25 0 0 1 1.553 1.213v8.464a1.25 1.25 0 0 1-1.553 1.213l-7.613-1.903v3.541c0 .69-.56 1.25-1.25 1.25H6.25c-.69 0-1.25-.56-1.25-1.25v-3.75a3.333 3.333 0 1 1 0-6.666h3.334zm8.75 7.565-7.5-1.875V6.393l7.5-1.875v8.464zm-8.75-6.315H5a2.083 2.083 0 1 0 0 4.166h3.334V6.667zM7.917 12.5H6.25v3.333h1.667V12.5z" fill="#fff"/>
</svg>
