<svg width="20" height="20" viewBox="0 0 20 20" fill="none" xmlns="http://www.w3.org/2000/svg">
<path fill-rule="evenodd" clip-rule="evenodd" d="M11.6667 3.125L3.33333 3.125C3.21773 3.125 3.125 3.21826 3.125 3.33278V16.875H11.875V3.33333C11.875 3.21827 11.7817 3.125 11.6667 3.125ZM13.125 7.70833V3.33333C13.125 2.52792 12.4721 1.875 11.6667 1.875L3.33333 1.875C2.52846 1.875 1.875 2.52683 1.875 3.33278V17.5C1.875 17.8452 2.15482 18.125 2.5 18.125H17.5C17.8452 18.125 18.125 17.8452 18.125 17.5V8.33333C18.125 7.98816 17.8452 7.70833 17.5 7.70833H13.125ZM13.125 8.95833V16.875H16.875V8.95833H13.125Z" fill="white"/>
<path d="M10 5.83333C10 6.29357 9.6269 6.66667 9.16667 6.66667C8.70643 6.66667 8.33333 6.29357 8.33333 5.83333C8.33333 5.3731 8.70643 5 9.16667 5C9.6269 5 10 5.3731 10 5.83333Z" fill="white"/>
<path d="M6.66667 5.83333C6.66667 6.29357 6.29357 6.66667 5.83333 6.66667C5.3731 6.66667 5 6.29357 5 5.83333C5 5.3731 5.3731 5 5.83333 5C6.29357 5 6.66667 5.3731 6.66667 5.83333Z" fill="white"/>
<path d="M10 9.16667C10 9.6269 9.6269 10 9.16667 10C8.70643 10 8.33333 9.6269 8.33333 9.16667C8.33333 8.70643 8.70643 8.33333 9.16667 8.33333C9.6269 8.33333 10 8.70643 10 9.16667Z" fill="white"/>
<path d="M6.66667 9.16667C6.66667 9.6269 6.29357 10 5.83333 10C5.3731 10 5 9.6269 5 9.16667C5 8.70643 5.3731 8.33333 5.83333 8.33333C6.29357 8.33333 6.66667 8.70643 6.66667 9.16667Z" fill="white"/>
<path d="M10 12.5C10 12.9602 9.6269 13.3333 9.16667 13.3333C8.70643 13.3333 8.33333 12.9602 8.33333 12.5C8.33333 12.0398 8.70643 11.6667 9.16667 11.6667C9.6269 11.6667 10 12.0398 10 12.5Z" fill="white"/>
<path d="M6.66667 12.5C6.66667 12.9602 6.29357 13.3333 5.83333 13.3333C5.3731 13.3333 5 12.9602 5 12.5C5 12.0398 5.3731 11.6667 5.83333 11.6667C6.29357 11.6667 6.66667 12.0398 6.66667 12.5Z" fill="white"/>
</svg>
