<svg width="20" height="20" viewBox="0 0 20 20" fill="none" xmlns="http://www.w3.org/2000/svg">
    <path fill-rule="evenodd" clip-rule="evenodd" d="M9.167 3.125a.208.208 0 0 0-.209.208v5a.208.208 0 0 0 .209.209H15c.166 0 .325.066.442.183l1.433 1.433V3.333a.209.209 0 0 0-.208-.208h-7.5zm-1.032-.823a1.458 1.458 0 0 1 1.032-.427h7.5a1.458 1.458 0 0 1 1.458 1.458v8.334a.625.625 0 0 1-1.067.442l-2.317-2.317H9.167a1.458 1.458 0 0 1-1.459-1.459v-5c0-.386.154-.757.427-1.03zM3.333 8.958a.208.208 0 0 0-.208.209v6.824l1.433-1.433A.625.625 0 0 1 5 14.375h5.833a.208.208 0 0 0 .209-.208V12.5a.625.625 0 1 1 1.25 0v1.667a1.459 1.459 0 0 1-1.459 1.458H5.26l-2.317 2.317a.625.625 0 0 1-1.067-.442V9.167a1.458 1.458 0 0 1 1.458-1.459H5a.625.625 0 0 1 0 1.25H3.333z" fill="#fff"/>
</svg>
