<svg width="20" height="20" viewBox="0 0 20 20" fill="none" xmlns="http://www.w3.org/2000/svg">
    <path fill-rule="evenodd" clip-rule="evenodd" d="M5 8.125a1.875 1.875 0 1 0 0 3.75 1.875 1.875 0 0 0 0-3.75zM1.875 10a3.125 3.125 0 1 1 6.25 0 3.125 3.125 0 0 1-6.25 0zM15 3.125a1.875 1.875 0 1 0 0 3.75 1.875 1.875 0 0 0 0-3.75zM11.875 5a3.125 3.125 0 1 1 6.25 0 3.125 3.125 0 0 1-6.25 0zM15 13.125a1.875 1.875 0 1 0 0 3.75 1.875 1.875 0 0 0 0-3.75zM11.875 15a3.125 3.125 0 1 1 6.25 0 3.125 3.125 0 0 1-6.25 0z" fill="#fff"/>
    <path fill-rule="evenodd" clip-rule="evenodd" d="M13.306 5.797a.625.625 0 0 1-.27.842l-5.5 2.833a.625.625 0 0 1-.572-1.11l5.5-2.834a.625.625 0 0 1 .842.27zM6.694 10.797a.625.625 0 0 1 .842-.27l5.5 2.834a.625.625 0 1 1-.572 1.111l-5.5-2.833a.625.625 0 0 1-.27-.842z" fill="#fff"/>
</svg>
