<svg width="20" height="20" viewBox="0 0 20 20" fill="none" xmlns="http://www.w3.org/2000/svg">
<path fill-rule="evenodd" clip-rule="evenodd" d="M17.5 4.375C17.5 4.72018 17.2202 5 16.875 5H3.125C2.77982 5 2.5 4.72018 2.5 4.375C2.5 4.02982 2.77982 3.75 3.125 3.75H16.875C17.2202 3.75 17.5 4.02982 17.5 4.375Z" fill="white"/>
<path fill-rule="evenodd" clip-rule="evenodd" d="M17.5 10C17.5 10.3452 17.2202 10.625 16.875 10.625H3.125C2.77982 10.625 2.5 10.3452 2.5 10C2.5 9.65482 2.77982 9.375 3.125 9.375H16.875C17.2202 9.375 17.5 9.65482 17.5 10Z" fill="white"/>
<path fill-rule="evenodd" clip-rule="evenodd" d="M17.5 15.625C17.5 15.9702 17.2202 16.25 16.875 16.25H3.125C2.77982 16.25 2.5 15.9702 2.5 15.625C2.5 15.2798 2.77982 15 3.125 15H16.875C17.2202 15 17.5 15.2798 17.5 15.625Z" fill="white"/>
</svg>
