<svg width="32" height="32" viewBox="0 0 32 32" fill="none" xmlns="http://www.w3.org/2000/svg">
<path fill-rule="evenodd" clip-rule="evenodd" d="M26.8686 15.2L28.8686 13.6C29.6686 13 29.6686 11.8 29.2686 11L26.8686 7C26.4686 6.4 25.8686 6 25.0686 6C24.8686 6 24.6686 6 24.4686 6.2L22.0686 7C21.9196 6.92554 21.7707 6.82337 21.6115 6.71411C21.343 6.52989 21.0452 6.32554 20.6686 6.2L20.0686 3.6C20.0686 2.6 19.2686 2 18.2686 2H13.4686C12.4686 2 11.6686 2.6 11.4686 3.6L11.0686 6.2C10.4686 6.4 10.0686 6.6 9.66857 6.79999L7.26855 6H6.66855C5.86855 6 5.26855 6.4 4.86855 7L2.46855 11C2.06855 11.8 2.26855 12.8 3.06855 13.6L4.86855 15.4V17L3.06855 18.4C2.26855 19 2.06855 20.2 2.66855 21L5.06855 25C5.26855 25.6 5.86855 26 6.66855 26C6.86855 26 7.06855 26 7.26855 25.8L9.66855 25C9.81747 25.0745 9.96638 25.1766 10.1256 25.2859C10.3941 25.4701 10.6919 25.6745 11.0686 25.8L11.6686 28.4C11.8686 29.4 12.6686 30 13.6686 30H18.4686C19.4686 30 20.2686 29.4 20.4686 28.4L21.0686 25.8C21.4685 25.6 21.8686 25.4 22.4686 25L24.8686 25.8C24.9686 25.8 25.0686 25.85 25.1686 25.9C25.2686 25.95 25.3686 26 25.4686 26C26.2686 26 26.8686 25.6 27.2686 25L29.4686 21C29.8686 20.2 29.8686 19.2 29.0686 18.4L26.8686 16.8V15.2ZM9.86853 16C9.86853 19.4 12.4685 22 15.8685 22C19.2685 22 21.8685 19.2 21.8685 16C21.8685 12.6 19.2685 10 15.8685 10C12.4685 10 9.86853 12.6 9.86853 16ZM11.8685 15.8C11.8685 13.6 13.6685 12 15.8685 12C18.2685 12 19.8685 13.8 19.8685 16V16.2C19.8685 18.4 18.0685 20 15.8685 20H15.6685C13.4685 20 11.8685 18.2 11.8685 16V15.8ZM21.6686 22.8L25.0686 24L27.4686 20L24.6686 17.6C24.8686 16.6 24.8686 15.4 24.6686 14.4L27.4686 12L25.0686 8L21.8686 9.2C21.5887 9.03209 21.3245 8.86418 21.0672 8.70066C20.4051 8.27985 19.7887 7.88806 19.0686 7.6L18.2686 4H13.4686L12.8686 7.6C11.8686 8 10.8686 8.4 10.0686 9.2L6.66855 8L4.26855 12L7.06855 14.4C6.86855 15.4 6.86855 16.6 7.06855 17.6L4.26855 20L6.66855 24L9.86855 22.8C10.1484 22.9679 10.4126 23.1358 10.6699 23.2993C11.332 23.7202 11.9484 24.1119 12.6686 24.4L13.4686 28H18.2686L18.8686 24.4C19.8686 24 20.8686 23.4 21.6686 22.8Z" fill="white"/>
</svg>
