<svg width="32" height="32" viewBox="0 0 32 32" fill="none" xmlns="http://www.w3.org/2000/svg">
<path fill-rule="evenodd" clip-rule="evenodd" d="M30 8H25.8C25.4 5.8 23.4 4 21 4C18.6 4 16.6 5.8 16.2 8H2V10H16.2C16.6 12.2 18.6 14 21 14C23.4 14 25.4 12.2 25.8 10H30V8ZM21 12C19.4 12 18 10.6 18 9C18 7.4 19.4 6 21 6C22.6 6 24 7.4 24 9C24 10.6 22.6 12 21 12ZM2 24H6.2C6.6 26.2 8.6 28 11 28C13.4 28 15.4 26.2 15.8 24H30V22H22.9H15.8C15.4 19.8 13.4 18 11 18C8.6 18 6.6 19.8 6.2 22H2V24ZM11 20C12.6 20 14 21.4 14 23C14 24.6 12.6 26 11 26C9.4 26 8 24.6 8 23C8 21.4 9.4 20 11 20Z" fill="white"/>
</svg>
