<svg width="24" height="24" viewBox="0 0 24 24" fill="none" xmlns="http://www.w3.org/2000/svg">
<path fill-rule="evenodd" clip-rule="evenodd" d="M4.4101 16.4212C5.46868 18.2674 7.16383 19.6645 9.17823 20.3511C10.0942 20.6632 11.0477 20.8188 11.9999 20.8188C12.4141 20.8189 12.75 20.4831 12.75 20.0689C12.75 19.6547 12.4143 19.3189 12.0001 19.3188C11.2111 19.3188 10.4211 19.1899 9.66211 18.9313C7.99303 18.3624 6.58848 17.2048 5.71138 15.6751C4.83428 14.1453 4.54475 12.3484 4.897 10.6206C5.24926 8.89275 6.21914 7.35255 7.62509 6.28827C9.03105 5.22399 10.7767 4.7086 12.5352 4.83856C14.2938 4.96853 15.9447 5.73495 17.1789 6.99436C18.4131 8.25376 19.1461 9.91981 19.2405 11.6806C19.3264 13.2827 18.8784 14.8633 17.9741 16.1777C17.7394 16.519 17.8257 16.986 18.1669 17.2207C18.5082 17.4555 18.9752 17.3692 19.2099 17.0279C20.3013 15.4414 20.842 13.5338 20.7383 11.6003C20.6244 9.47518 19.7398 7.46443 18.2502 5.94446C16.7607 4.42449 14.7682 3.4995 12.6458 3.34264C10.5234 3.18579 8.4166 3.80782 6.71976 5.09229C5.02292 6.37677 3.85237 8.23563 3.42724 10.3209C3.0021 12.4062 3.35153 14.5749 4.4101 16.4212Z" fill="white"/>
<path fill-rule="evenodd" clip-rule="evenodd" d="M16.8059 13.1818C16.4058 13.289 16.1683 13.7003 16.2756 14.1004L17.1818 17.4826C17.289 17.8827 17.7003 18.1201 18.1004 18.0129L21.4826 17.1067C21.8827 16.9995 22.1202 16.5882 22.013 16.1881C21.9058 15.788 21.4945 15.5506 21.0944 15.6578L18.4366 16.3699L17.7244 13.7121C17.6172 13.312 17.206 13.0746 16.8059 13.1818Z" fill="white"/>
</svg>
