<svg width="24" height="24" viewBox="0 0 24 24" fill="none" xmlns="http://www.w3.org/2000/svg">
<path fill-rule="evenodd" clip-rule="evenodd" d="M2.25 12C2.25 11.5858 2.58579 11.25 3 11.25H21C21.4142 11.25 21.75 11.5858 21.75 12C21.75 12.4142 21.4142 12.75 21 12.75H3C2.58579 12.75 2.25 12.4142 2.25 12Z" fill="white"/>
<path fill-rule="evenodd" clip-rule="evenodd" d="M3.76283 5.28849C4.15579 5.1575 4.58053 5.36987 4.71151 5.76283L8 15.6283L11.2885 5.76283C11.3906 5.45657 11.6772 5.25 12 5.25C12.3228 5.25 12.6094 5.45657 12.7115 5.76283L16 15.6283L19.2885 5.76283C19.4195 5.36987 19.8442 5.1575 20.2372 5.28849C20.6301 5.41947 20.8425 5.84421 20.7115 6.23717L16.7115 18.2372C16.6094 18.5434 16.3228 18.75 16 18.75C15.6772 18.75 15.3906 18.5434 15.2885 18.2372L12 8.37171L8.71151 18.2372C8.60943 18.5434 8.32282 18.75 8 18.75C7.67718 18.75 7.39057 18.5434 7.28849 18.2372L3.28849 6.23717C3.1575 5.84421 3.36987 5.41947 3.76283 5.28849Z" fill="white"/>
</svg>
