<svg width="32" height="32" viewBox="0 0 32 32" fill="none" xmlns="http://www.w3.org/2000/svg">
<path fill-rule="evenodd" clip-rule="evenodd" d="M16 28.2C22.7379 28.2 28.2 22.7379 28.2 16C28.2 9.26213 22.7379 3.8 16 3.8C9.26213 3.8 3.8 9.26213 3.8 16C3.8 22.7379 9.26213 28.2 16 28.2ZM16 30C23.732 30 30 23.732 30 16C30 8.26801 23.732 2 16 2C8.26801 2 2 8.26801 2 16C2 23.732 8.26801 30 16 30ZM14.3 22.2961V23.4H14.2896L14.2907 23.4419C14.2953 23.6298 14.3 23.8163 14.3 24H12.5C12.5 23.8949 12.4949 23.7664 12.489 23.6186C12.474 23.2449 12.4542 22.7481 12.5 22.1952V10.5573L10.2089 12.6627C9.84293 12.999 9.27359 12.9749 8.93727 12.6089C8.60095 12.2429 8.625 11.6736 8.991 11.3373L12.691 7.93726C13.0353 7.62086 13.5646 7.62086 13.9089 7.93726L17.6089 11.3373C17.9749 11.6736 17.999 12.2429 17.6627 12.6089C17.3263 12.9749 16.757 12.999 16.391 12.6627L14.3 10.7412V18.5951C15.5998 17.5595 17.6873 16.9431 20.9398 16.9704L19.1374 15.009C18.8011 14.643 18.8251 14.0736 19.1911 13.7373C19.5571 13.401 20.1265 13.425 20.4628 13.791L23.8628 17.491C24.1792 17.8354 24.1792 18.3646 23.8628 18.709L20.4628 22.409C20.1265 22.775 19.5571 22.799 19.1911 22.4627C18.8251 22.1264 18.8011 21.557 19.1374 21.191L21.3553 18.7775C17.3549 18.6719 15.6869 19.5707 14.9716 20.4449C14.5088 21.0105 14.3487 21.6457 14.3 22.2961Z" fill="white"/>
</svg>
