<svg width="32" height="32" viewBox="0 0 32 32" fill="none" xmlns="http://www.w3.org/2000/svg">
<path fill-rule="evenodd" clip-rule="evenodd" d="M16 27.3333C22.2592 27.3333 27.3334 22.2592 27.3334 16C27.3334 9.74077 22.2592 4.66666 16 4.66666C9.74079 4.66666 4.66669 9.74077 4.66669 16C4.66669 22.2592 9.74079 27.3333 16 27.3333ZM16 29.3333C23.3638 29.3333 29.3334 23.3638 29.3334 16C29.3334 8.6362 23.3638 2.66666 16 2.66666C8.63622 2.66666 2.66669 8.6362 2.66669 16C2.66669 23.3638 8.63622 29.3333 16 29.3333Z" fill="white"/>
<path fill-rule="evenodd" clip-rule="evenodd" d="M14 8.33333C14.5523 8.33333 15 8.78105 15 9.33333V22.6667C15 23.219 14.5523 23.6667 14 23.6667C13.4477 23.6667 13 23.219 13 22.6667L13 9.33333C13 8.78105 13.4477 8.33333 14 8.33333Z" fill="white"/>
<path fill-rule="evenodd" clip-rule="evenodd" d="M13.2929 8.62622C13.6834 8.2357 14.3166 8.2357 14.7071 8.62622L17.3738 11.2929C17.7643 11.6834 17.7643 12.3166 17.3738 12.7071C16.9833 13.0976 16.3501 13.0976 15.9596 12.7071L14 10.7475L12.0405 12.7071C11.6499 13.0976 11.0168 13.0976 10.6262 12.7071C10.2357 12.3166 10.2357 11.6834 10.6262 11.2929L13.2929 8.62622Z" fill="white"/>
<path fill-rule="evenodd" clip-rule="evenodd" d="M24.0405 16.6262C24.431 17.0167 24.431 17.6499 24.0405 18.0404L21.3738 20.7071C20.9833 21.0976 20.3501 21.0976 19.9596 20.7071C19.5691 20.3166 19.5691 19.6834 19.9596 19.2929L21.9191 17.3333L19.9596 15.3738C19.5691 14.9832 19.5691 14.3501 19.9596 13.9596C20.3501 13.569 20.9833 13.569 21.3738 13.9596L24.0405 16.6262Z" fill="white"/>
<path fill-rule="evenodd" clip-rule="evenodd" d="M13 22.6667C13 19.1689 15.8356 16.3333 19.3334 16.3333H23.3334C23.8856 16.3333 24.3334 16.781 24.3334 17.3333C24.3334 17.8856 23.8856 18.3333 23.3334 18.3333H19.3334C16.9401 18.3333 15 20.2734 15 22.6667H13Z" fill="white"/>
</svg>
