<svg width="32" height="32" viewBox="0 0 32 32" fill="none" xmlns="http://www.w3.org/2000/svg">
<path fill-rule="evenodd" clip-rule="evenodd" d="M2 16C2 8.2 8.2 2 16 2C23.8 2 30 8.2 30 16C30 23.8 23.8 30 16 30C8.2 30 2 23.8 2 16ZM4 16C4 22.6 9.4 28 16 28C22.6 28 28 22.6 28 16C28 9.4 22.6 4 16 4C9.4 4 4 9.4 4 16Z" fill="white"/>
<path d="M14.3199 10.9928L14.2199 8.21277H17.1799L17.0799 10.9928L16.6599 18.3728H14.7399L14.3199 10.9928ZM15.6999 23.6928C15.1799 23.6928 14.7465 23.5128 14.3999 23.1528C14.0532 22.7794 13.8799 22.3194 13.8799 21.7728C13.8799 21.2261 14.0532 20.7728 14.3999 20.4128C14.7465 20.0394 15.1799 19.8528 15.6999 19.8528C16.2199 19.8528 16.6532 20.0394 16.9999 20.4128C17.3599 20.7728 17.5399 21.2261 17.5399 21.7728C17.5399 22.3194 17.3599 22.7794 16.9999 23.1528C16.6532 23.5128 16.2199 23.6928 15.6999 23.6928Z" fill="white"/>
</svg>
