<svg width="32" height="32" viewBox="0 0 32 32" fill="none" xmlns="http://www.w3.org/2000/svg">
<path fill-rule="evenodd" clip-rule="evenodd" d="M16 27.3334C22.2592 27.3334 27.3334 22.2593 27.3334 16C27.3334 9.74082 22.2592 4.66671 16 4.66671C9.74079 4.66671 4.66669 9.74082 4.66669 16C4.66669 22.2593 9.74079 27.3334 16 27.3334ZM16 29.3334C23.3638 29.3334 29.3334 23.3638 29.3334 16C29.3334 8.63625 23.3638 2.66671 16 2.66671C8.63622 2.66671 2.66669 8.63625 2.66669 16C2.66669 23.3638 8.63622 29.3334 16 29.3334Z" fill="white"/>
<path d="M14.4 21.7334C14.4 20.8497 15.1163 20.1334 16 20.1334C16.8837 20.1334 17.6 20.8497 17.6 21.7334C17.6 22.617 16.8837 23.3334 16 23.3334C15.1163 23.3334 14.4 22.617 14.4 21.7334Z" fill="white"/>
<path fill-rule="evenodd" clip-rule="evenodd" d="M16.0001 17.8667C15.3373 17.8667 14.8001 17.3294 14.8001 16.6667V10C14.8001 9.33726 15.3373 8.8 16.0001 8.8C16.6628 8.8 17.2001 9.33726 17.2001 10L17.2001 16.6667C17.2001 17.3294 16.6628 17.8667 16.0001 17.8667Z" fill="white"/>
</svg>
