<svg width="16" height="16" viewBox="0 0 16 16" fill="none" xmlns="http://www.w3.org/2000/svg">
<path fill-rule="evenodd" clip-rule="evenodd" d="M8.00002 7.66667C8.55231 7.66667 9.00002 7.21895 9.00002 6.66667C9.00002 6.11438 8.55231 5.66667 8.00002 5.66667C7.44774 5.66667 7.00002 6.11438 7.00002 6.66667C7.00002 7.21895 7.44774 7.66667 8.00002 7.66667ZM8.00002 8.66667C9.10459 8.66667 10 7.77124 10 6.66667C10 5.5621 9.10459 4.66667 8.00002 4.66667C6.89545 4.66667 6.00002 5.5621 6.00002 6.66667C6.00002 7.77124 6.89545 8.66667 8.00002 8.66667Z" fill="white"/>
<path fill-rule="evenodd" clip-rule="evenodd" d="M10.3158 11.6329C11.4224 10.2557 12.3334 8.43393 12.3334 6.51852C12.3334 4.23348 10.42 2.33334 8.00002 2.33334C5.58004 2.33334 3.66669 4.23348 3.66669 6.51852C3.66669 8.43393 4.5776 10.2557 5.68429 11.6329C6.23223 12.3148 6.80438 12.8571 7.28592 13.2196C7.52743 13.4013 7.73074 13.5262 7.88344 13.6012C7.93462 13.6263 7.97316 13.6424 8.00002 13.6526C8.02688 13.6424 8.06542 13.6263 8.11661 13.6012C8.2693 13.5262 8.47261 13.4013 8.71412 13.2196C9.19566 12.8571 9.76781 12.3148 10.3158 11.6329ZM8.00002 14.6667C9.14288 14.6667 13.3334 10.963 13.3334 6.51852C13.3334 3.65482 10.9455 1.33334 8.00002 1.33334C5.0545 1.33334 2.66669 3.65482 2.66669 6.51852C2.66669 10.963 6.85716 14.6667 8.00002 14.6667Z" fill="white"/>
</svg>
