<svg width="32" height="32" viewBox="0 0 32 32" fill="none" xmlns="http://www.w3.org/2000/svg">
<path fill-rule="evenodd" clip-rule="evenodd" d="M16 15.3333C17.1045 15.3333 18 14.4379 18 13.3333C18 12.2288 17.1045 11.3333 16 11.3333C14.8954 11.3333 14 12.2288 14 13.3333C14 14.4379 14.8954 15.3333 16 15.3333ZM16 17.3333C18.2091 17.3333 20 15.5425 20 13.3333C20 11.1242 18.2091 9.33333 16 9.33333C13.7908 9.33333 12 11.1242 12 13.3333C12 15.5425 13.7908 17.3333 16 17.3333Z" fill="white"/>
<path fill-rule="evenodd" clip-rule="evenodd" d="M20.6314 23.2657C22.8448 20.5113 24.6666 16.8679 24.6666 13.037C24.6666 8.46694 20.8399 4.66666 16 4.66666C11.16 4.66666 7.33331 8.46694 7.33331 13.037C7.33331 16.8679 9.15514 20.5113 11.3685 23.2657C12.4644 24.6295 13.6087 25.7142 14.5718 26.4391C15.0548 26.8027 15.4614 27.0524 15.7668 27.2024C15.8692 27.2526 15.9463 27.2848 16 27.3051C16.0537 27.2848 16.1308 27.2526 16.2331 27.2024C16.5385 27.0524 16.9452 26.8027 17.4282 26.4391C18.3913 25.7142 19.5356 24.6295 20.6314 23.2657ZM16 29.3333C18.2857 29.3333 26.6666 21.9259 26.6666 13.037C26.6666 7.30964 21.891 2.66666 16 2.66666C10.1089 2.66666 5.33331 7.30964 5.33331 13.037C5.33331 21.9259 13.7143 29.3333 16 29.3333Z" fill="white"/>
</svg>
