<svg width="16" height="16" viewBox="0 0 16 16" fill="none" xmlns="http://www.w3.org/2000/svg">
<path fill-rule="evenodd" clip-rule="evenodd" d="M13.5098 4.02083C13.7054 4.21576 13.706 4.53234 13.511 4.72794L12.8052 5.43627C12.6102 5.63187 12.2936 5.63242 12.098 5.4375C11.9024 5.24258 11.9019 4.92599 12.0968 4.73039L12.8027 4.02206C12.9976 3.82646 13.3142 3.82591 13.5098 4.02083Z" fill="white"/>
<path fill-rule="evenodd" clip-rule="evenodd" d="M12.0949 3.3157C12.2887 3.11902 12.6053 3.11671 12.802 3.31054L14.9196 5.3975C15.015 5.49147 15.0686 5.61975 15.0686 5.75362V10.6232C15.0686 11.0349 14.9026 11.4283 14.6095 11.7172C14.3166 12.0058 13.9209 12.1667 13.5098 12.1667C13.0987 12.1667 12.703 12.0058 12.4102 11.7172C12.117 11.4283 11.951 11.0349 11.951 10.6232V8.53623C11.951 8.30222 11.8567 8.07629 11.6865 7.90856C11.5161 7.74058 11.2834 7.64493 11.0392 7.64493H10.3334C10.0572 7.64493 9.83335 7.42107 9.83335 7.14493C9.83335 6.86879 10.0572 6.64493 10.3334 6.64493H11.0392C11.5439 6.64493 12.0294 6.84244 12.3885 7.19631C12.7478 7.55041 12.951 8.03225 12.951 8.53623V10.6232C12.951 10.765 13.0081 10.9024 13.1121 11.0049C13.2163 11.1077 13.3593 11.1667 13.5098 11.1667C13.6604 11.1667 13.8033 11.1077 13.9076 11.0049C14.0116 10.9024 14.0686 10.765 14.0686 10.6232V5.96287L12.1 4.02279C11.9034 3.82896 11.901 3.51239 12.0949 3.3157Z" fill="white"/>
<path fill-rule="evenodd" clip-rule="evenodd" d="M2.16669 3C2.16669 2.17157 2.83826 1.5 3.66669 1.5H9.00002C9.82845 1.5 10.5 2.17157 10.5 3V14.5H2.16669V3ZM3.66669 2.5C3.39054 2.5 3.16669 2.72386 3.16669 3V13.5H9.50002V3C9.50002 2.72386 9.27616 2.5 9.00002 2.5H3.66669Z" fill="white"/>
<path fill-rule="evenodd" clip-rule="evenodd" d="M6.79087 6.89216C7.03453 7.02211 7.1267 7.32497 6.99675 7.56863L6.50002 8.5H7.00002C7.17565 8.5 7.33841 8.59215 7.42877 8.74275C7.51913 8.89336 7.52385 9.08033 7.4412 9.23529L6.55231 10.902C6.42236 11.1456 6.11949 11.2378 5.87584 11.1078C5.63218 10.9779 5.54001 10.675 5.66996 10.4314L6.16669 9.5H5.66669C5.49106 9.5 5.3283 9.40785 5.23794 9.25725C5.14758 9.10665 5.14286 8.91967 5.22551 8.76471L6.1144 7.09804C6.24435 6.85438 6.54722 6.76221 6.79087 6.89216Z" fill="white"/>
<path fill-rule="evenodd" clip-rule="evenodd" d="M1.16669 14C1.16669 13.7239 1.39054 13.5 1.66669 13.5H11C11.2762 13.5 11.5 13.7239 11.5 14C11.5 14.2761 11.2762 14.5 11 14.5H1.66669C1.39054 14.5 1.16669 14.2761 1.16669 14Z" fill="white"/>
<path fill-rule="evenodd" clip-rule="evenodd" d="M2.83335 5.33333C2.83335 5.05719 3.05721 4.83333 3.33335 4.83333H10C10.2762 4.83333 10.5 5.05719 10.5 5.33333C10.5 5.60948 10.2762 5.83333 10 5.83333H3.33335C3.05721 5.83333 2.83335 5.60948 2.83335 5.33333Z" fill="white"/>
</svg>
