<svg width="32" height="32" viewBox="0 0 32 32" fill="none" xmlns="http://www.w3.org/2000/svg">
<path fill-rule="evenodd" clip-rule="evenodd" d="M6.3365 6.36451C6.3365 4.32189 7.99169 2.66669 10.0343 2.66669C11.3237 2.66669 12.4574 3.32832 13.1178 4.32385L16.0914 7.95314L19.0649 4.32402C19.7256 3.32705 20.8586 2.66669 22.1486 2.66669C24.1912 2.66669 25.8464 4.32189 25.8464 6.36451C25.8464 7.12902 25.6145 7.83927 25.2173 8.42876H27.3306C29.1732 8.42876 30.6668 9.92243 30.6668 11.765V13.0239C30.6668 14.6256 29.5381 15.9637 28.0327 16.2861V24.164C28.0327 26.5674 26.2197 28.6303 23.8483 28.6303H8.15301C5.78158 28.6303 3.96866 26.5674 3.96866 24.164V16.2863C2.46273 15.9643 1.3335 14.626 1.3335 13.0239V11.765C1.3335 9.92243 2.82716 8.42876 4.66969 8.42876H6.96564C6.56837 7.83927 6.3365 7.12902 6.3365 6.36451ZM12.0455 10.0654H4.66969C3.73104 10.0654 2.97012 10.8263 2.97012 11.765V13.0239C2.97012 13.9625 3.73104 14.7235 4.66969 14.7235H12.0455V10.0654ZM18.3179 14.7235H13.6821V10.0654H18.3179V14.7235ZM19.9545 14.7235H27.3306C28.2693 14.7235 29.0302 13.9625 29.0302 13.0239V11.765C29.0302 10.8263 28.2693 10.0654 27.3306 10.0654H19.9545V14.7235ZM5.60528 16.3601V24.164C5.60528 25.7899 6.8069 26.9937 8.15301 26.9937H12.0455V16.3601H5.60528ZM13.6821 16.3601V26.9937H18.3179V16.3601H13.6821ZM19.9545 16.3601V26.9937H23.8483C25.1944 26.9937 26.396 25.7899 26.396 24.164V16.3601H19.9545ZM10.0343 4.30331C8.89558 4.30331 7.97312 5.22577 7.97312 6.36451C7.97312 7.50325 8.89558 8.4257 10.0343 8.4257H14.3628L11.7945 5.29104L11.7691 5.25174C11.4006 4.6797 10.7606 4.30331 10.0343 4.30331ZM20.414 5.25135C20.7823 4.67895 21.421 4.30331 22.1486 4.30331C23.2873 4.30331 24.2098 5.22577 24.2098 6.36451C24.2098 7.50325 23.2873 8.4257 22.1486 8.4257H17.8201L20.3886 5.29086L20.414 5.25135Z" fill="white"/>
</svg>
