<svg width="20" height="20" viewBox="0 0 20 20" fill="none" xmlns="http://www.w3.org/2000/svg">
<path fill-rule="evenodd" clip-rule="evenodd" d="M16.793 9.5L18.043 8.5C18.543 8.125 18.543 7.375 18.293 6.875L16.793 4.375C16.543 4 16.168 3.75 15.668 3.75C15.543 3.75 15.418 3.75 15.293 3.875L13.793 4.375C13.6999 4.32846 13.6068 4.26461 13.5073 4.19632C13.3395 4.08118 13.1534 3.95346 12.918 3.875L12.543 2.25C12.543 1.625 12.043 1.25 11.418 1.25H8.41797C7.79297 1.25 7.29297 1.625 7.16797 2.25L6.91797 3.875C6.54297 4 6.29297 4.125 6.04298 4.25L4.54297 3.75H4.16797C3.66797 3.75 3.29297 4 3.04297 4.375L1.54297 6.875C1.29297 7.375 1.41797 8 1.91797 8.5L3.04297 9.625V10.625L1.91797 11.5C1.41797 11.875 1.29297 12.625 1.66797 13.125L3.16797 15.625C3.29297 16 3.66797 16.25 4.16797 16.25C4.29297 16.25 4.41797 16.25 4.54297 16.125L6.04297 15.625C6.13604 15.6715 6.22911 15.7354 6.32863 15.8037C6.49643 15.9188 6.68258 16.0465 6.91797 16.125L7.29297 17.75C7.41797 18.375 7.91797 18.75 8.54297 18.75H11.543C12.168 18.75 12.668 18.375 12.793 17.75L13.168 16.125C13.418 16 13.668 15.875 14.043 15.625L15.543 16.125C15.6055 16.125 15.668 16.1562 15.7305 16.1875C15.793 16.2188 15.8555 16.25 15.918 16.25C16.418 16.25 16.793 16 17.043 15.625L18.418 13.125C18.668 12.625 18.668 12 18.168 11.5L16.793 10.5V9.5ZM6.16795 10C6.16795 12.125 7.79295 13.75 9.91795 13.75C12.043 13.75 13.668 12 13.668 10C13.668 7.875 12.043 6.25 9.91795 6.25C7.79295 6.25 6.16795 7.875 6.16795 10ZM7.41795 9.875C7.41795 8.5 8.54295 7.5 9.91795 7.5C11.418 7.5 12.418 8.625 12.418 10V10.125C12.418 11.5 11.293 12.5 9.91795 12.5H9.79295C8.41795 12.5 7.41795 11.375 7.41795 10V9.875ZM13.543 14.25L15.668 15L17.168 12.5L15.418 11C15.543 10.375 15.543 9.625 15.418 9L17.168 7.5L15.668 5L13.668 5.75C13.4931 5.64506 13.3279 5.54012 13.1671 5.43791C12.7533 5.1749 12.3681 4.93004 11.918 4.75L11.418 2.5H8.41797L8.04297 4.75C7.41797 5 6.79297 5.25 6.29297 5.75L4.16797 5L2.66797 7.5L4.41797 9C4.29297 9.625 4.29297 10.375 4.41797 11L2.66797 12.5L4.16797 15L6.16797 14.25C6.34287 14.3549 6.50799 14.4599 6.66879 14.5621C7.0826 14.8251 7.46787 15.07 7.91797 15.25L8.41797 17.5H11.418L11.793 15.25C12.418 15 13.043 14.625 13.543 14.25Z" fill="white"/>
</svg>
