<svg width="16" height="16" viewBox="0 0 16 16" fill="none" xmlns="http://www.w3.org/2000/svg">
<path fill-rule="evenodd" clip-rule="evenodd" d="M8 7.66667C9.28866 7.66667 10.3333 6.622 10.3333 5.33333C10.3333 4.04467 9.28866 3 8 3C6.71134 3 5.66667 4.04467 5.66667 5.33333C5.66667 6.622 6.71134 7.66667 8 7.66667ZM8 8.66667C9.84095 8.66667 11.3333 7.17428 11.3333 5.33333C11.3333 3.49238 9.84095 2 8 2C6.15905 2 4.66667 3.49238 4.66667 5.33333C4.66667 7.17428 6.15905 8.66667 8 8.66667Z" fill="white"/>
<path fill-rule="evenodd" clip-rule="evenodd" d="M3.5 13.3333C3.5 11.5844 4.91777 10.1667 6.66667 10.1667H9.33333C11.0822 10.1667 12.5 11.5844 12.5 13.3333V14C12.5 14.2761 12.2761 14.5 12 14.5C11.7239 14.5 11.5 14.2761 11.5 14V13.3333C11.5 12.1367 10.53 11.1667 9.33333 11.1667H6.66667C5.47005 11.1667 4.5 12.1367 4.5 13.3333V14C4.5 14.2761 4.27614 14.5 4 14.5C3.72386 14.5 3.5 14.2761 3.5 14V13.3333Z" fill="white"/>
</svg>
