<svg width="20" height="20" viewBox="0 0 20 20" fill="none" xmlns="http://www.w3.org/2000/svg">
<path fill-rule="evenodd" clip-rule="evenodd" d="M4.375 9.99999C4.375 8.2741 5.77411 6.87499 7.5 6.87499H15.8333C16.1785 6.87499 16.4583 7.15481 16.4583 7.49999C16.4583 7.84517 16.1785 8.12499 15.8333 8.12499H7.5C6.46447 8.12499 5.625 8.96446 5.625 9.99999V15.8333C5.625 16.1785 5.34518 16.4583 5 16.4583C4.65482 16.4583 4.375 16.1785 4.375 15.8333V9.99999Z" fill="white"/>
<path fill-rule="evenodd" clip-rule="evenodd" d="M16.2753 7.05805C16.5194 7.30213 16.5194 7.69785 16.2753 7.94193L12.9419 11.2753C12.6979 11.5193 12.3021 11.5193 12.0581 11.2753C11.814 11.0312 11.814 10.6355 12.0581 10.3914L14.9494 7.49999L12.0581 4.6086C11.814 4.36452 11.814 3.96879 12.0581 3.72471C12.3021 3.48064 12.6979 3.48064 12.9419 3.72471L16.2753 7.05805Z" fill="white"/>
</svg>
