<svg width="20" height="20" viewBox="0 0 20 20" fill="none" xmlns="http://www.w3.org/2000/svg">
    <path fill-rule="evenodd" clip-rule="evenodd" d="M10 3.666 8.483 6.752a2.083 2.083 0 0 1-1.57 1.142l-3.4.496 2.466 2.413c.488.478.711 1.166.596 1.84l-.581 3.401 3.034-1.6a2.084 2.084 0 0 1 1.944 0l3.034 1.6-.581-3.401a2.083 2.083 0 0 1 .596-1.84l2.466-2.413-3.4-.496a2.083 2.083 0 0 1-1.57-1.142L10 3.666zm.748-1.312a.833.833 0 0 0-1.496 0L7.361 6.2a.833.833 0 0 1-.628.457L2.5 7.275a.833.833 0 0 0-.462 1.42l3.067 3.001a.833.833 0 0 1 .24.736l-.725 4.235a.833.833 0 0 0 1.21.877l3.782-1.995a.833.833 0 0 1 .778 0l3.781 1.995a.833.833 0 0 0 1.21-.877l-.723-4.235a.834.834 0 0 1 .239-.736l3.067-3a.833.833 0 0 0-.462-1.421l-4.234-.618a.833.833 0 0 1-.628-.457l-1.891-3.846z" fill="#fff"/>
    <path d="M10 1.889v13.564a.833.833 0 0 0-.389.096L5.83 17.544a.833.833 0 0 1-1.21-.877l.723-4.235a.833.833 0 0 0-.239-.736l-3.067-3a.833.833 0 0 1 .462-1.421l4.234-.618a.833.833 0 0 0 .628-.457l1.891-3.846A.823.823 0 0 1 10 1.89z" fill="#fff"/>
</svg>
