<svg width="20" height="20" viewBox="0 0 20 20" fill="none" xmlns="http://www.w3.org/2000/svg">
<path fill-rule="evenodd" clip-rule="evenodd" d="M1.25 10C1.25 5.16751 5.16751 1.25 10 1.25C12.3206 1.25 14.5462 2.17187 16.1872 3.81282C17.8281 5.45376 18.75 7.67936 18.75 10C18.75 14.8325 14.8325 18.75 10 18.75C5.16751 18.75 1.25 14.8325 1.25 10ZM10.9375 14.6875C10.9375 15.2053 10.5178 15.625 10 15.625C9.48223 15.625 9.0625 15.2053 9.0625 14.6875C9.0625 14.1697 9.48223 13.75 10 13.75C10.5178 13.75 10.9375 14.1697 10.9375 14.6875ZM10.625 5.00001H9.68751C8.94108 4.99834 8.22474 5.29412 7.69693 5.82193C7.16912 6.34974 6.87334 7.06608 6.87501 7.81251V8.12501H8.12501V7.81251C8.12501 6.94956 8.82456 6.25001 9.68751 6.25001H10.625C11.488 6.25001 12.1875 6.94956 12.1875 7.81251C12.1875 8.67545 11.488 9.37501 10.625 9.37501H9.37501V12.1875H10.625V10.625C12.1783 10.625 13.4375 9.36581 13.4375 7.81251C13.4375 6.25921 12.1783 5.00001 10.625 5.00001ZM2.5 10C2.5 14.1421 5.85786 17.5 10 17.5C14.1421 17.5 17.5 14.1421 17.5 10C17.5 5.85786 14.1421 2.5 10 2.5C5.85786 2.5 2.5 5.85786 2.5 10Z" fill="white"/>
</svg>
