<svg width="32" height="32" viewBox="0 0 32 32" fill="none" xmlns="http://www.w3.org/2000/svg">
    <path fill-rule="evenodd" clip-rule="evenodd" d="M21.333 16a5.333 5.333 0 1 1-10.666 0 5.333 5.333 0 0 1 10.666 0zm-2 0a3.333 3.333 0 1 1-6.666 0 3.333 3.333 0 0 1 6.666 0z" fill="#fff"/>
    <path fill-rule="evenodd" clip-rule="evenodd" d="M16 5.667c-4.79 0-9.629 2.031-12.735 6.948a6.35 6.35 0 0 0 0 6.77C6.371 24.302 11.21 26.333 16 26.333c4.79 0 9.629-2.031 12.735-6.948a6.35 6.35 0 0 0 0-6.77C25.629 7.698 20.79 5.667 16 5.667zM4.956 13.683C7.646 9.424 11.799 7.667 16 7.667c4.201 0 8.353 1.757 11.044 6.016a4.35 4.35 0 0 1 0 4.634c-2.69 4.259-6.843 6.016-11.044 6.016-4.201 0-8.353-1.757-11.044-6.016a4.35 4.35 0 0 1 0-4.634z" fill="#fff"/>
</svg>
