<svg width="16" height="16" viewBox="0 0 16 16" fill="none" xmlns="http://www.w3.org/2000/svg">
    <path fill-rule="evenodd" clip-rule="evenodd" d="M5.333 2.667H3.667a1 1 0 0 0-1 1v10a1 1 0 0 0 1 1h8.666a1 1 0 0 0 1-1v-10a1 1 0 0 0-1-1h-1.666v1h1.666v10H3.667v-10h1.666v-1z" fill="#fff"/>
    <path fill-rule="evenodd" clip-rule="evenodd" d="M9.667 2.333H6.333v1.334h3.334V2.333zm-3.334-1a1 1 0 0 0-1 1v1.334a1 1 0 0 0 1 1h3.334a1 1 0 0 0 1-1V2.333a1 1 0 0 0-1-1H6.333zM5.167 6.667a.5.5 0 0 1 .5-.5h4.666a.5.5 0 0 1 0 1H5.667a.5.5 0 0 1-.5-.5zM5.167 9a.5.5 0 0 1 .5-.5H9a.5.5 0 0 1 0 1H5.667a.5.5 0 0 1-.5-.5zM5.167 11.333a.5.5 0 0 1 .5-.5h2a.5.5 0 0 1 0 1h-2a.5.5 0 0 1-.5-.5z" fill="#fff"/>
</svg>
