<svg width="32" height="32" viewBox="0 0 32 32" fill="none" xmlns="http://www.w3.org/2000/svg">
<path fill-rule="evenodd" clip-rule="evenodd" d="M2 16C2 8.2 8.2 2 16 2C23.8 2 30 8.2 30 16C30 23.8 23.8 30 16 30C8.2 30 2 23.8 2 16ZM4 16C4 22.6 9.4 28 16 28C22.6 28 28 22.6 28 16C28 9.4 22.6 4 16 4C9.4 4 4 9.4 4 16Z" fill="white"/>
<path d="M14.3567 12.8H17.2767V24H14.3567V12.8ZM15.8367 11C15.33 11 14.91 10.8533 14.5767 10.56C14.2433 10.2533 14.0767 9.86665 14.0767 9.39999C14.0767 8.91999 14.2433 8.53332 14.5767 8.23999C14.91 7.94665 15.33 7.79999 15.8367 7.79999C16.3433 7.79999 16.7567 7.94665 17.0767 8.23999C17.41 8.53332 17.5767 8.91999 17.5767 9.39999C17.5767 9.86665 17.41 10.2533 17.0767 10.56C16.7567 10.8533 16.3433 11 15.8367 11Z" fill="white"/>
</svg>
