<svg width="32" height="32" viewBox="0 0 32 32" fill="none" xmlns="http://www.w3.org/2000/svg">
<path fill-rule="evenodd" clip-rule="evenodd" d="M16 27.3333C22.2592 27.3333 27.3334 22.2592 27.3334 16C27.3334 9.74076 22.2592 4.66666 16 4.66666C9.74079 4.66666 4.66669 9.74076 4.66669 16C4.66669 22.2592 9.74079 27.3333 16 27.3333ZM16 29.3333C23.3638 29.3333 29.3334 23.3638 29.3334 16C29.3334 8.63619 23.3638 2.66666 16 2.66666C8.63622 2.66666 2.66669 8.63619 2.66669 16C2.66669 23.3638 8.63622 29.3333 16 29.3333Z" fill="white"/>
<path d="M17.3334 11.3333C17.3334 12.0697 16.7364 12.6667 16 12.6667C15.2636 12.6667 14.6667 12.0697 14.6667 11.3333C14.6667 10.5969 15.2636 9.99999 16 9.99999C16.7364 9.99999 17.3334 10.5969 17.3334 11.3333Z" fill="white"/>
<path fill-rule="evenodd" clip-rule="evenodd" d="M16 14.8C16.6628 14.8 17.2 15.3372 17.2 16V21.3333C17.2 21.9961 16.6628 22.5333 16 22.5333C15.3373 22.5333 14.8 21.9961 14.8 21.3333L14.8 16C14.8 15.3372 15.3373 14.8 16 14.8Z" fill="white"/>
</svg>
