<svg width="24" height="24" viewBox="0 0 24 24" fill="none" xmlns="http://www.w3.org/2000/svg">
<path d="M1.27563 10.6624C1.2767 9.50081 1.73881 8.38681 2.55996 7.56516C3.3811 6.74351 4.4943 6.2813 5.65593 6.27953H10.2116L21.7835 3.13874C21.8827 3.11186 21.9869 3.10787 22.0877 3.12762C22.1886 3.14737 22.2835 3.19027 22.3652 3.25258C22.4484 3.31499 22.5156 3.39574 22.5621 3.48877C22.6086 3.5818 22.6328 3.68442 22.6328 3.78842V17.5401C22.6328 17.7178 22.5628 17.8881 22.4372 18.0137C22.3115 18.1394 22.1405 18.2101 21.9628 18.2101C21.9039 18.2102 21.8454 18.2023 21.7888 18.1861L10.2161 15.0437H9.7359L11.3238 20.8846H6.76032L5.15214 14.9891C4.08831 14.8677 3.10631 14.3599 2.39181 13.5625C1.6773 12.765 1.27989 11.7332 1.27563 10.6624ZM21.2863 4.6635L10.7801 7.51609V13.8137L21.2863 16.6666V4.6635ZM7.77574 19.5365H9.56318L8.34105 15.0358H6.55358L7.77574 19.5365ZM5.75669 13.696H9.44018V7.61521H5.72986L5.65593 6.94525V7.61521C5.25649 7.62181 4.86243 7.70717 4.49592 7.86612C4.12941 8.02508 3.79754 8.25454 3.51976 8.54165C3.24198 8.82876 3.02403 9.16784 2.87727 9.5394C2.73051 9.91096 2.65804 10.3078 2.66464 10.7073C2.67123 11.1067 2.75627 11.5008 2.91522 11.8672C3.07417 12.2338 3.30396 12.5653 3.59107 12.8431C3.87818 13.1209 4.21727 13.3395 4.58883 13.4863C4.96038 13.633 5.35725 13.7052 5.75669 13.6986V13.696Z" fill="white"/>
</svg>
