<svg width="24" height="24" viewBox="0 0 24 24" fill="none" xmlns="http://www.w3.org/2000/svg">
<path fill-rule="evenodd" clip-rule="evenodd" d="M12 19.75C11.5858 19.75 11.25 19.4142 11.25 19L11.25 4C11.25 3.58579 11.5858 3.25 12 3.25C12.4142 3.25 12.75 3.58579 12.75 4L12.75 19C12.75 19.4142 12.4142 19.75 12 19.75Z" fill="white"/>
<path fill-rule="evenodd" clip-rule="evenodd" d="M17.5303 13.4697C17.8232 13.7626 17.8232 14.2374 17.5303 14.5303L12.5303 19.5303C12.2374 19.8232 11.7626 19.8232 11.4697 19.5303L6.46967 14.5303C6.17678 14.2374 6.17678 13.7626 6.46967 13.4697C6.76256 13.1768 7.23744 13.1768 7.53033 13.4697L12 17.9393L16.4697 13.4697C16.7626 13.1768 17.2374 13.1768 17.5303 13.4697Z" fill="white"/>
</svg>
