<svg width="24" height="24" viewBox="0 0 24 24" fill="none" xmlns="http://www.w3.org/2000/svg">
<path fill-rule="evenodd" clip-rule="evenodd" d="M19.5 4.5H4.5L4.5 19.5H19.5V4.5ZM4.5 3C3.67157 3 3 3.67157 3 4.5V19.5C3 20.3284 3.67157 21 4.5 21H19.5C20.3284 21 21 20.3284 21 19.5V4.5C21 3.67157 20.3284 3 19.5 3H4.5Z" fill="white"/>
<path fill-rule="evenodd" clip-rule="evenodd" d="M7.46967 9.46967C7.76256 9.17678 8.23744 9.17678 8.53033 9.46967L13.046 13.9854L15.5199 11.9238C15.8179 11.6755 16.256 11.6954 16.5303 11.9697L20.5303 15.9697L19.4697 17.0303L15.954 13.5146L13.4801 15.5762C13.1821 15.8245 12.744 15.8046 12.4697 15.5303L8 11.0607L4.53033 14.5303L3.46967 13.4697L7.46967 9.46967Z" fill="white"/>
<path d="M16 8.5C16 9.32843 15.3284 10 14.5 10C13.6716 10 13 9.32843 13 8.5C13 7.67157 13.6716 7 14.5 7C15.3284 7 16 7.67157 16 8.5Z" fill="white"/>
</svg>
