<svg width="24" height="24" viewBox="0 0 24 24" fill="none" xmlns="http://www.w3.org/2000/svg">
<path fill-rule="evenodd" clip-rule="evenodd" d="M7.1875 4.75C6.54103 4.75 5.92105 5.00681 5.46393 5.46393C5.00681 5.92105 4.75 6.54103 4.75 7.1875V19.1893L7.71967 16.2197C7.86032 16.079 8.05109 16 8.25 16H17.8125C18.459 16 19.079 15.7432 19.5361 15.2861C19.9932 14.829 20.25 14.209 20.25 13.5625V7.1875C20.25 6.54103 19.9932 5.92105 19.5361 5.46393C19.079 5.00681 18.459 4.75 17.8125 4.75H7.1875ZM4.40327 4.40327C5.14169 3.66484 6.14321 3.25 7.1875 3.25H17.8125C18.8568 3.25 19.8583 3.66484 20.5967 4.40327C21.3352 5.14169 21.75 6.14321 21.75 7.1875V13.5625C21.75 14.6068 21.3352 15.6083 20.5967 16.3467C19.8583 17.0852 18.8568 17.5 17.8125 17.5H8.56066L4.53033 21.5303C4.31583 21.7448 3.99324 21.809 3.71299 21.6929C3.43273 21.5768 3.25 21.3033 3.25 21V7.1875C3.25 6.14321 3.66484 5.14169 4.40327 4.40327Z" fill="white"/>
<path fill-rule="evenodd" clip-rule="evenodd" d="M7.75 8.5C7.75 8.08579 8.08579 7.75 8.5 7.75H16.5C16.9142 7.75 17.25 8.08579 17.25 8.5C17.25 8.91421 16.9142 9.25 16.5 9.25H8.5C8.08579 9.25 7.75 8.91421 7.75 8.5Z" fill="white"/>
<path fill-rule="evenodd" clip-rule="evenodd" d="M7.75 12.5C7.75 12.0858 8.08579 11.75 8.5 11.75H14.5C14.9142 11.75 15.25 12.0858 15.25 12.5C15.25 12.9142 14.9142 13.25 14.5 13.25H8.5C8.08579 13.25 7.75 12.9142 7.75 12.5Z" fill="white"/>
</svg>
