<svg width="20" height="20" viewBox="0 0 20 20" fill="none" xmlns="http://www.w3.org/2000/svg">
<path fill-rule="evenodd" clip-rule="evenodd" d="M7.89139 2.89139C8.0086 2.77418 8.16757 2.70833 8.33333 2.70833H11.6667C11.8324 2.70833 11.9914 2.77418 12.1086 2.89139L14.4255 5.20833H17.5C17.8452 5.20833 18.125 5.48816 18.125 5.83333V15C18.125 15.3452 17.8452 15.625 17.5 15.625H2.5C2.15482 15.625 1.875 15.3452 1.875 15V5.83333C1.875 5.48816 2.15482 5.20833 2.5 5.20833H5.57445L7.89139 2.89139ZM8.59222 3.95833L6.27528 6.27528C6.15806 6.39249 5.99909 6.45833 5.83333 6.45833H3.125V14.375H16.875V6.45833H14.1667C14.0009 6.45833 13.8419 6.39249 13.7247 6.27528L11.4078 3.95833H8.59222Z" fill="white"/>
<path fill-rule="evenodd" clip-rule="evenodd" d="M10 11.6667C10.9205 11.6667 11.6667 10.9205 11.6667 10C11.6667 9.07953 10.9205 8.33333 10 8.33333C9.07953 8.33333 8.33333 9.07953 8.33333 10C8.33333 10.9205 9.07953 11.6667 10 11.6667ZM10 12.9167C11.6108 12.9167 12.9167 11.6108 12.9167 10C12.9167 8.38917 11.6108 7.08333 10 7.08333C8.38917 7.08333 7.08333 8.38917 7.08333 10C7.08333 11.6108 8.38917 12.9167 10 12.9167Z" fill="white"/>
</svg>
