<svg width="24" height="24" viewBox="0 0 24 24" fill="none" xmlns="http://www.w3.org/2000/svg">
<path fill-rule="evenodd" clip-rule="evenodd" d="M14.0597 3.2263C14.6848 2.60119 15.5326 2.25 16.4167 2.25C17.3007 2.25 18.1486 2.60119 18.7737 3.2263C19.3988 3.85142 19.75 4.69926 19.75 5.5833C19.75 6.46735 19.3988 7.31519 18.7737 7.94031L9.18367 17.5303C9.04302 17.671 8.85226 17.75 8.65334 17.75H5C4.58579 17.75 4.25 17.4142 4.25 17V13.3467C4.25 13.1477 4.32902 12.957 4.46967 12.8163L14.0597 3.2263ZM16.4167 3.75C15.9305 3.75 15.4642 3.94315 15.1204 4.28696L5.75 13.6573V16.25H8.34268L17.713 6.87964C18.0568 6.53583 18.25 6.06953 18.25 5.5833C18.25 5.09708 18.0568 4.63077 17.713 4.28696C17.3692 3.94315 16.9029 3.75 16.4167 3.75Z" fill="white"/>
<path fill-rule="evenodd" clip-rule="evenodd" d="M13.803 4.80309C14.0959 4.5102 14.5708 4.5102 14.8637 4.80309L17.197 7.13642C17.4899 7.42932 17.4899 7.90419 17.197 8.19708C16.9041 8.48998 16.4292 8.48998 16.1363 8.19708L13.803 5.86375C13.5101 5.57086 13.5101 5.09598 13.803 4.80309Z" fill="white"/>
<path fill-rule="evenodd" clip-rule="evenodd" d="M3.25 21C3.25 20.5858 3.58579 20.25 4 20.25H20C20.4142 20.25 20.75 20.5858 20.75 21C20.75 21.4142 20.4142 21.75 20 21.75H4C3.58579 21.75 3.25 21.4142 3.25 21Z" fill="white"/>
</svg>
