<svg width="16" height="16" viewBox="0 0 16 16" fill="none" xmlns="http://www.w3.org/2000/svg">
    <path fill-rule="evenodd" clip-rule="evenodd" d="M8 2.933 6.786 5.402a1.667 1.667 0 0 1-1.255.913l-2.72.397 1.972 1.93c.391.383.57.933.477 1.472l-.465 2.722 2.427-1.281a1.667 1.667 0 0 1 1.556 0l2.427 1.28-.465-2.72c-.092-.54.086-1.09.477-1.473l1.973-1.93-2.721-.397a1.667 1.667 0 0 1-1.255-.913L8 2.932zm.598-1.05a.667.667 0 0 0-1.196 0L5.889 4.96a.667.667 0 0 1-.502.366l-3.388.494a.667.667 0 0 0-.37 1.136l2.455 2.401a.667.667 0 0 1 .19.589l-.578 3.388c-.094.545.479.96.968.702l3.025-1.597a.667.667 0 0 1 .622 0l3.025 1.597a.667.667 0 0 0 .969-.702l-.58-3.388a.666.666 0 0 1 .191-.589l2.455-2.4A.667.667 0 0 0 14 5.82l-3.388-.494a.667.667 0 0 1-.502-.366L8.598 1.883z" fill="#fff"/>
    <path d="M8 1.51v10.852a.667.667 0 0 0-.311.077l-3.025 1.597a.667.667 0 0 1-.968-.702l.578-3.388a.667.667 0 0 0-.19-.589l-2.455-2.4A.667.667 0 0 1 2 5.82l3.388-.494a.667.667 0 0 0 .502-.366l1.513-3.077A.659.659 0 0 1 8 1.511z" fill="#fff"/>
</svg>
