<svg width="32" height="32" viewBox="0 0 32 32" fill="none" xmlns="http://www.w3.org/2000/svg">
<path fill-rule="evenodd" clip-rule="evenodd" d="M12.2569 4.63553C11.966 4.60391 11.664 4.69958 11.441 4.92253L7.29289 9.07068C6.90237 9.4612 6.90237 10.0944 7.29289 10.4849C7.68342 10.8754 8.31658 10.8754 8.70711 10.4849L11.1484 8.04356L11.1484 26.3662V26.3705C11.1484 26.9227 11.5962 27.3705 12.1484 27.3705C12.7007 27.3705 13.1484 26.9227 13.1484 26.3705V26.3667C13.1505 22.3388 16.4164 19.0742 20.4447 19.0742H24.2524L21.8114 21.5152C21.4209 21.9057 21.4209 22.5389 21.8114 22.9294C22.2019 23.3199 22.8351 23.3199 23.2256 22.9294L27.3594 18.7956C27.549 18.6136 27.667 18.3577 27.667 18.0742C27.667 17.7908 27.5491 17.5349 27.3597 17.353L23.2256 13.2189C22.8351 12.8284 22.2019 12.8284 21.8114 13.2189C21.4209 13.6094 21.4209 14.2426 21.8114 14.6331L24.2525 17.0742H20.4447C17.4865 17.0742 14.851 18.4559 13.1484 20.6092V8.04414L15.5892 10.4849C15.9797 10.8754 16.6129 10.8754 17.0034 10.4849C17.3939 10.0944 17.3939 9.4612 17.0034 9.07068L12.8676 4.93489C12.8137 4.87908 12.7533 4.82953 12.6877 4.78743C12.6618 4.77083 12.6354 4.75553 12.6084 4.74155C12.5011 4.68588 12.3825 4.64907 12.2569 4.63553Z" fill="white"/>
</svg>
