<svg width="20" height="20" viewBox="0 0 20 20" fill="none" xmlns="http://www.w3.org/2000/svg">
<path fill-rule="evenodd" clip-rule="evenodd" d="M10 17.0833C13.912 17.0833 17.0834 13.912 17.0834 9.99999C17.0834 6.08797 13.912 2.91666 10 2.91666C6.088 2.91666 2.91669 6.08797 2.91669 9.99999C2.91669 13.912 6.088 17.0833 10 17.0833ZM10 18.3333C14.6024 18.3333 18.3334 14.6024 18.3334 9.99999C18.3334 5.39762 14.6024 1.66666 10 1.66666C5.39765 1.66666 1.66669 5.39762 1.66669 9.99999C1.66669 14.6024 5.39765 18.3333 10 18.3333Z" fill="white"/>
<path fill-rule="evenodd" clip-rule="evenodd" d="M9.282 6.97968C9.01409 7.05301 8.83356 7.14452 8.75404 7.21268C8.51436 7.41812 8.40278 7.67421 8.40278 7.91666C8.40278 8.26183 8.12296 8.54166 7.77778 8.54166C7.4326 8.54166 7.15278 8.26183 7.15278 7.91666C7.15278 7.27505 7.45093 6.68329 7.94055 6.26361C8.22569 6.01921 8.61366 5.86664 8.95201 5.77403C9.30292 5.67799 9.68052 5.62499 10 5.62499C10.3195 5.62499 10.6971 5.67799 11.048 5.77403C11.3863 5.86664 11.7743 6.01921 12.0595 6.26361C12.5445 6.67939 12.8417 7.26405 12.8471 7.89877C12.8712 8.38878 12.7373 8.87376 12.465 9.28222C12.196 9.68569 11.8062 9.99319 11.3518 10.1609C11.0904 10.2868 10.9092 10.4285 10.7954 10.5833C10.6863 10.7317 10.6119 10.9282 10.6245 11.2234C10.6391 11.5683 10.3714 11.8598 10.0266 11.8744C9.68172 11.8891 9.39025 11.6214 9.37558 11.2766C9.35175 10.7163 9.4995 10.2357 9.78829 9.84287C10.0689 9.46118 10.4537 9.20129 10.8458 9.01743C10.8647 9.00856 10.8841 9.00065 10.9038 8.99371C11.1168 8.91881 11.2997 8.77672 11.425 8.58884C11.5502 8.40097 11.611 8.17748 11.5982 7.95205C11.5976 7.94026 11.5972 7.92846 11.5972 7.91666C11.5972 7.67421 11.4856 7.41812 11.246 7.21268C11.1664 7.14452 10.9859 7.05301 10.718 6.97968C10.4626 6.90979 10.1962 6.87499 10 6.87499C9.80378 6.87499 9.53736 6.90979 9.282 6.97968Z" fill="white"/>
<path d="M10.8334 13.8889C10.8334 14.3491 10.4603 14.7222 10 14.7222C9.53978 14.7222 9.16669 14.3491 9.16669 13.8889C9.16669 13.4286 9.53978 13.0555 10 13.0555C10.4603 13.0555 10.8334 13.4286 10.8334 13.8889Z" fill="white"/>
</svg>
