<svg width="20" height="20" viewBox="0 0 20 20" fill="none" xmlns="http://www.w3.org/2000/svg">
<path fill-rule="evenodd" clip-rule="evenodd" d="M7.25622 18.7C6.99311 18.5889 6.83875 18.3137 6.88122 18.0312L8.01872 10.625H4.99997C4.806 10.6302 4.62061 10.545 4.49821 10.3945C4.37581 10.2439 4.33027 10.0451 4.37497 9.85625L6.24997 1.73125C6.31798 1.44302 6.57893 1.24208 6.87497 1.25H13.125C13.3141 1.24935 13.4933 1.33438 13.6125 1.48125C13.7333 1.62982 13.7794 1.82561 13.7375 2.0125L12.6562 6.875H15.625C15.864 6.87452 16.0823 7.01038 16.1875 7.225C16.2786 7.43053 16.2524 7.6692 16.1187 7.85L7.99372 18.475C7.88235 18.6401 7.69897 18.7422 7.49997 18.75C7.41634 18.7484 7.33371 18.7315 7.25622 18.7Z" fill="white"/>
</svg>
