<svg width="32" height="32" viewBox="0 0 32 32" fill="none" xmlns="http://www.w3.org/2000/svg">
<path fill-rule="evenodd" clip-rule="evenodd" d="M27.0196 8.04167C27.4108 8.43152 27.4119 9.06468 27.022 9.45588L25.6102 10.8725C25.2204 11.2637 24.5872 11.2648 24.196 10.875C23.8048 10.4852 23.8037 9.85199 24.1936 9.46079L25.6053 8.04412C25.9952 7.65292 26.6284 7.65182 27.0196 8.04167Z" fill="white"/>
<path fill-rule="evenodd" clip-rule="evenodd" d="M24.1897 6.63141C24.5774 6.23804 25.2105 6.23342 25.6039 6.62108L29.8392 10.795C30.0299 10.9829 30.1372 11.2395 30.1372 11.5072V21.2464C30.1372 22.0698 29.8052 22.8566 29.2189 23.4343C28.6332 24.0116 27.8418 24.3333 27.0196 24.3333C26.1974 24.3333 25.406 24.0116 24.8203 23.4343C24.234 22.8566 23.9019 22.0698 23.9019 21.2464V17.0725C23.9019 16.6044 23.7134 16.1526 23.373 15.8171C23.0321 15.4812 22.5667 15.2899 22.0784 15.2899H20.6666C20.1144 15.2899 19.6666 14.8421 19.6666 14.2899C19.6666 13.7376 20.1144 13.2899 20.6666 13.2899H22.0784C23.0878 13.2899 24.0587 13.6849 24.7769 14.3926C25.4955 15.1008 25.9019 16.0645 25.9019 17.0725V21.2464C25.9019 21.5299 26.0161 21.8048 26.2241 22.0098C26.4326 22.2153 26.7185 22.3333 27.0196 22.3333C27.3207 22.3333 27.6065 22.2153 27.8151 22.0098C28.0231 21.8048 28.1372 21.5299 28.1372 21.2464V11.9257L24.2 8.04558C23.8066 7.65792 23.802 7.02477 24.1897 6.63141Z" fill="white"/>
<path fill-rule="evenodd" clip-rule="evenodd" d="M4.33331 6C4.33331 4.34314 5.67646 3 7.33331 3H18C19.6568 3 21 4.34315 21 6V29H4.33331V6ZM7.33331 5C6.78103 5 6.33331 5.44772 6.33331 6V27H19V6C19 5.44772 18.5523 5 18 5H7.33331Z" fill="white"/>
<path fill-rule="evenodd" clip-rule="evenodd" d="M13.5817 13.7843C14.069 14.0442 14.2533 14.6499 13.9934 15.1373L13 17H14C14.3512 17 14.6767 17.1843 14.8575 17.4855C15.0382 17.7867 15.0476 18.1607 14.8823 18.4706L13.1046 21.8039C12.8447 22.2912 12.2389 22.4756 11.7516 22.2157C11.2643 21.9558 11.08 21.3501 11.3398 20.8627L12.3333 19H11.3333C10.9821 19 10.6565 18.8157 10.4758 18.5145C10.2951 18.2133 10.2857 17.8393 10.451 17.5294L12.2287 14.1961C12.4886 13.7088 13.0944 13.5244 13.5817 13.7843Z" fill="white"/>
<path fill-rule="evenodd" clip-rule="evenodd" d="M2.33331 28C2.33331 27.4477 2.78103 27 3.33331 27H22C22.5523 27 23 27.4477 23 28C23 28.5523 22.5523 29 22 29H3.33331C2.78103 29 2.33331 28.5523 2.33331 28Z" fill="white"/>
<path fill-rule="evenodd" clip-rule="evenodd" d="M5.66665 10.6667C5.66665 10.1144 6.11436 9.66667 6.66665 9.66667H20C20.5523 9.66667 21 10.1144 21 10.6667C21 11.219 20.5523 11.6667 20 11.6667H6.66665C6.11436 11.6667 5.66665 11.219 5.66665 10.6667Z" fill="white"/>
</svg>
