<svg width="32" height="32" viewBox="0 0 32 32" fill="none" xmlns="http://www.w3.org/2000/svg">
<path d="M16.4901 3.38672C17.1275 3.38672 18.0268 3.68458 18.0268 4.34906V28.783H5.06025V4.34553C5.06025 3.84537 5.19072 3.3832 6.13147 3.3832H16.4901V3.38672ZM16.4901 1.57755H6.13323C5.75628 1.54371 5.3767 1.59124 5.01969 1.71686C4.66268 1.84248 4.33667 2.04337 4.06397 2.30581C3.79126 2.56824 3.5781 2.88624 3.43887 3.23816C3.29964 3.59009 3.23701 3.96756 3.25637 4.34553V30.5851H19.8343V4.34553C19.7995 3.94321 19.6849 3.55177 19.4975 3.19408C19.31 2.8364 19.0538 2.51974 18.7428 2.26216C18.4318 2.00459 18.072 1.81146 17.6856 1.69393C17.2993 1.57641 16.8936 1.53679 16.4919 1.57755H16.4901Z" fill="white"/>
<path d="M25.2734 30.1393C25.1398 30.1393 25.0459 30.1391 25.0116 30.1283H24.9878C24.5509 30.1394 24.1164 30.0607 23.7111 29.8973C23.3058 29.734 22.9381 29.4892 22.6311 29.1783C21.9716 28.4249 21.6199 27.451 21.6454 26.45V18.3608C21.6137 17.8856 21.4083 17.4392 21.0679 17.1062C20.7942 16.9107 20.47 16.7974 20.1342 16.7795C19.7984 16.7616 19.4643 16.8395 19.1714 17.0048L18.3145 15.416C18.9311 15.0607 19.6421 14.9036 20.3511 14.9659C21.0601 15.0283 21.7323 15.3068 22.2775 15.7643C22.635 16.0981 22.9225 16.4996 23.1239 16.9453C23.3254 17.3909 23.4366 17.8719 23.451 18.3608V26.4862C23.4372 27.0102 23.61 27.5223 23.9386 27.9308C24.0913 28.0711 24.2715 28.1787 24.4676 28.2464C24.6636 28.3141 24.8709 28.3406 25.0777 28.3244C25.6055 28.3752 26.134 28.2304 26.5624 27.918C26.6982 27.7743 26.8018 27.6035 26.8666 27.4168C26.9313 27.23 26.9557 27.0317 26.938 26.8349V8.53993L22.6787 3.73532L24.0294 2.53625L28.7436 7.85576V26.8349C28.7641 27.2829 28.6881 27.7299 28.5215 28.1463C28.3548 28.5627 28.1012 28.9387 27.7773 29.2489C27.0773 29.838 26.1883 30.1545 25.2734 30.1393Z" fill="white"/>
<path d="M26.13 13.0126C25.6272 13.0154 25.1302 12.9121 24.67 12.7093C23.6999 12.2425 22.9536 11.4101 22.5963 10.3945C21.4931 7.79256 25.1248 5.1708 25.5437 4.8819L26.5744 6.36221C25.6355 7.01946 23.8405 8.70969 24.2847 9.76057C24.4845 10.3222 24.8887 10.7876 25.4168 11.0641C25.7558 11.1783 26.1149 11.2213 26.4713 11.1902C26.8276 11.1591 27.1737 11.055 27.4878 10.8838L28.2108 12.5343C27.558 12.836 26.8491 12.9987 26.13 13.0126Z" fill="white"/>
</svg>
