<svg width="24" height="24" viewBox="0 0 24 24" fill="none" xmlns="http://www.w3.org/2000/svg">
<path fill-rule="evenodd" clip-rule="evenodd" d="M4.5 4.5H14.5V8H16V4.5C16 3.67157 15.3284 3 14.5 3H4.5C3.67157 3 3 3.67157 3 4.5V14.5C3 15.3284 3.67157 16 4.5 16H8V14.5H4.5V4.5Z" fill="white"/>
<path fill-rule="evenodd" clip-rule="evenodd" d="M19.5 9.5H9.5V19.5H19.5V9.5ZM9.5 8C8.67157 8 8 8.67157 8 9.5V19.5C8 20.3284 8.67157 21 9.5 21H19.5C20.3284 21 21 20.3284 21 19.5V9.5C21 8.67157 20.3284 8 19.5 8H9.5Z" fill="white"/>
</svg>
