<svg width="20" height="20" viewBox="0 0 20 20" fill="none" xmlns="http://www.w3.org/2000/svg">
<path fill-rule="evenodd" clip-rule="evenodd" d="M1.25 10C1.25 5.125 5.125 1.25 10 1.25C14.875 1.25 18.75 5.125 18.75 10C18.75 14.875 14.875 18.75 10 18.75C5.125 18.75 1.25 14.875 1.25 10ZM2.5 10C2.5 14.125 5.875 17.5 10 17.5C14.125 17.5 17.5 14.125 17.5 10C17.5 5.875 14.125 2.5 10 2.5C5.875 2.5 2.5 5.875 2.5 10Z" fill="white"/>
<path d="M8.97285 8H10.7979V15H8.97285V8ZM9.89785 6.875C9.58118 6.875 9.31868 6.78333 9.11035 6.6C8.90202 6.40833 8.79785 6.16667 8.79785 5.875C8.79785 5.575 8.90202 5.33333 9.11035 5.15C9.31868 4.96667 9.58118 4.875 9.89785 4.875C10.2145 4.875 10.4729 4.96667 10.6729 5.15C10.8812 5.33333 10.9854 5.575 10.9854 5.875C10.9854 6.16667 10.8812 6.40833 10.6729 6.6C10.4729 6.78333 10.2145 6.875 9.89785 6.875Z" fill="white"/>
</svg>
