<svg width="24" height="24" viewBox="0 0 24 24" fill="none" xmlns="http://www.w3.org/2000/svg">
<path d="M20.1376 2.79456C20.4208 2.79456 20.6925 2.90701 20.8928 3.10727C21.093 3.30753 21.2055 3.5792 21.2055 3.86241V20.1376C21.2051 20.4207 21.0923 20.6919 20.8921 20.8921C20.6919 21.0923 20.4207 21.2051 20.1376 21.2055H3.86241C3.57941 21.2048 3.30802 21.0919 3.10791 20.8918C2.90781 20.6917 2.79525 20.4206 2.79456 20.1376V3.86241C2.79491 3.57931 2.90773 3.30778 3.10791 3.10759C3.3081 2.90741 3.57931 2.79491 3.86241 2.79456H20.1376ZM20.1376 1.47949H3.86241C3.23042 1.47949 2.62436 1.73028 2.17748 2.17716C1.7306 2.62404 1.47949 3.23042 1.47949 3.86241V20.1376C1.47949 20.7696 1.7306 21.3757 2.17748 21.8226C2.62436 22.2694 3.23042 22.5205 3.86241 22.5205H20.1376C20.7696 22.5205 21.3757 22.2694 21.8226 21.8226C22.2694 21.3757 22.5205 20.7696 22.5205 20.1376V3.86241C22.5205 3.23042 22.2694 2.62404 21.8226 2.17716C21.3757 1.73028 20.7696 1.47949 20.1376 1.47949Z" fill="white"/>
<path d="M13.499 6.89868H5.59277V8.21375H13.499V6.89868Z" fill="white"/>
<path d="M13.499 15.7859H5.59277V17.101H13.499V15.7859Z" fill="white"/>
<path d="M16.8274 11.2397H5.59277V12.5548H16.8274V11.2397Z" fill="white"/>
</svg>
