<svg width="24" height="24" viewBox="0 0 24 24" fill="none" xmlns="http://www.w3.org/2000/svg">
<path fill-rule="evenodd" clip-rule="evenodd" d="M12 20.5C16.6944 20.5 20.5 16.6944 20.5 12C20.5 7.30558 16.6944 3.5 12 3.5C7.30558 3.5 3.5 7.30558 3.5 12C3.5 16.6944 7.30558 20.5 12 20.5ZM12 22C17.5228 22 22 17.5228 22 12C22 6.47715 17.5228 2 12 2C6.47715 2 2 6.47715 2 12C2 17.5228 6.47715 22 12 22Z" fill="white"/>
<path fill-rule="evenodd" clip-rule="evenodd" d="M16.5472 8.98704C16.8305 9.28923 16.8151 9.76385 16.513 10.0472L11.1796 15.0472C10.8911 15.3176 10.4422 15.3176 10.1537 15.0472L7.48704 12.5472C7.18486 12.2639 7.16955 11.7892 7.45285 11.487C7.73614 11.1849 8.21077 11.1695 8.51296 11.4528L10.6667 13.472L15.487 8.95285C15.7892 8.66955 16.2639 8.68486 16.5472 8.98704Z" fill="white"/>
</svg>
