<svg width="32" height="24" viewBox="0 0 32 24" fill="none" xmlns="http://www.w3.org/2000/svg">
    <path fill-rule="evenodd" clip-rule="evenodd" d="m26.404 23.283.879-.879-4.267-4.273a10.437 10.437 0 0 0-.613-14.444 10.403 10.403 0 0 0-14.57.185 10.436 10.436 0 0 0-.117 14.594 10.405 10.405 0 0 0 14.424.546l4.264 4.27zM5.05 12.239a10.248 10.248 0 0 1 2.924-8.226 10.236 10.236 0 0 0-2.924 8.226zm16.624 5.782zm-11.52.849a9.13 9.13 0 0 0 5.077 1.543 9.148 9.148 0 0 0 6.458-2.686 9.177 9.177 0 0 0 2.681-6.469c0-1.81-.536-3.58-1.54-5.085A9.125 9.125 0 0 0 8.77 4.786a9.158 9.158 0 0 0-1.98 9.976 9.15 9.15 0 0 0 3.365 4.108zm4.843-3.37a.982.982 0 0 0-.768.347 1.025 1.025 0 0 0-.229.664.987.987 0 0 0 .233.65 1.014 1.014 0 0 0 .755.339 1.029 1.029 0 0 0 .76-.329 1.032 1.032 0 0 0 0-1.348.977.977 0 0 0-.75-.323zm.204-10.2c.517.026 1.26.208 1.878.665.628.464 1.12 1.207 1.121 2.324 0 1.284-.838 2.04-1.515 2.651l-.017.016c-.141.127-.27.245-.393.366-.49.477-.768 1.253-.74 2.14l.007.2-1.333.045-.006-.2c-.041-1.241.37-2.402 1.146-3.163.143-.14.292-.274.433-.402.634-.572 1.084-.992 1.084-1.653 0-.33-.067-.597-.195-.815a1.448 1.448 0 0 0-.598-.544 2.626 2.626 0 0 0-.93-.273c-.67-.002-1.155.179-1.477.517-.27.285-.405.656-.472.969-.065.304-.06.537-.06.548v.192l-1.327.057-.006-.202c-.002-.071-.05-1.5.905-2.506.606-.639 1.447-.943 2.47-.932h.024zm-2.267 3.39zm2.24-3.19c-.858-.01-1.564.212-2.102.662.538-.45 1.244-.672 2.103-.662h.016c.974.048 2.808.69 2.809 2.79v.01-.01c0-2.1-1.835-2.742-2.81-2.79h-.015zm.161 7.968zm.588-3.384.043-.039-.043.04zm-.434.403zM12.851 6.37z" fill="#fff"/>
</svg>
