<svg width="24" height="24" viewBox="0 0 24 24" fill="none" xmlns="http://www.w3.org/2000/svg">
<path fill-rule="evenodd" clip-rule="evenodd" d="M4.25 12C4.25 11.5858 4.58579 11.25 5 11.25L20 11.25C20.4142 11.25 20.75 11.5858 20.75 12C20.75 12.4142 20.4142 12.75 20 12.75L5 12.75C4.58579 12.75 4.25 12.4142 4.25 12Z" fill="white"/>
<path fill-rule="evenodd" clip-rule="evenodd" d="M10.5303 17.5303C10.2374 17.8232 9.76256 17.8232 9.46967 17.5303L4.46967 12.5303C4.17678 12.2374 4.17678 11.7626 4.46967 11.4697L9.46967 6.46967C9.76256 6.17678 10.2374 6.17678 10.5303 6.46967C10.8232 6.76256 10.8232 7.23744 10.5303 7.53033L6.06066 12L10.5303 16.4697C10.8232 16.7626 10.8232 17.2374 10.5303 17.5303Z" fill="white"/>
</svg>
