<svg width="32" height="32" viewBox="0 0 32 32" fill="none" xmlns="http://www.w3.org/2000/svg">
<path fill-rule="evenodd" clip-rule="evenodd" d="M14.2838 8.50556L17.0515 5.7378C19.3947 3.39465 23.1937 3.39465 25.5368 5.7378C27.88 8.08094 27.88 11.8799 25.5368 14.2231L22.7691 16.9908L24.1833 18.4051L26.951 15.6373C30.0752 12.5131 30.0752 7.44778 26.951 4.32358C23.8268 1.19939 18.7615 1.19939 15.6373 4.32358L12.8696 7.09134L14.2838 8.50556ZM8.58354 14.2058L7.16932 12.7916L4.32361 15.6373C1.19942 18.7615 1.19942 23.8268 4.32361 26.951C7.44781 30.0752 12.5131 30.0752 15.6373 26.951L18.483 24.1053L17.0688 22.6911L14.2231 25.5368C11.88 27.8799 8.08097 27.8799 5.73783 25.5368C3.39468 23.1936 3.39468 19.3947 5.73783 17.0515L8.58354 14.2058Z" fill="white"/>
<path fill-rule="evenodd" clip-rule="evenodd" d="M24.1895 25.5228L5.33335 6.66665L6.74756 5.25244L25.6037 24.1086L24.1895 25.5228Z" fill="white"/>
</svg>
