<svg width="16" height="16" viewBox="0 0 16 16" fill="none" xmlns="http://www.w3.org/2000/svg">
<path d="M3.73452 1.80286C3.88029 1.80556 4.02307 1.84272 4.15161 1.91152C4.28015 1.98031 4.39053 2.0787 4.47363 2.19849L5.70738 4.08285C5.70738 4.08285 6.2924 5.03482 5.70738 5.59831L5.49139 5.90149C5.35956 6.06262 5.28543 6.26333 5.28153 6.47149C5.27762 6.67964 5.34379 6.88318 5.46948 7.04915C6.3403 8.3426 7.44104 9.46532 8.71684 10.3618C8.8857 10.4599 9.07713 10.5128 9.27238 10.5154C9.45265 10.5162 9.62897 10.4626 9.77841 10.3618L10.1679 10.0586C10.3869 9.86956 10.6617 9.75716 10.9504 9.73834C11.1296 9.73804 11.3037 9.79738 11.4455 9.90702C12.1807 10.3076 12.8703 10.7868 13.502 11.3364C13.502 11.3364 14.1524 11.9645 13.8052 12.5701C13.5136 13.0136 13.1878 13.4335 12.8308 13.8262C12.7063 13.9553 12.5555 14.0557 12.3883 14.1207C12.2211 14.1856 12.0415 14.2133 11.8626 14.2021C11.4523 14.1892 11.0507 14.0831 10.6875 13.8917C7.15654 12.2859 4.26695 9.54099 2.48193 6.09711C2.09732 5.44203 1.83311 4.72333 1.70207 3.97507C1.69624 3.60506 1.78589 3.23989 1.96232 2.9146C2.27391 2.60788 2.61451 2.33231 2.97964 2.0918C3.19477 1.91909 3.45902 1.81829 3.73452 1.80374V1.80286ZM3.73452 0.906465C3.28073 0.917399 2.84129 1.06939 2.47799 1.34152C2.06699 1.61231 1.68387 1.92324 1.33405 2.26946L1.29287 2.30889L1.25782 2.3538C0.945108 2.83563 0.786053 3.40086 0.801294 3.97507V3.99851V4.02085C0.930777 4.91319 1.23574 5.77104 1.69857 6.54487C3.5718 10.1596 6.60982 13.0366 10.3212 14.7101C10.7983 14.9513 11.3229 15.0831 11.8573 15.0959C12.1598 15.1068 12.4611 15.0532 12.7414 14.9388C13.0217 14.8245 13.2745 14.6521 13.4832 14.4328C13.8746 14.0051 14.2311 13.5465 14.5491 13.0617L14.5653 13.0376L14.5789 13.0124C14.7678 12.6329 14.827 12.2017 14.7476 11.7852C14.6682 11.3688 14.4544 10.9898 14.139 10.7064C13.4645 10.1001 12.7205 9.5763 11.9221 9.146C11.6357 8.94566 11.2942 8.83821 10.9447 8.83822C10.4475 8.85414 9.97072 9.03894 9.59265 9.36221L9.27063 9.6126H9.26537C9.23405 9.61118 9.20333 9.60304 9.17555 9.5885C8.01424 8.7613 7.011 7.73169 6.21429 6.54925C6.19893 6.52848 6.18679 6.50555 6.17836 6.48113L6.24408 6.42724L6.21779 6.4211L6.39742 6.17422C6.68331 5.81158 6.84503 5.36678 6.85877 4.9052C6.8725 4.44362 6.73748 3.98977 6.47366 3.61077L5.22457 1.70407L5.2031 1.67077L5.17901 1.64032C5.01131 1.41461 4.79369 1.23067 4.54329 1.10274C4.29289 0.974819 4.01656 0.906343 3.7354 0.90274L3.73452 0.906465Z" fill="white"/>
</svg>
