<svg width="24" height="24" viewBox="0 0 24 24" fill="none" xmlns="http://www.w3.org/2000/svg">
<path fill-rule="evenodd" clip-rule="evenodd" d="M5.25 12C5.25 9.92893 6.92893 8.25 9 8.25H19C19.4142 8.25 19.75 8.58579 19.75 9C19.75 9.41421 19.4142 9.75 19 9.75H9C7.75736 9.75 6.75 10.7574 6.75 12V19C6.75 19.4142 6.41421 19.75 6 19.75C5.58579 19.75 5.25 19.4142 5.25 19V12Z" fill="white"/>
<path fill-rule="evenodd" clip-rule="evenodd" d="M19.5303 8.46967C19.8232 8.76256 19.8232 9.23744 19.5303 9.53033L15.5303 13.5303C15.2374 13.8232 14.7626 13.8232 14.4697 13.5303C14.1768 13.2374 14.1768 12.7626 14.4697 12.4697L17.9393 9L14.4697 5.53033C14.1768 5.23744 14.1768 4.76256 14.4697 4.46967C14.7626 4.17678 15.2374 4.17678 15.5303 4.46967L19.5303 8.46967Z" fill="white"/>
</svg>
