<svg width="24" height="24" viewBox="0 0 24 24" fill="none" xmlns="http://www.w3.org/2000/svg">
<path fill-rule="evenodd" clip-rule="evenodd" d="M12 20.5C16.6944 20.5 20.5 16.6944 20.5 12C20.5 7.30558 16.6944 3.5 12 3.5C7.30558 3.5 3.5 7.30558 3.5 12C3.5 16.6944 7.30558 20.5 12 20.5ZM12 22C17.5228 22 22 17.5228 22 12C22 6.47715 17.5228 2 12 2C6.47715 2 2 6.47715 2 12C2 17.5228 6.47715 22 12 22Z" fill="white"/>
<path fill-rule="evenodd" clip-rule="evenodd" d="M11.4697 7.46967C11.7626 7.17678 12.2374 7.17678 12.5303 7.46967L16.5303 11.4697C16.8232 11.7626 16.8232 12.2374 16.5303 12.5303L12.5303 16.5303C12.2374 16.8232 11.7626 16.8232 11.4697 16.5303C11.1768 16.2374 11.1768 15.7626 11.4697 15.4697L14.9393 12L11.4697 8.53033C11.1768 8.23744 11.1768 7.76256 11.4697 7.46967Z" fill="white"/>
<path fill-rule="evenodd" clip-rule="evenodd" d="M6.25 12C6.25 11.5858 6.58579 11.25 7 11.25H16C16.4142 11.25 16.75 11.5858 16.75 12C16.75 12.4142 16.4142 12.75 16 12.75H7C6.58579 12.75 6.25 12.4142 6.25 12Z" fill="white"/>
</svg>
