<svg width="24" height="24" viewBox="0 0 24 24" fill="none" xmlns="http://www.w3.org/2000/svg">
<path fill-rule="evenodd" clip-rule="evenodd" d="M11.2643 20.9702V18.6365H12.7643V20.9678C17.1329 20.6005 20.6136 17.1126 20.9699 12.7408H18.6531V11.2408H20.9684C20.6032 6.86779 17.1113 3.38329 12.735 3.02958V5.37248H11.235V3.03206C6.86299 3.40007 3.38046 6.89338 3.02925 11.2701H5.33954L5.33954 12.7701H3.03259C3.40277 17.1377 6.89204 20.6164 11.2643 20.9702ZM1.52791 12.7701C1.90466 17.9666 6.06317 22.1145 11.2643 22.4745V22.4998H12H12.7643V22.4724C17.9618 22.0986 22.1116 17.9415 22.4742 12.7408H22.4998V12.0486L22.4999 11.9999L22.4998 11.9512V11.2408H22.4729C22.1013 6.0389 17.9402 1.88524 12.735 1.52532V1.5H12H11.235V1.52744C6.03409 1.90194 1.88243 6.06452 1.52506 11.2701H1.5V12.7701H1.52791ZM9.30131 9.6701C9.37665 9.50199 9.51122 9.36749 9.67937 9.29225L16.9762 6.02691C17.2599 5.89992 17.5926 5.96117 17.8126 6.18089C18.0325 6.4006 18.0941 6.73324 17.9674 7.01714L14.7083 14.3202C14.633 14.4889 14.4981 14.6239 14.3294 14.6992L7.01769 17.9671C6.73373 18.094 6.40089 18.0324 6.18107 17.8124C5.96125 17.5923 5.90006 17.2594 6.02726 16.9756L9.30131 9.6701ZM8.19977 15.7958L13.4554 13.4469L15.7981 8.19745L10.5532 10.5446L8.19977 15.7958ZM12.8295 11.9999C12.8295 12.458 12.4581 12.8294 12 12.8294C11.542 12.8294 11.1706 12.458 11.1706 11.9999C11.1706 11.5419 11.542 11.1705 12 11.1705C12.4581 11.1705 12.8295 11.5419 12.8295 11.9999Z" fill="white"/>
</svg>
