<svg width="32" height="32" viewBox="0 0 32 32" fill="none" xmlns="http://www.w3.org/2000/svg">
    <path fill-rule="evenodd" clip-rule="evenodd" d="M6.333 16.333h19.334v9a2.333 2.333 0 0 1-2.334 2.334H8.667a2.333 2.333 0 0 1-2.334-2.334v-9zm2 2v7c0 .184.15.334.334.334h14.666c.184 0 .334-.15.334-.334v-7H8.333z" fill="#fff"/>
    <path fill-rule="evenodd" clip-rule="evenodd" d="M3.667 12A2.333 2.333 0 0 1 6 9.667h20A2.333 2.333 0 0 1 28.333 12v4A2.333 2.333 0 0 1 26 18.333H6A2.333 2.333 0 0 1 3.667 16v-4zM6 11.667a.333.333 0 0 0-.333.333v4c0 .184.149.333.333.333h20c.184 0 .333-.149.333-.333v-4a.333.333 0 0 0-.333-.333H6z" fill="#fff"/>
    <path fill-rule="evenodd" clip-rule="evenodd" d="M13.238 7.46c-.767-.794-1.594-1.139-2.365-1.126h-.016c-.514 0-.994.191-1.338.512A1.58 1.58 0 0 0 9 8c0 .419.178.836.52 1.155.343.32.823.512 1.337.512h3.761c-.367-.899-.842-1.648-1.38-2.206zm2.477 4.165a1 1 0 0 1-.286.042h-4.572a3.964 3.964 0 0 1-2.702-1.05A3.58 3.58 0 0 1 7 8a3.58 3.58 0 0 1 1.155-2.616 3.964 3.964 0 0 1 2.694-1.05c1.43-.02 2.762.632 3.828 1.738.507.526.95 1.147 1.323 1.84a8.335 8.335 0 0 1 1.323-1.84c1.066-1.106 2.397-1.759 3.828-1.738a3.963 3.963 0 0 1 2.694 1.05A3.58 3.58 0 0 1 25 8a3.58 3.58 0 0 1-1.155 2.617 3.964 3.964 0 0 1-2.702 1.05H16.57a1 1 0 0 1-.286-.042 1.001 1.001 0 0 1-.57 0zm1.667-1.958h3.76c.515 0 .995-.192 1.339-.512A1.58 1.58 0 0 0 23 8a1.58 1.58 0 0 0-.52-1.154 1.965 1.965 0 0 0-1.337-.512h-.016c-.771-.013-1.598.332-2.365 1.127-.538.558-1.013 1.307-1.38 2.206z" fill="#fff"/>
    <path fill-rule="evenodd" clip-rule="evenodd" d="M16 9.667a1 1 0 0 1 1 1v14.666a1 1 0 1 1-2 0V10.667a1 1 0 0 1 1-1z" fill="#fff"/>
</svg>
