<svg width="20" height="20" viewBox="0 0 20 20" fill="none" xmlns="http://www.w3.org/2000/svg">
<path fill-rule="evenodd" clip-rule="evenodd" d="M3.67509 13.6843C4.55723 15.2228 5.96986 16.3871 7.64853 16.9592C8.41184 17.2194 9.2064 17.349 9.99994 17.349C10.3451 17.3491 10.625 17.0693 10.625 16.7241C10.625 16.3789 10.3452 16.0991 10.0001 16.099C9.34254 16.099 8.68424 15.9916 8.05176 15.776C6.66086 15.302 5.4904 14.3373 4.75948 13.0625C4.02856 11.7878 3.78729 10.2903 4.08084 8.85046C4.37438 7.41063 5.18262 6.12713 6.35424 5.24023C7.52587 4.35333 8.98057 3.92383 10.446 4.03214C11.9115 4.14044 13.2872 4.77913 14.3158 5.82863C15.3443 6.87813 15.955 8.26651 16.0337 9.73385C16.1053 11.0689 15.732 12.386 14.9784 13.4815C14.7828 13.7658 14.8547 14.155 15.1391 14.3506C15.4235 14.5462 15.8126 14.4743 16.0083 14.1899C16.9178 12.8678 17.3683 11.2782 17.2819 9.66692C17.187 7.89598 16.4498 6.22036 15.2085 4.95372C13.9672 3.68708 12.3068 2.91625 10.5382 2.78554C8.7695 2.65482 7.01383 3.17318 5.5998 4.24358C4.18577 5.31397 3.21031 6.86302 2.85603 8.60076C2.50175 10.3385 2.79294 12.1458 3.67509 13.6843Z" fill="white"/>
<path fill-rule="evenodd" clip-rule="evenodd" d="M14.0049 10.9848C13.6715 11.0742 13.4736 11.4169 13.563 11.7503L14.3182 14.5688C14.4075 14.9023 14.7502 15.1001 15.0837 15.0108L17.9022 14.2556C18.2356 14.1662 18.4335 13.8235 18.3441 13.4901C18.2548 13.1567 17.9121 12.9588 17.5787 13.0481L15.3638 13.6416L14.7704 11.4268C14.681 11.0934 14.3383 10.8955 14.0049 10.9848Z" fill="white"/>
</svg>
