<svg width="20" height="20" viewBox="0 0 20 20" fill="none" xmlns="http://www.w3.org/2000/svg">
<path fill-rule="evenodd" clip-rule="evenodd" d="M16.3916 10.8074C16.5795 9.32011 16.2428 7.81381 15.4395 6.54804C14.6362 5.28227 13.4166 4.33627 11.9908 3.873C10.5651 3.40974 9.02236 3.45822 7.62849 4.0101C6.23462 4.56197 5.07685 5.58268 4.35462 6.8964C3.6324 8.21011 3.39095 9.73457 3.67186 11.2072C3.95278 12.6798 4.73846 14.0083 5.89358 14.9639C7.04869 15.9195 8.50091 16.4423 10.0001 16.4423L10.0001 17.6923C8.21003 17.6923 6.47604 17.068 5.0968 15.927C3.71756 14.786 2.77942 13.1997 2.44401 11.4414C2.10859 9.68307 2.39689 7.86282 3.25924 6.2942C4.1216 4.72559 5.50401 3.50683 7.16833 2.84787C8.83266 2.18892 10.6747 2.13103 12.3771 2.68418C14.0795 3.23733 15.5357 4.36688 16.4949 5.87826C17.454 7.38963 17.8561 9.18819 17.6317 10.9641C17.4074 12.74 16.5707 14.3821 15.2658 15.6075L14.4101 14.6962C15.503 13.67 16.2037 12.2948 16.3916 10.8074Z" fill="white"/>
<path fill-rule="evenodd" clip-rule="evenodd" d="M13.2424 12.8848L14.4498 12.5613L15.0844 14.9297L17.4528 14.2951L17.7763 15.5025L14.2006 16.4606L13.2424 12.8848Z" fill="white"/>
</svg>
