<svg width="16" height="16" viewBox="0 0 16 16" fill="none" xmlns="http://www.w3.org/2000/svg">
    <path fill-rule="evenodd" clip-rule="evenodd" d="M4 6.5a1.5 1.5 0 1 0 0 3 1.5 1.5 0 0 0 0-3zM1.5 8a2.5 2.5 0 1 1 5 0 2.5 2.5 0 0 1-5 0zM12 2.5a1.5 1.5 0 1 0 0 3 1.5 1.5 0 0 0 0-3zM9.5 4a2.5 2.5 0 1 1 5 0 2.5 2.5 0 0 1-5 0zM12 10.5a1.5 1.5 0 1 0 0 3 1.5 1.5 0 0 0 0-3zM9.5 12a2.5 2.5 0 1 1 5 0 2.5 2.5 0 0 1-5 0z" fill="#fff"/>
    <path fill-rule="evenodd" clip-rule="evenodd" d="M10.645 4.638a.5.5 0 0 1-.216.673l-4.4 2.267a.5.5 0 1 1-.458-.89l4.4-2.266a.5.5 0 0 1 .674.216zM5.356 8.638a.5.5 0 0 1 .673-.216l4.4 2.267a.5.5 0 1 1-.458.889l-4.4-2.267a.5.5 0 0 1-.215-.673z" fill="#fff"/>
</svg>
