<svg width="20" height="20" viewBox="0 0 20 20" fill="none" xmlns="http://www.w3.org/2000/svg">
<path d="M1.06299 8.8854C1.06388 7.91739 1.44897 6.98905 2.13326 6.30434C2.81754 5.61964 3.74521 5.23446 4.71323 5.23299H8.50959L18.1529 2.61566C18.2355 2.59326 18.3224 2.58993 18.4064 2.60639C18.4905 2.62285 18.5695 2.6586 18.6376 2.71053C18.707 2.76253 18.763 2.82983 18.8017 2.90735C18.8405 2.98487 18.8606 3.07039 18.8606 3.15706V14.6168C18.8606 14.7648 18.8023 14.9068 18.6976 15.0115C18.5928 15.1162 18.4503 15.1751 18.3023 15.1751C18.2532 15.1752 18.2045 15.1687 18.1573 15.1552L8.5134 12.5365H8.11321L9.43646 17.4039H5.63356L4.29341 12.491C3.40688 12.3898 2.58855 11.9667 1.99313 11.3021C1.39771 10.6375 1.06653 9.77772 1.06299 8.8854ZM17.7385 3.88629L8.9834 6.26345V11.5115L17.7385 13.8889V3.88629ZM6.47974 16.2805H7.96928L6.95084 12.5299H5.46128L6.47974 16.2805ZM4.7972 11.4133H7.86678V6.34605H4.77484L4.71323 5.78775V6.34605C4.38037 6.35155 4.05198 6.42268 3.74656 6.55514C3.44114 6.6876 3.16457 6.87882 2.93309 7.11808C2.70161 7.35734 2.51999 7.63991 2.39769 7.94954C2.27539 8.25917 2.21499 8.5899 2.22049 8.92278C2.22599 9.25559 2.29685 9.58403 2.42931 9.8894C2.56177 10.1948 2.75326 10.4712 2.99252 10.7027C3.23177 10.9341 3.51435 11.1163 3.82398 11.2386C4.13361 11.3609 4.46434 11.421 4.7972 11.4155V11.4133Z" fill="white"/>
</svg>
