<svg width="16" height="16" viewBox="0 0 16 16" fill="none" xmlns="http://www.w3.org/2000/svg">
<path fill-rule="evenodd" clip-rule="evenodd" d="M6.12843 2.31776C5.98302 2.30195 5.832 2.34979 5.72052 2.46127L3.64645 4.53534C3.45118 4.7306 3.45118 5.04718 3.64645 5.24245C3.84171 5.43771 4.15829 5.43771 4.35355 5.24245L5.57422 4.02178L5.57422 13.1831V13.1852C5.57422 13.4614 5.79808 13.6852 6.07422 13.6852C6.35036 13.6852 6.57422 13.4614 6.57422 13.1852V13.1833C6.57524 11.1694 8.20818 9.53708 10.2224 9.53708H12.1262L10.9057 10.7576C10.7104 10.9529 10.7104 11.2694 10.9057 11.4647C11.101 11.66 11.4176 11.66 11.6128 11.4647L13.6797 9.3978C13.7745 9.30681 13.8335 9.17883 13.8335 9.03708C13.8335 8.89539 13.7745 8.76746 13.6798 8.67648L11.6128 6.60945C11.4176 6.41419 11.101 6.41419 10.9057 6.60945C10.7104 6.80471 10.7104 7.12129 10.9057 7.31656L12.1262 8.53708H10.2224C8.74326 8.53708 7.42551 9.22795 6.57422 10.3046V4.02207L7.79459 5.24245C7.98986 5.43771 8.30644 5.43771 8.5017 5.24245C8.69696 5.04718 8.69696 4.7306 8.5017 4.53534L6.43381 2.46745C6.40685 2.43955 6.37667 2.41477 6.34387 2.39373C6.33094 2.38543 6.31771 2.37778 6.30422 2.37079C6.25058 2.34294 6.19125 2.32454 6.12843 2.31776Z" fill="white"/>
</svg>
