<svg width="16" height="16" viewBox="0 0 16 16" fill="none" xmlns="http://www.w3.org/2000/svg">
<path d="M13.4251 1.86304C13.6139 1.86304 13.795 1.93801 13.9285 2.07151C14.062 2.20502 14.137 2.38613 14.137 2.57494V13.4251C14.1368 13.6138 14.0615 13.7946 13.9281 13.9281C13.7946 14.0615 13.6138 14.1368 13.4251 14.137H2.57494C2.38628 14.1365 2.20535 14.0613 2.07194 13.9279C1.93854 13.7945 1.8635 13.6138 1.86304 13.4251V2.57494C1.86327 2.3862 1.93849 2.20518 2.07194 2.07173C2.2054 1.93827 2.3862 1.86327 2.57494 1.86304H13.4251ZM13.4251 0.986328H2.57494C2.15362 0.986328 1.74957 1.15352 1.45165 1.45144C1.15373 1.74936 0.986328 2.15362 0.986328 2.57494V13.4251C0.986328 13.8464 1.15373 14.2505 1.45165 14.5484C1.74957 14.8463 2.15362 15.0137 2.57494 15.0137H13.4251C13.8464 15.0137 14.2505 14.8463 14.5484 14.5484C14.8463 14.2505 15.0137 13.8464 15.0137 13.4251V2.57494C15.0137 2.15362 14.8463 1.74936 14.5484 1.45144C14.2505 1.15352 13.8464 0.986328 13.4251 0.986328Z" fill="white"/>
<path d="M8.9993 4.59912H3.72852V5.47583H8.9993V4.59912Z" fill="white"/>
<path d="M8.9993 10.524H3.72852V11.4007H8.9993V10.524Z" fill="white"/>
<path d="M11.2183 7.49316H3.72852V8.36987H11.2183V7.49316Z" fill="white"/>
</svg>
