<svg width="20" height="20" viewBox="0 0 20 20" fill="none" xmlns="http://www.w3.org/2000/svg">
    <path fill-rule="evenodd" clip-rule="evenodd" d="M10 17.083a7.083 7.083 0 1 0 0-14.166 7.083 7.083 0 0 0 0 14.166zm0 1.25a8.333 8.333 0 1 0 0-16.666 8.333 8.333 0 0 0 0 16.666z" fill="#fff"/>
    <path fill-rule="evenodd" clip-rule="evenodd" d="M13.79 7.49a.625.625 0 0 1-.03.883l-4.444 4.166a.625.625 0 0 1-.855 0L6.24 10.456a.625.625 0 0 1 .855-.912l1.795 1.683 4.017-3.766a.625.625 0 0 1 .883.028z" fill="#fff"/>
</svg>
