<svg width="32" height="32" viewBox="0 0 32 32" fill="none" xmlns="http://www.w3.org/2000/svg">
<path fill-rule="evenodd" clip-rule="evenodd" d="M16 29.3333C23.3638 29.3333 29.3334 23.3638 29.3334 16C29.3334 8.63619 23.3638 2.66666 16 2.66666C8.63622 2.66666 2.66669 8.63619 2.66669 16C2.66669 23.3638 8.63622 29.3333 16 29.3333ZM9.03508 10.3788C9.56222 10.2141 10.1231 10.5079 10.2878 11.0351L12.6667 18.6474L15.0455 11.0351C15.176 10.6176 15.5626 10.3333 16 10.3333C16.4374 10.3333 16.824 10.6176 16.9545 11.0351L19.3334 18.6474L21.7122 11.0351C21.8769 10.5079 22.4378 10.2141 22.965 10.3788C23.4921 10.5436 23.7859 11.1045 23.6212 11.6316L22.5686 15H24C24.5523 15 25 15.4477 25 16C25 16.5523 24.5523 17 24 17H21.9436L20.2878 22.2983C20.1574 22.7157 19.7707 23 19.3334 23C18.896 23 18.5093 22.7157 18.3789 22.2983L16 14.6859L13.6212 22.2983C13.4907 22.7157 13.1041 23 12.6667 23C12.2293 23 11.8427 22.7157 11.7122 22.2983L10.0565 17H8.00002C7.44774 17 7.00002 16.5523 7.00002 16C7.00002 15.4477 7.44774 15 8.00002 15H9.43149L8.37887 11.6316C8.21414 11.1045 8.50793 10.5436 9.03508 10.3788Z" fill="white"/>
</svg>
