<svg width="20" height="20" viewBox="0 0 20 20" fill="none" xmlns="http://www.w3.org/2000/svg">
<path fill-rule="evenodd" clip-rule="evenodd" d="M1.25 10C1.25 5.125 5.125 1.25 10 1.25C14.875 1.25 18.75 5.125 18.75 10C18.75 14.875 14.875 18.75 10 18.75C5.125 18.75 1.25 14.875 1.25 10ZM2.5 10C2.5 14.125 5.875 17.5 10 17.5C14.125 17.5 17.5 14.125 17.5 10C17.5 5.875 14.125 2.5 10 2.5C5.875 2.5 2.5 5.875 2.5 10Z" fill="white"/>
<path d="M8.9498 6.87048L8.8873 5.13298H10.7373L10.6748 6.87048L10.4123 11.483H9.2123L8.9498 6.87048ZM9.8123 14.808C9.4873 14.808 9.21647 14.6955 8.9998 14.4705C8.78314 14.2371 8.6748 13.9496 8.6748 13.608C8.6748 13.2663 8.78314 12.983 8.9998 12.758C9.21647 12.5246 9.4873 12.408 9.8123 12.408C10.1373 12.408 10.4081 12.5246 10.6248 12.758C10.8498 12.983 10.9623 13.2663 10.9623 13.608C10.9623 13.9496 10.8498 14.2371 10.6248 14.4705C10.4081 14.6955 10.1373 14.808 9.8123 14.808Z" fill="white"/>
</svg>
