<svg width="24" height="24" viewBox="0 0 24 24" fill="none" xmlns="http://www.w3.org/2000/svg">
<path fill-rule="evenodd" clip-rule="evenodd" d="M1.5 12C1.5 6.15 6.15 1.5 12 1.5C17.85 1.5 22.5 6.15 22.5 12C22.5 17.85 17.85 22.5 12 22.5C6.15 22.5 1.5 17.85 1.5 12ZM3 12C3 16.95 7.05 21 12 21C16.95 21 21 16.95 21 12C21 7.05 16.95 3 12 3C7.05 3 3 7.05 3 12Z" fill="white"/>
<path d="M10.7399 8.24458L10.6649 6.15958H12.8849L12.8099 8.24458L12.4949 13.7796H11.0549L10.7399 8.24458ZM11.7749 17.7696C11.3849 17.7696 11.0599 17.6346 10.7999 17.3646C10.5399 17.0846 10.4099 16.7396 10.4099 16.3296C10.4099 15.9196 10.5399 15.5796 10.7999 15.3096C11.0599 15.0296 11.3849 14.8896 11.7749 14.8896C12.1649 14.8896 12.4899 15.0296 12.7499 15.3096C13.0199 15.5796 13.1549 15.9196 13.1549 16.3296C13.1549 16.7396 13.0199 17.0846 12.7499 17.3646C12.4899 17.6346 12.1649 17.7696 11.7749 17.7696Z" fill="white"/>
</svg>
