<svg width="24" height="24" viewBox="0 0 24 24" fill="none" xmlns="http://www.w3.org/2000/svg">
    <path fill-rule="evenodd" clip-rule="evenodd" d="M12 20.5a8.5 8.5 0 1 0 0-17 8.5 8.5 0 0 0 0 17zm0 1.5c5.523 0 10-4.477 10-10S17.523 2 12 2 2 6.477 2 12s4.477 10 10 10z" fill="#fff"/>
    <path d="M10.8 16.3a1.2 1.2 0 1 1 2.4 0 1.2 1.2 0 0 1-2.4 0z" fill="#fff"/>
    <path fill-rule="evenodd" clip-rule="evenodd" d="M12 13.4a.9.9 0 0 1-.9-.9v-5a.9.9 0 0 1 1.8 0v5a.9.9 0 0 1-.9.9z" fill="#fff"/>
</svg>
