<svg width="20" height="20" viewBox="0 0 20 20" fill="none" xmlns="http://www.w3.org/2000/svg">
<path fill-rule="evenodd" clip-rule="evenodd" d="M3.74424 3.16179C3.81202 3.13745 3.88349 3.125 3.95551 3.125H16.0445C16.1165 3.125 16.188 3.13745 16.2558 3.16179C16.4813 3.24278 16.6843 3.37508 16.85 3.54739C17.0156 3.71965 17.1395 3.92735 17.2133 4.15411C17.2871 4.38083 17.3091 4.6214 17.278 4.8577C17.2468 5.09401 17.1632 5.32078 17.0326 5.52057C17.0158 5.5462 16.9972 5.57057 16.9769 5.59348L12.4849 10.654V17.0833C12.4849 17.3214 12.3497 17.5387 12.1361 17.6439C11.9226 17.7492 11.6679 17.724 11.4791 17.579L7.75944 14.7218C7.60543 14.6036 7.51516 14.4204 7.51516 14.2262V10.654L3.02313 5.59348C3.0028 5.57057 2.98418 5.5462 2.96742 5.52057C2.83681 5.32078 2.75318 5.09401 2.72205 4.8577C2.69092 4.62141 2.71296 4.38083 2.78675 4.15411C2.86055 3.92735 2.98445 3.71965 3.15005 3.54739C3.31571 3.37508 3.51876 3.24278 3.74424 3.16179ZM4.09618 4.375C4.08026 4.38621 4.06518 4.39913 4.05118 4.41368C4.01764 4.44858 3.99133 4.49195 3.97538 4.54098C3.95941 4.59004 3.95452 4.64263 3.96134 4.69443C3.96661 4.73443 3.97868 4.77254 3.99649 4.80706L8.60758 10.0018C8.7091 10.1161 8.76516 10.2637 8.76516 10.4167V13.9182L11.2349 15.8152V10.4167C11.2349 10.2637 11.2909 10.1161 11.3924 10.0018L16.0035 4.80706C16.0213 4.77254 16.0334 4.73443 16.0387 4.69443C16.0455 4.64263 16.0406 4.59004 16.0246 4.54098C16.0087 4.49195 15.9824 4.44858 15.9488 4.41368C15.9348 4.39913 15.9198 4.38621 15.9038 4.375H4.09618Z" fill="white"/>
</svg>
