<svg width="16" height="16" viewBox="0 0 16 16" fill="none" xmlns="http://www.w3.org/2000/svg">
<path fill-rule="evenodd" clip-rule="evenodd" d="M14.3536 1.64645C14.5488 1.84171 14.5488 2.15829 14.3536 2.35355L2.35355 14.3536C2.15829 14.5488 1.84171 14.5488 1.64645 14.3536C1.45118 14.1583 1.45118 13.8417 1.64645 13.6464L13.6464 1.64645C13.8417 1.45118 14.1583 1.45118 14.3536 1.64645Z" fill="white"/>
<path fill-rule="evenodd" clip-rule="evenodd" d="M11.7239 2H3C2.44772 2 2 2.44771 2 3V11.7239L3 10.7239V9.66667L3.02022 9.68689L5.33333 7.37377L5.84171 7.88215L6.54882 7.17504L5.68689 6.31311C5.49162 6.11785 5.17504 6.11785 4.97978 6.31311L3 8.29289L3 3H10.7239L11.7239 2ZM7.49163 8.11785L8.69735 9.32358L10.3466 7.94922C10.5452 7.78367 10.8374 7.79692 11.0202 7.97978L13 9.95956V3H12.6095L13.4845 2.12499C13.7919 2.29558 14 2.62349 14 3V13C14 13.5523 13.5523 14 13 14H3C2.62349 14 2.29558 13.7919 2.12499 13.4845L3 12.6095V13H13V11.3333L12.9798 11.3536L10.636 9.00976L8.98676 10.3841C8.7881 10.5497 8.49597 10.5364 8.31311 10.3536L6.78452 8.82496L7.49163 8.11785Z" fill="white"/>
</svg>
