<svg width="24" height="24" viewBox="0 0 24 24" fill="none" xmlns="http://www.w3.org/2000/svg">
<path d="M13 16.5C13 15.9477 12.5523 15.5 12 15.5C11.4477 15.5 11 15.9477 11 16.5C11 17.0523 11.4477 17.5 12 17.5C12.5523 17.5 13 17.0523 13 16.5Z" fill="white"/>
<path fill-rule="evenodd" clip-rule="evenodd" d="M12 13.9C12.4971 13.9 12.9 13.497 12.9 13L12.9 8.99999C12.9 8.50294 12.4971 8.09999 12 8.09999C11.5029 8.09999 11.1 8.50294 11.1 8.99999L11.1 13C11.1 13.4971 11.5029 13.9 12 13.9Z" fill="white"/>
<path fill-rule="evenodd" clip-rule="evenodd" d="M9.61843 3.625C10.6769 1.79167 13.3231 1.79167 14.3816 3.625L22.1758 17.125C23.2343 18.9583 21.9112 21.25 19.7942 21.25H4.20577C2.08882 21.25 0.765725 18.9583 1.8242 17.125L9.61843 3.625ZM13.0825 4.375C12.6014 3.54167 11.3986 3.54167 10.9175 4.375L3.12324 17.875C2.64211 18.7083 3.24352 19.75 4.20577 19.75H19.7942C20.7565 19.75 21.3579 18.7083 20.8768 17.875L13.0825 4.375Z" fill="white"/>
</svg>
