<svg width="20" height="20" viewBox="0 0 20 20" fill="none" xmlns="http://www.w3.org/2000/svg">
<path fill-rule="evenodd" clip-rule="evenodd" d="M10 17.0833C13.912 17.0833 17.0834 13.912 17.0834 10C17.0834 6.08798 13.912 2.91667 10 2.91667C6.088 2.91667 2.91669 6.08798 2.91669 10C2.91669 13.912 6.088 17.0833 10 17.0833ZM10 18.3333C14.6024 18.3333 18.3334 14.6024 18.3334 10C18.3334 5.39763 14.6024 1.66667 10 1.66667C5.39765 1.66667 1.66669 5.39763 1.66669 10C1.66669 14.6024 5.39765 18.3333 10 18.3333Z" fill="white"/>
<path fill-rule="evenodd" clip-rule="evenodd" d="M10 6.04167C10.3452 6.04167 10.625 6.32149 10.625 6.66667V13.3333C10.625 13.6785 10.3452 13.9583 10 13.9583C9.65484 13.9583 9.37502 13.6785 9.37502 13.3333V6.66667C9.37502 6.32149 9.65484 6.04167 10 6.04167Z" fill="white"/>
<path fill-rule="evenodd" clip-rule="evenodd" d="M6.04169 10C6.04169 9.65482 6.32151 9.375 6.66669 9.375H13.3334C13.6785 9.375 13.9584 9.65482 13.9584 10C13.9584 10.3452 13.6785 10.625 13.3334 10.625H6.66669C6.32151 10.625 6.04169 10.3452 6.04169 10Z" fill="white"/>
</svg>
