<svg width="20" height="20" viewBox="0 0 20 20" fill="none" xmlns="http://www.w3.org/2000/svg">
<path d="M10.0002 13.75C10.6905 13.75 11.2502 13.1904 11.2502 12.5C11.2502 11.8096 10.6905 11.25 10.0002 11.25C9.30981 11.25 8.75016 11.8096 8.75016 12.5C8.75016 13.1904 9.30981 13.75 10.0002 13.75Z" fill="#181819"/>
<path fill-rule="evenodd" clip-rule="evenodd" d="M6.04183 5.83333C6.04183 3.64721 7.81404 1.875 10.0002 1.875C12.1863 1.875 13.9585 3.64721 13.9585 5.83333V7.5H15.4168C16.1072 7.5 16.6668 8.05964 16.6668 8.75V16.25C16.6668 16.9404 16.1072 17.5 15.4168 17.5H4.5835C3.89314 17.5 3.3335 16.9404 3.3335 16.25V8.75C3.3335 8.05964 3.89314 7.5 4.5835 7.5H6.04183V5.83333ZM12.7085 5.83333V7.5H7.29183V5.83333C7.29183 4.33756 8.50439 3.125 10.0002 3.125C11.4959 3.125 12.7085 4.33756 12.7085 5.83333ZM4.5835 8.75V16.25H15.4168V8.75H4.5835Z" fill="#181819"/>
</svg>
