<svg width="20" height="20" viewBox="0 0 20 20" fill="none" xmlns="http://www.w3.org/2000/svg">
    <path fill-rule="evenodd" clip-rule="evenodd" d="M11.429 10.613c.827-1.07 1.488-2.463 1.488-3.9 0-1.65-1.32-2.963-2.917-2.963-1.598 0-2.917 1.314-2.917 2.963 0 1.437.66 2.83 1.488 3.9.408.528.829.941 1.172 1.21.1.077.185.138.257.183.072-.045.158-.106.257-.184a7.007 7.007 0 0 0 1.172-1.209zM9.808 12.11l.011-.004a.076.076 0 0 1-.011.004zm.373-.004a.062.062 0 0 1 .011.004s-.003 0-.011-.004zM10 13.333c.893 0 4.167-3.009 4.167-6.62C14.167 4.386 12.3 2.5 10 2.5c-2.301 0-4.167 1.886-4.167 4.213 0 3.611 3.274 6.62 4.167 6.62z" fill="#fff"/>
    <path d="M11.25 6.667a1.25 1.25 0 1 1-2.5 0 1.25 1.25 0 0 1 2.5 0z" fill="#fff"/>
    <path fill-rule="evenodd" clip-rule="evenodd" d="M4.75 7.5v1.25h-1v7.5h12.5v-7.5h-1V7.5h1c.69 0 1.25.56 1.25 1.25v7.5c0 .69-.56 1.25-1.25 1.25H3.75c-.69 0-1.25-.56-1.25-1.25v-7.5c0-.69.56-1.25 1.25-1.25h1z" fill="#fff"/>
</svg>
