<svg width="24" height="24" viewBox="0 0 24 24" fill="none" xmlns="http://www.w3.org/2000/svg">
<path fill-rule="evenodd" clip-rule="evenodd" d="M8.87831 3.50911C8.76952 3.54452 8.66723 3.60545 8.58078 3.6919L5.46967 6.80301C5.17678 7.0959 5.17678 7.57078 5.46967 7.86367C5.76256 8.15656 6.23744 8.15656 6.53033 7.86367L8.36108 6.03292L8.36108 19.7746V19.7778C8.36108 20.1921 8.69687 20.5278 9.11108 20.5278C9.5253 20.5278 9.86108 20.1921 9.86108 19.7778V19.7755C9.86233 16.7544 12.3119 14.3056 15.3333 14.3056H18.1893L16.3586 16.1364C16.0657 16.4293 16.0657 16.9042 16.3586 17.1971C16.6515 17.4899 17.1263 17.4899 17.4192 17.1971L20.5303 14.0859C20.6099 14.0063 20.6679 13.9133 20.7042 13.8141C20.7423 13.7102 20.7566 13.5995 20.7472 13.4906C20.7415 13.4244 20.7272 13.3606 20.7055 13.3005C20.6692 13.2 20.6108 13.1058 20.5303 13.0253L17.4192 9.91417C17.1263 9.62128 16.6515 9.62128 16.3586 9.91417C16.0657 10.2071 16.0657 10.6819 16.3586 10.9748L18.1893 12.8056H15.3333C13.1146 12.8056 11.138 13.8419 9.86108 15.4569L9.86108 6.03286L11.6919 7.86367C11.9848 8.15656 12.4597 8.15656 12.7526 7.86367C13.0454 7.57078 13.0454 7.0959 12.7526 6.80301L9.64144 3.6919C9.54665 3.59711 9.43279 3.53299 9.31222 3.49956C9.28572 3.4922 9.25864 3.48626 9.23105 3.48183C9.15746 3.46997 9.08245 3.4691 9.00865 3.47922C8.96382 3.48534 8.92025 3.49543 8.87831 3.50911Z" fill="white"/>
</svg>
