<svg width="24" height="24" viewBox="0 0 24 24" fill="none" xmlns="http://www.w3.org/2000/svg">
<path fill-rule="evenodd" clip-rule="evenodd" d="M12 20.5C16.6944 20.5 20.5 16.6944 20.5 12C20.5 7.30558 16.6944 3.5 12 3.5C7.30558 3.5 3.5 7.30558 3.5 12C3.5 16.6944 7.30558 20.5 12 20.5ZM12 22C17.5228 22 22 17.5228 22 12C22 6.47715 17.5228 2 12 2C6.47715 2 2 6.47715 2 12C2 17.5228 6.47715 22 12 22Z" fill="white"/>
<path fill-rule="evenodd" clip-rule="evenodd" d="M11.1384 8.37563C10.8169 8.46363 10.6002 8.57344 10.5048 8.65523C10.2172 8.90176 10.0833 9.20907 10.0833 9.5C10.0833 9.91421 9.74753 10.25 9.33331 10.25C8.9191 10.25 8.58331 9.91421 8.58331 9.5C8.58331 8.73007 8.94109 8.01996 9.52864 7.51634C9.8708 7.22306 10.3364 7.03998 10.7424 6.92885C11.1635 6.81359 11.6166 6.75 12 6.75C12.3834 6.75 12.8365 6.81359 13.2576 6.92885C13.6636 7.03998 14.1292 7.22306 14.4713 7.51634C15.0534 8.01528 15.41 8.71688 15.4166 9.47854C15.4454 10.0666 15.2848 10.6485 14.958 11.1387C14.6352 11.6228 14.1674 11.9918 13.6222 12.1931C13.3085 12.3442 13.091 12.5142 12.9545 12.6999C12.8235 12.8781 12.7343 13.1138 12.7493 13.4681C12.7669 13.882 12.4457 14.2317 12.0319 14.2493C11.618 14.2669 11.2683 13.9457 11.2507 13.5319C11.2221 12.8595 11.3994 12.2828 11.7459 11.8115C12.0826 11.3534 12.5444 11.0416 13.0149 10.8209C13.0376 10.8103 13.0609 10.8008 13.0845 10.7925C13.3401 10.7026 13.5596 10.5321 13.7099 10.3066C13.8602 10.0812 13.9332 9.81299 13.9179 9.54247C13.917 9.52833 13.9166 9.51416 13.9166 9.5C13.9166 9.20907 13.7828 8.90176 13.4951 8.65523C13.3997 8.57344 13.1831 8.46363 12.8616 8.37563C12.5551 8.29176 12.2354 8.25 12 8.25C11.7645 8.25 11.4448 8.29176 11.1384 8.37563Z" fill="white"/>
<path d="M13 16.6667C13 17.2189 12.5523 17.6667 12 17.6667C11.4477 17.6667 11 17.2189 11 16.6667C11 16.1144 11.4477 15.6667 12 15.6667C12.5523 15.6667 13 16.1144 13 16.6667Z" fill="white"/>
</svg>
