<svg width="16" height="16" viewBox="0 0 16 16" fill="none" xmlns="http://www.w3.org/2000/svg">
    <path fill-rule="evenodd" clip-rule="evenodd" d="M3.168 8.118a3.5 3.5 0 0 1 4.95-4.95l.943.943a.5.5 0 0 1-.707.707l-.943-.943a2.5 2.5 0 1 0-3.536 3.536l.943.943a.5.5 0 0 1-.707.707l-.943-.943zm3.771 3.064a.5.5 0 0 1 .707 0l.943.943a2.5 2.5 0 0 0 3.536-3.536l-.943-.943a.5.5 0 0 1 .707-.707l.943.943a3.5 3.5 0 0 1-4.95 4.95l-.943-.943a.5.5 0 0 1 0-.707zM13.02 2.98a.5.5 0 0 1 0 .707L3.687 13.02a.5.5 0 1 1-.707-.707l9.333-9.333a.5.5 0 0 1 .707 0z" fill="#fff"/>
</svg>
