<svg width="32" height="32" viewBox="0 0 32 32" fill="none" xmlns="http://www.w3.org/2000/svg">
    <path d="M14.803 3.767c.489-.994 1.905-.994 2.393 0l3.027 6.154c.193.394.569.667 1.004.73L28 11.64c1.092.159 1.53 1.5.74 2.272l-4.908 4.802a1.333 1.333 0 0 0-.382 1.178l1.158 6.775c.186 1.09-.959 1.92-1.937 1.404l-6.05-3.192a1.333 1.333 0 0 0-1.244 0l-6.05 3.192c-.978.516-2.123-.314-1.937-1.404l1.158-6.775a1.333 1.333 0 0 0-.382-1.178L3.26 13.912c-.79-.772-.352-2.113.74-2.272l6.774-.988c.435-.064.81-.337 1.004-.731l3.027-6.154z" fill="#fff"/>
</svg>
