<svg width="32" height="32" viewBox="0 0 32 32" fill="none" xmlns="http://www.w3.org/2000/svg">
<path fill-rule="evenodd" clip-rule="evenodd" d="M18.6667 5L5.33333 5C5.14837 5 5 5.14922 5 5.33245V27H19V5.33333C19 5.14924 18.8508 5 18.6667 5ZM21 12.3333V5.33333C21 4.04467 19.9553 3 18.6667 3L5.33333 3C4.04553 3 3 4.04292 3 5.33245V28C3 28.5523 3.44772 29 4 29H28C28.5523 29 29 28.5523 29 28V13.3333C29 12.781 28.5523 12.3333 28 12.3333H21ZM21 14.3333V27H27V14.3333H21Z" fill="white"/>
<path d="M16 9.33333C16 10.0697 15.403 10.6667 14.6667 10.6667C13.9303 10.6667 13.3333 10.0697 13.3333 9.33333C13.3333 8.59695 13.9303 8 14.6667 8C15.403 8 16 8.59695 16 9.33333Z" fill="white"/>
<path d="M10.6667 9.33333C10.6667 10.0697 10.0697 10.6667 9.33333 10.6667C8.59695 10.6667 8 10.0697 8 9.33333C8 8.59695 8.59695 8 9.33333 8C10.0697 8 10.6667 8.59695 10.6667 9.33333Z" fill="white"/>
<path d="M16 14.6667C16 15.403 15.403 16 14.6667 16C13.9303 16 13.3333 15.403 13.3333 14.6667C13.3333 13.9303 13.9303 13.3333 14.6667 13.3333C15.403 13.3333 16 13.9303 16 14.6667Z" fill="white"/>
<path d="M10.6667 14.6667C10.6667 15.403 10.0697 16 9.33333 16C8.59695 16 8 15.403 8 14.6667C8 13.9303 8.59695 13.3333 9.33333 13.3333C10.0697 13.3333 10.6667 13.9303 10.6667 14.6667Z" fill="white"/>
<path d="M16 20C16 20.7364 15.403 21.3333 14.6667 21.3333C13.9303 21.3333 13.3333 20.7364 13.3333 20C13.3333 19.2636 13.9303 18.6667 14.6667 18.6667C15.403 18.6667 16 19.2636 16 20Z" fill="white"/>
<path d="M10.6667 20C10.6667 20.7364 10.0697 21.3333 9.33333 21.3333C8.59695 21.3333 8 20.7364 8 20C8 19.2636 8.59695 18.6667 9.33333 18.6667C10.0697 18.6667 10.6667 19.2636 10.6667 20Z" fill="white"/>
</svg>
