<svg width="32" height="32" viewBox="0 0 32 32" fill="none" xmlns="http://www.w3.org/2000/svg">
<path d="M24.3874 4.98122V27.0188H7.61171V4.98122H24.3874ZM24.5857 3.40711H7.41495C7.23414 3.4069 7.05478 3.44221 6.88768 3.51125C6.72058 3.5803 6.56904 3.6817 6.44112 3.80947C6.3132 3.93725 6.21213 4.08901 6.1429 4.25603C6.07366 4.42305 6.0376 4.60211 6.0376 4.78292V27.2155C6.0376 27.5808 6.18281 27.9311 6.44112 28.1894C6.69942 28.4477 7.04965 28.5929 7.41495 28.5929H24.5857C24.9507 28.5925 25.3 28.4469 25.558 28.1886C25.8159 27.9303 25.9615 27.5806 25.9615 27.2155V4.78292C25.9615 4.41804 25.816 4.06786 25.558 3.80986C25.3 3.55185 24.9505 3.40711 24.5857 3.40711Z" fill="white"/>
<path d="M28.593 27.0015H3.40723V28.5756H28.593V27.0015Z" fill="white"/>
<path d="M14.533 7.92767H11.3848V11.0759H14.533V7.92767Z" fill="white"/>
<path d="M20.6595 7.92767H17.5112V11.0759H20.6595V7.92767Z" fill="white"/>
<path d="M14.533 13.5931H11.3848V16.7413H14.533V13.5931Z" fill="white"/>
<path d="M20.6595 13.5931H17.5112V16.7413H20.6595V13.5931Z" fill="white"/>
<path d="M14.533 19.1544H11.3848V22.3026H14.533V19.1544Z" fill="white"/>
<path d="M20.6595 19.1544H17.5112V22.3026H20.6595V19.1544Z" fill="white"/>
</svg>
