<svg width="16" height="16" viewBox="0 0 16 16" fill="none" xmlns="http://www.w3.org/2000/svg">
<path fill-rule="evenodd" clip-rule="evenodd" d="M7.99998 13.6667C11.1296 13.6667 13.6666 11.1296 13.6666 8.00003C13.6666 4.87041 11.1296 2.33336 7.99998 2.33336C4.87037 2.33336 2.33331 4.87041 2.33331 8.00003C2.33331 11.1296 4.87037 13.6667 7.99998 13.6667ZM7.99998 14.6667C11.6819 14.6667 14.6666 11.6819 14.6666 8.00003C14.6666 4.31813 11.6819 1.33336 7.99998 1.33336C4.31808 1.33336 1.33331 4.31813 1.33331 8.00003C1.33331 11.6819 4.31808 14.6667 7.99998 14.6667Z" fill="white"/>
<path d="M7.19997 10.8667C7.19997 10.4249 7.55814 10.0667 7.99997 10.0667C8.4418 10.0667 8.79997 10.4249 8.79997 10.8667C8.79997 11.3085 8.4418 11.6667 7.99997 11.6667C7.55814 11.6667 7.19997 11.3085 7.19997 10.8667Z" fill="white"/>
<path fill-rule="evenodd" clip-rule="evenodd" d="M8 8.93334C7.66863 8.93334 7.4 8.66471 7.4 8.33334V5.00001C7.4 4.66863 7.66863 4.40001 8 4.40001C8.33137 4.40001 8.6 4.66863 8.6 5.00001L8.6 8.33334C8.6 8.66471 8.33137 8.93334 8 8.93334Z" fill="white"/>
</svg>
