<svg width="32" height="32" viewBox="0 0 32 32" fill="none" xmlns="http://www.w3.org/2000/svg">
    <path fill-rule="evenodd" clip-rule="evenodd" d="M28.707 4.707a1 1 0 1 0-1.414-1.414l-24 24a1 1 0 1 0 1.414 1.414l4.104-4.103c2.247 1.192 4.725 1.73 7.189 1.73 4.79 0 9.628-2.032 12.735-6.949a6.35 6.35 0 0 0 0-6.77c-1.084-1.715-2.378-3.08-3.808-4.128l3.78-3.78zm-5.214 5.214-3.081 3.081a5.333 5.333 0 0 1-7.41 7.41l-2.7 2.7c1.793.84 3.74 1.221 5.698 1.221 4.201 0 8.353-1.757 11.044-6.016a4.35 4.35 0 0 0 0-4.634c-1.004-1.59-2.212-2.83-3.55-3.762zm-9.035 9.035a3.333 3.333 0 0 0 4.498-4.498l-4.498 4.498z" fill="#fff"/>
    <path d="M16 5.667c1.581 0 3.168.221 4.696.695l-1.634 1.633A14.148 14.148 0 0 0 16 7.667c-4.201 0-8.353 1.757-11.044 6.016a4.35 4.35 0 0 0 0 4.634 13.679 13.679 0 0 0 1.653 2.131l-1.415 1.415a15.676 15.676 0 0 1-1.929-2.478 6.35 6.35 0 0 1 0-6.77C6.371 7.698 11.21 5.667 16 5.667z" fill="#fff"/>
    <path d="M16 10.667c.127 0 .253.004.378.013l-5.698 5.698a5.333 5.333 0 0 1 5.32-5.71z" fill="#fff"/>
</svg>
