<svg width="32" height="32" viewBox="0 0 32 32" fill="none" xmlns="http://www.w3.org/2000/svg">
<path fill-rule="evenodd" clip-rule="evenodd" d="M8.73875 21.6667C7.81827 21.6667 7.07208 22.4129 7.07208 23.3333C7.07208 24.2538 7.81827 25 8.73875 25C9.65922 25 10.4054 24.2538 10.4054 23.3333C10.4054 22.4129 9.65922 21.6667 8.73875 21.6667ZM5.07208 23.3333C5.07208 21.3083 6.71371 19.6667 8.73875 19.6667C10.7638 19.6667 12.4054 21.3083 12.4054 23.3333C12.4054 25.3584 10.7638 27 8.73875 27C6.71371 27 5.07208 25.3584 5.07208 23.3333Z" fill="white"/>
<path fill-rule="evenodd" clip-rule="evenodd" d="M22.4324 21.6667C21.512 21.6667 20.7658 22.4129 20.7658 23.3333C20.7658 24.2538 21.512 25 22.4324 25C23.3529 25 24.0991 24.2538 24.0991 23.3333C24.0991 22.4129 23.3529 21.6667 22.4324 21.6667ZM18.7658 23.3333C18.7658 21.3083 20.4074 19.6667 22.4324 19.6667C24.4575 19.6667 26.0991 21.3083 26.0991 23.3333C26.0991 25.3584 24.4575 27 22.4324 27C20.4074 27 18.7658 25.3584 18.7658 23.3333Z" fill="white"/>
<path fill-rule="evenodd" clip-rule="evenodd" d="M5.74985 6.93397C5.90875 6.5692 6.26877 6.33333 6.66665 6.33333H18.6666C19.0036 6.33333 19.3179 6.50301 19.5027 6.78473L23.3432 12.6377L29.0782 15.2274C29.4364 15.3892 29.6666 15.7458 29.6666 16.1388V23.3333C29.6666 23.8856 29.2189 24.3333 28.6666 24.3333H25.2432C24.6909 24.3333 24.2432 23.8856 24.2432 23.3333C24.2432 22.781 24.6909 22.3333 25.2432 22.3333H27.6666V16.7845L22.2551 14.3408C22.082 14.2627 21.9348 14.1368 21.8306 13.978L18.1268 8.33333H7.3218L4.33331 15.1939V22.3333H6.07205C6.62434 22.3333 7.07208 22.781 7.07208 23.3333C7.07208 23.8856 6.62434 24.3333 6.07205 24.3333H3.33331C2.78103 24.3333 2.33331 23.8856 2.33331 23.3333V14.9855C2.33331 14.8481 2.36164 14.7121 2.41652 14.5861L5.74985 6.93397ZM10.5495 23.3333C10.5495 22.781 10.9972 22.3333 11.5495 22.3333H19.7657C20.318 22.3333 20.7658 22.781 20.7658 23.3333C20.7658 23.8856 20.318 24.3333 19.7657 24.3333H11.5495C10.9972 24.3333 10.5495 23.8856 10.5495 23.3333Z" fill="white"/>
<path fill-rule="evenodd" clip-rule="evenodd" d="M15.5817 11.1176C16.069 11.3775 16.2533 11.9833 15.9934 12.4706L15 14.3333H16C16.3512 14.3333 16.6767 14.5176 16.8575 14.8188C17.0382 15.12 17.0476 15.494 16.8823 15.8039L15.1046 19.1372C14.8447 19.6246 14.2389 19.8089 13.7516 19.549C13.2643 19.2891 13.08 18.6834 13.3398 18.1961L14.3333 16.3333H13.3333C12.9821 16.3333 12.6565 16.149 12.4758 15.8478C12.2951 15.5466 12.2857 15.1727 12.451 14.8627L14.2287 11.5294C14.4886 11.0421 15.0944 10.8577 15.5817 11.1176Z" fill="white"/>
</svg>
