<svg width="20" height="20" viewBox="0 0 20 20" fill="none" xmlns="http://www.w3.org/2000/svg">
    <path fill-rule="evenodd" clip-rule="evenodd" d="M5.99 3.958A2.031 2.031 0 0 0 3.958 5.99V15.99l2.475-2.475a.625.625 0 0 1 .442-.183h7.969a2.031 2.031 0 0 0 2.031-2.03V5.99a2.031 2.031 0 0 0-2.031-2.032H5.99zM3.67 3.67a3.281 3.281 0 0 1 2.32-.96h8.854a3.281 3.281 0 0 1 3.281 3.28v5.313a3.281 3.281 0 0 1-3.281 3.281h-7.71l-3.359 3.359a.625.625 0 0 1-1.067-.442V5.99c0-.87.346-1.705.961-2.32z" fill="#fff"/>
    <path fill-rule="evenodd" clip-rule="evenodd" d="M6.458 7.083c0-.345.28-.625.625-.625h6.667a.625.625 0 1 1 0 1.25H7.083a.625.625 0 0 1-.625-.625zM6.458 10.417c0-.345.28-.625.625-.625h5a.625.625 0 1 1 0 1.25h-5a.625.625 0 0 1-.625-.625z" fill="#fff"/>
</svg>
