<svg width="32" height="32" viewBox="0 0 32 32" fill="none" xmlns="http://www.w3.org/2000/svg">
<path d="M29.34 13.94L21.61 11.16L18.37 7.1C18.0888 6.75639 17.7348 6.47948 17.3336 6.28926C16.9324 6.09904 16.494 6.00024 16.05 6H8.05C7.56198 6.00252 7.08194 6.12407 6.65152 6.35409C6.2211 6.58411 5.85329 6.91567 5.58 7.32L2.87 11.32C2.30861 12.1426 2.00567 13.1141 2 14.11V22C2 22.2652 2.10536 22.5196 2.29289 22.7071C2.48043 22.8946 2.73478 23 3 23H5.14C5.37028 23.8474 5.873 24.5954 6.5706 25.1287C7.26819 25.6621 8.1219 25.951 9 25.951C9.8781 25.951 10.7318 25.6621 11.4294 25.1287C12.127 24.5954 12.6297 23.8474 12.86 23H19.14C19.3703 23.8474 19.873 24.5954 20.5706 25.1287C21.2682 25.6621 22.1219 25.951 23 25.951C23.8781 25.951 24.7318 25.6621 25.4294 25.1287C26.127 24.5954 26.6297 23.8474 26.86 23H29C29.2652 23 29.5196 22.8946 29.7071 22.7071C29.8946 22.5196 30 22.2652 30 22V14.88C29.9999 14.6745 29.9365 14.474 29.8184 14.3058C29.7003 14.1376 29.5333 14.0099 29.34 13.94ZM9 24C8.60444 24 8.21776 23.8827 7.88886 23.6629C7.55996 23.4432 7.30362 23.1308 7.15224 22.7654C7.00087 22.3999 6.96126 21.9978 7.03843 21.6098C7.1156 21.2219 7.30608 20.8655 7.58579 20.5858C7.86549 20.3061 8.22186 20.1156 8.60982 20.0384C8.99778 19.9613 9.39991 20.0009 9.76537 20.1522C10.1308 20.3036 10.4432 20.56 10.6629 20.8889C10.8827 21.2178 11 21.6044 11 22C11 22.5304 10.7893 23.0391 10.4142 23.4142C10.0391 23.7893 9.53043 24 9 24ZM23 24C22.6044 24 22.2178 23.8827 21.8889 23.6629C21.56 23.4432 21.3036 23.1308 21.1522 22.7654C21.0009 22.3999 20.9613 21.9978 21.0384 21.6098C21.1156 21.2219 21.3061 20.8655 21.5858 20.5858C21.8655 20.3061 22.2219 20.1156 22.6098 20.0384C22.9978 19.9613 23.3999 20.0009 23.7654 20.1522C24.1308 20.3036 24.4432 20.56 24.6629 20.8889C24.8827 21.2178 25 21.6044 25 22C25 22.5304 24.7893 23.0391 24.4142 23.4142C24.0391 23.7893 23.5304 24 23 24ZM28 21H26.86C26.6297 20.1526 26.127 19.4046 25.4294 18.8713C24.7318 18.3379 23.8781 18.049 23 18.049C22.1219 18.049 21.2682 18.3379 20.5706 18.8713C19.873 19.4046 19.3703 20.1526 19.14 21H12.86C12.6297 20.1526 12.127 19.4046 11.4294 18.8713C10.7318 18.3379 9.8781 18.049 9 18.049C8.1219 18.049 7.26819 18.3379 6.5706 18.8713C5.873 19.4046 5.37028 20.1526 5.14 21H4V14.11C3.99961 13.5072 4.18082 12.9183 4.52 12.42L7.23 8.42C7.32397 8.28798 7.44861 8.18078 7.59319 8.10762C7.73778 8.03445 7.89798 7.99752 8.06 8H16.06C16.2069 7.99976 16.3521 8.0319 16.4852 8.09412C16.6182 8.15634 16.736 8.24712 16.83 8.36L20.23 12.63C20.3473 12.7721 20.4986 12.8822 20.67 12.95L28 15.58V21Z" fill="white"/>
<path fill-rule="evenodd" clip-rule="evenodd" d="M15.2214 9.16795C15.6809 9.4743 15.8051 10.0952 15.4987 10.5547L13.8685 13H16C16.3688 13 16.7077 13.203 16.8817 13.5281C17.0557 13.8533 17.0366 14.2478 16.8321 14.5547L14.1654 18.5547C13.859 19.0142 13.2382 19.1384 12.7786 18.832C12.3191 18.5257 12.1949 17.9048 12.5013 17.4453L14.1315 15H12C11.6312 15 11.2923 14.797 11.1183 14.4719C10.9443 14.1467 10.9634 13.7522 11.168 13.4453L13.8346 9.4453C14.141 8.98577 14.7618 8.8616 15.2214 9.16795Z" fill="white"/>
</svg>
