<svg width="32" height="32" viewBox="0 0 32 32" fill="none" xmlns="http://www.w3.org/2000/svg">
    <path fill-rule="evenodd" clip-rule="evenodd" d="M24.25 7.75a1 1 0 0 1 0 1.415L9.165 24.25a1 1 0 0 1-1.415-1.415L22.835 7.75a1 1 0 0 1 1.415 0z" fill="#fff"/>
    <path fill-rule="evenodd" clip-rule="evenodd" d="M7.75 7.75a1 1 0 0 1 1.415 0L24.25 22.835a1 1 0 0 1-1.415 1.415L7.75 9.165a1 1 0 0 1 0-1.415z" fill="#fff"/>
    <path fill-rule="evenodd" clip-rule="evenodd" d="M24.25 7.75a1 1 0 0 1 0 1.415L9.165 24.25a1 1 0 0 1-1.415-1.415L22.835 7.75a1 1 0 0 1 1.415 0z" fill="#fff"/>
    <path fill-rule="evenodd" clip-rule="evenodd" d="M7.75 7.75a1 1 0 0 1 1.415 0L24.25 22.835a1 1 0 0 1-1.415 1.415L7.75 9.165a1 1 0 0 1 0-1.415z" fill="#fff"/>
</svg>
