<svg width="24" height="24" viewBox="0 0 24 24" fill="none" xmlns="http://www.w3.org/2000/svg">
<path fill-rule="evenodd" clip-rule="evenodd" d="M1.5 12C1.5 6.15 6.15 1.5 12 1.5C17.85 1.5 22.5 6.15 22.5 12C22.5 17.85 17.85 22.5 12 22.5C6.15 22.5 1.5 17.85 1.5 12ZM3 12C3 16.95 7.05 21 12 21C16.95 21 21 16.95 21 12C21 7.05 16.95 3 12 3C7.05 3 3 7.05 3 12Z" fill="white"/>
<path d="M10.7676 9.59998H12.9576V18H10.7676V9.59998ZM11.8776 8.24998C11.4976 8.24998 11.1826 8.13998 10.9326 7.91998C10.6826 7.68998 10.5576 7.39998 10.5576 7.04998C10.5576 6.68998 10.6826 6.39998 10.9326 6.17998C11.1826 5.95998 11.4976 5.84998 11.8776 5.84998C12.2576 5.84998 12.5676 5.95998 12.8076 6.17998C13.0576 6.39998 13.1826 6.68998 13.1826 7.04998C13.1826 7.39998 13.0576 7.68998 12.8076 7.91998C12.5676 8.13998 12.2576 8.24998 11.8776 8.24998Z" fill="white"/>
</svg>
