<svg width="32" height="32" viewBox="0 0 32 32" fill="none" xmlns="http://www.w3.org/2000/svg">
<path fill-rule="evenodd" clip-rule="evenodd" d="M16 27.3333C22.2592 27.3333 27.3333 22.2592 27.3333 16C27.3333 9.74078 22.2592 4.66667 16 4.66667C9.74076 4.66667 4.66666 9.74078 4.66666 16C4.66666 22.2592 9.74076 27.3333 16 27.3333ZM16 29.3333C23.3638 29.3333 29.3333 23.3638 29.3333 16C29.3333 8.63621 23.3638 2.66667 16 2.66667C8.63619 2.66667 2.66666 8.63621 2.66666 16C2.66666 23.3638 8.63619 29.3333 16 29.3333Z" fill="white"/>
<path fill-rule="evenodd" clip-rule="evenodd" d="M14.8512 11.1675C14.4225 11.2848 14.1336 11.4313 14.0064 11.5403C13.6229 11.869 13.4444 12.2788 13.4444 12.6667C13.4444 13.219 12.9967 13.6667 12.4444 13.6667C11.8921 13.6667 11.4444 13.219 11.4444 12.6667C11.4444 11.6401 11.9214 10.6933 12.7048 10.0218C13.1611 9.63075 13.7818 9.38664 14.3232 9.23847C14.8846 9.0848 15.4888 9.00001 16 9.00001C16.5111 9.00001 17.1153 9.0848 17.6768 9.23847C18.2181 9.38664 18.8389 9.63075 19.2951 10.0218C20.0712 10.687 20.5466 11.6225 20.5554 12.6381C20.5939 13.4221 20.3797 14.198 19.944 14.8516C19.5136 15.4971 18.8898 15.9891 18.1629 16.2575C17.7446 16.4589 17.4547 16.6856 17.2726 16.9333C17.098 17.1708 16.979 17.4851 16.9991 17.9575C17.0226 18.5093 16.5943 18.9756 16.0425 18.9991C15.4907 19.0226 15.0244 18.5943 15.0009 18.0425C14.9628 17.146 15.1992 16.3771 15.6612 15.7486C16.1102 15.1379 16.7258 14.7221 17.3532 14.4279C17.3835 14.4137 17.4145 14.4011 17.446 14.39C17.7868 14.2701 18.0795 14.0428 18.2799 13.7422C18.4803 13.4416 18.5776 13.084 18.5571 12.7233C18.5561 12.7044 18.5555 12.6856 18.5555 12.6667C18.5555 12.2788 18.377 11.869 17.9935 11.5403C17.8663 11.4313 17.5774 11.2848 17.1488 11.1675C16.7402 11.0557 16.3139 11 16 11C15.686 11 15.2597 11.0557 14.8512 11.1675Z" fill="white"/>
<path d="M17.3333 22.2222C17.3333 22.9586 16.7364 23.5555 16 23.5555C15.2636 23.5555 14.6667 22.9586 14.6667 22.2222C14.6667 21.4858 15.2636 20.8889 16 20.8889C16.7364 20.8889 17.3333 21.4858 17.3333 22.2222Z" fill="white"/>
</svg>
