<svg width="24" height="24" viewBox="0 0 24 24" fill="none" xmlns="http://www.w3.org/2000/svg">
<path fill-rule="evenodd" clip-rule="evenodd" d="M5 4.75C4.66848 4.75 4.35054 4.8817 4.11612 5.11612C3.8865 5.34573 3.75544 5.65547 3.75017 5.97962C3.98167 9.68818 5.5593 13.185 8.18716 15.8128C10.815 18.4407 14.3118 20.0183 18.0204 20.2498C18.3445 20.2446 18.6543 20.1135 18.8839 19.8839C19.1183 19.6495 19.25 19.3315 19.25 19V15.677C19.25 15.5748 19.1878 15.4829 19.0928 15.4449L15.5122 14.0126C15.3983 13.9671 15.2681 14.0109 15.205 14.1161L14.617 15.0962C14.1574 15.8621 13.1411 16.2043 12.3052 15.7011C10.6631 14.7126 9.28744 13.3369 8.29889 11.6948C7.79567 10.8589 8.13787 9.84263 8.90385 9.38305L9.88386 8.79504C9.98908 8.73191 10.0329 8.60175 9.98735 8.48782L8.55509 4.90715C8.51712 4.81224 8.42519 4.75 8.32297 4.75H5ZM3.05546 4.05546C3.57118 3.53973 4.27065 3.25 5 3.25H8.32297C9.03855 3.25 9.68204 3.68566 9.9478 4.35007L11.3801 7.93073C11.6991 8.72824 11.3921 9.63936 10.6556 10.0813L9.67559 10.6693C9.61769 10.704 9.58316 10.7548 9.56972 10.8028C9.55718 10.8475 9.56289 10.8861 9.58399 10.9212C10.4463 12.3536 11.6464 13.5537 13.0788 14.416C13.1139 14.4371 13.1525 14.4428 13.1972 14.4303C13.2452 14.4168 13.296 14.3823 13.3307 14.3244L13.9187 13.3444C14.3606 12.6079 15.2718 12.3009 16.0693 12.6199L19.6499 14.0522C20.3143 14.318 20.75 14.9614 20.75 15.677V19C20.75 19.7293 20.4603 20.4288 19.9445 20.9445C19.4288 21.4603 18.7293 21.75 18 21.75C17.9848 21.75 17.9697 21.7495 17.9545 21.7486C13.8709 21.5005 10.0194 19.7664 7.1265 16.8735C4.23364 13.9806 2.49954 10.1291 2.25138 6.04549C2.25046 6.03035 2.25 6.01518 2.25 6C2.25 5.27065 2.53973 4.57118 3.05546 4.05546Z" fill="white"/>
</svg>
