<svg width="24" height="24" viewBox="0 0 24 24" fill="none" xmlns="http://www.w3.org/2000/svg">
<path d="M5.60178 2.70429C5.82043 2.70834 6.03461 2.76408 6.22742 2.86727C6.42023 2.97046 6.58579 3.11805 6.71045 3.29773L8.56107 6.12427C8.56107 6.12427 9.43861 7.55223 8.56107 8.39747L8.23708 8.85224C8.03934 9.09394 7.92815 9.395 7.92229 9.70723C7.91643 10.0195 8.01569 10.3248 8.20422 10.5737C9.51045 12.5139 11.1616 14.198 13.0753 15.5427C13.3285 15.6898 13.6157 15.7692 13.9086 15.773C14.179 15.7743 14.4434 15.6939 14.6676 15.5427L15.2519 15.0879C15.5804 14.8043 15.9925 14.6357 16.4256 14.6075C16.6944 14.6071 16.9555 14.6961 17.1682 14.8605C18.2711 15.4613 19.3055 16.1803 20.253 17.0046C20.253 17.0046 21.2286 17.9467 20.7078 18.8552C20.2703 19.5204 19.7817 20.1503 19.2462 20.7394C19.0594 20.9329 18.8332 21.0836 18.5825 21.181C18.3317 21.2784 18.0623 21.32 17.7938 21.3032C17.1784 21.2838 16.576 21.1246 16.0313 20.8376C10.7348 18.4288 6.40042 14.3115 3.72289 9.14567C3.14598 8.16304 2.74966 7.08499 2.55311 5.9626C2.54436 5.40759 2.67884 4.85984 2.94348 4.37189C3.41087 3.91182 3.92176 3.49847 4.46945 3.1377C4.79216 2.87863 5.18852 2.72744 5.60178 2.70561V2.70429ZM5.60178 1.3597C4.9211 1.3761 4.26193 1.60409 3.71698 2.01228C3.10049 2.41846 2.52581 2.88486 2.00108 3.40419L1.9393 3.46334L1.88673 3.5307C1.41766 4.25345 1.17908 5.10129 1.20194 5.9626V5.99776V6.03128C1.39617 7.36979 1.85361 8.65655 2.54785 9.81731C5.3577 15.2394 9.91473 19.5549 15.4819 22.0652C16.1974 22.427 16.9844 22.6246 17.7859 22.6439C18.2397 22.6602 18.6917 22.5797 19.1121 22.4083C19.5326 22.2368 19.9118 21.9782 20.2248 21.6492C20.8119 21.0076 21.3466 20.3198 21.8237 19.5926L21.848 19.5564L21.8684 19.5186C22.1517 18.9493 22.2405 18.3026 22.1214 17.6779C22.0023 17.0531 21.6815 16.4847 21.2086 16.0596C20.1968 15.1502 19.0807 14.3644 17.8832 13.719C17.4535 13.4185 16.9414 13.2573 16.417 13.2573C15.6713 13.2812 14.9561 13.5584 14.389 14.0433L13.9059 14.4189H13.8981C13.8511 14.4168 13.805 14.4046 13.7633 14.3828C12.0214 13.142 10.5165 11.5975 9.32143 9.82388C9.29839 9.79272 9.28018 9.75833 9.26754 9.72169L9.36612 9.64086L9.32669 9.63165L9.59614 9.26133C10.025 8.71737 10.2676 8.05017 10.2881 7.3578C10.3087 6.66543 10.1062 5.98466 9.71049 5.41616L7.83686 2.5561L7.80466 2.50615L7.76851 2.46048C7.51697 2.12192 7.19054 1.846 6.81494 1.65411C6.43934 1.46223 6.02484 1.35951 5.60309 1.35411L5.60178 1.3597Z" fill="white"/>
</svg>
