<svg width="16" height="16" viewBox="0 0 16 16" fill="none" xmlns="http://www.w3.org/2000/svg">
<path fill-rule="evenodd" clip-rule="evenodd" d="M7.49998 13.6449V12.6667C7.49998 12.3905 7.72384 12.1667 7.99998 12.1667C8.27612 12.1667 8.49998 12.3905 8.49998 12.6667V13.6449C11.2307 13.4062 13.4062 11.2307 13.6449 8.5H12.6666C12.3905 8.5 12.1666 8.27614 12.1666 8C12.1666 7.72385 12.3905 7.5 12.6666 7.5H13.6449C13.4062 4.76931 11.2307 2.59381 8.49998 2.35508V3.33333C8.49998 3.60947 8.27612 3.83333 7.99998 3.83333C7.72384 3.83333 7.49998 3.60947 7.49998 3.33333V2.35508C4.7693 2.59381 2.5938 4.76931 2.35507 7.5H3.33331C3.60946 7.5 3.83331 7.72385 3.83331 8C3.83331 8.27614 3.60946 8.5 3.33331 8.5H2.35507C2.5938 11.2307 4.7693 13.4062 7.49998 13.6449ZM14.6666 8C14.6666 11.6819 11.6819 14.6667 7.99998 14.6667C4.31808 14.6667 1.33331 11.6819 1.33331 8C1.33331 4.3181 4.31808 1.33333 7.99998 1.33333C11.6819 1.33333 14.6666 4.3181 14.6666 8ZM6.86204 6.59572C6.74421 6.64625 6.6503 6.74011 6.5997 6.85791L5.18209 10.1582C5.10138 10.3461 5.14323 10.5642 5.28776 10.7089C5.43229 10.8536 5.65036 10.8957 5.83835 10.8152L9.14158 9.40048C9.25977 9.34986 9.35392 9.25566 9.40447 9.13745L10.8153 5.8381C10.8956 5.65016 10.8535 5.43223 10.7089 5.28777C10.5643 5.14332 10.3463 5.10143 10.1585 5.18199L6.86204 6.59572ZM8.56375 8.5601L6.59466 9.40342L7.43971 7.43606L9.40476 6.59332L8.56375 8.5601Z" fill="white"/>
</svg>
