<svg width="24" height="24" viewBox="0 0 24 24" fill="none" xmlns="http://www.w3.org/2000/svg">
<path fill-rule="evenodd" clip-rule="evenodd" d="M20.2647 6.03125C20.5581 6.32364 20.5589 6.79851 20.2665 7.09191L19.2077 8.15441C18.9153 8.44781 18.4404 8.44863 18.147 8.15625C17.8536 7.86386 17.8528 7.38899 18.1452 7.09559L19.204 6.03309C19.4964 5.73969 19.9713 5.73887 20.2647 6.03125Z" fill="white"/>
<path fill-rule="evenodd" clip-rule="evenodd" d="M18.1423 4.97356C18.433 4.67853 18.9079 4.67507 19.2029 4.96581L22.3794 8.09625C22.5224 8.2372 22.6029 8.42963 22.6029 8.63043V15.9348C22.6029 16.5524 22.3539 17.1424 21.9142 17.5757C21.4749 18.0087 20.8813 18.25 20.2647 18.25C19.6481 18.25 19.0545 18.0087 18.6152 17.5757C18.1755 17.1424 17.9265 16.5524 17.9265 15.9348V12.8043C17.9265 12.4533 17.7851 12.1144 17.5298 11.8628C17.2741 11.6109 16.9251 11.4674 16.5588 11.4674H15.5C15.0858 11.4674 14.75 11.1316 14.75 10.7174C14.75 10.3032 15.0858 9.96739 15.5 9.96739H16.5588C17.3159 9.96739 18.0441 10.2637 18.5827 10.7945C19.1216 11.3256 19.4265 12.0484 19.4265 12.8043V15.9348C19.4265 16.1474 19.5121 16.3536 19.6681 16.5074C19.8245 16.6615 20.0389 16.75 20.2647 16.75C20.4905 16.75 20.7049 16.6615 20.8613 16.5074C21.0173 16.3536 21.1029 16.1474 21.1029 15.9348V8.94431L18.15 6.03419C17.855 5.74344 17.8515 5.26858 18.1423 4.97356Z" fill="white"/>
<path fill-rule="evenodd" clip-rule="evenodd" d="M3.25 4.5C3.25 3.25736 4.25736 2.25 5.5 2.25H13.5C14.7426 2.25 15.75 3.25736 15.75 4.5V21.75H3.25V4.5ZM5.5 3.75C5.08579 3.75 4.75 4.08579 4.75 4.5V20.25H14.25V4.5C14.25 4.08579 13.9142 3.75 13.5 3.75H5.5Z" fill="white"/>
<path fill-rule="evenodd" clip-rule="evenodd" d="M10.1863 10.3382C10.5518 10.5332 10.69 10.9875 10.4951 11.3529L9.75 12.75H10.5C10.7634 12.75 11.0076 12.8882 11.1431 13.1141C11.2787 13.34 11.2857 13.6205 11.1618 13.8529L9.82843 16.3529C9.63351 16.7184 9.17921 16.8567 8.81373 16.6618C8.44824 16.4668 8.30998 16.0125 8.5049 15.6471L9.25 14.25H8.5C8.23655 14.25 7.99242 14.1118 7.85688 13.8859C7.72134 13.66 7.71426 13.3795 7.83823 13.1471L9.17157 10.6471C9.36649 10.2816 9.82079 10.1433 10.1863 10.3382Z" fill="white"/>
<path fill-rule="evenodd" clip-rule="evenodd" d="M1.75 21C1.75 20.5858 2.08579 20.25 2.5 20.25H16.5C16.9142 20.25 17.25 20.5858 17.25 21C17.25 21.4142 16.9142 21.75 16.5 21.75H2.5C2.08579 21.75 1.75 21.4142 1.75 21Z" fill="white"/>
<path fill-rule="evenodd" clip-rule="evenodd" d="M4.25 8C4.25 7.58579 4.58579 7.25 5 7.25H15C15.4142 7.25 15.75 7.58579 15.75 8C15.75 8.41421 15.4142 8.75 15 8.75H5C4.58579 8.75 4.25 8.41421 4.25 8Z" fill="white"/>
</svg>
