<svg width="24" height="24" viewBox="0 0 24 24" fill="none" xmlns="http://www.w3.org/2000/svg">
<path d="M12.3676 2.54004C12.8456 2.54004 13.5201 2.76344 13.5201 3.26179V21.5872H3.79518V3.25915C3.79518 2.88403 3.89304 2.5374 4.5986 2.5374H12.3676V2.54004ZM12.3676 1.18317H4.59992C4.31721 1.15778 4.03253 1.19343 3.76477 1.28764C3.49701 1.38186 3.2525 1.53253 3.04798 1.72936C2.84345 1.92618 2.68357 2.16468 2.57915 2.42862C2.47473 2.69257 2.42776 2.97567 2.44227 3.25915V22.9388H14.8757V3.25915C14.8496 2.95741 14.7637 2.66382 14.6231 2.39556C14.4825 2.1273 14.2903 1.88981 14.0571 1.69662C13.8238 1.50344 13.554 1.35859 13.2642 1.27045C12.9745 1.18231 12.6702 1.1526 12.3689 1.18317H12.3676Z" fill="white"/>
<path d="M18.9551 22.6045C18.8548 22.6045 18.7844 22.6043 18.7587 22.5962H18.7408C18.4132 22.6045 18.0873 22.5455 17.7833 22.423C17.4794 22.3004 17.2036 22.1169 16.9733 21.8837C16.4787 21.3186 16.2149 20.5882 16.234 19.8375V13.7705C16.2103 13.4142 16.0562 13.0793 15.8009 12.8296C15.5957 12.683 15.3525 12.598 15.1007 12.5846C14.8488 12.5712 14.5983 12.6296 14.3786 12.7535L13.7358 11.562C14.1983 11.2955 14.7316 11.1777 15.2633 11.2244C15.795 11.2712 16.2993 11.4801 16.7081 11.8232C16.9762 12.0735 17.1919 12.3747 17.3429 12.7089C17.494 13.0432 17.5775 13.4039 17.5883 13.7705V19.8646C17.5779 20.2576 17.7075 20.6417 17.9539 20.948C18.0684 21.0533 18.2037 21.134 18.3507 21.1848C18.4977 21.2356 18.6532 21.2554 18.8083 21.2433C19.2041 21.2813 19.6005 21.1728 19.9218 20.9385C20.0236 20.8307 20.1014 20.7026 20.1499 20.5625C20.1985 20.4225 20.2168 20.2738 20.2035 20.1261V6.40492L17.009 2.80146L18.022 1.90216L21.5577 5.89179V20.1261C21.5731 20.4621 21.5161 20.7974 21.3911 21.1097C21.2661 21.422 21.0759 21.704 20.833 21.9366C20.308 22.3785 19.6412 22.6158 18.9551 22.6045Z" fill="white"/>
<path d="M19.5975 9.75945C19.2204 9.76155 18.8476 9.68406 18.5025 9.53198C17.7749 9.1819 17.2152 8.55758 16.9473 7.79588C16.1198 5.84443 18.8436 3.87812 19.1578 3.66144L19.9308 4.77167C19.2266 5.26461 17.8804 6.53228 18.2135 7.32045C18.3634 7.74165 18.6665 8.09071 19.0626 8.2981C19.3169 8.38375 19.5861 8.41596 19.8534 8.39266C20.1207 8.36935 20.3802 8.29124 20.6159 8.16287L21.1581 9.40073C20.6685 9.62701 20.1368 9.74906 19.5975 9.75945Z" fill="white"/>
</svg>
