<svg width="16" height="16" viewBox="0 0 16 16" fill="none" xmlns="http://www.w3.org/2000/svg">
<path fill-rule="evenodd" clip-rule="evenodd" d="M9.37315 2.15087C9.78989 1.73412 10.3551 1.5 10.9445 1.5C11.5338 1.5 12.0991 1.73412 12.5158 2.15087C12.9326 2.56761 13.1667 3.13284 13.1667 3.7222C13.1667 4.31157 12.9326 4.87679 12.5158 5.29354L6.12247 11.6869C6.0287 11.7807 5.90152 11.8333 5.76892 11.8333H3.33335C3.05721 11.8333 2.83335 11.6095 2.83335 11.3333V8.89777C2.83335 8.76516 2.88603 8.63799 2.9798 8.54422L9.37315 2.15087ZM10.9445 2.5C10.6203 2.5 10.3095 2.62877 10.0803 2.85798L3.83335 9.10488V10.8333H5.56181L11.8087 4.58643C12.0379 4.35722 12.1667 4.04635 12.1667 3.7222C12.1667 3.39805 12.0379 3.08718 11.8087 2.85797C11.5795 2.62877 11.2686 2.5 10.9445 2.5Z" fill="white"/>
<path fill-rule="evenodd" clip-rule="evenodd" d="M9.20202 3.20206C9.39728 3.0068 9.71386 3.0068 9.90912 3.20206L11.4647 4.75762C11.6599 4.95288 11.6599 5.26946 11.4647 5.46472C11.2694 5.65999 10.9528 5.65999 10.7576 5.46472L9.20202 3.90917C9.00675 3.71391 9.00675 3.39732 9.20202 3.20206Z" fill="white"/>
<path fill-rule="evenodd" clip-rule="evenodd" d="M2.16669 14C2.16669 13.7239 2.39054 13.5 2.66669 13.5H13.3334C13.6095 13.5 13.8334 13.7239 13.8334 14C13.8334 14.2761 13.6095 14.5 13.3334 14.5H2.66669C2.39054 14.5 2.16669 14.2761 2.16669 14Z" fill="white"/>
</svg>
