<svg width="24" height="24" viewBox="0 0 24 24" fill="none" xmlns="http://www.w3.org/2000/svg">
<path fill-rule="evenodd" clip-rule="evenodd" d="M8.70741 22.44C8.39168 22.3067 8.20645 21.9764 8.25742 21.6375L9.62242 12.75H5.99992C5.76716 12.7563 5.54469 12.6541 5.3978 12.4734C5.25092 12.2927 5.19628 12.0541 5.24992 11.8275L7.49992 2.0775C7.58152 1.73162 7.89467 1.4905 8.24992 1.5H15.7499C15.9769 1.49922 16.1919 1.60125 16.3349 1.7775C16.48 1.95579 16.5352 2.19074 16.4849 2.415L15.1874 8.25H18.7499C19.0367 8.24942 19.2987 8.41245 19.4249 8.67C19.5343 8.91664 19.5028 9.20304 19.3424 9.42L9.59242 22.17C9.45877 22.3681 9.23871 22.4907 8.99992 22.5C8.89956 22.4981 8.8004 22.4778 8.70741 22.44Z" fill="white"/>
</svg>
