<svg width="24" height="24" viewBox="0 0 24 24" fill="none" xmlns="http://www.w3.org/2000/svg">
<path fill-rule="evenodd" clip-rule="evenodd" d="M8.25 6C8.25 5.58579 8.58579 5.25 9 5.25L21 5.25C21.4142 5.25 21.75 5.58579 21.75 6C21.75 6.41421 21.4142 6.75 21 6.75L9 6.75C8.58579 6.75 8.25 6.41421 8.25 6Z" fill="white"/>
<path d="M6.75 7.5C6.75 7.91421 6.41421 8.25 6 8.25L3 8.25C2.58579 8.25 2.25 7.91421 2.25 7.5L2.25 4.5C2.25 4.08579 2.58579 3.75 3 3.75L6 3.75C6.41421 3.75 6.75 4.08579 6.75 4.5L6.75 7.5Z" fill="white"/>
<path fill-rule="evenodd" clip-rule="evenodd" d="M8.25 12C8.25 11.5858 8.58579 11.25 9 11.25L21 11.25C21.4142 11.25 21.75 11.5858 21.75 12C21.75 12.4142 21.4142 12.75 21 12.75L9 12.75C8.58579 12.75 8.25 12.4142 8.25 12Z" fill="white"/>
<path d="M6.75 13.5C6.75 13.9142 6.41421 14.25 6 14.25L3 14.25C2.58579 14.25 2.25 13.9142 2.25 13.5L2.25 10.5C2.25 10.0858 2.58579 9.75 3 9.75L6 9.75C6.41421 9.75 6.75 10.0858 6.75 10.5L6.75 13.5Z" fill="white"/>
<path fill-rule="evenodd" clip-rule="evenodd" d="M8.25 18C8.25 17.5858 8.58579 17.25 9 17.25L21 17.25C21.4142 17.25 21.75 17.5858 21.75 18C21.75 18.4142 21.4142 18.75 21 18.75L9 18.75C8.58579 18.75 8.25 18.4142 8.25 18Z" fill="white"/>
<path d="M6.75 19.5C6.75 19.9142 6.41421 20.25 6 20.25L3 20.25C2.58579 20.25 2.25 19.9142 2.25 19.5L2.25 16.5C2.25 16.0858 2.58579 15.75 3 15.75L6 15.75C6.41421 15.75 6.75 16.0858 6.75 16.5L6.75 19.5Z" fill="white"/>
</svg>
