<svg width="20" height="20" viewBox="0 0 20 20" fill="none" xmlns="http://www.w3.org/2000/svg">
    <path d="M10 13.75a1.25 1.25 0 1 0 0-2.5 1.25 1.25 0 0 0 0 2.5z" fill="#fff"/>
    <path fill-rule="evenodd" clip-rule="evenodd" d="M6.042 5.833a3.958 3.958 0 0 1 7.917 0V7.5h1.458c.69 0 1.25.56 1.25 1.25v7.5c0 .69-.56 1.25-1.25 1.25H4.583c-.69 0-1.25-.56-1.25-1.25v-7.5c0-.69.56-1.25 1.25-1.25h1.459V5.833zm6.667 0V7.5H7.292V5.833a2.708 2.708 0 0 1 5.417 0zM4.584 8.75v7.5h10.833v-7.5H4.583z" fill="#fff"/>
</svg>
