<svg width="24" height="24" viewBox="0 0 24 24" fill="none" xmlns="http://www.w3.org/2000/svg">
<path fill-rule="evenodd" clip-rule="evenodd" d="M8.44796 4.77396C7.86489 4.71177 7.27525 4.77096 6.71619 4.9478C6.15712 5.12464 5.64075 5.4153 5.19957 5.80145C4.7584 6.18761 4.40198 6.66091 4.15276 7.19154C3.90354 7.72216 3.76691 8.29862 3.75147 8.88463C3.73603 9.47063 3.84212 10.0535 4.06305 10.5965C4.28399 11.1395 4.61498 11.6309 5.03521 12.0397L5.03995 12.0443L5.03993 12.0444L12.0083 18.9445L18.9767 12.0444C18.9951 12.0261 19.0143 12.0091 19.034 11.9931C19.4249 11.5949 19.7336 11.1234 19.9423 10.6054C20.1607 10.0634 20.2649 9.48211 20.2483 8.89797C20.2317 8.31383 20.0946 7.7394 19.8457 7.21064C19.5969 6.68187 19.2415 6.21015 18.8019 5.825C18.3623 5.43985 17.8478 5.14955 17.2908 4.9723C16.7338 4.79505 16.1462 4.73466 15.5648 4.7949C14.9833 4.85514 14.4206 5.03473 13.9118 5.32241C13.403 5.61009 12.959 5.99967 12.6077 6.46676C12.4656 6.65574 12.2427 6.76662 12.0062 6.76597C11.7698 6.76531 11.5475 6.65318 11.4064 6.46341C11.0567 5.99291 10.6132 5.59989 10.1041 5.30913C9.59491 5.01836 9.03103 4.83615 8.44796 4.77396ZM19.972 13.1697L12.536 20.5329C12.2438 20.8224 11.7729 20.8224 11.4806 20.5329L3.98921 13.1149C3.98839 13.114 3.98756 13.1132 3.98673 13.1124C3.41926 12.5597 2.9722 11.8956 2.67365 11.1618C2.37467 10.427 2.2311 9.63817 2.25199 8.84512C2.27289 8.05207 2.45779 7.27194 2.79506 6.55386C3.13232 5.83577 3.61464 5.1953 4.21163 4.67276C4.80861 4.15021 5.50734 3.75692 6.26381 3.51764C7.02028 3.27836 7.8181 3.19827 8.60704 3.28242C9.39598 3.36656 10.159 3.61312 10.8479 4.00656C11.2725 4.24902 11.6633 4.54403 12.0115 4.88375C12.3598 4.54767 12.75 4.25608 13.1735 4.01666C13.862 3.62739 14.6234 3.3844 15.4102 3.30289C16.1969 3.22137 16.992 3.30309 17.7457 3.54293C18.4994 3.78277 19.1954 4.17556 19.7903 4.69675C20.3852 5.21793 20.8661 5.85628 21.2029 6.57184C21.5397 7.2874 21.7252 8.06478 21.7477 8.85531C21.7702 9.64584 21.6292 10.4325 21.3336 11.1661C21.0381 11.8996 20.5942 12.5643 20.0299 13.1184C20.0113 13.1367 19.992 13.1538 19.972 13.1697Z" fill="white"/>
</svg>
