<svg width="24" height="24" viewBox="0 0 24 24" fill="none" xmlns="http://www.w3.org/2000/svg">
    <path fill-rule="evenodd" clip-rule="evenodd" d="M11 3.75a.25.25 0 0 0-.25.25v6a.25.25 0 0 0 .25.25h7a.75.75 0 0 1 .53.22l1.72 1.72V4a.25.25 0 0 0-.25-.25h-9zm-1.237-.987A1.75 1.75 0 0 1 11 2.25h9A1.75 1.75 0 0 1 21.75 4v10a.75.75 0 0 1-1.28.53l-2.78-2.78H11A1.75 1.75 0 0 1 9.25 10V4c0-.464.184-.91.513-1.237zM4 10.75a.25.25 0 0 0-.25.25v8.19l1.72-1.72a.75.75 0 0 1 .53-.22h7a.25.25 0 0 0 .25-.25v-2a.75.75 0 0 1 1.5 0v2A1.75 1.75 0 0 1 13 18.75H6.31l-2.78 2.78A.75.75 0 0 1 2.25 21V11A1.75 1.75 0 0 1 4 9.25h2a.75.75 0 0 1 0 1.5H4z" fill="#fff"/>
</svg>
