<svg width="20" height="20" viewBox="0 0 20 20" fill="none" xmlns="http://www.w3.org/2000/svg">
    <path fill-rule="evenodd" clip-rule="evenodd" d="M3.75 9.596v6.654h12.5V9.596L10 3.424 3.75 9.596zM2.748 8.83l6.666-6.584a.833.833 0 0 1 1.172 0l6.666 6.584c.159.157.248.37.248.593v7.245c0 .46-.373.833-.833.833H3.333a.833.833 0 0 1-.833-.833V9.422c0-.223.09-.436.248-.593z" fill="#fff"/>
    <path fill-rule="evenodd" clip-rule="evenodd" d="M11.25 11.25h-2.5v5h2.5v-5zM8.75 10c-.69 0-1.25.56-1.25 1.25v5c0 .69.56 1.25 1.25 1.25h2.5c.69 0 1.25-.56 1.25-1.25v-5c0-.69-.56-1.25-1.25-1.25h-2.5z" fill="#fff"/>
</svg>
