<svg width="16" height="16" viewBox="0 0 16 16" fill="none" xmlns="http://www.w3.org/2000/svg">
<path fill-rule="evenodd" clip-rule="evenodd" d="M7.99998 13.6667C11.1296 13.6667 13.6666 11.1296 13.6666 8C13.6666 4.87039 11.1296 2.33333 7.99998 2.33333C4.87037 2.33333 2.33331 4.87039 2.33331 8C2.33331 11.1296 4.87037 13.6667 7.99998 13.6667ZM7.99998 14.6667C11.6819 14.6667 14.6666 11.6819 14.6666 8C14.6666 4.3181 11.6819 1.33333 7.99998 1.33333C4.31808 1.33333 1.33331 4.3181 1.33331 8C1.33331 11.6819 4.31808 14.6667 7.99998 14.6667Z" fill="white"/>
<path fill-rule="evenodd" clip-rule="evenodd" d="M7.64643 4.97978C7.84169 4.78452 8.15827 4.78452 8.35353 4.97978L11.0202 7.64645C11.2155 7.84171 11.2155 8.15829 11.0202 8.35355L8.35353 11.0202C8.15827 11.2155 7.84169 11.2155 7.64643 11.0202C7.45116 10.825 7.45116 10.5084 7.64643 10.3131L9.95954 8L7.64643 5.68689C7.45116 5.49162 7.45116 5.17504 7.64643 4.97978Z" fill="white"/>
<path fill-rule="evenodd" clip-rule="evenodd" d="M4.16665 8C4.16665 7.72386 4.3905 7.5 4.66665 7.5H10.6666C10.9428 7.5 11.1666 7.72386 11.1666 8C11.1666 8.27614 10.9428 8.5 10.6666 8.5H4.66665C4.3905 8.5 4.16665 8.27614 4.16665 8Z" fill="white"/>
</svg>
