<svg width="32" height="32" viewBox="0 0 32 32" fill="none" xmlns="http://www.w3.org/2000/svg">
<path fill-rule="evenodd" clip-rule="evenodd" d="M4.33334 9.33333C4.33334 8.78105 4.78106 8.33333 5.33334 8.33333L26.6667 8.33334C27.219 8.33334 27.6667 8.78105 27.6667 9.33334C27.6667 9.88562 27.219 10.3333 26.6667 10.3333L5.33334 10.3333C4.78106 10.3333 4.33334 9.88562 4.33334 9.33333Z" fill="white"/>
<path fill-rule="evenodd" clip-rule="evenodd" d="M13.3333 13.6667C13.8856 13.6667 14.3333 14.1144 14.3333 14.6667V22.6667C14.3333 23.219 13.8856 23.6667 13.3333 23.6667C12.7811 23.6667 12.3333 23.219 12.3333 22.6667V14.6667C12.3333 14.1144 12.7811 13.6667 13.3333 13.6667Z" fill="white"/>
<path fill-rule="evenodd" clip-rule="evenodd" d="M18.6667 13.6667C19.219 13.6667 19.6667 14.1144 19.6667 14.6667V22.6667C19.6667 23.219 19.219 23.6667 18.6667 23.6667C18.1144 23.6667 17.6667 23.219 17.6667 22.6667V14.6667C17.6667 14.1144 18.1144 13.6667 18.6667 13.6667Z" fill="white"/>
<path fill-rule="evenodd" clip-rule="evenodd" d="M6.33334 8.33333H25.6667V26C25.6667 27.6569 24.3235 29 22.6667 29H9.33334C7.67649 29 6.33334 27.6569 6.33334 26V8.33333ZM8.33334 10.3333V26C8.33334 26.5523 8.78106 27 9.33334 27H22.6667C23.219 27 23.6667 26.5523 23.6667 26V10.3333H8.33334Z" fill="white"/>
<path fill-rule="evenodd" clip-rule="evenodd" d="M13.3333 5C13.2449 5 13.1602 5.03512 13.0976 5.09763C13.0351 5.16014 13 5.24493 13 5.33333V9.33333C13 9.88562 12.5523 10.3333 12 10.3333C11.4477 10.3333 11 9.88562 11 9.33333V5.33333C11 4.71449 11.2458 4.121 11.6834 3.68342C12.121 3.24583 12.7145 3 13.3333 3H18.6667C19.2855 3 19.879 3.24583 20.3166 3.68342C20.7542 4.121 21 4.71449 21 5.33333V9.33333C21 9.88562 20.5523 10.3333 20 10.3333C19.4477 10.3333 19 9.88562 19 9.33333V5.33333C19 5.24493 18.9649 5.16014 18.9024 5.09763C18.8399 5.03512 18.7551 5 18.6667 5H13.3333Z" fill="white"/>
</svg>
