<svg width="32" height="32" viewBox="0 0 32 32" fill="none" xmlns="http://www.w3.org/2000/svg">
<path fill-rule="evenodd" clip-rule="evenodd" d="M6.66667 6.33333C6.22464 6.33333 5.80072 6.50893 5.48816 6.82149C5.182 7.12764 5.00726 7.54063 5.00022 7.97283C5.3089 12.9176 7.41239 17.58 10.9162 21.0838C14.42 24.5876 19.0824 26.6911 24.0272 26.9998C24.4594 26.9927 24.8724 26.818 25.1785 26.5118C25.4911 26.1993 25.6667 25.7754 25.6667 25.3333V20.9027C25.6667 20.7664 25.5837 20.6438 25.4571 20.5932L20.6829 18.6835C20.531 18.6228 20.3575 18.6812 20.2733 18.8215L19.4893 20.1282C18.8765 21.1495 17.5215 21.6058 16.4069 20.9348C14.2174 19.6167 12.3833 17.7826 11.0652 15.5931C10.3942 14.4785 10.8505 13.1235 11.8718 12.5107L13.1785 11.7267C13.3188 11.6425 13.3772 11.469 13.3165 11.3171L11.4068 6.54287C11.3562 6.41632 11.2336 6.33333 11.0973 6.33333H6.66667ZM4.07394 5.40728C4.76158 4.71964 5.69421 4.33333 6.66667 4.33333H11.0973C12.0514 4.33333 12.9094 4.91422 13.2637 5.80009L15.1734 10.5743C15.5988 11.6376 15.1895 12.8525 14.2075 13.4417L12.9008 14.2257C12.8236 14.272 12.7775 14.3398 12.7596 14.4037C12.7429 14.4633 12.7505 14.5148 12.7787 14.5616C13.9284 16.4715 15.5285 18.0716 17.4384 19.2213C17.4852 19.2495 17.5367 19.2571 17.5963 19.2404C17.6602 19.2225 17.728 19.1764 17.7743 19.0992L18.5583 17.7925C19.1475 16.8105 20.3624 16.4012 21.4257 16.8266L26.1999 18.7363C27.0858 19.0906 27.6667 19.9486 27.6667 20.9027V25.3333C27.6667 26.3058 27.2804 27.2384 26.5927 27.9261C25.9051 28.6137 24.9725 29 24 29C23.9798 29 23.9595 28.9994 23.9393 28.9982C18.4946 28.6673 13.3591 26.3551 9.502 22.498C5.64486 18.6409 3.33272 13.5054 3.00184 8.06066C3.00061 8.04046 3 8.02023 3 8C3 7.02754 3.38631 6.09491 4.07394 5.40728Z" fill="white"/>
</svg>
