<svg width="32" height="32" viewBox="0 0 32 32" fill="none" xmlns="http://www.w3.org/2000/svg">
<path fill-rule="evenodd" clip-rule="evenodd" d="M17 9C17 6.23858 14.7614 4 12 4C9.23858 4 7 6.23858 7 9C7 11.7614 9.23858 14 12 14C14.7614 14 17 11.7614 17 9ZM5 9C5 5.13401 8.13401 2 12 2C15.866 2 19 5.13401 19 9C19 12.866 15.866 16 12 16C8.13401 16 5 12.866 5 9ZM20 30H22V25C22 21.134 18.866 18 15 18H9C5.13401 18 2 21.134 2 25V30H4V25C4 22.2386 6.23858 20 9 20H15C16.3261 20 17.5979 20.5268 18.5355 21.4645C19.4732 22.4021 20 23.6739 20 25V30ZM19.2902 15.9645C19.2641 15.952 19.2379 15.9397 19.2117 15.9276C19.7814 15.3347 20.2786 14.6717 20.6893 13.9529C23.1245 13.6171 25 11.5276 25 9C25 6.47243 23.1245 4.3829 20.6893 4.04712C20.2727 3.31787 19.767 2.64612 19.1869 2.04671C19.4537 2.01586 19.725 2 20 2C23.866 2 27 5.13401 27 9C27 12.866 23.866 16 20 16C19.7604 16 19.5236 15.988 19.2902 15.9645ZM26.5355 21.4645C25.7619 20.6909 24.7609 20.1969 23.6896 20.0478C23.2621 19.2993 22.7407 18.6113 22.1414 18H23C26.866 18 30 21.134 30 25V30H28V25C28 23.6739 27.4732 22.4021 26.5355 21.4645Z" fill="white"/>
</svg>
