<svg width="32" height="32" viewBox="0 0 32 32" fill="none" xmlns="http://www.w3.org/2000/svg">
    <path fill-rule="evenodd" clip-rule="evenodd" d="M14.667 5a.333.333 0 0 0-.334.333v8a.333.333 0 0 0 .334.334H24a1 1 0 0 1 .707.293L27 16.253V5.333A.333.333 0 0 0 26.667 5h-12zm-1.65-1.317A2.333 2.333 0 0 1 14.667 3h12A2.333 2.333 0 0 1 29 5.333v13.334a1 1 0 0 1-1.707.707l-3.707-3.707h-8.92a2.333 2.333 0 0 1-2.333-2.334v-8c0-.619.246-1.212.684-1.65zM5.333 14.333a.333.333 0 0 0-.333.334v10.919l2.293-2.293A1 1 0 0 1 8 23h9.333a.333.333 0 0 0 .334-.333V20a1 1 0 1 1 2 0v2.667A2.333 2.333 0 0 1 17.333 25H8.414l-3.707 3.707A1 1 0 0 1 3 28V14.667a2.333 2.333 0 0 1 2.333-2.334H8a1 1 0 1 1 0 2H5.333z" fill="#fff"/>
</svg>
