<svg width="32" height="32" viewBox="0 0 32 32" fill="none" xmlns="http://www.w3.org/2000/svg">
<path fill-rule="evenodd" clip-rule="evenodd" d="M6 6H19.3333V10.6667H21.3333V6C21.3333 4.89543 20.4379 4 19.3333 4H6C4.89543 4 4 4.89543 4 6V19.3333C4 20.4379 4.89543 21.3333 6 21.3333H10.6667V19.3333H6V6Z" fill="white"/>
<path fill-rule="evenodd" clip-rule="evenodd" d="M26 12.6667H12.6667V26H26V12.6667ZM12.6667 10.6667C11.5621 10.6667 10.6667 11.5621 10.6667 12.6667V26C10.6667 27.1046 11.5621 28 12.6667 28H26C27.1046 28 28 27.1046 28 26V12.6667C28 11.5621 27.1046 10.6667 26 10.6667H12.6667Z" fill="white"/>
</svg>
