<svg width="16" height="16" viewBox="0 0 16 16" fill="none" xmlns="http://www.w3.org/2000/svg">
<path fill-rule="evenodd" clip-rule="evenodd" d="M3.5 8.00001C3.5 6.6193 4.61929 5.50001 6 5.50001H12.6667C12.9428 5.50001 13.1667 5.72387 13.1667 6.00001C13.1667 6.27615 12.9428 6.50001 12.6667 6.50001H6C5.17157 6.50001 4.5 7.17158 4.5 8.00001V12.6667C4.5 12.9428 4.27614 13.1667 4 13.1667C3.72386 13.1667 3.5 12.9428 3.5 12.6667V8.00001Z" fill="white"/>
<path fill-rule="evenodd" clip-rule="evenodd" d="M13.0202 5.64646C13.2155 5.84172 13.2155 6.1583 13.0202 6.35356L10.3536 9.02023C10.1583 9.21549 9.84171 9.21549 9.64645 9.02023C9.45118 8.82497 9.45118 8.50839 9.64645 8.31312L11.9596 6.00001L9.64645 3.6869C9.45118 3.49163 9.45118 3.17505 9.64645 2.97979C9.84171 2.78453 10.1583 2.78453 10.3536 2.97979L13.0202 5.64646Z" fill="white"/>
</svg>
