<svg width="20" height="20" viewBox="0 0 20 20" fill="none" xmlns="http://www.w3.org/2000/svg">
    <path fill-rule="evenodd" clip-rule="evenodd" d="M7.04 3.978A3.54 3.54 0 0 0 3.386 8.83c.184.453.46.862.81 1.203l.004.004 5.807 5.75 5.807-5.75a.64.64 0 0 1 .048-.043 3.537 3.537 0 0 0-2.891-5.998 3.54 3.54 0 0 0-2.465 1.393.625.625 0 0 1-1-.003A3.54 3.54 0 0 0 7.04 3.978zm9.603 6.997-6.196 6.136a.625.625 0 0 1-.88 0l-6.243-6.182-.002-.002A4.788 4.788 0 1 1 10.01 4.07a4.787 4.787 0 0 1 6.482-.156 4.788 4.788 0 0 1 .2 7.018.644.644 0 0 1-.049.043z" fill="#fff"/>
</svg>
