<svg width="16" height="16" viewBox="0 0 16 16" fill="none" xmlns="http://www.w3.org/2000/svg">
<path fill-rule="evenodd" clip-rule="evenodd" d="M2.9954 2.52943C3.04963 2.50996 3.10681 2.5 3.16442 2.5H12.8356C12.8932 2.5 12.9504 2.50996 13.0046 2.52943C13.185 2.59422 13.3475 2.70006 13.48 2.83791C13.6125 2.97572 13.7116 3.14188 13.7706 3.32329C13.8297 3.50466 13.8473 3.69712 13.8224 3.88616C13.7975 4.07521 13.7306 4.25662 13.6261 4.41645C13.6127 4.43696 13.5978 4.45646 13.5815 4.47478L9.9879 8.52324V13.6667C9.9879 13.8571 9.87973 14.031 9.70893 14.1152C9.53813 14.1993 9.33433 14.1792 9.18332 14.0632L6.20757 11.7775C6.08436 11.6828 6.01214 11.5363 6.01214 11.381V8.52324L2.41852 4.47478C2.40225 4.45646 2.38736 4.43696 2.37395 4.41645C2.26946 4.25662 2.20256 4.07521 2.17765 3.88616C2.15275 3.69713 2.17038 3.50467 2.22941 3.32329C2.28846 3.14188 2.38758 2.97572 2.52005 2.83791C2.65258 2.70006 2.81502 2.59422 2.9954 2.52943ZM3.27696 3.5C3.26422 3.50897 3.25215 3.5193 3.24096 3.53095C3.21412 3.55886 3.19308 3.59356 3.18031 3.63278C3.16754 3.67203 3.16362 3.7141 3.16908 3.75554C3.1733 3.78755 3.18295 3.81803 3.1972 3.84565L6.88608 8.00141C6.96729 8.0929 7.01214 8.211 7.01214 8.33333V11.1345L8.9879 12.6521V8.33333C8.9879 8.211 9.03275 8.0929 9.11396 8.00141L12.8028 3.84565C12.8171 3.81803 12.8267 3.78755 12.831 3.75554C12.8364 3.71411 12.8325 3.67203 12.8197 3.63278C12.807 3.59356 12.7859 3.55886 12.7591 3.53095C12.7479 3.5193 12.7358 3.50897 12.7231 3.5H3.27696Z" fill="white"/>
</svg>
