<svg width="20" height="20" viewBox="0 0 20 20" fill="none" xmlns="http://www.w3.org/2000/svg">
<path fill-rule="evenodd" clip-rule="evenodd" d="M9.99999 17.0834C13.912 17.0834 17.0833 13.912 17.0833 10C17.0833 6.088 13.912 2.91669 9.99999 2.91669C6.08797 2.91669 2.91666 6.088 2.91666 10C2.91666 13.912 6.08797 17.0834 9.99999 17.0834ZM9.99999 18.3334C14.6024 18.3334 18.3333 14.6024 18.3333 10C18.3333 5.39765 14.6024 1.66669 9.99999 1.66669C5.39762 1.66669 1.66666 5.39765 1.66666 10C1.66666 14.6024 5.39762 18.3334 9.99999 18.3334Z" fill="white"/>
<path d="M8.99997 13.5834C8.99997 13.0311 9.44769 12.5834 9.99997 12.5834C10.5523 12.5834 11 13.0311 11 13.5834C11 14.1356 10.5523 14.5834 9.99997 14.5834C9.44769 14.5834 8.99997 14.1356 8.99997 13.5834Z" fill="white"/>
<path fill-rule="evenodd" clip-rule="evenodd" d="M10 11.1667C9.5858 11.1667 9.25002 10.8309 9.25002 10.4167V6.24999C9.25002 5.83578 9.5858 5.49999 10 5.49999C10.4142 5.49999 10.75 5.83578 10.75 6.24999L10.75 10.4167C10.75 10.8309 10.4142 11.1667 10 11.1667Z" fill="white"/>
</svg>
