<svg width="16" height="16" viewBox="0 0 16 16" fill="none" xmlns="http://www.w3.org/2000/svg">
<path fill-rule="evenodd" clip-rule="evenodd" d="M7.99998 13.6667C11.1296 13.6667 13.6666 11.1296 13.6666 8C13.6666 4.87039 11.1296 2.33334 7.99998 2.33334C4.87037 2.33334 2.33331 4.87039 2.33331 8C2.33331 11.1296 4.87037 13.6667 7.99998 13.6667ZM7.99998 14.6667C11.6819 14.6667 14.6666 11.6819 14.6666 8C14.6666 4.3181 11.6819 1.33334 7.99998 1.33334C4.31808 1.33334 1.33331 4.3181 1.33331 8C1.33331 11.6819 4.31808 14.6667 7.99998 14.6667Z" fill="white"/>
<path fill-rule="evenodd" clip-rule="evenodd" d="M6.99998 4.16667C7.27612 4.16667 7.49998 4.39053 7.49998 4.66667V11.3333C7.49998 11.6095 7.27612 11.8333 6.99998 11.8333C6.72384 11.8333 6.49998 11.6095 6.49998 11.3333L6.49998 4.66667C6.49998 4.39053 6.72384 4.16667 6.99998 4.16667Z" fill="white"/>
<path fill-rule="evenodd" clip-rule="evenodd" d="M6.64643 4.31312C6.84169 4.11785 7.15827 4.11785 7.35353 4.31312L8.68687 5.64645C8.88213 5.84171 8.88213 6.15829 8.68687 6.35356C8.4916 6.54882 8.17502 6.54882 7.97976 6.35356L6.99998 5.37378L6.0202 6.35356C5.82494 6.54882 5.50836 6.54882 5.31309 6.35356C5.11783 6.15829 5.11783 5.84171 5.31309 5.64645L6.64643 4.31312Z" fill="white"/>
<path fill-rule="evenodd" clip-rule="evenodd" d="M12.0202 8.31312C12.2155 8.50838 12.2155 8.82496 12.0202 9.02022L10.6869 10.3536C10.4916 10.5488 10.175 10.5488 9.97976 10.3536C9.7845 10.1583 9.7845 9.84171 9.97976 9.64645L10.9595 8.66667L9.97976 7.68689C9.7845 7.49163 9.7845 7.17504 9.97976 6.97978C10.175 6.78452 10.4916 6.78452 10.6869 6.97978L12.0202 8.31312Z" fill="white"/>
<path fill-rule="evenodd" clip-rule="evenodd" d="M6.49998 11.3333C6.49998 9.58443 7.91774 8.16667 9.66665 8.16667H11.6666C11.9428 8.16667 12.1666 8.39053 12.1666 8.66667C12.1666 8.94281 11.9428 9.16667 11.6666 9.16667H9.66665C8.47003 9.16667 7.49998 10.1367 7.49998 11.3333H6.49998Z" fill="white"/>
</svg>
