<svg width="16" height="16" viewBox="0 0 16 16" fill="none" xmlns="http://www.w3.org/2000/svg">
<path fill-rule="evenodd" clip-rule="evenodd" d="M8 14.1C11.3689 14.1 14.1 11.3689 14.1 8C14.1 4.63106 11.3689 1.9 8 1.9C4.63106 1.9 1.9 4.63106 1.9 8C1.9 11.3689 4.63106 14.1 8 14.1ZM8 15C11.866 15 15 11.866 15 8C15 4.13401 11.866 1 8 1C4.13401 1 1 4.13401 1 8C1 11.866 4.13401 15 8 15ZM7.15 11.148V11.7H7.1448L7.14532 11.721V11.721V11.721V11.721C7.14767 11.8149 7.14999 11.9081 7.14999 12H6.24999C6.24999 11.9475 6.24743 11.8832 6.24447 11.8093V11.8093C6.237 11.6224 6.22707 11.374 6.25 11.0975V5.27866L5.10446 6.33132C4.92146 6.49948 4.63679 6.48746 4.46863 6.30446C4.30047 6.12146 4.3125 5.83679 4.4955 5.66863L6.3455 3.96863C6.51766 3.81042 6.7823 3.81042 6.95446 3.96863L8.80446 5.66863C8.98746 5.83679 8.99949 6.12146 8.83133 6.30446C8.66317 6.48746 8.37849 6.49948 8.1955 6.33132L7.15 5.3706V9.29756C7.79991 8.77975 8.84367 8.47154 10.4699 8.48518L9.5687 7.50448C9.40054 7.32149 9.41257 7.03682 9.59557 6.86866C9.77857 6.70049 10.0632 6.71252 10.2314 6.89552L11.9314 8.74552C12.0896 8.91768 12.0896 9.18232 11.9314 9.35448L10.2314 11.2045C10.0632 11.3875 9.77857 11.3995 9.59557 11.2313C9.41257 11.0632 9.40054 10.7785 9.5687 10.5955L10.6776 9.38874C8.67743 9.33596 7.84343 9.78533 7.48578 10.2225C7.25441 10.5052 7.17435 10.8228 7.15 11.148Z" fill="white"/>
</svg>
