<svg width="24" height="24" viewBox="0 0 24 24" fill="none" xmlns="http://www.w3.org/2000/svg">
<path fill-rule="evenodd" clip-rule="evenodd" d="M8.5 15C7.39543 15 6.5 15.8954 6.5 17C6.5 18.1046 7.39543 19 8.5 19C9.60457 19 10.5 18.1046 10.5 17C10.5 15.8954 9.60457 15 8.5 15ZM5 17C5 15.067 6.567 13.5 8.5 13.5C10.433 13.5 12 15.067 12 17C12 18.933 10.433 20.5 8.5 20.5C6.567 20.5 5 18.933 5 17Z" fill="white"/>
<path fill-rule="evenodd" clip-rule="evenodd" d="M21.75 17C21.75 17.4142 21.4142 17.75 21 17.75H12C11.5858 17.75 11.25 17.4142 11.25 17C11.25 16.5858 11.5858 16.25 12 16.25H21C21.4142 16.25 21.75 16.5858 21.75 17Z" fill="white"/>
<path fill-rule="evenodd" clip-rule="evenodd" d="M5.75 17C5.75 17.4142 5.41421 17.75 5 17.75H2.5C2.08579 17.75 1.75 17.4142 1.75 17C1.75 16.5858 2.08579 16.25 2.5 16.25H5C5.41421 16.25 5.75 16.5858 5.75 17Z" fill="white"/>
<path fill-rule="evenodd" clip-rule="evenodd" d="M15.5 9C16.6046 9 17.5 8.10457 17.5 7C17.5 5.89543 16.6046 5 15.5 5C14.3954 5 13.5 5.89543 13.5 7C13.5 8.10457 14.3954 9 15.5 9ZM19 7C19 8.933 17.433 10.5 15.5 10.5C13.567 10.5 12 8.933 12 7C12 5.067 13.567 3.5 15.5 3.5C17.433 3.5 19 5.067 19 7Z" fill="white"/>
<path fill-rule="evenodd" clip-rule="evenodd" d="M2.25 7C2.25 6.58579 2.58579 6.25 3 6.25H12C12.4142 6.25 12.75 6.58579 12.75 7C12.75 7.41421 12.4142 7.75 12 7.75H3C2.58579 7.75 2.25 7.41421 2.25 7Z" fill="white"/>
<path fill-rule="evenodd" clip-rule="evenodd" d="M17.75 7C17.75 6.58579 18.0858 6.25 18.5 6.25H21C21.4142 6.25 21.75 6.58579 21.75 7C21.75 7.41421 21.4142 7.75 21 7.75H18.5C18.0858 7.75 17.75 7.41421 17.75 7Z" fill="white"/>
</svg>
