<svg width="16" height="16" viewBox="0 0 16 16" fill="none" xmlns="http://www.w3.org/2000/svg">
<path d="M7.99984 11C8.55212 11 8.99984 10.5523 8.99984 10C8.99984 9.44772 8.55212 9 7.99984 9C7.44755 9 6.99984 9.44772 6.99984 10C6.99984 10.5523 7.44755 11 7.99984 11Z" fill="#181819"/>
<path fill-rule="evenodd" clip-rule="evenodd" d="M4.83317 4.66667C4.83317 2.91777 6.25094 1.5 7.99984 1.5C9.74874 1.5 11.1665 2.91777 11.1665 4.66667V6H12.3332C12.8855 6 13.3332 6.44772 13.3332 7V13C13.3332 13.5523 12.8855 14 12.3332 14H3.6665C3.11422 14 2.6665 13.5523 2.6665 13V7C2.6665 6.44772 3.11422 6 3.6665 6H4.83317V4.66667ZM10.1665 4.66667V6H5.83317V4.66667C5.83317 3.47005 6.80322 2.5 7.99984 2.5C9.19645 2.5 10.1665 3.47005 10.1665 4.66667ZM3.6665 7V13H12.3332V7H3.6665Z" fill="#181819"/>
</svg>
