<svg width="16" height="16" viewBox="0 0 16 16" fill="none" xmlns="http://www.w3.org/2000/svg">
<path d="M8.66666 11C8.66666 10.6318 8.36818 10.3333 8 10.3333C7.63181 10.3333 7.33333 10.6318 7.33333 11C7.33333 11.3682 7.63181 11.6667 8 11.6667C8.36818 11.6667 8.66666 11.3682 8.66666 11Z" fill="white"/>
<path fill-rule="evenodd" clip-rule="evenodd" d="M7.99999 9.26666C8.33136 9.26666 8.59999 8.99803 8.59999 8.66666L8.59999 6C8.59999 5.66862 8.33136 5.4 7.99999 5.4C7.66862 5.4 7.39999 5.66863 7.39999 6L7.39999 8.66666C7.39999 8.99803 7.66862 9.26666 7.99999 9.26666Z" fill="white"/>
<path fill-rule="evenodd" clip-rule="evenodd" d="M6.41228 2.41667C7.11793 1.19444 8.88206 1.19444 9.58771 2.41667L14.7839 11.4167C15.4895 12.6389 14.6074 14.1667 13.1961 14.1667H2.80384C1.39254 14.1667 0.510478 12.6389 1.21613 11.4167L6.41228 2.41667ZM8.72168 2.91667C8.40093 2.36111 7.59906 2.36111 7.27831 2.91667L2.08215 11.9167C1.7614 12.4722 2.16234 13.1667 2.80384 13.1667H13.1961C13.8376 13.1667 14.2386 12.4722 13.9178 11.9167L8.72168 2.91667Z" fill="white"/>
</svg>
