<svg width="24" height="24" viewBox="0 0 24 24" fill="none" xmlns="http://www.w3.org/2000/svg">
<path fill-rule="evenodd" clip-rule="evenodd" d="M12 20.5C16.6944 20.5 20.5 16.6944 20.5 12C20.5 7.30558 16.6944 3.5 12 3.5C7.30558 3.5 3.5 7.30558 3.5 12C3.5 16.6944 7.30558 20.5 12 20.5ZM12 22C17.5228 22 22 17.5228 22 12C22 6.47715 17.5228 2 12 2C6.47715 2 2 6.47715 2 12C2 17.5228 6.47715 22 12 22Z" fill="white"/>
<path d="M13 8.5C13 9.05228 12.5523 9.5 12 9.5C11.4477 9.5 11 9.05228 11 8.5C11 7.94772 11.4477 7.5 12 7.5C12.5523 7.5 13 7.94772 13 8.5Z" fill="white"/>
<path fill-rule="evenodd" clip-rule="evenodd" d="M12 11.1C12.4971 11.1 12.9 11.5029 12.9 12V16C12.9 16.4971 12.4971 16.9 12 16.9C11.5029 16.9 11.1 16.4971 11.1 16L11.1 12C11.1 11.5029 11.5029 11.1 12 11.1Z" fill="white"/>
</svg>
