<svg width="16" height="16" viewBox="0 0 16 16" fill="none" xmlns="http://www.w3.org/2000/svg">
<path fill-rule="evenodd" clip-rule="evenodd" d="M12.3334 2.33334H3.66669V13.6667H12.3334V2.33334ZM3.66669 1.33334C3.1144 1.33334 2.66669 1.78105 2.66669 2.33334V13.6667C2.66669 14.219 3.1144 14.6667 3.66669 14.6667H12.3334C12.8856 14.6667 13.3334 14.219 13.3334 13.6667V2.33334C13.3334 1.78105 12.8856 1.33334 12.3334 1.33334H3.66669Z" fill="white"/>
<path fill-rule="evenodd" clip-rule="evenodd" d="M5.16669 8C5.16669 7.72386 5.39054 7.5 5.66669 7.5H10.3334C10.6095 7.5 10.8334 7.72386 10.8334 8C10.8334 8.27615 10.6095 8.5 10.3334 8.5H5.66669C5.39054 8.5 5.16669 8.27615 5.16669 8Z" fill="white"/>
<path fill-rule="evenodd" clip-rule="evenodd" d="M5.16669 5.33334C5.16669 5.05719 5.39054 4.83334 5.66669 4.83334L9.00002 4.83334C9.27616 4.83334 9.50002 5.05719 9.50002 5.33334C9.50002 5.60948 9.27616 5.83334 9.00002 5.83334L5.66669 5.83334C5.39054 5.83334 5.16669 5.60948 5.16669 5.33334Z" fill="white"/>
<path fill-rule="evenodd" clip-rule="evenodd" d="M5.16669 10.6667C5.16669 10.3905 5.39054 10.1667 5.66669 10.1667L9.00002 10.1667C9.27616 10.1667 9.50002 10.3905 9.50002 10.6667C9.50002 10.9428 9.27616 11.1667 9.00002 11.1667L5.66669 11.1667C5.39054 11.1667 5.16669 10.9428 5.16669 10.6667Z" fill="white"/>
</svg>
