<svg width="20" height="20" viewBox="0 0 20 20" fill="none" xmlns="http://www.w3.org/2000/svg">
<path fill-rule="evenodd" clip-rule="evenodd" d="M11.7164 2.68859C12.2374 2.16766 12.9439 1.875 13.6806 1.875C14.4173 1.875 15.1238 2.16766 15.6448 2.68859C16.1657 3.20952 16.4583 3.91605 16.4583 4.65275C16.4583 5.38946 16.1657 6.09599 15.6448 6.61692L7.65307 14.6086C7.53586 14.7258 7.37689 14.7917 7.21113 14.7917H4.16668C3.8215 14.7917 3.54168 14.5118 3.54168 14.1667V11.1222C3.54168 10.9565 3.60752 10.7975 3.72474 10.6803L11.7164 2.68859ZM13.6806 3.125C13.2754 3.125 12.8868 3.28596 12.6003 3.57247L4.79168 11.3811V13.5417H6.95224L14.7609 5.73304C15.0474 5.44653 15.2083 5.05794 15.2083 4.65275C15.2083 4.24757 15.0474 3.85898 14.7609 3.57247C14.4744 3.28596 14.0858 3.125 13.6806 3.125Z" fill="white"/>
<path fill-rule="evenodd" clip-rule="evenodd" d="M11.5025 4.00258C11.7466 3.7585 12.1423 3.7585 12.3864 4.00258L14.3308 5.94702C14.5749 6.1911 14.5749 6.58683 14.3308 6.8309C14.0868 7.07498 13.691 7.07498 13.4469 6.8309L11.5025 4.88646C11.2584 4.64238 11.2584 4.24665 11.5025 4.00258Z" fill="white"/>
<path fill-rule="evenodd" clip-rule="evenodd" d="M2.70834 17.5C2.70834 17.1548 2.98817 16.875 3.33334 16.875H16.6667C17.0119 16.875 17.2917 17.1548 17.2917 17.5C17.2917 17.8452 17.0119 18.125 16.6667 18.125H3.33334C2.98817 18.125 2.70834 17.8452 2.70834 17.5Z" fill="white"/>
</svg>
