<svg width="32" height="24" viewBox="0 0 32 24" fill="none" xmlns="http://www.w3.org/2000/svg">
    <path d="M7 22V6.562A3.563 3.563 0 0 1 10.563 3h11.874A3.563 3.563 0 0 1 26 6.563v7.125a3.563 3.563 0 0 1-3.563 3.562H11.75L7 22z" stroke="#797A7D" stroke-width="1.5" stroke-linecap="round" stroke-linejoin="round"/>
    <path d="M12.03 7.28a.75.75 0 0 0 0 1.5v-1.5zm8.94 1.5a.75.75 0 0 0 0-1.5v1.5zm-8.94 0h8.94v-1.5h-8.94v1.5zM12.03 11.75a.75.75 0 0 0 0 1.5v-1.5zm6.705 1.5a.75.75 0 0 0 0-1.5v1.5zm-6.706 0h6.706v-1.5H12.03v1.5z" fill="#797A7D"/>
</svg>
