<svg width="20" height="20" viewBox="0 0 20 20" fill="none" xmlns="http://www.w3.org/2000/svg">
    <path fill-rule="evenodd" clip-rule="evenodd" d="M15.156 4.844a.625.625 0 0 1 0 .884l-9.428 9.428a.625.625 0 1 1-.884-.884l9.428-9.428a.625.625 0 0 1 .884 0z" fill="#fff"/>
    <path fill-rule="evenodd" clip-rule="evenodd" d="M4.844 4.844a.625.625 0 0 1 .884 0l9.428 9.428a.625.625 0 1 1-.884.884L4.844 5.728a.625.625 0 0 1 0-.884z" fill="#fff"/>
    <path fill-rule="evenodd" clip-rule="evenodd" d="M15.156 4.844a.625.625 0 0 1 0 .884l-9.428 9.428a.625.625 0 1 1-.884-.884l9.428-9.428a.625.625 0 0 1 .884 0z" fill="#fff"/>
    <path fill-rule="evenodd" clip-rule="evenodd" d="M4.844 4.844a.625.625 0 0 1 .884 0l9.428 9.428a.625.625 0 1 1-.884.884L4.844 5.728a.625.625 0 0 1 0-.884z" fill="#fff"/>
</svg>
