<svg width="20" height="20" viewBox="0 0 20 20" fill="none" xmlns="http://www.w3.org/2000/svg">
<path fill-rule="evenodd" clip-rule="evenodd" d="M10.9964 1.06334C11.269 1.13703 11.4583 1.38432 11.4583 1.66668V7.70835H15C15.2238 7.70835 15.4305 7.828 15.542 8.02206C15.6534 8.21612 15.6526 8.45496 15.5399 8.64827L9.70652 18.6483C9.56425 18.8922 9.27612 19.0104 9.00354 18.9367C8.73097 18.863 8.54166 18.6157 8.54166 18.3333L8.54167 12.2917H5C4.77621 12.2917 4.5695 12.172 4.45804 11.978C4.34657 11.7839 4.34738 11.5451 4.46014 11.3518L10.2935 1.35176C10.4357 1.10787 10.7239 0.989652 10.9964 1.06334ZM6.08815 11.0417H9.16667C9.33243 11.0417 9.4914 11.1075 9.60861 11.2247C9.72582 11.342 9.79167 11.5009 9.79167 11.6667L9.79166 16.0215L13.9119 8.95835H10.8333C10.4882 8.95835 10.2083 8.67853 10.2083 8.33335V3.97851L6.08815 11.0417Z" fill="white"/>
</svg>
