<svg width="32" height="32" viewBox="0 0 32 32" fill="none" xmlns="http://www.w3.org/2000/svg">
<path fill-rule="evenodd" clip-rule="evenodd" d="M16 15.3333C18.5773 15.3333 20.6667 13.244 20.6667 10.6667C20.6667 8.08934 18.5773 6 16 6C13.4227 6 11.3333 8.08934 11.3333 10.6667C11.3333 13.244 13.4227 15.3333 16 15.3333ZM16 17.3333C19.6819 17.3333 22.6667 14.3486 22.6667 10.6667C22.6667 6.98477 19.6819 4 16 4C12.3181 4 9.33333 6.98477 9.33333 10.6667C9.33333 14.3486 12.3181 17.3333 16 17.3333Z" fill="white"/>
<path fill-rule="evenodd" clip-rule="evenodd" d="M7 26.6667C7 23.1689 9.83553 20.3333 13.3333 20.3333H18.6667C22.1645 20.3333 25 23.1689 25 26.6667V28C25 28.5523 24.5523 29 24 29C23.4477 29 23 28.5523 23 28V26.6667C23 24.2734 21.0599 22.3333 18.6667 22.3333H13.3333C10.9401 22.3333 9 24.2734 9 26.6667V28C9 28.5523 8.55228 29 8 29C7.44772 29 7 28.5523 7 28V26.6667Z" fill="white"/>
</svg>
