<svg width="16" height="16" viewBox="0 0 16 16" fill="none" xmlns="http://www.w3.org/2000/svg">
    <path fill-rule="evenodd" clip-rule="evenodd" d="M3.167 8.167h9.666v4.5c0 .644-.522 1.166-1.166 1.166H4.333a1.167 1.167 0 0 1-1.166-1.166v-4.5zm1 1v3.5c0 .092.074.166.166.166h7.334a.167.167 0 0 0 .166-.166v-3.5H4.167z" fill="#fff"/>
    <path fill-rule="evenodd" clip-rule="evenodd" d="M1.833 6c0-.644.523-1.167 1.167-1.167h10c.644 0 1.167.523 1.167 1.167v2c0 .644-.523 1.167-1.167 1.167H3A1.167 1.167 0 0 1 1.833 8V6zM3 5.833A.167.167 0 0 0 2.833 6v2c0 .092.075.167.167.167h10A.167.167 0 0 0 13.167 8V6A.167.167 0 0 0 13 5.833H3z" fill="#fff"/>
    <path fill-rule="evenodd" clip-rule="evenodd" d="M6.619 3.73c-.383-.397-.797-.57-1.182-.563h-.008a.982.982 0 0 0-.67.256A.79.79 0 0 0 4.5 4c0 .21.089.418.26.577.172.16.412.256.669.256h1.88a3.487 3.487 0 0 0-.69-1.103zm1.238 2.083a.5.5 0 0 1-.143.02H5.43c-.501 0-.988-.185-1.352-.525A1.79 1.79 0 0 1 3.5 4c0-.498.212-.967.577-1.308a1.982 1.982 0 0 1 1.348-.525c.715-.01 1.38.316 1.914.87.253.262.474.573.661.92.187-.347.408-.658.661-.92.534-.554 1.2-.88 1.915-.87.499 0 .984.186 1.347.525.365.34.577.81.577 1.308s-.212.968-.577 1.308c-.364.34-.85.525-1.351.525H8.286a.5.5 0 0 1-.143-.02.5.5 0 0 1-.286 0zm.834-.98h1.88a.982.982 0 0 0 .67-.256A.79.79 0 0 0 11.5 4a.79.79 0 0 0-.26-.577.982.982 0 0 0-.668-.256h-.009c-.385-.006-.799.166-1.182.563-.269.28-.507.654-.69 1.103z" fill="#fff"/>
    <path fill-rule="evenodd" clip-rule="evenodd" d="M8 4.833a.5.5 0 0 1 .5.5v7.334a.5.5 0 0 1-1 0V5.333a.5.5 0 0 1 .5-.5z" fill="#fff"/>
</svg>
