<svg width="16" height="16" viewBox="0 0 16 16" fill="none" xmlns="http://www.w3.org/2000/svg">
<path fill-rule="evenodd" clip-rule="evenodd" d="M3.16828 3.18225C3.16828 2.16094 3.99588 1.33334 5.01719 1.33334C5.66188 1.33334 6.22874 1.66416 6.55895 2.16192L8.04575 3.97656L9.53248 2.16201C9.86279 1.66353 10.4293 1.33334 11.0743 1.33334C12.0956 1.33334 12.9232 2.16094 12.9232 3.18225C12.9232 3.56451 12.8073 3.91963 12.6086 4.21438H13.6653C14.5866 4.21438 15.3334 4.96121 15.3334 5.88248V6.51195C15.3334 7.31282 14.769 7.98186 14.0163 8.14306V12.082C14.0163 13.2837 13.1098 14.3152 11.9241 14.3152H4.07646C2.89075 14.3152 1.98428 13.2837 1.98428 12.082V8.14315C1.23134 7.98211 0.666748 7.31296 0.666748 6.51195V5.88248C0.666748 4.96121 1.41358 4.21438 2.33485 4.21438H3.48285C3.28422 3.91963 3.16828 3.56451 3.16828 3.18225ZM6.02282 5.03269H2.33485C1.86552 5.03269 1.48506 5.41315 1.48506 5.88248V6.51195C1.48506 6.98127 1.86552 7.36173 2.33484 7.36173H2.41379V7.34068H6.02282V5.03269ZM13.8542 7.34068C14.2326 7.25481 14.5151 6.91637 14.5151 6.51195V5.88248C14.5151 5.41315 14.1346 5.03269 13.6653 5.03269H9.97731V7.34068H13.8542ZM6.84113 5.03269H9.159V7.34068H6.84113V5.03269ZM2.80259 8.18005V12.082C2.80259 12.895 3.4034 13.4969 4.07646 13.4969H6.02282V8.18005H2.80259ZM6.84113 8.18005V13.4968H9.159V8.18005H6.84113ZM9.97731 8.18005V13.4969H11.9241C12.5972 13.4969 13.198 12.895 13.198 12.082V8.18005H9.97731ZM5.01719 2.15166C4.44782 2.15166 3.98659 2.61288 3.98659 3.18225C3.98659 3.75162 4.44782 4.21285 5.01719 4.21285H7.18145L5.89727 2.64552L5.88461 2.62587C5.70036 2.33985 5.38033 2.15166 5.01719 2.15166ZM10.207 2.62567C10.3912 2.33947 10.7105 2.15166 11.0743 2.15166C11.6437 2.15166 12.1049 2.61288 12.1049 3.18225C12.1049 3.75162 11.6437 4.21285 11.0743 4.21285H8.91005L10.1943 2.64543L10.207 2.62567Z" fill="white"/>
</svg>
