<svg width="20" height="20" viewBox="0 0 20 20" fill="none" xmlns="http://www.w3.org/2000/svg">
<path fill-rule="evenodd" clip-rule="evenodd" d="M10 9.58333C11.6108 9.58333 12.9167 8.2775 12.9167 6.66667C12.9167 5.05584 11.6108 3.75 10 3.75C8.38917 3.75 7.08333 5.05584 7.08333 6.66667C7.08333 8.2775 8.38917 9.58333 10 9.58333ZM10 10.8333C12.3012 10.8333 14.1667 8.96785 14.1667 6.66667C14.1667 4.36548 12.3012 2.5 10 2.5C7.69881 2.5 5.83333 4.36548 5.83333 6.66667C5.83333 8.96785 7.69881 10.8333 10 10.8333Z" fill="white"/>
<path fill-rule="evenodd" clip-rule="evenodd" d="M4.375 16.6667C4.375 14.4805 6.14721 12.7083 8.33333 12.7083H11.6667C13.8528 12.7083 15.625 14.4805 15.625 16.6667V17.5C15.625 17.8452 15.3452 18.125 15 18.125C14.6548 18.125 14.375 17.8452 14.375 17.5V16.6667C14.375 15.1709 13.1624 13.9583 11.6667 13.9583H8.33333C6.83756 13.9583 5.625 15.1709 5.625 16.6667V17.5C5.625 17.8452 5.34518 18.125 5 18.125C4.65482 18.125 4.375 17.8452 4.375 17.5V16.6667Z" fill="white"/>
</svg>
