<svg width="16" height="16" viewBox="0 0 16 16" fill="none" xmlns="http://www.w3.org/2000/svg">
<path fill-rule="evenodd" clip-rule="evenodd" d="M2.94007 10.9474C3.64578 12.1783 4.77588 13.1097 6.11882 13.5674C6.72947 13.7755 7.36512 13.8792 7.99995 13.8792C8.27609 13.8793 8.49997 13.6554 8.5 13.3793C8.50003 13.1031 8.27619 12.8793 8.00005 12.8792C7.47403 12.8792 6.94739 12.7933 6.44141 12.6208C5.32869 12.2416 4.39232 11.4699 3.80759 10.45C3.22285 9.43022 3.02983 8.23224 3.26467 7.08037C3.49951 5.9285 4.14609 4.9017 5.0834 4.19218C6.0207 3.48266 7.18446 3.13906 8.35682 3.22571C9.52919 3.31235 10.6298 3.8233 11.4526 4.6629C12.2754 5.50251 12.764 6.61321 12.827 7.78708C12.8843 8.85511 12.5856 9.90884 11.9827 10.7852C11.8262 11.0127 11.8838 11.324 12.1113 11.4805C12.3388 11.637 12.6501 11.5794 12.8066 11.3519C13.5342 10.2943 13.8947 9.02255 13.8255 7.73354C13.7496 6.31679 13.1599 4.97629 12.1668 3.96298C11.1738 2.94966 9.84546 2.333 8.43053 2.22843C7.0156 2.12386 5.61107 2.53854 4.47984 3.39486C3.34861 4.25118 2.56825 5.49042 2.28483 6.88061C2.0014 8.2708 2.23435 9.71663 2.94007 10.9474Z" fill="white"/>
<path fill-rule="evenodd" clip-rule="evenodd" d="M11.2039 8.78787C10.9372 8.85934 10.7789 9.13351 10.8504 9.40024L11.4545 11.6551C11.526 11.9218 11.8002 12.0801 12.0669 12.0086L14.3218 11.4044C14.5885 11.333 14.7468 11.0588 14.6753 10.7921C14.6038 10.5253 14.3297 10.367 14.0629 10.4385L12.2911 10.9133L11.8163 9.14142C11.7448 8.87469 11.4707 8.7164 11.2039 8.78787Z" fill="white"/>
</svg>
