<svg width="16" height="16" viewBox="0 0 16 16" fill="none" xmlns="http://www.w3.org/2000/svg">
<path fill-rule="evenodd" clip-rule="evenodd" d="M13.1132 8.64595C13.2635 7.45608 12.9941 6.25105 12.3515 5.23843C11.7089 4.22581 10.7332 3.46901 9.59258 3.0984C8.45196 2.72779 7.21779 2.76658 6.10269 3.20807C4.98759 3.64957 4.06138 4.46614 3.4836 5.51712C2.90582 6.56809 2.71266 7.78766 2.93739 8.96573C3.16212 10.1438 3.79067 11.2066 4.71477 11.9711C5.63886 12.7356 6.80063 13.1538 7.99995 13.1538L7.99995 14.1538C6.56793 14.1538 5.18074 13.6544 4.07734 12.7416C2.97395 11.8288 2.22344 10.5598 1.95511 9.15312C1.68677 7.74646 1.91741 6.29025 2.60729 5.03536C3.29718 3.78047 4.40311 2.80546 5.73457 2.2783C7.06603 1.75114 8.53966 1.70482 9.90159 2.14734C11.2635 2.58986 12.4285 3.49351 13.1958 4.7026C13.9631 5.9117 14.2848 7.35055 14.1053 8.77128C13.9258 10.192 13.2564 11.5057 12.2125 12.486L11.528 11.757C12.4023 10.936 12.9628 9.83581 13.1132 8.64595Z" fill="white"/>
<path fill-rule="evenodd" clip-rule="evenodd" d="M10.594 10.3079L11.5599 10.049L12.0676 11.9438L13.9623 11.4361L14.2211 12.402L11.3605 13.1685L10.594 10.3079Z" fill="white"/>
</svg>
