<svg width="16" height="16" viewBox="0 0 16 16" fill="none" xmlns="http://www.w3.org/2000/svg">
    <path fill-rule="evenodd" clip-rule="evenodd" d="M14.354 2.354a.5.5 0 0 0-.707-.708l-12 12a.5.5 0 0 0 .707.708l2.051-2.052c1.124.596 2.363.865 3.595.865 2.395 0 4.814-1.016 6.367-3.474a3.175 3.175 0 0 0 0-3.386 7.505 7.505 0 0 0-1.903-2.064l1.89-1.89zM11.747 4.96l-1.541 1.541A2.667 2.667 0 0 1 6.5 10.206l-1.35 1.35c.897.42 1.87.61 2.849.61 2.1 0 4.177-.878 5.522-3.008a2.175 2.175 0 0 0 0-2.316 6.478 6.478 0 0 0-1.775-1.882zM7.229 9.478a1.667 1.667 0 0 0 2.249-2.249L7.229 9.478z" fill="#fff"/>
    <path d="M8 2.833c.79 0 1.584.111 2.348.348l-.817.817A7.075 7.075 0 0 0 8 3.833c-2.1 0-4.177.88-5.522 3.009a2.175 2.175 0 0 0 0 2.316c.252.399.529.753.827 1.066l-.708.708a7.84 7.84 0 0 1-.964-1.24 3.175 3.175 0 0 1 0-3.385C3.186 3.85 5.605 2.833 8 2.833z" fill="#fff"/>
    <path d="M8 5.333c.063 0 .126.003.189.007l-2.85 2.849A2.667 2.667 0 0 1 8 5.334z" fill="#fff"/>
</svg>
