<svg width="20" height="20" viewBox="0 0 20 20" fill="none" xmlns="http://www.w3.org/2000/svg">
<path d="M4.66827 2.25357C4.85048 2.25695 5.02896 2.30339 5.18964 2.38939C5.35031 2.47538 5.48828 2.59836 5.59216 2.7481L7.13435 5.10355C7.13435 5.10355 7.86563 6.29352 7.13435 6.99788L6.86436 7.37686C6.69957 7.57827 6.60691 7.82916 6.60203 8.08935C6.59715 8.34954 6.67986 8.60397 6.83697 8.81143C7.9255 10.4282 9.30142 11.8316 10.8962 12.9522C11.1072 13.0748 11.3465 13.141 11.5906 13.1442C11.8159 13.1452 12.0363 13.0783 12.2231 12.9522L12.71 12.5733C12.9838 12.3369 13.3272 12.1964 13.6881 12.1729C13.9122 12.1725 14.1297 12.2467 14.307 12.3838C15.226 12.8844 16.088 13.4835 16.8776 14.1705C16.8776 14.1705 17.6907 14.9556 17.2566 15.7127C16.8921 16.267 16.4849 16.7919 16.0386 17.2828C15.883 17.4441 15.6945 17.5697 15.4855 17.6508C15.2765 17.732 15.052 17.7666 14.8283 17.7527C14.3154 17.7365 13.8135 17.6039 13.3595 17.3647C8.9458 15.3573 5.33381 11.9262 3.10253 7.62138C2.62177 6.80253 2.29151 5.90415 2.12771 4.96883C2.12042 4.50632 2.23249 4.04986 2.45302 3.64324C2.84251 3.25984 3.26825 2.91538 3.72467 2.61475C3.99359 2.39885 4.32389 2.27286 4.66827 2.25466V2.25357ZM4.66827 1.13307C4.10104 1.14674 3.55173 1.33673 3.0976 1.67689C2.58386 2.01538 2.10496 2.40404 1.66769 2.83682L1.61621 2.88611L1.57239 2.94224C1.18151 3.54453 0.982689 4.25107 1.00174 4.96883V4.99813V5.02606C1.16359 6.14148 1.54479 7.21379 2.12333 8.18108C4.46487 12.6995 8.2624 16.2958 12.9017 18.3877C13.4979 18.6891 14.1538 18.8538 14.8217 18.8699C15.1999 18.8835 15.5766 18.8164 15.9269 18.6736C16.2773 18.5307 16.5933 18.3152 16.8541 18.041C17.3434 17.5063 17.7889 16.9331 18.1865 16.3271L18.2068 16.297L18.2238 16.2655C18.4599 15.7911 18.5339 15.2522 18.4346 14.7316C18.3353 14.2109 18.0681 13.7373 17.6739 13.383C16.8308 12.6251 15.9007 11.9704 14.9028 11.4325C14.5447 11.1821 14.1179 11.0478 13.681 11.0478C13.0595 11.0677 12.4635 11.2987 11.9909 11.7028L11.5884 12.0157H11.5818C11.5427 12.014 11.5043 12.0038 11.4696 11.9856C10.0179 10.9516 8.76387 9.66461 7.76798 8.18656C7.74878 8.16059 7.73361 8.13193 7.72308 8.1014L7.80522 8.03404L7.77236 8.02637L7.9969 7.71777C8.35426 7.26446 8.55641 6.70847 8.57358 6.13149C8.59075 5.55452 8.42197 4.98721 8.09219 4.51346L6.53084 2.13007L6.504 2.08845L6.47388 2.05039C6.26426 1.76826 5.99224 1.53833 5.67924 1.37842C5.36624 1.21852 5.02082 1.13292 4.66937 1.12842L4.66827 1.13307Z" fill="white"/>
</svg>
