<svg width="20" height="20" viewBox="0 0 20 20" fill="none" xmlns="http://www.w3.org/2000/svg">
<path fill-rule="evenodd" clip-rule="evenodd" d="M4.16667 3.95834C3.8904 3.95834 3.62545 4.06808 3.4301 4.26343C3.23875 4.45478 3.12954 4.7129 3.12514 4.98302C3.31806 8.07349 4.63275 10.9875 6.82263 13.1774C9.01252 15.3673 11.9265 16.6819 15.017 16.8749C15.2871 16.8705 15.5452 16.7612 15.7366 16.5699C15.9319 16.3746 16.0417 16.1096 16.0417 15.8333V13.0642C16.0417 12.979 15.9898 12.9024 15.9107 12.8708L12.9268 11.6772C12.8319 11.6392 12.7234 11.6758 12.6708 11.7635L12.1808 12.5801C11.7978 13.2184 10.9509 13.5036 10.2543 13.0843C8.8859 12.2605 7.73953 11.1141 6.91574 9.74568C6.49639 9.04909 6.78156 8.2022 7.41987 7.81921L8.23655 7.3292C8.32423 7.2766 8.36077 7.16813 8.32279 7.07319L7.12924 4.0893C7.0976 4.0102 7.02099 3.95834 6.93581 3.95834H4.16667ZM2.54621 3.37955C2.97598 2.94978 3.55888 2.70834 4.16667 2.70834H6.93581C7.53212 2.70834 8.06837 3.07139 8.28983 3.62506L9.48339 6.60895C9.74922 7.27353 9.49344 8.0328 8.87967 8.40107L8.06299 8.89108C8.01474 8.92003 7.98597 8.96237 7.97477 9.00231C7.96432 9.03958 7.96907 9.07177 7.98666 9.10098C8.70527 10.2947 9.70531 11.2947 10.899 12.0133C10.9282 12.0309 10.9604 12.0357 10.9977 12.0252C11.0376 12.014 11.08 11.9853 11.1089 11.937L11.5989 11.1203C11.9672 10.5066 12.7265 10.2508 13.3911 10.5166L16.3749 11.7102C16.9286 11.9316 17.2917 12.4679 17.2917 13.0642V15.8333C17.2917 16.4411 17.0502 17.024 16.6205 17.4538C16.1907 17.8836 15.6078 18.125 15 18.125C14.9874 18.125 14.9747 18.1246 14.9621 18.1239C11.5591 17.9171 8.34946 16.472 5.93875 14.0613C3.52804 11.6505 2.08295 8.4409 1.87615 5.03791C1.87538 5.02529 1.875 5.01265 1.875 5C1.875 4.39221 2.11644 3.80932 2.54621 3.37955Z" fill="white"/>
</svg>
