<svg width="20" height="20" viewBox="0 0 20 20" fill="none" xmlns="http://www.w3.org/2000/svg">
    <path d="M8.333 4.167a1.667 1.667 0 1 1 3.334 0 5.833 5.833 0 0 1 3.333 5v2.5a3.333 3.333 0 0 0 1.667 2.5H3.333A3.334 3.334 0 0 0 5 11.667v-2.5a5.833 5.833 0 0 1 3.333-5z" fill="#fff"/>
    <path fill-rule="evenodd" clip-rule="evenodd" d="M10 3.125a1.042 1.042 0 0 0-1.042 1.03.628.628 0 0 1-.37.582 5.208 5.208 0 0 0-2.963 4.445v2.485c0 .025-.002.05-.005.075a3.958 3.958 0 0 1-.69 1.8h10.14a3.96 3.96 0 0 1-.69-1.8.628.628 0 0 1-.005-.075V9.182a5.21 5.21 0 0 0-2.976-4.45.625.625 0 0 1-.357-.565A1.041 1.041 0 0 0 10 3.125zm-2.256.64a2.292 2.292 0 0 1 4.512 0 6.458 6.458 0 0 1 3.369 5.402v2.46a2.707 2.707 0 0 0 1.35 1.996.625.625 0 0 1-.308 1.169H3.333a.625.625 0 0 1-.308-1.17 2.708 2.708 0 0 0 1.35-1.995V9.137a6.458 6.458 0 0 1 3.369-5.372z" fill="#fff"/>
    <path d="M7.5 14.167V15a2.5 2.5 0 0 0 5 0v-.833" fill="#fff"/>
    <path fill-rule="evenodd" clip-rule="evenodd" d="M7.5 13.542c.345 0 .625.28.625.625V15a1.875 1.875 0 1 0 3.75 0v-.833a.625.625 0 1 1 1.25 0V15a3.125 3.125 0 0 1-6.25 0v-.833c0-.345.28-.625.625-.625z" fill="#fff"/>
</svg>
