<svg width="20" height="20" viewBox="0 0 20 20" fill="none" xmlns="http://www.w3.org/2000/svg">
<path fill-rule="evenodd" clip-rule="evenodd" d="M6.875 5C6.875 4.65482 7.15482 4.375 7.5 4.375L17.5 4.375C17.8452 4.375 18.125 4.65482 18.125 5C18.125 5.34518 17.8452 5.625 17.5 5.625L7.5 5.625C7.15482 5.625 6.875 5.34518 6.875 5Z" fill="white"/>
<path d="M5.625 6.25C5.625 6.59518 5.34518 6.875 5 6.875L2.5 6.875C2.15482 6.875 1.875 6.59518 1.875 6.25L1.875 3.75C1.875 3.40482 2.15482 3.125 2.5 3.125L5 3.125C5.34518 3.125 5.625 3.40482 5.625 3.75L5.625 6.25Z" fill="white"/>
<path fill-rule="evenodd" clip-rule="evenodd" d="M6.875 10C6.875 9.65482 7.15482 9.375 7.5 9.375L17.5 9.375C17.8452 9.375 18.125 9.65482 18.125 10C18.125 10.3452 17.8452 10.625 17.5 10.625L7.5 10.625C7.15482 10.625 6.875 10.3452 6.875 10Z" fill="white"/>
<path d="M5.625 11.25C5.625 11.5952 5.34518 11.875 5 11.875L2.5 11.875C2.15482 11.875 1.875 11.5952 1.875 11.25L1.875 8.75C1.875 8.40482 2.15482 8.125 2.5 8.125L5 8.125C5.34518 8.125 5.625 8.40482 5.625 8.75L5.625 11.25Z" fill="white"/>
<path fill-rule="evenodd" clip-rule="evenodd" d="M6.875 15C6.875 14.6548 7.15482 14.375 7.5 14.375L17.5 14.375C17.8452 14.375 18.125 14.6548 18.125 15C18.125 15.3452 17.8452 15.625 17.5 15.625L7.5 15.625C7.15482 15.625 6.875 15.3452 6.875 15Z" fill="white"/>
<path d="M5.625 16.25C5.625 16.5952 5.34518 16.875 5 16.875L2.5 16.875C2.15482 16.875 1.875 16.5952 1.875 16.25L1.875 13.75C1.875 13.4048 2.15482 13.125 2.5 13.125L5 13.125C5.34518 13.125 5.625 13.4048 5.625 13.75L5.625 16.25Z" fill="white"/>
</svg>
