<svg width="16" height="16" viewBox="0 0 16 16" fill="none" xmlns="http://www.w3.org/2000/svg">
<path fill-rule="evenodd" clip-rule="evenodd" d="M9.33333 2.5L2.66667 2.5C2.57419 2.5 2.5 2.57461 2.5 2.66623V13.5H9.5V2.66667C9.5 2.57462 9.42538 2.5 9.33333 2.5ZM10.5 6.16667V2.66667C10.5 2.02233 9.97767 1.5 9.33333 1.5L2.66667 1.5C2.02277 1.5 1.5 2.02146 1.5 2.66623V14C1.5 14.2761 1.72386 14.5 2 14.5H14C14.2761 14.5 14.5 14.2761 14.5 14V6.66667C14.5 6.39052 14.2761 6.16667 14 6.16667H10.5ZM10.5 7.16667V13.5H13.5V7.16667H10.5Z" fill="white"/>
<path d="M8 4.66667C8 5.03486 7.70152 5.33333 7.33333 5.33333C6.96514 5.33333 6.66667 5.03486 6.66667 4.66667C6.66667 4.29848 6.96514 4 7.33333 4C7.70152 4 8 4.29848 8 4.66667Z" fill="white"/>
<path d="M5.33333 4.66667C5.33333 5.03486 5.03486 5.33333 4.66667 5.33333C4.29848 5.33333 4 5.03486 4 4.66667C4 4.29848 4.29848 4 4.66667 4C5.03486 4 5.33333 4.29848 5.33333 4.66667Z" fill="white"/>
<path d="M8 7.33333C8 7.70152 7.70152 8 7.33333 8C6.96514 8 6.66667 7.70152 6.66667 7.33333C6.66667 6.96514 6.96514 6.66667 7.33333 6.66667C7.70152 6.66667 8 6.96514 8 7.33333Z" fill="white"/>
<path d="M5.33333 7.33333C5.33333 7.70152 5.03486 8 4.66667 8C4.29848 8 4 7.70152 4 7.33333C4 6.96514 4.29848 6.66667 4.66667 6.66667C5.03486 6.66667 5.33333 6.96514 5.33333 7.33333Z" fill="white"/>
<path d="M8 10C8 10.3682 7.70152 10.6667 7.33333 10.6667C6.96514 10.6667 6.66667 10.3682 6.66667 10C6.66667 9.63181 6.96514 9.33333 7.33333 9.33333C7.70152 9.33333 8 9.63181 8 10Z" fill="white"/>
<path d="M5.33333 10C5.33333 10.3682 5.03486 10.6667 4.66667 10.6667C4.29848 10.6667 4 10.3682 4 10C4 9.63181 4.29848 9.33333 4.66667 9.33333C5.03486 9.33333 5.33333 9.63181 5.33333 10Z" fill="white"/>
</svg>
