<svg width="24" height="24" viewBox="0 0 24 24" fill="none" xmlns="http://www.w3.org/2000/svg">
<path fill-rule="evenodd" clip-rule="evenodd" d="M13.7148 12.7357C14.7076 11.4508 15.5 9.78011 15.5 8.05556C15.5 6.07621 13.9174 4.5 12 4.5C10.0826 4.5 8.5 6.07621 8.5 8.05556C8.5 9.78011 9.29242 11.4508 10.2852 12.7357C10.7747 13.3692 11.2798 13.8648 11.6913 14.1869C11.8106 14.2803 11.9142 14.3529 12 14.4076C12.0858 14.3529 12.1894 14.2803 12.3087 14.1869C12.7202 13.8648 13.2253 13.3692 13.7148 12.7357ZM11.7693 14.5323C11.7694 14.5321 11.774 14.5302 11.7829 14.5274C11.7737 14.5312 11.7692 14.5326 11.7693 14.5323ZM12.2171 14.5274C12.226 14.5302 12.2306 14.5321 12.2307 14.5323C12.2308 14.5326 12.2263 14.5312 12.2171 14.5274ZM12 16C13.0714 16 17 12.3889 17 8.05556C17 5.26345 14.7614 3 12 3C9.23858 3 7 5.26345 7 8.05556C7 12.3889 10.9286 16 12 16Z" fill="white"/>
<path d="M13.5 8C13.5 8.82843 12.8284 9.5 12 9.5C11.1716 9.5 10.5 8.82843 10.5 8C10.5 7.17157 11.1716 6.5 12 6.5C12.8284 6.5 13.5 7.17157 13.5 8Z" fill="white"/>
<path fill-rule="evenodd" clip-rule="evenodd" d="M5.7 9C5.7 9 5.7 9 5.7 9V10.5H4.5L4.5 19.5H19.5V10.5H18.3V9L19.5 9C20.3284 9 21 9.67157 21 10.5V19.5C21 20.3284 20.3284 21 19.5 21H4.5C3.67157 21 3 20.3284 3 19.5V10.5C3 9.67157 3.67157 9 4.5 9L5.7 9Z" fill="white"/>
</svg>
