<svg width="88" height="48" viewBox="0 0 88 48" fill="none" xmlns="http://www.w3.org/2000/svg">
    <path d="M5.586 43.602c-15.2-1.2 11-3.5 26-4.5l25.5-3h17c16.4 0 11.167 1.666 6.5 2.5l-34.5 5c-10.4 2-31.333.833-40.5 0z" fill="#E1E1E3"/>
    <path d="m19.585 13.6-.5.5c-11.6 1.2-15.5 6.502-15.5 6.502s-3.11 5.56-2.5 8l.5 5-.5 1 .5 1.5 1 1h2.5c.8 4 5 4.666 7 4.5 3.6.4 5.5-2.167 6-3.5l23.5 1c.4 2.8 2.167 4.166 3 4.5h5.5c3.2-.8 4.334-5 4.5-7l19-2.5.5 1.5h2c.4 2 1.5 2.5 2 2.5h4.5c2.8-.8 3.167-5.334 3-7.5h.5c1.6-5.6.667-11 0-13 0-2.8-2-4.167-3-4.5l-5.5-5.5-2.085-1c-3.6-1.6-9.415-2.834-13.415-3.5-12.4-1.6-23.833.666-28 2-4 1.2-9 4.499-11 5.998-3.2-.8-3.666 1.334-3.5 2.5z" fill="#C5C6C9"/>
</svg>
