<svg width="32" height="32" viewBox="0 0 32 32" fill="none" xmlns="http://www.w3.org/2000/svg">
<path fill-rule="evenodd" clip-rule="evenodd" d="M26 6H6L6 26H26V6ZM6 4C4.89543 4 4 4.89543 4 6V26C4 27.1046 4.89543 28 6 28H26C27.1046 28 28 27.1046 28 26V6C28 4.89543 27.1046 4 26 4H6Z" fill="white"/>
<path fill-rule="evenodd" clip-rule="evenodd" d="M9.95956 12.6262C10.3501 12.2357 10.9832 12.2357 11.3738 12.6262L17.3947 18.6472L20.6932 15.8984C21.0905 15.5673 21.6747 15.5938 22.0404 15.9596L27.3738 21.2929L25.9596 22.7071L21.272 18.0195L17.9735 20.7682C17.5762 21.0993 16.9919 21.0728 16.6262 20.7071L10.6667 14.7475L6.04044 19.3738L4.62623 17.9596L9.95956 12.6262Z" fill="white"/>
<path d="M21.3333 11.3333C21.3333 12.4379 20.4379 13.3333 19.3333 13.3333C18.2288 13.3333 17.3333 12.4379 17.3333 11.3333C17.3333 10.2288 18.2288 9.33333 19.3333 9.33333C20.4379 9.33333 21.3333 10.2288 21.3333 11.3333Z" fill="white"/>
</svg>
