<svg width="16" height="16" viewBox="0 0 16 16" fill="none" xmlns="http://www.w3.org/2000/svg">
    <path fill-rule="evenodd" clip-rule="evenodd" d="M5.667 10a1.333 1.333 0 1 0 0 2.667 1.333 1.333 0 0 0 0-2.667zm-2.334 1.333a2.333 2.333 0 1 1 4.667 0 2.333 2.333 0 0 1-4.667 0z" fill="#fff"/>
    <path fill-rule="evenodd" clip-rule="evenodd" d="M14.5 11.333a.5.5 0 0 1-.5.5H8a.5.5 0 1 1 0-1h6a.5.5 0 0 1 .5.5zM3.833 11.333a.5.5 0 0 1-.5.5H1.667a.5.5 0 1 1 0-1h1.666a.5.5 0 0 1 .5.5zM10.333 6a1.333 1.333 0 1 0 0-2.667 1.333 1.333 0 0 0 0 2.667zm2.334-1.333a2.333 2.333 0 1 1-4.667 0 2.333 2.333 0 0 1 4.667 0z" fill="#fff"/>
    <path fill-rule="evenodd" clip-rule="evenodd" d="M1.5 4.667a.5.5 0 0 1 .5-.5h6a.5.5 0 0 1 0 1H2a.5.5 0 0 1-.5-.5zM11.833 4.667a.5.5 0 0 1 .5-.5H14a.5.5 0 0 1 0 1h-1.667a.5.5 0 0 1-.5-.5z" fill="#fff"/>
</svg>
