<svg width="20" height="20" viewBox="0 0 20 20" fill="none" xmlns="http://www.w3.org/2000/svg">
    <path fill-rule="evenodd" clip-rule="evenodd" d="M3.958 10.208h12.084v5.625c0 .806-.653 1.459-1.459 1.459H5.417a1.458 1.458 0 0 1-1.459-1.459v-5.625zm1.25 1.25v4.375c0 .115.094.209.209.209h9.166a.208.208 0 0 0 .209-.209v-4.375H5.208z" fill="#fff"/>
    <path fill-rule="evenodd" clip-rule="evenodd" d="M2.292 7.5c0-.805.653-1.458 1.458-1.458h12.5c.805 0 1.458.653 1.458 1.458V10c0 .805-.653 1.458-1.458 1.458H3.75A1.458 1.458 0 0 1 2.292 10V7.5zm1.458-.208a.208.208 0 0 0-.208.208V10c0 .115.093.208.208.208h12.5a.208.208 0 0 0 .208-.208V7.5a.208.208 0 0 0-.208-.208H3.75z" fill="#fff"/>
    <path fill-rule="evenodd" clip-rule="evenodd" d="M8.274 4.663c-.48-.497-.996-.712-1.478-.704h-.01c-.321 0-.622.12-.837.32A.987.987 0 0 0 5.625 5c0 .262.111.522.324.722.215.2.516.32.837.32h2.35c-.229-.562-.526-1.03-.862-1.38zm1.548 2.603a.625.625 0 0 1-.18.026H6.787a2.477 2.477 0 0 1-1.69-.657A2.237 2.237 0 0 1 4.376 5c0-.622.265-1.21.722-1.635a2.477 2.477 0 0 1 1.684-.656c.894-.013 1.726.395 2.392 1.086.317.329.594.717.827 1.15.233-.433.51-.821.827-1.15.666-.691 1.498-1.1 2.392-1.086.625 0 1.23.232 1.684.656.457.426.722 1.013.722 1.635 0 .622-.265 1.21-.722 1.635a2.477 2.477 0 0 1-1.689.657h-2.857a.625.625 0 0 1-.179-.026.625.625 0 0 1-.356 0zm1.042-1.224h2.35c.322 0 .622-.12.837-.32.213-.2.324-.46.324-.722a.987.987 0 0 0-.324-.721c-.215-.2-.515-.32-.837-.32h-.01c-.482-.008-.998.207-1.478.704-.336.349-.633.817-.862 1.379z" fill="#fff"/>
    <path fill-rule="evenodd" clip-rule="evenodd" d="M10 6.042c.345 0 .625.28.625.625v9.166a.625.625 0 1 1-1.25 0V6.667c0-.346.28-.625.625-.625z" fill="#fff"/>
</svg>
