<svg width="20" height="20" viewBox="0 0 20 20" fill="none" xmlns="http://www.w3.org/2000/svg">
    <path d="M10.833 1.667v6.666H15l-5.833 10v-6.666H5l5.833-10z" fill="#fff"/>
    <path fill-rule="evenodd" clip-rule="evenodd" d="M10.996 1.063a.625.625 0 0 1 .462.604v6.041H15a.625.625 0 0 1 .54.94l-5.833 10a.625.625 0 0 1-1.165-.315v-6.041H5a.625.625 0 0 1-.54-.94l5.833-10a.625.625 0 0 1 .703-.289zm-4.908 9.979h3.079a.625.625 0 0 1 .625.625v4.354l4.12-7.063h-3.079a.625.625 0 0 1-.625-.625V3.978l-4.12 7.064z" fill="#fff"/>
</svg>
