<svg width="32" height="32" viewBox="0 0 32 32" fill="none" xmlns="http://www.w3.org/2000/svg">
<path fill-rule="evenodd" clip-rule="evenodd" d="M11.61 29.92C11.1891 29.7423 10.9421 29.3019 11.01 28.85L12.83 17H8.00005C7.6897 17.0083 7.39308 16.8721 7.19723 16.6312C7.00139 16.3903 6.92853 16.0721 7.00005 15.77L10 2.77C10.1089 2.30883 10.5264 1.98733 11 2H21C21.3026 1.99897 21.5894 2.135 21.78 2.37C21.9734 2.60772 22.0471 2.92098 21.98 3.22L20.25 11H25C25.3824 10.9992 25.7318 11.2166 25.9 11.56C26.0459 11.8888 26.0039 12.2707 25.79 12.56L12.79 29.56C12.6119 29.8241 12.3184 29.9876 12 30C11.8662 29.9975 11.734 29.9704 11.61 29.92Z" fill="white"/>
</svg>
