<svg width="16" height="16" viewBox="0 0 16 16" fill="none" xmlns="http://www.w3.org/2000/svg">
<path fill-rule="evenodd" clip-rule="evenodd" d="M13 2H3C2.44772 2 2 2.44772 2 3V13C2 13.5523 2.44772 14 3 14H13C13.5523 14 14 13.5523 14 13V3C14 2.44772 13.5523 2 13 2ZM3 13V10L5.5 7.5L8.295 10.295C8.68504 10.6827 9.31496 10.6827 9.705 10.295L10.5 9.5L13 12V13H3ZM11.205 8.79L13 10.585V3H3V8.585L4.795 6.79C5.18504 6.40228 5.81496 6.40228 6.205 6.79L9 9.585L9.795 8.79C10.185 8.40228 10.815 8.40228 11.205 8.79ZM9.5 7C10.3284 7 11 6.32843 11 5.5C11 4.67157 10.3284 4 9.5 4C8.67157 4 8 4.67157 8 5.5C8 6.32843 8.67157 7 9.5 7ZM10 5.5C10 5.22386 9.77614 5 9.5 5C9.22386 5 9 5.22386 9 5.5C9 5.77614 9.22386 6 9.5 6C9.77614 6 10 5.77614 10 5.5Z" fill="white"/>
</svg>
