<svg width="16" height="16" viewBox="0 0 16 16" fill="none" xmlns="http://www.w3.org/2000/svg">
<path fill-rule="evenodd" clip-rule="evenodd" d="M13 3H3L3 13H13V3ZM3 2C2.44772 2 2 2.44772 2 3V13C2 13.5523 2.44772 14 3 14H13C13.5523 14 14 13.5523 14 13V3C14 2.44772 13.5523 2 13 2H3Z" fill="white"/>
<path fill-rule="evenodd" clip-rule="evenodd" d="M4.97978 6.31311C5.17504 6.11785 5.49162 6.11785 5.68689 6.31311L8.69735 9.32358L10.3466 7.94922C10.5452 7.78367 10.8374 7.79692 11.0202 7.97978L13.6869 10.6464L12.9798 11.3536L10.636 9.00976L8.98676 10.3841C8.7881 10.5497 8.49597 10.5364 8.31311 10.3536L5.33333 7.37377L3.02022 9.68689L2.31311 8.97978L4.97978 6.31311Z" fill="white"/>
<path d="M10.6667 5.66667C10.6667 6.21895 10.219 6.66667 9.66667 6.66667C9.11438 6.66667 8.66667 6.21895 8.66667 5.66667C8.66667 5.11438 9.11438 4.66667 9.66667 4.66667C10.219 4.66667 10.6667 5.11438 10.6667 5.66667Z" fill="white"/>
</svg>
