<svg width="32" height="32" viewBox="0 0 32 32" fill="none" xmlns="http://www.w3.org/2000/svg">
    <path fill-rule="evenodd" clip-rule="evenodd" d="M18.286 16.98c1.324-1.712 2.38-3.94 2.38-6.24C20.667 8.103 18.557 6 16 6c-2.557 0-4.667 2.102-4.667 4.74 0 2.3 1.057 4.528 2.38 6.24.653.846 1.327 1.506 1.876 1.936.159.124.297.221.411.294.114-.073.253-.17.412-.294.548-.43 1.222-1.09 1.874-1.935zm-2.594 2.396zm.598-.006zM16 21.333c1.429 0 6.667-4.814 6.667-10.592C22.667 7.018 19.682 4 16 4s-6.667 3.018-6.667 6.74c0 5.778 5.238 10.593 6.667 10.593z" fill="#fff"/>
    <path d="M18 10.667a2 2 0 1 1-4 0 2 2 0 0 1 4 0z" fill="#fff"/>
    <path fill-rule="evenodd" clip-rule="evenodd" d="M7.6 12v2H6v12h20V14h-1.6v-2H26a2 2 0 0 1 2 2v12a2 2 0 0 1-2 2H6a2 2 0 0 1-2-2V14a2 2 0 0 1 2-2h1.6z" fill="#fff"/>
</svg>
