<svg width="32" height="32" viewBox="0 0 32 32" fill="none" xmlns="http://www.w3.org/2000/svg">
<path d="M26.8502 3.72608C27.2278 3.72608 27.59 3.87602 27.857 4.14303C28.124 4.41004 28.274 4.77227 28.274 5.14988V26.8502C28.2735 27.2276 28.1231 27.5893 27.8562 27.8562C27.5893 28.1231 27.2276 28.2735 26.8502 28.274H5.14988C4.77255 28.2731 4.4107 28.1226 4.14389 27.8557C3.87708 27.5889 3.727 27.2275 3.72608 26.8502V5.14988C3.72654 4.77241 3.87698 4.41037 4.14389 4.14346C4.41079 3.87655 4.77241 3.72654 5.14988 3.72608H26.8502ZM26.8502 1.97266H5.14988C4.30723 1.97266 3.49915 2.30704 2.90331 2.90288C2.30746 3.49872 1.97266 4.30723 1.97266 5.14988V26.8502C1.97266 27.6928 2.30746 28.5009 2.90331 29.0968C3.49915 29.6926 4.30723 30.0274 5.14988 30.0274H26.8502C27.6928 30.0274 28.5009 29.6926 29.0968 29.0968C29.6926 28.5009 30.0274 27.6928 30.0274 26.8502V5.14988C30.0274 4.30723 29.6926 3.49872 29.0968 2.90288C28.5009 2.30704 27.6928 1.97266 26.8502 1.97266Z" fill="white"/>
<path d="M17.9986 9.19824H7.45703V10.9517H17.9986V9.19824Z" fill="white"/>
<path d="M17.9986 21.0479H7.45703V22.8013H17.9986V21.0479Z" fill="white"/>
<path d="M22.4365 14.9863H7.45703V16.7397H22.4365V14.9863Z" fill="white"/>
</svg>
