<svg width="32" height="32" viewBox="0 0 32 32" fill="none" xmlns="http://www.w3.org/2000/svg">
<path fill-rule="evenodd" clip-rule="evenodd" d="M24.6666 4.66667H7.33331V27.3333H24.6666V4.66667ZM7.33331 2.66667C6.22874 2.66667 5.33331 3.5621 5.33331 4.66667V27.3333C5.33331 28.4379 6.22874 29.3333 7.33331 29.3333H24.6666C25.7712 29.3333 26.6666 28.4379 26.6666 27.3333V4.66667C26.6666 3.5621 25.7712 2.66667 24.6666 2.66667H7.33331Z" fill="white"/>
<path fill-rule="evenodd" clip-rule="evenodd" d="M10.3333 16C10.3333 15.4477 10.781 15 11.3333 15H20.6666C21.2189 15 21.6666 15.4477 21.6666 16C21.6666 16.5523 21.2189 17 20.6666 17H11.3333C10.781 17 10.3333 16.5523 10.3333 16Z" fill="white"/>
<path fill-rule="evenodd" clip-rule="evenodd" d="M10.3333 10.6667C10.3333 10.1144 10.781 9.66667 11.3333 9.66667L18 9.66667C18.5523 9.66667 19 10.1144 19 10.6667C19 11.219 18.5523 11.6667 18 11.6667L11.3333 11.6667C10.781 11.6667 10.3333 11.219 10.3333 10.6667Z" fill="white"/>
<path fill-rule="evenodd" clip-rule="evenodd" d="M10.3333 21.3333C10.3333 20.7811 10.781 20.3333 11.3333 20.3333L18 20.3333C18.5523 20.3333 19 20.7811 19 21.3333C19 21.8856 18.5523 22.3333 18 22.3333L11.3333 22.3333C10.781 22.3333 10.3333 21.8856 10.3333 21.3333Z" fill="white"/>
</svg>
