<svg width="16" height="16" viewBox="0 0 16 16" fill="none" xmlns="http://www.w3.org/2000/svg">
<path d="M8.24506 1.69336C8.56375 1.69336 9.01342 1.84229 9.01342 2.17453V14.3915H2.53012V2.17277C2.53012 1.92268 2.59536 1.6916 3.06573 1.6916H8.24506V1.69336ZM8.24506 0.788777H3.06661C2.87814 0.771855 2.68835 0.795619 2.50984 0.858428C2.33134 0.921238 2.16834 1.02169 2.03198 1.1529C1.89563 1.28412 1.78905 1.44312 1.71943 1.61908C1.64982 1.79505 1.61851 1.98378 1.62818 2.17277V15.2926H9.91713V2.17277C9.89973 1.97161 9.84245 1.77588 9.74873 1.59704C9.65501 1.4182 9.52688 1.25987 9.37138 1.13108C9.21588 1.00229 9.03599 0.905728 8.84282 0.846967C8.64965 0.788206 8.44682 0.768397 8.24594 0.788777H8.24506Z" fill="white"/>
<path d="M12.6367 15.0697C12.5699 15.0697 12.5229 15.0696 12.5058 15.0642H12.4939C12.2755 15.0697 12.0582 15.0303 11.8556 14.9487C11.6529 14.867 11.4691 14.7446 11.3155 14.5892C10.9858 14.2124 10.81 13.7255 10.8227 13.225V9.18038C10.8068 8.94281 10.7041 8.71958 10.5339 8.55308C10.3971 8.45535 10.235 8.39871 10.0671 8.38975C9.89919 8.3808 9.73217 8.41977 9.58571 8.50239L9.15723 7.70801C9.46555 7.53035 9.82107 7.4518 10.1755 7.48296C10.53 7.51413 10.8662 7.6534 11.1388 7.88214C11.3175 8.04904 11.4612 8.24979 11.562 8.47263C11.6627 8.69546 11.7183 8.93595 11.7255 9.18038V13.2431C11.7186 13.5051 11.805 13.7611 11.9693 13.9654C12.0456 14.0356 12.1358 14.0893 12.2338 14.1232C12.3318 14.1571 12.4355 14.1703 12.5388 14.1622C12.8027 14.1876 13.067 14.1152 13.2812 13.959C13.3491 13.8871 13.4009 13.8018 13.4333 13.7084C13.4657 13.615 13.4778 13.5159 13.469 13.4174V4.26997L11.3393 1.86766L12.0147 1.26813L14.3718 3.92788V13.4174C14.3821 13.6414 14.344 13.865 14.2607 14.0732C14.1774 14.2814 14.0506 14.4693 13.8887 14.6244C13.5386 14.919 13.0941 15.0772 12.6367 15.0697Z" fill="white"/>
<path d="M13.065 6.50626C12.8136 6.50766 12.5651 6.456 12.335 6.35462C11.8499 6.12123 11.4768 5.70501 11.2982 5.19721C10.7465 3.89625 12.5624 2.58537 12.7719 2.44092L13.2872 3.18107C12.8177 3.5097 11.9203 4.35481 12.1424 4.88026C12.2423 5.16106 12.4444 5.39377 12.7084 5.53203C12.8779 5.58913 13.0574 5.6106 13.2356 5.59506C13.4138 5.57953 13.5868 5.52745 13.7439 5.44188L14.1054 6.26711C13.779 6.41797 13.4245 6.49934 13.065 6.50626Z" fill="white"/>
</svg>
