<svg width="20" height="20" viewBox="0 0 20 20" fill="none" xmlns="http://www.w3.org/2000/svg">
<path fill-rule="evenodd" clip-rule="evenodd" d="M9.99999 4.125L11.75 7.625L12 8.25L12.625 8.375L16.5 8.875L13.75 11.5L13.25 12L13.375 12.625L14 16.5L10.5 14.75L9.99999 14.375L9.37499 14.625L5.87499 16.375L6.49999 12.5L6.62499 11.875L6.24999 11.5L3.49999 8.75L7.37499 8.25L7.99999 8.125L8.24999 7.5L9.99999 4.125ZM10 1.25L7.125 7L0.75 7.875L5.375 12.375L4.375 18.75L10 15.75L15.75 18.75L14.625 12.375L19.25 7.875L12.875 7L10 1.25Z" fill="white"/>
</svg>
