<svg width="16" height="16" viewBox="0 0 16 16" fill="none" xmlns="http://www.w3.org/2000/svg">
<path fill-rule="evenodd" clip-rule="evenodd" d="M5.80502 14.96C5.59454 14.8712 5.47105 14.6509 5.50502 14.425L6.41502 8.5H4.00002C3.84485 8.50417 3.69654 8.43604 3.59862 8.31559C3.50069 8.19515 3.46427 8.03605 3.50002 7.885L5.00002 1.385C5.05443 1.15441 5.26319 0.993666 5.50002 0.999998H10.5C10.6513 0.999483 10.7947 1.0675 10.89 1.185C10.9867 1.30386 11.0236 1.46049 10.99 1.61L10.125 5.5H12.5C12.6912 5.49962 12.8659 5.6083 12.95 5.78C13.023 5.94442 13.002 6.13536 12.895 6.28L6.39502 14.78C6.30593 14.9121 6.15922 14.9938 6.00002 15C5.93312 14.9987 5.86702 14.9852 5.80502 14.96ZM8.87502 6.5L9.87502 2H5.90002L4.63002 7.5H7.58502L6.79002 12.64L11.5 6.5H8.87502Z" fill="white"/>
</svg>
