<svg width="24" height="24" viewBox="0 0 24 24" fill="none" xmlns="http://www.w3.org/2000/svg">
<path fill-rule="evenodd" clip-rule="evenodd" d="M12 4.39933L10.1791 8.10236C9.81568 8.84148 9.1115 9.35416 8.29647 9.47303L4.21509 10.0683L7.1743 12.9634C7.76092 13.5373 8.02851 14.3625 7.89027 15.1715L7.19273 19.2534L10.8333 17.3324C11.5634 16.9471 12.4366 16.9471 13.1667 17.3324L16.8073 19.2534L16.1097 15.1715C15.9715 14.3625 16.2391 13.5373 16.8257 12.9634L19.7849 10.0683L15.7035 9.47303C14.8885 9.35416 14.1843 8.84148 13.8209 8.10236L12 4.39933ZM12.8974 2.82496C12.531 2.07998 11.4689 2.07997 11.1026 2.82496L8.83306 7.44046C8.68768 7.73611 8.40601 7.94118 8.08 7.98873L2.99908 8.72974C2.18 8.8492 1.85239 9.85522 2.44407 10.4341L6.12531 14.0356C6.35996 14.2651 6.467 14.5952 6.4117 14.9188L5.54332 20.0005C5.40364 20.8179 6.26229 21.4403 6.99571 21.0533L11.5333 18.659C11.8254 18.5049 12.1746 18.5049 12.4667 18.659L17.0043 21.0533C17.7377 21.4403 18.5964 20.8179 18.4567 20.0005L17.5883 14.9188C17.533 14.5952 17.64 14.2651 17.8747 14.0356L21.5559 10.4341C22.1476 9.85522 21.82 8.84919 21.0009 8.72974L15.92 7.98873C15.594 7.94118 15.3123 7.73611 15.1669 7.44046L12.8974 2.82496Z" fill="white"/>
</svg>
