<svg width="24" height="24" viewBox="0 0 24 24" fill="none" xmlns="http://www.w3.org/2000/svg">
<path fill-rule="evenodd" clip-rule="evenodd" d="M12.0001 4.95L14.1001 9.15L14.4001 9.9L15.1501 10.05L19.8001 10.65L16.5001 13.8L15.9001 14.4L16.0501 15.15L16.8001 19.8L12.6001 17.7L12.0001 17.25L11.2501 17.55L7.05012 19.65L7.80012 15L7.95012 14.25L7.50012 13.8L4.20012 10.5L8.85012 9.9L9.60012 9.75L9.90012 9L12.0001 4.95ZM12.0001 1.5L8.55015 8.4L0.900146 9.45L6.45015 14.85L5.25015 22.5L12.0001 18.9L18.9001 22.5L17.5501 14.85L23.1001 9.45L15.4501 8.4L12.0001 1.5Z" fill="white"/>
</svg>
