<svg width="16" height="16" viewBox="0 0 16 16" fill="none" xmlns="http://www.w3.org/2000/svg">
    <path fill-rule="evenodd" clip-rule="evenodd" d="M9.143 8.49c.662-.856 1.19-1.97 1.19-3.12C10.333 4.05 9.278 3 8 3 6.722 3 5.667 4.05 5.667 5.37c0 1.15.528 2.264 1.19 3.12.326.423.663.753.937.968.08.062.149.11.206.147.057-.036.126-.085.206-.147.274-.215.61-.545.937-.968zM7.846 9.688l.01-.003a.052.052 0 0 1-.01.003zm.299-.003a.056.056 0 0 1 .009.003l-.01-.003zM8 10.667c.714 0 3.333-2.408 3.333-5.297C11.333 3.51 9.841 2 8 2 6.159 2 4.667 3.509 4.667 5.37c0 2.89 2.619 5.297 3.333 5.297z" fill="#fff"/>
    <path d="M9 5.333a1 1 0 1 1-2 0 1 1 0 0 1 2 0z" fill="#fff"/>
    <path fill-rule="evenodd" clip-rule="evenodd" d="M3.8 6v1H3v6h10V7h-.8V6h.8a1 1 0 0 1 1 1v6a1 1 0 0 1-1 1H3a1 1 0 0 1-1-1V7a1 1 0 0 1 1-1h.8z" fill="#fff"/>
</svg>
