<svg width="24" height="24" viewBox="0 0 24 24" fill="none" xmlns="http://www.w3.org/2000/svg">
    <path fill-rule="evenodd" clip-rule="evenodd" d="M15.69 4.118a2.964 2.964 0 0 1 4.192 4.192l-8.22 8.22a.75.75 0 0 1-.53.22H8a.75.75 0 0 1-.75-.75v-3.131a.75.75 0 0 1 .22-.53l8.22-8.22zm2.096.632c-.389 0-.761.154-1.036.429l-.256.256.036.035 2 2a.795.795 0 0 1 .035.036l.256-.256a1.464 1.464 0 0 0-1.035-2.5zm-.28 3.815a.801.801 0 0 1-.036-.035l-2-2a.795.795 0 0 1-.035-.036L8.75 13.179v2.071h2.07l6.686-6.685z" fill="#fff"/>
    <path d="M5.5 5.75a.75.75 0 0 0-.75.75v12c0 .414.336.75.75.75h12a.75.75 0 0 0 .75-.75v-4.27a.75.75 0 0 1 1.5 0v4.27a2.25 2.25 0 0 1-2.25 2.25h-12a2.25 2.25 0 0 1-2.25-2.25v-12A2.25 2.25 0 0 1 5.5 4.25h4.27a.75.75 0 0 1 0 1.5H5.5z" fill="#fff"/>
</svg>
