<svg width="16" height="16" viewBox="0 0 16 16" fill="none" xmlns="http://www.w3.org/2000/svg">
<path fill-rule="evenodd" clip-rule="evenodd" d="M1 8C1 4.1 4.1 1 8 1C11.9 1 15 4.1 15 8C15 11.9 11.9 15 8 15C4.1 15 1 11.9 1 8ZM2 8C2 11.3 4.7 14 8 14C11.3 14 14 11.3 14 8C14 4.7 11.3 2 8 2C4.7 2 2 4.7 2 8Z" fill="white"/>
<path d="M7.15994 5.49638L7.10994 4.10638H8.58994L8.53994 5.49638L8.32994 9.18638H7.36994L7.15994 5.49638ZM7.84994 11.8464C7.58994 11.8464 7.37327 11.7564 7.19994 11.5764C7.02661 11.3897 6.93994 11.1597 6.93994 10.8864C6.93994 10.6131 7.02661 10.3864 7.19994 10.2064C7.37327 10.0197 7.58994 9.92638 7.84994 9.92638C8.10994 9.92638 8.32661 10.0197 8.49994 10.2064C8.67994 10.3864 8.76994 10.6131 8.76994 10.8864C8.76994 11.1597 8.67994 11.3897 8.49994 11.5764C8.32661 11.7564 8.10994 11.8464 7.84994 11.8464Z" fill="white"/>
</svg>
