<svg width="16" height="16" viewBox="0 0 16 16" fill="none" xmlns="http://www.w3.org/2000/svg">
<path d="M0.850342 7.10837C0.851051 6.33396 1.15913 5.59129 1.70656 5.04352C2.25399 4.49576 2.99612 4.18762 3.77054 4.18644H6.80762L14.5223 2.09258C14.5884 2.07465 14.6579 2.07199 14.7251 2.08516C14.7923 2.09833 14.8556 2.12693 14.91 2.16847C14.9655 2.21007 15.0103 2.26391 15.0413 2.32593C15.0723 2.38795 15.0884 2.45636 15.0884 2.5257V11.6935C15.0884 11.8119 15.0418 11.9255 14.958 12.0092C14.8742 12.093 14.7602 12.1401 14.6418 12.1401C14.6025 12.1402 14.5635 12.135 14.5258 12.1242L6.81067 10.0292H6.49052L7.54912 13.9232H4.5068L3.43468 9.99282C2.72546 9.91187 2.07079 9.57337 1.59446 9.04172C1.11812 8.51007 0.853177 7.82222 0.850342 7.10837ZM14.1908 3.10908L7.18667 5.01081V9.20922L14.1908 11.1112V3.10908ZM5.18375 13.0244H6.37537L5.56062 10.024H4.36897L5.18375 13.0244ZM3.83771 9.13072H6.29337V5.07689H3.81983L3.77054 4.63025V5.07689C3.50425 5.08129 3.24154 5.13819 2.9972 5.24416C2.75286 5.35013 2.53161 5.50311 2.34643 5.69451C2.16124 5.88592 2.01594 6.11198 1.9181 6.35968C1.82026 6.60739 1.77195 6.87197 1.77635 7.13827C1.78074 7.40452 1.83743 7.66727 1.9434 7.91157C2.04937 8.15592 2.20256 8.37697 2.39397 8.56217C2.58537 8.74732 2.81143 8.89307 3.05914 8.99092C3.30684 9.08877 3.57142 9.13687 3.83771 9.13247V9.13072Z" fill="white"/>
</svg>
