<svg width="24" height="24" viewBox="0 0 24 24" fill="none" xmlns="http://www.w3.org/2000/svg">
<path d="M8.60704 3.28242C7.8181 3.19827 7.02028 3.27836 6.26381 3.51764C5.50734 3.75692 4.80861 4.15021 4.21163 4.67276C3.61464 5.1953 3.13232 5.83577 2.79505 6.55386C2.45779 7.27194 2.27289 8.05207 2.25199 8.84512C2.2311 9.63817 2.37467 10.427 2.67365 11.1618C2.97221 11.8956 3.41929 12.5597 3.98678 13.1125L11.6144 20.6655C11.8326 20.8815 12.1841 20.8816 12.4024 20.6656L20.0299 13.1184C20.5942 12.5643 21.0381 11.8996 21.3336 11.1661C21.6292 10.4325 21.7702 9.64584 21.7477 8.85531C21.7252 8.06478 21.5397 7.2874 21.2029 6.57184C20.8661 5.85628 20.3852 5.21793 19.7903 4.69675C19.1954 4.17556 18.4994 3.78277 17.7457 3.54293C16.992 3.30309 16.1969 3.22137 15.4102 3.30289C14.6234 3.3844 13.862 3.62739 13.1735 4.01666C12.75 4.25608 12.3598 4.54767 12.0115 4.88375C11.6633 4.54403 11.2725 4.24902 10.8479 4.00656C10.159 3.61312 9.39598 3.36656 8.60704 3.28242Z" fill="white"/>
</svg>
