<svg width="32" height="32" viewBox="0 0 32 32" fill="none" xmlns="http://www.w3.org/2000/svg">
    <path fill-rule="evenodd" clip-rule="evenodd" d="M11.333 20a2.667 2.667 0 1 0 0 5.333 2.667 2.667 0 0 0 0-5.333zm-4.666 2.667a4.667 4.667 0 1 1 9.333 0 4.667 4.667 0 0 1-9.333 0z" fill="#fff"/>
    <path fill-rule="evenodd" clip-rule="evenodd" d="M29 22.667a1 1 0 0 1-1 1H16a1 1 0 1 1 0-2h12a1 1 0 0 1 1 1zM7.667 22.667a1 1 0 0 1-1 1H3.333a1 1 0 1 1 0-2h3.334a1 1 0 0 1 1 1zM20.667 12a2.667 2.667 0 1 0 0-5.333 2.667 2.667 0 0 0 0 5.333zm4.666-2.667a4.667 4.667 0 1 1-9.333 0 4.667 4.667 0 0 1 9.333 0z" fill="#fff"/>
    <path fill-rule="evenodd" clip-rule="evenodd" d="M3 9.333a1 1 0 0 1 1-1h12a1 1 0 1 1 0 2H4a1 1 0 0 1-1-1zM23.667 9.333a1 1 0 0 1 1-1H28a1 1 0 1 1 0 2h-3.333a1 1 0 0 1-1-1z" fill="#fff"/>
</svg>
