<svg width="24" height="24" viewBox="0 0 24 24" fill="none" xmlns="http://www.w3.org/2000/svg">
<path d="M22.005 10.455L16.2075 8.37L13.7775 5.325C13.5666 5.06729 13.3011 4.85961 13.0002 4.71695C12.6993 4.57428 12.3705 4.50018 12.0375 4.5H6.0375C5.67148 4.50189 5.31145 4.59305 4.98864 4.76557C4.66582 4.93808 4.38997 5.18675 4.185 5.49L2.1525 8.49C1.73146 9.10695 1.50425 9.83558 1.5 10.5825V16.5C1.5 16.6989 1.57902 16.8897 1.71967 17.0303C1.86032 17.171 2.05109 17.25 2.25 17.25H3.855C4.02771 17.8855 4.40475 18.4466 4.92795 18.8465C5.45114 19.2465 6.09142 19.4632 6.75 19.4632C7.40858 19.4632 8.04886 19.2465 8.57205 18.8465C9.09525 18.4466 9.47229 17.8855 9.645 17.25H14.355C14.5277 17.8855 14.9048 18.4466 15.4279 18.8465C15.9511 19.2465 16.5914 19.4632 17.25 19.4632C17.9086 19.4632 18.5489 19.2465 19.0721 18.8465C19.5952 18.4466 19.9723 17.8855 20.145 17.25H21.75C21.9489 17.25 22.1397 17.171 22.2803 17.0303C22.421 16.8897 22.5 16.6989 22.5 16.5V11.16C22.4999 11.0059 22.4524 10.8555 22.3638 10.7293C22.2752 10.6032 22.15 10.5074 22.005 10.455ZM6.75 18C6.45333 18 6.16332 17.912 5.91664 17.7472C5.66997 17.5824 5.47771 17.3481 5.36418 17.074C5.25065 16.7999 5.22094 16.4983 5.27882 16.2074C5.3367 15.9164 5.47956 15.6491 5.68934 15.4393C5.89912 15.2296 6.16639 15.0867 6.45736 15.0288C6.74834 14.9709 7.04994 15.0006 7.32402 15.1142C7.59811 15.2277 7.83238 15.42 7.9972 15.6666C8.16203 15.9133 8.25 16.2033 8.25 16.5C8.25 16.8978 8.09196 17.2794 7.81066 17.5607C7.52936 17.842 7.14782 18 6.75 18ZM17.25 18C16.9533 18 16.6633 17.912 16.4166 17.7472C16.17 17.5824 15.9777 17.3481 15.8642 17.074C15.7506 16.7999 15.7209 16.4983 15.7788 16.2074C15.8367 15.9164 15.9796 15.6491 16.1893 15.4393C16.3991 15.2296 16.6664 15.0867 16.9574 15.0288C17.2483 14.9709 17.5499 15.0006 17.824 15.1142C18.0981 15.2277 18.3324 15.42 18.4972 15.6666C18.662 15.9133 18.75 16.2033 18.75 16.5C18.75 16.8978 18.592 17.2794 18.3107 17.5607C18.0294 17.842 17.6478 18 17.25 18ZM21 15.75H20.145C19.9723 15.1145 19.5952 14.5534 19.0721 14.1534C18.5489 13.7535 17.9086 13.5367 17.25 13.5367C16.5914 13.5367 15.9511 13.7535 15.4279 14.1534C14.9048 14.5534 14.5277 15.1145 14.355 15.75H9.645C9.47229 15.1145 9.09525 14.5534 8.57205 14.1534C8.04886 13.7535 7.40858 13.5367 6.75 13.5367C6.09142 13.5367 5.45114 13.7535 4.92795 14.1534C4.40475 14.5534 4.02771 15.1145 3.855 15.75H3V10.5825C2.99971 10.1304 3.13561 9.68872 3.39 9.315L5.4225 6.315C5.49297 6.21599 5.58645 6.13558 5.69489 6.08071C5.80333 6.02584 5.92348 5.99814 6.045 6H12.045C12.1552 5.99982 12.2641 6.02392 12.3639 6.07059C12.4637 6.11725 12.552 6.18534 12.6225 6.27L15.1725 9.4725C15.2604 9.57911 15.374 9.66168 15.5025 9.7125L21 11.685V15.75Z" fill="white"/>
<path fill-rule="evenodd" clip-rule="evenodd" d="M11.416 6.87596C11.7607 7.10572 11.8538 7.57137 11.624 7.91602L10.4014 9.75H12C12.2766 9.75 12.5307 9.90223 12.6613 10.1461C12.7918 10.39 12.7775 10.6859 12.624 10.916L10.624 13.916C10.3943 14.2607 9.92862 14.3538 9.58398 14.124C9.23933 13.8943 9.1462 13.4286 9.37596 13.084L10.5986 11.25H9C8.7234 11.25 8.46926 11.0978 8.33875 10.8539C8.20823 10.61 8.22254 10.3141 8.37596 10.084L10.376 7.08397C10.6057 6.73932 11.0714 6.64619 11.416 6.87596Z" fill="white"/>
</svg>
